/* XPM */
static char *____svg[] = {
/* columns rows colors chars-per-pixel */
"24 24 159 2 ",
"   c #34A9378E384B",
".  c #1CA14C5D10C0",
"X  c #1E2D5C531E2D",
"o  c #2F495F0715D1",
"O  c #0C696A000C69",
"+  c #09DE722F0A99",
"@  c #167D656516CC",
"#  c #1F13627C1CDF",
"$  c #1182797C118E",
"%  c #151E713E17F9",
"&  c #19D375351B68",
"*  c #1C15796D1C15",
"=  c #2B7D64AC1BAF",
"-  c #30F2612116B2",
";  c #319B61A2188E",
":  c #327E6C1C1E16",
">  c #24EF45B524EF",
",  c #26154C14260E",
"<  c #2C2343F82AFA",
"1  c #2AC149B42AAF",
"2  c #26045E05265F",
"3  c #2B6A578C2B64",
"4  c #356646C03566",
"5  c #3B624E113B62",
"6  c #328E54F6328E",
"7  c #3B2B55D53B2B",
"8  c #377D5DC23827",
"9  c #1DA76E3220C1",
"0  c #28C36DC12B7E",
"q  c #2EFD724E2246",
"w  c #23127FA92724",
"e  c #2AC370462F2D",
"r  c #2B087AB72B3C",
"t  c #318074ED24A3",
"y  c #3540605E3541",
"u  c #35DA710C3AC2",
"i  c #3A3873023A2F",
"p  c #487352A12289",
"a  c #4C8255D52E70",
"s  c #53F161733BB0",
"d  c #3F2F676842E8",
"f  c #42584D2742B3",
"g  c #48DE4E3245FB",
"h  c #46A84AAD49B7",
"j  c #4A154E3A4BFB",
"k  c #43A952F843A4",
"l  c #46815B2F452A",
"z  c #4D535EEA4524",
"x  c #4E1856C6553E",
"c  c #53A159C753A1",
"v  c #54305F9E5A2E",
"b  c #475566634785",
"n  c #50B562554868",
"m  c #4E197DB94F1F",
"M  c #4E4067D6528A",
"N  c #597861BB598A",
"B  c #58906C5F5890",
"V  c #61886F83425C",
"C  c #5E3365C267D0",
"Z  c #5AF664CE686A",
"A  c #5B79709D6238",
"S  c #633267166332",
"D  c #63A96F086FE4",
"F  c #6B736D956C3D",
"G  c #698D77B6758F",
"H  c #67BA797A71D7",
"J  c #728C750F72AF",
"K  c #76FF7B5D76E8",
"L  c #0E2B85800E20",
"P  c #0FED874D0FE9",
"I  c #11B2894A11B2",
"U  c #1A3782231A2B",
"Y  c #222F8A4E222F",
"T  c #2558825C29E0",
"R  c #2BED86532BE6",
"E  c #313B8BD0313C",
"W  c #355486F43A84",
"Q  c #398784E63987",
"!  c #3EC68DDD3EC6",
"~  c #52028BD9266E",
"^  c #55B78F9A28EB",
"/  c #79FD85A426AC",
"(  c #7AAA86312A29",
")  c #415587BB4717",
"_  c #471A8B6F473A",
"`  c #43198938489A",
"'  c #499E8C42499D",
"]  c #4DE491494DE4",
"[  c #4EF28B6D55B3",
"{  c #53DE87F353E0",
"}  c #51868C7A55C6",
"|  c #5B68940F5B68",
" . c #5C138F446379",
".. c #5F8891A5651A",
"X. c #62DD92D36545",
"o. c #6BA492F56C4D",
"O. c #6B199A696B1A",
"+. c #740A83B474CE",
"@. c #7F08826C7F09",
"#. c #7B4B882B7B3A",
"$. c #6BB495807286",
"%. c #771696127716",
"&. c #74959B39762F",
"*. c #757A99177E5D",
"=. c #791C9E0D7961",
"-. c #9DC8AC155B38",
";. c #A5F3B4626269",
":. c #7AB79D5D813D",
">. c #841686638419",
",. c #871B8A83871A",
"<. c #89048D7B83F0",
"1. c #8D4D8E538D73",
"2. c #8BDE910B854A",
"3. c #849D9D7C8519",
"4. c #8E7D907F8E7D",
"5. c #83B19F138AC8",
"6. c #894B943698E3",
"7. c #91839306919B",
"8. c #95489DB993DB",
"9. c #85BDA5188682",
"0. c #878DA34A8F06",
"q. c #8A00A66B8A08",
"w. c #8B25AA208B21",
"e. c #8D56A6E29164",
"r. c #8F37A8EF93AE",
"t. c #8DD8A58C991E",
"y. c #942EA4D5942E",
"u. c #95A2AC4C95A4",
"i. c #960BAAFE9E35",
"p. c #948EA12EA2EB",
"a. c #9A6AAE06A6BB",
"s. c #9DB6ADC0AC32",
"d. c #9EDDB146A91C",
"f. c #AA2AABE4AA2A",
"g. c #A494B63DA494",
"h. c #A741B903A742",
"j. c #AC51B3AFAC51",
"k. c #A21FAF93B646",
"l. c #A651B61EB450",
"z. c #AF08BD0ABFCA",
"x. c #B613B73CB613",
"c. c #B410BB97B42E",
"v. c #BACCBF1BBACC",
"b. c #B476C15EB476",
"n. c #BB3FC37BBB3B",
"m. c #AFA1BE38C1A3",
"M. c #C167C545C15F",
"N. c #C325C998C325",
"B. c #CE5AD358CE58",
"V. c #D12ED47ED122",
"C. c #D826D8C4D826",
"Z. c #DC0CDADDDC0C",
"A. c #DEDCE102DEDC",
"S. c #E03CE2B4E06D",
"D. c #E250E402E295",
"F. c #EDA9EE95EDA9",
"G. c #F033F117F033",
"H. c #F42DF4B1F42C",
"J. c #FFEEFFEEFFEE",
/* pixels */
"J.J.J.J.J.J.J.J.N.c 4 4 a f f S D.J.J.J.J.J.J.J.",
"J.J.H.x.f.f.f.f.S 6 X.&.:.e.y.j @.f.f.f.x.H.J.J.",
"J.J.D., @ # 2 y 8 { O.=.q.u.j.8.K #.,.4.S Z.J.J.",
"J.J.Z.2 I U E ) _ ] X.&.q.u.u.a.c.B.A.G.7.C.J.J.",
"J.J.Z.X I Y E r X q o o.q.q.l s a 8.Z.F.1.C.J.J.",
"J.J.Z.X I Y R r q ~ o o.9.3.z -./ <.A.G.1.C.J.J.",
"J.J.Z.X I Y E r : ^ - o.q.3.n ;./ <.A.F.4.Z.J.J.",
"J.J.Z.X I Y E r t ^ - o.q.3.z ;./ 2.S.F.1.C.J.J.",
"J.J.Z.X I Y W r t ^ ; $.w.9.n ;.( <.D.H.1.C.J.J.",
"J.J.Z.X P $ & @ X : . y b l 4 V p g K 1.>.C.J.J.",
"J.J.Z.X L + % 9 e u d d b M A H G D Z   J Z.J.J.",
"J.J.Z.X L + T W ` } X.&.9.r.i.d.l.m.k.j K C.J.J.",
"J.J.Z.X P + w W ` } ..$.:.e.i.d.l.m.6.F ,.C.J.J.",
"J.J.Z.X I $ & W ` [ ..$.:.e.i.a.l.z.C 7.7.C.J.J.",
"J.J.Z.X I U % r ` [  .$.:.5.t.a.l.p.h B.7.C.J.J.",
"J.J.Z.X I Y % 9 ` [  .$.:.:.t.a.s.x >.F.4.C.J.J.",
"J.J.Z.X I Y R @ 0 [ ..$.:.0.i.i.N v V.G.4.C.J.J.",
"J.J.Z.X I Y E Q = 2 m o.*.3.+.k N M.A.F.4.C.J.J.",
"J.J.Z.X I Y E ! ' i 2 , 1 < k #.n.B.A.F.4.C.J.J.",
"J.J.Z.X I Y E ! ] | X.o.%.3.a.b.N.B.A.F.1.C.J.J.",
"J.J.C.X I Y E ! ] | O.=.9.u.g.b.N.V.Z.F.4.C.J.J.",
"J.J.Z.2 I Y E ! [ | O.=.9.u.g.c.N.V.S.H.4.C.J.J.",
"J.J.D.3 O * r Q ` | O.*.9.u.a.h.c.n.M.f.F D.J.J.",
"J.J.J.v.+.B 7 , > , 1 5 a k g g g c J >.v.H.J.J."
};
