/* XPM */
static char *___svg[] = {
/* columns rows colors chars-per-pixel */
"24 24 135 2 ",
"   c #38E93AD13C7A",
".  c #5C8B5EFD308E",
"X  c #60FE626C3E0D",
"o  c #4CBF4D614220",
"O  c #4C124C6047DD",
"+  c #58F4592E46E5",
"@  c #5C165CDB4950",
"#  c #4E034FBF5166",
"$  c #4EF85111530F",
"%  c #554855B951FB",
"&  c #5DB55E575F4A",
"*  c #722872B554A1",
"=  c #7D6E7F54507D",
"-  c #5C6160BB6483",
";  c #6A4E6A8568DF",
":  c #74A075636385",
">  c #75AA75B46B78",
",  c #7B347BBC6CDC",
"<  c #646D6C5B72D4",
"1  c #69CF6E767283",
"2  c #72DA72E97341",
"3  c #78B3796B723B",
"4  c #7CA27CF67E08",
"5  c #8FEB93F431DE",
"6  c #96959AC635D2",
"7  c #98839C863BBC",
"8  c #ACE4ACEB2CF8",
"9  c #BCEFBCC82667",
"0  c #B18DB17A2D6C",
"q  c #AAF4AB1A32C8",
"w  c #AA38A9D93D08",
"e  c #B567B540338C",
"r  c #B7BBB7A23F3A",
"t  c #EF4CECB70DF3",
"y  c #EC82EA011AF8",
"u  c #FFFFFEDF1122",
"i  c #F913F63E1CE1",
"p  c #E9E2E78C281E",
"a  c #FEB2FBC2207F",
"s  c #FC93FA6C2CF8",
"d  c #E83CE6C233A3",
"f  c #E5F4E4793DD6",
"g  c #FB19F9103966",
"h  c #8194837153E1",
"j  c #821F838E5D10",
"k  c #8AC88B705B28",
"l  c #94B8956F53AE",
"z  c #A9CDA961440F",
"x  c #A1DEA21E4BC9",
"c  c #848385A46355",
"v  c #828A83126CE7",
"b  c #87FB88ED6A2C",
"n  c #957C97316F4B",
"m  c #817281B277D4",
"M  c #B889B8DA6ABF",
"N  c #D378D1EF5C86",
"B  c #DC80DAF35922",
"V  c #E466E2DD4888",
"C  c #F7E8F5E645B7",
"Z  c #F8AAF69D4513",
"A  c #E3EBE264544F",
"S  c #F63AF4305141",
"D  c #F472F2685D9A",
"F  c #CAB9C9F965B6",
"G  c #C23DC19A72F5",
"H  c #CB46CD157B25",
"J  c #F141EF5B6962",
"K  c #F30BF11D6A34",
"L  c #EB3AEA15770C",
"P  c #73887AEC8188",
"I  c #8351843C8553",
"U  c #84A086CD88F2",
"Y  c #863389958CDD",
"T  c #8C1F8CC48BDB",
"R  c #8FFD914C8C49",
"E  c #829389799116",
"W  c #8D828F6E9157",
"Q  c #8D2691D396C4",
"!  c #94AC94EC951F",
"~  c #9CE69D519567",
"^  c #92F2963A994A",
"/  c #9D659D809CA7",
"(  c #A02DA00F9FF4",
")  c #9EE6A02A9E22",
"_  c #A076A10B86C0",
"`  c #A491A51D8B8D",
"'  c #9A799F4CA42C",
"]  c #A3CBA402A455",
"[  c #A1A2A620A9E1",
"{  c #AB1BAB28AA8A",
"}  c #B939B9C5A1D5",
"|  c #AAC8B383BB24",
" . c #B6A0B6ABB6C3",
".. c #B7B0B86CB33D",
"X. c #B81FB81AB8E4",
"o. c #B93FB93BB954",
"O. c #C202C17A862D",
"+. c #D429D616819E",
"@. c #D7C4DA3A8590",
"#. c #DF37DE308462",
"$. c #DABBDD458A4B",
"%. c #C351C35C984F",
"&. c #CF66CF249E3F",
"*. c #D05CD01B9F0D",
"=. c #D527D43F9085",
"-. c #C0DAC0C6A3E6",
";. c #C5FFC695ACD8",
":. c #C7C7C862AC99",
">. c #CD22CCF5ACD6",
",. c #C370C3BFBC57",
"<. c #D0D1D122B163",
"1. c #D29CD237BDEE",
"2. c #B12BBCFBC715",
"3. c #BF3EC70FCDC0",
"4. c #C4D3C513C421",
"5. c #C9FFCA23C05A",
"6. c #C3C3C9BDCF0D",
"7. c #CC7FCCA8CD38",
"8. c #DAAADA85CF89",
"9. c #C6B2CE21D49E",
"0. c #C991CFABD552",
"q. c #CCBBD280D772",
"w. c #C7F2D29EDBE8",
"e. c #CCA5D3CDDA05",
"r. c #D3F1D40ED3E6",
"t. c #D26FD746DBE0",
"y. c #D714D9B7DC43",
"u. c #DD49DDABDE0F",
"i. c #E351E355E350",
"p. c #E9B5E9E1E5F1",
"a. c #EA20EA22EA10",
"s. c #EF57EF55F0F6",
"d. c #F281F27EF2B7",
"f. c #F808F7FBF886",
"g. c #FEF3FEF3FEF7",
/* pixels */
"g.g.g.g.g.g.g.g.i.! / / ( / / ! a.g.g.g.g.g.g.g.",
"g.g.f.y.7.7.7.7.] { u.i.i.i.i.( { r.7.r.r.f.g.g.",
"g.g.a.{ r.7.4.4.4.u.i.i.i.i.i.u.4.5.7.7.] a.g.g.",
"g.g.p.X.g.d.s.p.y.r.r.u.u.u.r.7.y.p.d.g. .p.g.g.",
"g.g.a. .f.d.d.4.m b : 7.i.r.; * X { d.f. .a.g.g.",
"g.g.a.X.f.d.a. ._ +.= 7.i.7.: H 5 ~ d.f. .a.g.g.",
"g.g.a. .f.d.a.o.` @.= 7.i.7.> +.6 ~ d.f. .a.g.g.",
"g.g.a. .f.d.d.o.` @.= 7.i.7.> +.7 ~ d.f. .a.g.g.",
"g.g.a. .f.d.s.X.` $.h 7.p.r.> @.7 / f.g.X.a.g.g.",
"g.g.a. .s. .] I , n @ 4 I 2 O j . % m ! { a.g.g.",
"g.g.p. .a.I ' ^ ' ' ^ Y U U Y Q E P <   / a.g.g.",
"g.g.a.X.a.W w.t.t.t.t.y.y.y.t.e.w.w.2.$ ' a.g.g.",
"g.g.a.X.d.! 6.t.e.t.t.t.y.y.t.e.q.w.' 2  .a.g.g.",
"g.g.a. .f.{ [ t.e.r.q.e.e.e.e.0.w.w.1 ^ X.a.g.g.",
"g.g.a. .g.r.U 6.r.w.0.0.0.9.0.9.w.| # u. .p.g.g.",
"g.g.a. .f.s.( Q e.0.9.9.9.6.9.9.3.- T f. .a.g.g.",
"g.g.a. .f.d.u.U ^ q.t.q.q.e.e.6.1 ; i.f.o.a.g.g.",
"g.g.a.X.g.s.s.y.I 4  .7.7.7.] & 1 u.d.g.o.a.g.g.",
"g.g.a.` <.>.:.;.} v @ + + o o 3 ..4.4.7.~ i.g.g.",
"g.g.p.0 y p d f V A B N F G O.%.-.;.,.8.! y.g.g.",
"g.g.p.9 u a s g Z S D K L #.=.*.>.1.8.p.] r.g.g.",
"g.g.p.9 u a s g C S D J L #.=.*.>.1.8.p.) y.g.g.",
"g.g.a.e t i s g Z S D K L #.=.&.>.;.,.,.T i.g.g.",
"g.g.g.<.M r 8 8 q q w z x l k c v 3 R ) 7.g.g.g."
};
