/* XPM */
static char *___svg[] = {
/* columns rows colors chars-per-pixel */
"24 24 140 2 ",
"   c #1F592DD31E00",
".  c #2A10328318E3",
"X  c #268C2BB52559",
"o  c #29633C1D29A0",
"O  c #38CF3B9D3A9B",
"+  c #1DAA4EDC1AF9",
"@  c #1A88537B1AA4",
"#  c #274651A31E85",
"$  c #0C747A300C74",
"%  c #14EB6B3514EB",
"&  c #17AE62DA17AF",
"*  c #12F57BE81346",
"=  c #1B9D7C121C83",
"-  c #2660433626B1",
";  c #247F4DCA247F",
":  c #2B7743132BA2",
">  c #2F584EEA2F58",
",  c #37E7432929FE",
"<  c #26165BC82616",
"1  c #2B4152982B3D",
"2  c #2EC85E872EBF",
"3  c #30CF497B30E9",
"4  c #3C7E55783C7E",
"5  c #1ED57B2A2089",
"6  c #222264A72222",
"7  c #235A6CCF237B",
"8  c #2C3366482CD4",
"9  c #243F74BE2641",
"0  c #2D2E72172ED3",
"q  c #3EFA65CB3EFA",
"w  c #2E367480311B",
"e  c #3A6074113A58",
"r  c #5B28605A3BED",
"t  c #6D9972722A5B",
"y  c #60FE626C3E0D",
"u  c #3F8B689A4254",
"i  c #4387479F465B",
"p  c #49E44C994D79",
"a  c #423655AD422D",
"s  c #492251FF4FA4",
"d  c #4CB25B794CB2",
"f  c #55DB58404E82",
"g  c #512452D8513C",
"h  c #53E55B13540F",
"j  c #45BB671748A1",
"k  c #4B86662F4EE2",
"l  c #493E799349F0",
"z  c #55C96B0C5AB0",
"x  c #5AF476C15AF4",
"c  c #722872B554A1",
"v  c #7D6E7F54507D",
"b  c #57D560FD643E",
"n  c #58CE5FEA61AB",
"m  c #5E6D69B269A5",
"M  c #60FE640B60FE",
"N  c #6ADF6C3B6A2A",
"B  c #6669798867B0",
"V  c #61BD71506AC6",
"C  c #74A075636385",
"Z  c #74A0754A6C08",
"A  c #7829780A6DBF",
"S  c #74FE773274FE",
"D  c #70867DA1707A",
"F  c #7CA27EC67C91",
"G  c #0F8187B30F7A",
"H  c #116189AB1161",
"J  c #1D7985DE1D74",
"K  c #241080B3267B",
"L  c #1FD388491FD3",
"P  c #25A78279285D",
"I  c #2B4C86512B4C",
"U  c #3346831E3563",
"Y  c #394788363947",
"T  c #3DAD83844151",
"R  c #420D85E7420B",
"E  c #44C288AA44C2",
"W  c #490A84FD4CE1",
"Q  c #526A8521577D",
"!  c #516E8B49516E",
"~  c #542686375887",
"^  c #5FC486DF5FC4",
"/  c #572D88A55A5A",
"(  c #5C598C3C5C59",
")  c #5E20880D63C4",
"_  c #62898B6F65FC",
"`  c #66A18C5A6B34",
"'  c #697D8A566BF3",
"]  c #69E2911E69E2",
"[  c #75968E90762A",
"{  c #72548F627A86",
"}  c #745C945E7510",
"|  c #7A3995287E81",
" . c #8FEB93F431DE",
".. c #97649B8F3627",
"X. c #81EC83B45351",
"o. c #98289E285FB7",
"O. c #87FB88ED6A2C",
"+. c #CB46CD157B25",
"@. c #7DD896448501",
"#. c #808A8B1C8F2C",
"$. c #8B918DD58BA2",
"%. c #83EA9CAF83EA",
"&. c #81E997FE88D9",
"*. c #8EF790D78EE9",
"=. c #85F29A8C8C68",
"-. c #8BF99E838BF9",
";. c #88B2952195D5",
":. c #8B1A9DC49518",
">. c #8E7A9E879B6B",
",. c #941495C59436",
"<. c #95A49C5595A1",
"1. c #9D729DD795EC",
"2. c #9E379E379E37",
"3. c #9096A32C9096",
"4. c #9E50AB769E50",
"5. c #A076A10B86C0",
"6. c #A638A6A18B89",
"7. c #967EA62BA2E3",
"8. c #97E2A48DAA98",
"9. c #A39BA45AA39A",
"0. c #A504ADABA505",
"q. c #AA41AA4CA938",
"w. c #AC47B4F4AC47",
"e. c #A177AF70B165",
"r. c #B5D0B6C5B5DF",
"t. c #B80CB97BB809",
"y. c #B81EB817B8A9",
"u. c #BE4BC3C9BE4B",
"i. c #D551D734825D",
"p. c #D850DAED841C",
"a. c #DA88DCE68667",
"s. c #C42DC4D0C434",
"d. c #CCE9CD44CD29",
"f. c #CFD8D1BDCFD8",
"g. c #D2BED321D2FB",
"h. c #DE71DE71DE70",
"j. c #E429E3E9E428",
"k. c #EAC0EAC4EAC1",
"l. c #F370F35EF399",
"z. c #FF69FF67FF69",
/* pixels */
"z.z.z.z.z.z.z.z.j.,.2.2.2.2.2.,.j.z.z.z.z.z.z.z.",
"z.z.z.g.d.d.d.d.9.q.j.j.h.j.h.9.r.f.d.d.d.z.z.z.",
"z.z.k.q.f.d.d.s.s.h.j.h.h.j.j.h.s.s.d.d.9.k.z.z.",
"z.z.k.y.z.l.k.j.g.g.g.h.h.h.g.d.g.k.l.z.y.k.z.z.",
"z.z.k.r.l.l.l.s.F O.C d.j.g.N c y q.l.z.y.k.z.z.",
"z.z.k.y.l.l.k.y.5.i.v d.j.d.Z +. .1.l.l.y.k.z.z.",
"z.z.k.y.z.k.l.y.5.p.X.d.j.d.Z i...1.l.z.y.k.z.z.",
"z.z.k.y.z.l.l.y.6.a.X.d.j.d.A i...1.l.l.r.k.z.z.",
"z.z.j.#.w.q.9.@.C o.r $.9.,.f o.t Z r.t.$.j.z.z.",
"z.z.j.< % & @ @ + # + - : o   , . X O g N f.z.z.",
"z.z.j.6 G * = 5 w e u u j k z V V m b O F f.z.z.",
"z.z.j.6 G * P U R W / ` } | =.:.7.e.8.p F d.z.z.",
"z.z.j.6 G * 9 U T W / ` } | =.3.7.e.#.N *.d.z.z.",
"z.z.j.6 H * K U T W ~ ) ' | &.:.7.8.n ,.<.d.z.z.",
"z.z.j.6 H J = w T W Q ) ' { &.:.7.;.i d.,.d.z.z.",
"z.z.j.6 H L = 9 T W Q ) ' { @.:.>.s F k.,.d.z.z.",
"z.z.j.6 H L I 7 0 W / _ ' | =.=.g h s.k.<.d.z.z.",
"z.z.j.6 H L I U 7 8 l ^ ' [ B a h r.g.j.,.f.z.z.",
"z.z.j.6 H L I Y R e 2 1 > 3 a D 0.s.f.j.,.d.z.z.",
"z.z.j.6 H L I Y E ! / _ ' [ -.4.w.u.f.j.,.d.z.z.",
"z.z.j.6 H L I Y E ! ( ] } %.3.4.w.u.g.j.,.f.z.z.",
"z.z.j.6 H L I Y E ! ( ] } %.3.4.w.u.g.j.,.d.z.z.",
"z.z.j.6 $ J I U E ! ( ] } %.3.4.w.w.u.u.S g.z.z.",
"z.z.l.<.x q 1 ; ; 1 4 4 a d d h h h M S *.k.z.z."
};
