/* XPM */
static char *___svg[] = {
/* columns rows colors chars-per-pixel */
"24 24 157 2 ",
"   c #348A3F132FE7",
".  c #35D8387A3901",
"X  c #2AED43F71BD5",
"o  c #265C56A41E14",
"O  c #0B9F73850B9F",
"+  c #1F556EB71F80",
"@  c #13E77C8E1428",
"#  c #1ABB76671B1A",
"$  c #1C8D7A431D2D",
"%  c #22D346E222D3",
"&  c #2347492C2347",
"*  c #30EE43A02E22",
"=  c #2F0F50E82753",
"-  c #20AE5F5620AE",
";  c #2DCE54112DDB",
":  c #2C345D1B2C30",
">  c #311A4B733127",
",  c #365E56AC365E",
"<  c #3AD352D33AD3",
"1  c #1EC47B2D2079",
"2  c #220860912208",
"3  c #23FB6BBC22CB",
"4  c #2B27650B2B77",
"5  c #342064BE22B6",
"6  c #34BC6EE22725",
"7  c #24047472260D",
"8  c #2D3072162ED5",
"9  c #29CA7BF129EE",
"0  c #326076552A38",
"q  c #338E6354338F",
"w  c #39F361143A61",
"e  c #3BCF6D273EF1",
"r  c #2E267398310D",
"t  c #36D672493AB4",
"y  c #3A6074113A58",
"u  c #499D51D81A01",
"i  c #442F4EE623D2",
"p  c #428A606A2855",
"a  c #6DCE7A1A27D6",
"s  c #706E7C5E2BDB",
"d  c #61F863653E65",
"f  c #63366C363C3F",
"g  c #437F47984654",
"h  c #4A174CCC4DAC",
"j  c #430E55134308",
"k  c #43C05C814412",
"l  c #4B415DD94483",
"z  c #4AD4540D4AD4",
"x  c #494E5D8549E1",
"c  c #527457064E79",
"v  c #495552254FD7",
"b  c #4EB75A9F53DF",
"n  c #54935B0C54D9",
"m  c #44DA64784506",
"M  c #44FD65FD47E3",
"N  c #4AB465164E0E",
"B  c #4B54685E4B54",
"V  c #5A3468714006",
"C  c #493E799349F0",
"Z  c #5760684F5760",
"A  c #55356A485A28",
"S  c #702371D847FA",
"D  c #668766E05DAA",
"F  c #738974115578",
"G  c #55F85F21625E",
"H  c #5D57689C68B3",
"J  c #6527687D6527",
"K  c #619B6FAC6C81",
"L  c #6AE56CA76A7B",
"P  c #69D57CAF69D5",
"I  c #757B76356411",
"U  c #721674407216",
"Y  c #70837D9E7077",
"T  c #7BA57DBB7B90",
"R  c #0EF185F00EED",
"E  c #10C987B710C8",
"W  c #112F885C112F",
"Q  c #1C99852F1C94",
"!  c #1F93880B1F92",
"~  c #1FE288701FE2",
"^  c #258A8285284D",
"/  c #2B86870B2B85",
"(  c #2D1B88A42D1C",
")  c #32D882DE34FB",
"_  c #389987DF3899",
"`  c #38E9884438E9",
"'  c #4AA985542D82",
"]  c #7FEA83D92C39",
"[  c #3DAE83834153",
"{  c #427C85E6427B",
"}  c #450788E74507",
"|  c #490A84FD4CE1",
" . c #526A8521577D",
".. c #512A8AD9512A",
"X. c #542686375887",
"o. c #5EED86135F42",
"O. c #572D88A55A5A",
"+. c #5C328C005C32",
"@. c #5E20880D63C4",
"#. c #62278A9A64E6",
"$. c #66A18C5A6B34",
"%. c #697D8A566BF3",
"&. c #69DF911969DF",
"*. c #6C378E5B70E7",
"=. c #75538E4075D6",
"-. c #7F5C85377965",
";. c #72548F627A86",
":. c #746F94667505",
">. c #75D991C97C27",
",. c #794B94D67B85",
"<. c #938AA2515B7A",
"1. c #896A8A536B0C",
"2. c #828B82BE78C0",
"3. c #826B881D7C8A",
"4. c #8FA48FEF789F",
"5. c #B4D9B6C56D75",
"6. c #BAD2BD01723E",
"7. c #7DD896448501",
"8. c #846F877B84B8",
"9. c #878A89568789",
"0. c #8B498C1084BB",
"q. c #8B748CCD8B72",
"w. c #8EBE906A8ED8",
"e. c #85F29A8C8C68",
"r. c #8BF99E838BF9",
"t. c #88E0954B95F6",
"y. c #8B169DC19516",
"u. c #8F159EFA9C07",
"i. c #930294889302",
"p. c #9E379E379E37",
"a. c #8EEEA1718EEE",
"s. c #8E4FA04E9772",
"d. c #908BA315908B",
"f. c #9CD9A4389CD9",
"g. c #9EDEAC029EDE",
"h. c #96D0A680A31F",
"j. c #97DFA48AAA95",
"k. c #A4B9A4BBA4D0",
"l. c #A45CAE56A45C",
"z. c #AA1BAA2CA952",
"x. c #AD8FB5DFAD8E",
"c. c #A18CAF87B174",
"v. c #B509B5FEB55E",
"b. c #BA07BB11BA07",
"n. c #BE72C3F1BE73",
"m. c #C527C5A7C52F",
"M. c #CC70CCF0CC76",
"N. c #CF9CD234CF9C",
"B. c #D029D2BFD095",
"V. c #D356D3D7D38A",
"C. c #DD3DDD45DD4A",
"Z. c #E084DFC3E084",
"A. c #E456E40DE456",
"S. c #E7FEE8E1E7FE",
"D. c #EA7EEA95EA7E",
"F. c #F397F39EF3A2",
"G. c #FFACFFABFFAC",
/* pixels */
"G.G.G.G.G.G.G.G.Z.i.p.p.p.p.p.i.D.G.G.G.G.G.G.G.",
"G.G.G.V.M.M.M.M.z.z.Z.A.Z.A.Z.k.v.M.M.M.M.G.G.G.",
"G.G.D.z.N.M.M.m.m.C.Z.Z.Z.Z.A.C.m.M.M.V.k.D.G.G.",
"G.G.D.v.G.F.D.A.V.V.V.Z.Z.Z.V.M.V.A.F.F.v.D.G.G.",
"G.G.D.v.G.F.F.m.2.1.I V.A.V.L F d z.F.G.b.D.G.G.",
"G.G.S.z.Z.V.V.k.4.6.S v.M.v.D 5.] 0.C.C.k.A.G.G.",
"G.G.A., 4 q q ; = p X x Z n   f u c 8.q.L V.G.G.",
"G.G.A.2 E Q / 9 0 ' 5 o.:.=.l <.a -.B.A.i.M.G.G.",
"G.G.A.- W ~ ( 9 0 ' 5 o.,.:.l <.s 3.V.D.i.M.G.G.",
"G.G.A.- W @ 1 + 3 6 o w m m * V i g U 9.9.M.G.G.",
"G.G.A.- R @ 1 7 r t e m M N A K K H G . T M.G.G.",
"G.G.A.- R @ ^ ) [ | O.$.:.7.e.d.j.c.j.h T M.G.G.",
"G.G.A.2 R @ ^ ) [ | O.$.:.7.e.s.h.c.7.L q.M.G.G.",
"G.G.A.2 W @ 1 ) [ | X.@.%.,.7.y.h.c.G w.i.M.G.G.",
"G.G.A.- R Q # ) [ |  .@.$.>.7.y.h.t.g M.i.M.G.G.",
"G.G.A.2 R ! # 7 [ |  .@.%.;.7.y.u.v -.S.i.M.G.G.",
"G.G.A.- E ~ / 3 8 | O.#.*.,.y.y.b n m.S.t.M.G.G.",
"G.G.A.2 E ~ / ) 4 4 C o.%.:.K i n x.B.A.i.M.G.G.",
"G.G.A.2 W ! / ` { y : = > > j Y x.n.B.S.i.M.G.G.",
"G.G.A.2 W ! / _ } ..O.#.$.=.r.g.x.n.B.A.i.M.G.G.",
"G.G.A.2 W ! / ` } ..+.&.:.,.a.g.x.n.V.A.i.M.G.G.",
"G.G.A.o W ~ ( ` } ..+.&.:.a.a.g.x.n.N.D.i.M.G.G.",
"G.G.A.: O $ ^ ) { ..+.&.:.a.a.f.l.x.b.b.U V.G.G.",
"G.G.G.l.P B ; & % & , < < k z z z n J T f.F.G.G."
};
