/* XPM */
static char *none[] = {
/* columns rows colors chars-per-pixel */
"36 36 133 2 ",
"   c #94E737B637B6",
".  c #99F135603560",
"X  c #9C0F3E6E3E6E",
"o  c #AAD122F722F7",
"O  c #ADB52EEE2EEE",
"+  c #B2252A5D2A5D",
"@  c #B92E2BD82BD8",
"#  c #A3A132DB32DB",
"$  c #A02738853885",
"%  c #AAC63AE53AE5",
"&  c #B507351E351E",
"*  c #BC4B35753575",
"=  c #B6933ABC3ABC",
"-  c #BAF23BB33BB3",
";  c #C0F2274C274C",
":  c #C48F2E592E59",
">  c #CC3E2DF12DF1",
",  c #D49E2E272E27",
"<  c #DD892E052E05",
"1  c #C552345E345E",
"2  c #CB8733363336",
"3  c #C3103B603B60",
"4  c #C98C38533853",
"5  c #D54331943194",
"6  c #DC8A31873187",
"7  c #E4082EE52EE5",
"8  c #E55730E530E5",
"9  c #EA5531903190",
"0  c #91F2465D465D",
"q  c #9E2A41784178",
"w  c #95754C1D4C1D",
"e  c #9B994E014E01",
"r  c #8F5652795279",
"t  c #897A59C159C1",
"y  c #91064FF44FF4",
"u  c #9CC955C455C4",
"i  c #97145A765A76",
"p  c #9A905E685E68",
"a  c #A4B243374337",
"s  c #AC2943614361",
"d  c #A3874A624A62",
"f  c #AD134AD84AD8",
"g  c #B4DA44544454",
"h  c #B8A0425E425E",
"j  c #B4054B234B23",
"k  c #B9F24C314C31",
"l  c #A38A50FF50FF",
"z  c #AC9952815281",
"x  c #A5415B965B96",
"c  c #AB9A5BAE5BAE",
"v  c #B36555325532",
"b  c #B75A5F745F74",
"n  c #8D1C63A563A5",
"m  c #8BDF6CEB6CEB",
"M  c #92EB65D665D6",
"N  c #9DE665766576",
"B  c #9CE469C169C1",
"V  c #931D74017401",
"C  c #9E7C75AC75AC",
"Z  c #95A8794F794F",
"A  c #9C237A737A73",
"S  c #A5E563096309",
"D  c #AC04635F635F",
"F  c #A7256D926D92",
"G  c #AC656B676B67",
"H  c #B38E62E762E7",
"J  c #B0586D746D74",
"K  c #A45873C473C4",
"L  c #AB3575537553",
"P  c #A65A7AA17AA1",
"I  c #ACFB7CAC7CAC",
"U  c #B38273367336",
"Y  c #B72778137813",
"T  c #C45940494049",
"R  c #842984208420",
"E  c #8C818C798C79",
"W  c #9E7682F982F9",
"Q  c #9FE18BC28BC2",
"!  c #97A6978E978E",
"~  c #9F0C9EF59EF5",
"^  c #A29A849C849C",
"/  c #AEDA81D981D9",
"(  c #A2EE8B1C8B1C",
")  c #AD258C688C68",
"_  c #B19E83978397",
"`  c #B11C8CC98CC9",
"'  c #BC638ED38ED3",
"]  c #A340964D964D",
"[  c #AE5B927A927A",
"{  c #A6CF9E439E43",
"}  c #AB5F9D8A9D8A",
"|  c #B43793EA93EA",
" . c #BC31913B913B",
".. c #B4989D539D53",
"X. c #BA3D9DE99DE9",
"o. c #A3D6A3BFA3BF",
"O. c #AD1FA60DA60D",
"+. c #A81CA864A864",
"@. c #AC45ABE6ABE6",
"#. c #B557A34CA34C",
"$. c #BA27A4E9A4E9",
"%. c #B479AE15AE15",
"&. c #BB45AC3CAC3C",
"*. c #B3A1B2DAB2DA",
"=. c #BC3EB4D8B4D8",
"-. c #BE06BDAFBDAF",
";. c #C127A251A251",
":. c #C205AB80AB80",
">. c #C212B454B454",
",. c #C4EDBC5CBC5C",
"<. c #CA95BDB2BDB2",
"1. c #C33AC2D0C2D0",
"2. c #CADFC441C441",
"3. c #C7F9CA3FCA3F",
"4. c #CCD4CC28CC28",
"5. c #D26EC77BC77B",
"6. c #D275CD8BCD8B",
"7. c #D039D0E4D0E4",
"8. c #D36ED340D340",
"9. c #D9EDD65BD65B",
"0. c #D7FBD905D905",
"q. c #DD3EDD99DD99",
"w. c #E0FDE048E048",
"e. c #E008E162E162",
"r. c #E2EAE390E390",
"t. c #E873E7BFE7BF",
"y. c #E7B7E8CCE8CC",
"u. c #EC5AED03ED03",
"i. c #F09CEE3EEE3E",
"p. c #EFC9F0E4F0E4",
"a. c #F3F7F474F474",
"s. c #F7DEF950F950",
"d. c #FEA8FEBCFEBC",
/* pixels */
"d.d.d.d.d.d.p.u.a.d.d.s.r.+.R +.-.1.1.1.-.-.! E -.u.d.d.a.d.d.d.d.d.d.d.",
"d.d.d.d.p.9.=.$.=.8.q.9.1.+.~ 1.7.8.8.8.7.4.*.o.*.3.q.4.,.,.4.r.s.d.d.d.",
"d.d.d.s.6.] p w M ] *.=.*.*.1.q.r.r.e.r.r.r.9.,.@.+.O.W B N A &.w.s.d.d.",
"d.d.d.u...y & & a V @.4.4.7.0.e.e.q.e.e.e.e.e.q.4.*.W l - * . B =.a.d.d.",
"d.d.d.y.)   , < 4 l ) 4.q.r.e.r.r.q.e.e.e.r.t.r.3.[ x - , , o u #.u.d.d.",
"d.d.s.y.| X 5 9 8 * H &.0.r.r.r.r.r.e.e.e.r.r.0.#.D * 6 9 6 & D >.a.d.d.",
"d.d.d.u.#.r 3 < 9 5 g F >.q.t.e.e.e.e.e.e.q.9.:.D - 8 9 8 1 0 ( q.s.d.d.",
"d.d.d.a.-.Z f 4 9 9 2 g I ,.q.r.e.e.e.e.e.q.=.L g 5 9 7 4 f V %.r.d.d.d.",
"d.d.d.s.7.{ C k 6 9 8 2 f _ 2.q.r.e.r.r.q.,./ s > 7 9 5 k P o.1.r.s.d.d.",
"d.d.d.a.8.=.%.J * 6 9 8 1 c [ 8.e.e.r.q.2.) z 2 8 9 6 - Y >.,.4.w.s.d.d.",
"d.d.d.a.8.-.9.;.c 4 6 9 , - D &.8.r.w.4.#.c * < 9 < 4 D :.q.3.4.r.d.d.d.",
"d.d.d.p.7.1.y.6.` j 2 9 8 , = L =.q.0.&.F - , 7 7 2 j | q.p.4.4.r.d.d.d.",
"d.d.d.p.8.1.t.u.5.L g , 7 7 2 s I =.=.I s 5 7 9 , g I 5.u.a.3.4.r.s.d.d.",
"d.d.d.a.7.1.u.a.r.=.G * < 9 7 1 z C K z : < 9 6 - U =.r.s.u.4.4.w.s.d.d.",
"d.d.d.a.7.-.u.a.i.q.X.c 4 < 9 < * X X * < 7 < 4 x X.q.u.s.p.4.4.r.d.d.d.",
"d.d.d.a.7.-.y.s.a.u.5. .f > 7 7 , > 1 , 9 7 : g | 4.u.p.s.p.4.4.r.d.d.d.",
"d.d.d.a.8.-.t.s.a.p.t.2.I g > 7 7 < 7 7 7 > g P <.r.p.p.s.p.4.4.r.s.d.d.",
"d.d.d.a.8.-.t.a.a.p.u.e.>.L = , 7 9 9 7 < & G &.q.u.u.p.a.p.4.4.w.s.d.d.",
"d.d.d.a.4.1.t.a.p.u.u.r.q...x 4 < 9 7 < 2 e | 0.t.u.u.p.s.p.4.4.r.d.d.d.",
"d.d.d.s.8.-.t.s.a.u.y.y.e.$.p 4 , 7 9 7 2 q ) 8.r.u.u.a.a.u.4.4.r.d.d.d.",
"d.d.d.s.7.-.y.a.a.u.u.r.6.` d 2 7 7 8 7 6 & D $.0.u.p.p.a.u.3.4.r.s.d.d.",
"d.d.d.a.8.-.u.a.a.u.u.q...D * 6 7 9 9 9 8 , g F ,.e.u.a.s.p.4.4.w.s.d.d.",
"d.d.d.u.6.1.t.a.a.u.r.<.G g , 7 < > : , 8 7 2 g _ <.y.p.s.u.4.4.r.d.d.d.",
"d.d.d.a.8.1.t.s.i.u.4.| f 2 7 7 2 % X = 5 8 , 2 z | 9.u.a.u.3.4.r.d.d.d.",
"d.d.d.u.8.1.t.s.u.q.$.x 4 < 7 , g B ^ D & 6 7 6 1 H #.q.s.u.4.4.r.s.d.d.",
"d.d.d.p.8.1.t.s.y.,.Y - 6 7 , = G #.-...x 1 < 7 < h G ,.t.u.4.4.w.s.d.d.",
"d.d.d.a.8.1.t.u.9._ j , 9 < 1 x | 6.q.1.[ z 1 < 7 > g / 5.u.4.4.r.d.d.d.",
"d.d.d.s.8.1.u.q.;.v 4 6 8 1 f ` 2.w.e.q.2.^ z : < 9 5 j ' 8.1.7.r.d.d.d.",
"d.d.d.a.6.-.r.<.U 3 < 9 , g P ,.q.r.e.r.q.,.I j 2 7 8 4 H [ *.3.r.s.d.d.",
"d.d.d.p.8.-.4.' f 5 8 6 = G %.9.r.r.q.r.r.q.=.L h 2 9 6 3 x Q -.w.d.d.d.",
"d.d.d.p.8.*.[ b 4 8 < 4 x ..9.e.e.q.e.e.w.r.0.>.G = , 9 6 - i } q.s.d.d.",
"d.d.d.s.3.( x T < 9 2 j ` 2.r.r.r.q.e.r.r.r.r.q.&.G h 6 9 5 . P 4.s.d.d.",
"d.d.d.s.=.m % > 7 , g C ,.q.r.q.e.e.e.e.q.e.e.r.0.#.x 4 6 , # F 1.a.d.d.",
"d.d.d.s.=.M # ; > O x O.3.q.0.8.7.7.7.7.7.7.8.0.0.-.[ d + @ w | w.d.d.d.",
"d.d.d.d.9.$.L z % y W *.-.,.,.-.-.*.=.-.-.-.-.-.-.-.#.A u d [ 6.s.d.d.d.",
"d.d.d.d.s.r.>.A t m ] *.@.@.%.@.+.o.o.+.@.@.@.@.*.*.%.{ V V 2.p.d.d.d.d."
};
