/* XPM */
static char *tpbattstat_applet[] = {
/* columns rows colors chars-per-pixel */
"36 36 256 2 ",
"   c #28683F31280F",
".  c #0C895CEB0C02",
"X  c #1B6C5EAC1C35",
"o  c #16D6548817A2",
"O  c #18A148F91A63",
"+  c #248B4B6A1ED0",
"@  c #3A6957C51F51",
"#  c #0E886AB20E61",
"$  c #0F4C74480F2F",
"%  c #0F9875D00F7F",
"&  c #1AA962C51AA6",
"*  c #186A68A618B1",
"=  c #129A74FF1274",
"-  c #11C77DEB11B9",
";  c #1E4B76F21E46",
":  c #1F9E57ED2079",
">  c #1C9957611FDB",
",  c #2556451B2605",
"<  c #275C4C9E268A",
"1  c #2DA35EA12696",
"2  c #2D1354382DC0",
"3  c #27A8582728F7",
"4  c #235358C32461",
"5  c #3A29521E200C",
"6  c #2B3D41F532B4",
"7  c #31F349D531F5",
"8  c #3BAD4B293A74",
"9  c #385A4BCF3479",
"0  c #375B4FDF3794",
"q  c #3A2854AB3C66",
"w  c #3CAC5E673CA2",
"e  c #2E8065762D58",
"r  c #2957688526B1",
"t  c #321265C82AB1",
"y  c #25E9742925DC",
"u  c #2BDD74042D1B",
"i  c #244E7E2B2445",
"p  c #329E65B7329D",
"a  c #338769443382",
"s  c #3B08692F3AF2",
"d  c #3ED265D63EF0",
"f  c #3CA072FA3C98",
"g  c #32D3759832FE",
"h  c #4C405A4A1B4D",
"j  c #59856F391C49",
"k  c #60536F901B4F",
"l  c #621F71B31C4F",
"z  c #68CB7BCD1B69",
"x  c #436E4E302C6E",
"c  c #42285912269B",
"v  c #42B94A4B3F5D",
"b  c #4190466938C7",
"n  c #48555311396F",
"m  c #4D0E6FA425CE",
"M  c #4E4B70EB273F",
"N  c #529375012C68",
"B  c #3FC666DB3FAB",
"V  c #56EF67DD36F0",
"C  c #40307A793E34",
"Z  c #69337330256E",
"A  c #69766F763EAC",
"S  c #757379EC2C8A",
"D  c #3D7653BB42C5",
"F  c #4ADA4E704C0D",
"G  c #429C491D42A9",
"H  c #43E452554411",
"J  c #425C5A9B4254",
"K  c #4B5C535A4B8D",
"L  c #48A059F64A1A",
"P  c #408A50034A71",
"I  c #54595AA54641",
"U  c #4F7852DF512A",
"Y  c #48D45CD05353",
"T  c #52BC59A7537D",
"R  c #559C59265B92",
"E  c #5A0E5DBB5AD3",
"W  c #502D53115034",
"Q  c #43F065034407",
"!  c #41EE6C174207",
"~  c #497F64ED49A4",
"^  c #4CBE6E934CBB",
"/  c #5CE5655B4D5B",
"(  c #57F16EEF45ED",
")  c #48CE77BB474A",
"_  c #5DA3767643E0",
"`  c #55C57A794608",
"'  c #5249647E526B",
"]  c #5D2A62745D72",
"[  c #5A166AA45934",
"{  c #569C674C5562",
"}  c #5E6673AC5E70",
"|  c #573E74DC5518",
" . c #64BC68E64530",
".. c #6049769F45C1",
"X. c #7277780F4940",
"o. c #600069AC5222",
"O. c #61C0766E5EF4",
"+. c #5ACB69726493",
"@. c #614764B3653B",
"#. c #69D76D9D6B34",
"$. c #65386BCE6549",
"%. c #66AA777466BF",
"&. c #651578B2654E",
"*. c #6B90731B6BA8",
"=. c #6DD17D2B6E13",
"-. c #645278316877",
";. c #651B6BCC7129",
":. c #6E417221720A",
">. c #6B9E784176D8",
",. c #740676C8752B",
"<. c #75AC7B0175DE",
"1. c #75F87BDD7B94",
"2. c #7A077CE77A63",
"3. c #12DD81A912D8",
"4. c #18DC8B1618D5",
"5. c #24A18AAB24A1",
"6. c #2EBE8C3B2EC6",
"7. c #27A486F1279B",
"8. c #370F8B2A3718",
"9. c #39688C85396C",
"0. c #383E85563820",
"q. c #66C6810C27FC",
"w. c #74A18EEF25AF",
"e. c #7E799B3E2542",
"r. c #422F8DC24234",
"t. c #48E98DA5491A",
"y. c #481F82034834",
"u. c #4BEE91F34BEE",
"i. c #5B8E8CBF5C79",
"p. c #53BE8579533A",
"a. c #544392705441",
"s. c #5D7F94875D95",
"d. c #7ACC80815A47",
"f. c #6C538D5B6BA5",
"g. c #64AE944F651F",
"h. c #6BD094896C25",
"j. c #6B2099846B46",
"k. c #78938B6976FC",
"l. c #7C8B813A7C8B",
"z. c #7A718AC97BB7",
"x. c #794586E87713",
"c. c #7413957774D6",
"v. c #71D69BC071F6",
"b. c #7CAF92B27BD8",
"n. c #7BF2997F7BFD",
"m. c #7B4BA05D7B49",
"M. c #80C39E2225D2",
"N. c #829D9FC32813",
"B. c #903D96322DAF",
"V. c #85808BA13DC7",
"C. c #95B39BC23196",
"Z. c #98A49E703777",
"A. c #875BA3842FA0",
"S. c #953EAE4A229A",
"D. c #9A64B321294E",
"F. c #8D2994B54EE4",
"G. c #98849ED84B89",
"H. c #8AC18E555AC2",
"J. c #87498AEC5731",
"K. c #903A97E850DB",
"L. c #933E9ACA54FD",
"P. c #BCE3C557530F",
"I. c #C29DCAF65A4A",
"U. c #7A727F3380D6",
"Y. c #77497D5881BD",
"T. c #7D49834983D1",
"R. c #7EFA85A689AD",
"E. c #7A748C3C89B2",
"W. c #819685CE8305",
"Q. c #85248B078576",
"!. c #839889D0896E",
"~. c #8B0F8DBA8B17",
"^. c #80AB87888D09",
"/. c #863A92988637",
"(. c #82739CD3827A",
"). c #8CEF93498C47",
"_. c #888A98C087D0",
"`. c #931F9CCB8E52",
"'. c #8FB28FF990D8",
"]. c #83908B1C9029",
"[. c #8FC09DF09F61",
"{. c #923B94F99262",
"}. c #947E9C06946F",
"|. c #9D919F5F9D84",
" X c #8528A4EF8560",
".X c #8773A16C8888",
"XX c #89B8A4DB8A51",
"oX c #8E33A98C8E37",
"OX c #9244A49A926B",
"+X c #9706AD2E9710",
"@X c #9DEAA1E79DF1",
"#X c #9C11A9A39AC3",
"$X c #9EEEB1709F0B",
"%X c #8EA19973A208",
"&X c #8DEEA2DCA1AC",
"*X c #974DA91AA89F",
"=X c #9AE4A622A855",
"-X c #9F4FAA28B1F0",
";X c #A296A4B6A2A2",
":X c #A573AC28A596",
">X c #AD4DAED7AD45",
",X c #A528AC97AD0E",
"<X c #A419B3EEA46D",
"1X c #AEBAB276AE98",
"2X c #AC61B944ACE7",
"3X c #A4A4AE15B4BD",
"4X c #A2CAB480B411",
"5X c #A947B547BB0F",
"6X c #AD28B7B5B9EA",
"7X c #B191B339B183",
"8X c #B3B7BAA9B3CF",
"9X c #BB13BD38BB1A",
"0X c #B6E1BE64B908",
"qX c #B698C188B69C",
"wX c #BD14C3FFBD49",
"eX c #ADF8B7D2C0B7",
"rX c #B38BBD45C3BE",
"tX c #B9F5BF51C238",
"yX c #B5EBC08BC77C",
"uX c #BBA9C0DEC3D7",
"iX c #B73BC9D8CA67",
"pX c #BDB6D35AD1E3",
"aX c #C4BDC742C4D0",
"sX c #C4E4CA6AC5C0",
"dX c #C7AECC5AC8EC",
"fX c #CC10CD18CC17",
"gX c #CCDDD1DCCCF6",
"hX c #C30ECE2AD579",
"jX c #C42ED6BFD6DD",
"kX c #CC8DD2C1D291",
"lX c #C785D679D983",
"zX c #CA69D65CDE33",
"xX c #C61BD91BD8C1",
"cX c #CCEBDBC5DDB9",
"vX c #C51DD883D7F0",
"bX c #D395D683D477",
"nX c #D67ED8DAD6A0",
"mX c #D857D89AD861",
"MX c #DDC4DE77DDC9",
"NX c #DF8DE0A6DF8B",
"BX c #CF4CDBD0E1E1",
"VX c #D30EDED0E4FB",
"CX c #D605E1D0E563",
"ZX c #DABDE3CFE65C",
"AX c #DC02E5A9E9B0",
"SX c #D5B6E1A8E919",
"DX c #E316E267E328",
"FX c #E2D6EA98ED36",
"GX c #EBD0ECFDEC4C",
"HX c #E728EE39F12A",
"JX c #E945EFCDF231",
"KX c #EED1F3EDF5E7",
"LX c #F401F504F4CE",
"PX c #F2FFF757F8C8",
"IX c #F4BCF8E7FA21",
"UX c #FE7FFE70FE84",
/* pixels */
"UXUXUXUXUXUXUXUXUXUXUXIXgX).K 8 7 7 8 D G G U 2.kXLXUXUXUXUXUXUXUXUXUXUX",
"UXUXUXUXKXMXMXMXmXmXMXkX;X*.J ~ ^ | } &.%.*.] $.;XfXmXnXmXmXMXGXUXUXUXUX",
"UXUXUXPXsX@X}.`.}.}.}.).$.Q B i.v.v. XXXoX+Xx.] <.{.;X;X;X;X:XfXPXUXUXUX",
"UXUXUXGXXXd e e a s Q Q n ! p.g.v.n. XoX+X<XOX/.2.2.Q.~.'.~.2.:XDXUXUXUX",
"UXUXUXDXb.o # = ; y u g ! y.s.g.v.m. XoX+X<X<X<X;X@X>X7X9X7XW.:XNXIXUXUX",
"UXUXIXDXn.& - 4.5.6.8.9.u.a.s.j.v.m. XoX+X<X2XqXaXfXbXNXGXNX|.7XMXUXUXUX",
"UXUXUXNXE.& - 4.5.6.9.r.u.a.s.j.v.m. XoX+X$XqXqXwXgXbXmXGXMX|.7XMXUXUXUX",
"UXUXUXDXm.& - 4.5.6.9.r.t.a.i.g.v.m. XoX+X$X$X2XqXsXkXmXGXMX|.7XMXUXUXUX",
"UXUXUXDXn.& - 4.5.6.8.0.C ) ` p.g.m. XoXOX_._.`.#X1XdXMXGXMX|.>XMXUXUXUX",
"UXUXUXDXn.& 3.4.5.6.g t < @ c c | n. XXXb./ /  ./ H.1XnXGXMX|.>XNXLXUXUX",
"UXUXIXDXn.& 3.4.5.6.u 1 @ j z h ( c. XXXk.I  .V.Z =.;XnXGXMX|.>XMXUXUXUX",
"UXUXUXDXn.* 3.4.5.6.u t m e.S.l _ c. X.Xk./ F.P.B.J.;XnXGXMX|.>XMXUXUXUX",
"UXUXIXDXH.X 3.4.5.6.u 1 m e.S.l _ c..X.Xk./ K.P.C.H.|.bXGXNX|.>XMXUXUXUX",
"UXUXUXDXE.& 3.4.5.6.u 1 m A.S.l _ c. X.Xk./ K.P.C.H.@XbXGXNX@X1XNXLXUXUX",
"UXUXUXNXE.= 3.4.5.6.u e m A.S.k _ j. X.XE.{ L.I.Z.H.;XnXGXNX@X1XMXUXUXUX",
"UXUXUXNXE.; 3.4.5.6.u t M A.D.z _ c..XXXH.o.L.I.Z.H.@XnXLXDX@X>XMXUXUXUX",
"UXUXUXDXn.& - = * r X < 5 Z w.h n { &.&.[ n X.G.S  .,.;X9X9X{.>XMXUXUXUX",
"UXUXIXDXn.& = . O , , , 0 V N 9 b K T T K v / X.V I R ;.2.W.W.>XNXLXUXUX",
"UXUXIXNXn.X # o 6 Y +.+.=.z.E.x.1.1.1.1.1.U.E.!.U.1.:.;.R U :.>XDXUXUXUX",
"UXUXUXDXn.X # X D E.&X*X4X5XrXqXtXuXuXuXuXyXtXyXeX5X3X%X;.F #.>XNXUXUXUX",
"UXUXUXDXn.* % : Y *XiXpXxXcXAXFXKXKXIXPXKXHXFXAXVXVXzXeX^.@.2.>XMXUXUXUX",
"UXUXUXDXE.& % . 7 %XiXpXxXBXAXFXGXKXIXPXKXFXAXAXVXVXzX-XR.,.W.>XNXLXUXUX",
"UXUXIXDXm.* = . : E.eXpXxXcXCXZXAXFXJXJXFXAXAXAXVXAXhX].U.~.'.7XMXUXUXUX",
"UXUXUXDXE.& 3.# : -.*XpXvXxXcXCXAXAXAXAXAXAXAXCXVXVXuX:.U.;X|.7XMXUXUXUX",
"UXUXIXDXH.& 3.= > D E.iXpXxXxXzXBXmXVXVXVXVXVXVXVXhX=X@.'.aX|.>XMXUXUXUX",
"UXUXUXDXE.; - 4.; < +.*XpXxXjXxXxXlXVXcXVXBXVXBXVX3XY.:.>XmX|.>XDXLXUXUX",
"UXUXUXNXE.& - 4.; o D >.4XpXxXxXzXcXVXVXBXVXVXBXrX^.@.'.fXDX|.>XDXUXUXUX",
"UXUXUXNXm.& 3.4.5.y 4 D T.6XBXAXCXCXVXAXAXAXAXuX^.@.,.tXDXDX|.>XMXUXUXUX",
"UXUXUXDXn.& 3.4.5.7.u 2 L 1.,XgXZXAXGXFXNXbX>X!.@.,.;XbXGXMX|.>XMXUXUXUX",
"UXUXLXDXn.* - 4.5.6.0.g 2 q #.|.0XsXdXaX9X@X1.E :.|.fXMXDXMX|.>XNXLXUXUX",
"UXUXUXDXn.& - 4.5.6.9.9.C ! J L T E ] E R E #.Q.;XaXfXmXGXMX|.>XMXUXUXUX",
"UXUXUXVXn.* 3.4.5.6.9.r.u.y.) Q ~ ' ' [ O.=./.:XwXfXbXDXGXMX;X7XMXUXUXUX",
"UXUXUXDXn.& - 4.7.6.8.9.t.a.s.g.h.h.c.n.oX$X2X0XaXdXgXMXDXnX}.>XNXIXUXUX",
"UXUXUXDX(.3 # = i i 0.9.y.a.s.g.v.m. XoX+X$X<X2X8XqXwXsXaX>X2.;XDXUXUXUX",
"UXUXUXLXqXf.) f s a p p p s ! ^ | | O.&.=.=.<.l.l.W.~.}.}.}.{.wXLXUXUXUX",
"UXUXUXUXDX8X/.%.' w 7 , , , , 7 0 q b v H H H F K W E #.2.~.>XMXUXUXUXUX"
};
