/* XPM */
static char *none_svg[] = {
/* columns rows colors chars-per-pixel */
"24 24 88 1 ",
"  c #7C7645044504",
". c #7D9A532B532B",
"X c #7B837B837B83",
"o c #8EAA244D244D",
"O c #9D7E29DA29DA",
"+ c #9A2931B231B2",
"@ c #93953B683B68",
"# c #A4832B6B2B6B",
"$ c #ADAD29BD29BD",
"% c #B96623812381",
"& c #B5622E192E19",
"* c #BC452E922E92",
"= c #A6D137953795",
"- c #AE8933FC33FC",
"; c #A4DA3B2A3B2A",
": c #AA063AFA3AFA",
"> c #B44133803380",
", c #BB1A31923192",
"< c #B0EB380D380D",
"1 c #D03626A726A7",
"2 c #C4CE2DC92DC9",
"3 c #CB9B2C7A2C7A",
"4 c #D4E32C6F2C6F",
"5 c #DB822E152E15",
"6 c #C6CE30903090",
"7 c #CDC630B830B8",
"8 c #DCB9305B305B",
"9 c #E2F02ED52ED5",
"0 c #E69330D830D8",
"q c #EA8B33423342",
"w c #8F65434D434D",
"e c #9274424D424D",
"r c #9F3441EA41EA",
"t c #9C364B0C4B0C",
"y c #8AB055145514",
"u c #85DE5F0C5F0C",
"i c #8BF859F059F0",
"p c #978E51F251F2",
"a c #9A9053D853D8",
"s c #955059715971",
"d c #9BA15A115A11",
"f c #A60440F740F7",
"g c #A11053C953C9",
"h c #81A364396439",
"j c #88EE63426342",
"k c #8A1E6F3D6F3D",
"l c #99CF64386438",
"z c #95446CC46CC4",
"x c #9A276D0D6D0D",
"c c #89D874AC74AC",
"v c #89BE7AF67AF6",
"b c #950C72827282",
"n c #9CE174A274A2",
"m c #A2827B147B14",
"M c #808580858085",
"N c #99DA89388938",
"B c #9DF193EB93EB",
"V c #9D489D469D46",
"C c #A2EB84968496",
"Z c #A1948AB68AB6",
"A c #A57E935D935D",
"S c #ABEC93F193F1",
"D c #A72B9CE89CE8",
"F c #ACEA9BA59BA5",
"G c #A4DEA4C5A4C5",
"H c #A918A127A127",
"J c #AC79AC89AC89",
"K c #B466A5BFA5BF",
"L c #B42EABB8ABB8",
"P c #B91FAA3FAA3F",
"I c #AF6DB0C3B0C3",
"U c #B606B5D6B5D6",
"Y c #BC5EB343B343",
"T c #BB78BA88BA88",
"R c #C1CDB9ABB9AB",
"E c #C31FC30CC30C",
"W c #CB92C46CC46C",
"Q c #CE6ACE3DCE3D",
"! c #D47DD4E1D4E1",
"~ c #DCD7DD26DD26",
"^ c #E010E18AE18A",
"/ c #E262E294E294",
"( c #E795E8B9E8B9",
") c #ECFAED59ED59",
"_ c #EFD4F142F142",
"` c #F307F322F322",
"' c #F7D1F947F947",
"] c #FFBEFFC4FFC4",
/* pixels */
"]]]]))]]~XUEEEUMQ]'']]]]",
"]]'UijJUGU/////EVUNzB(]]",
"]]/ 3&v!!~/~^^//!N=4oA]]",
"]]^@qq<P(///^^/(K;0q$F]]",
"]])h6q8tE(^^^^/Rr0q7.~]]",
"]]`Gd8q4dQ/^^^Wp4q8dG~]]",
"]]_TR:0q2n~^/!x3q0fWE~]]",
"]]_U`S,q9>A/~Z*00,F'E~]]",
"]]_T`(x3q9;LK=9q3n('E~]]",
"]]_U``!t505ew595a!`'E~]]",
"]]_U``)R;904409;Y)_'E~]]",
"]]`U``_(F>9009>A()_'E~]]",
"]]`U``)(^b3004i~()`'E~]]",
"]]`U``)(!s4009;P()``E~]]",
"]]_U``)(C*00005tW)`'E~]]",
"]])T``)Y;00&+803l~``E~]]",
"]])T``!d593xD;902C('E~]]",
"]]_T`)C3q4pW^A-90-K'E~]]",
"]]`U`Y>09;Y/^~N*00fWE~]]",
"]])T~g8q>A^/^/~n2q8dG~]]",
"]]_Um7q3x~^~^^/!l3q7y!]]",
"]]`v>q8pQ(/^^//(!d8qOL]]",
"]]`k#1+H!!QQQQQ!!L@%i/]]",
"]]])KycUJLJGGJJJIUAu~]]]"
};
