/* XPM */
static char *tpbattstat_applet_svg[] = {
/* columns rows colors chars-per-pixel */
"24 24 164 2 ",
"   c #1662313D16B3",
".  c #29BA3EC518AA",
"X  c #3165388A1742",
"o  c #23913BC5249F",
"O  c #271B38162E7C",
"+  c #345E386B2CC8",
"@  c #3A613BA23D14",
"#  c #12F24C0B133B",
"$  c #185841721908",
"%  c #1A6948C31AE6",
"&  c #14BE5C3414BE",
"*  c #1E305C811E30",
"=  c #0B66692F0B41",
"-  c #0E757B720E5A",
";  c #161C661715D7",
":  c #1C15796D1C15",
">  c #24EF45B524EF",
",  c #27654D322765",
"<  c #27E945EB27E9",
"1  c #3793477622A2",
"2  c #3A3C4A6224C4",
"3  c #27395C2826FB",
"4  c #2E2D57522E2D",
"5  c #346D446A3460",
"6  c #33C849C833C8",
"7  c #3D4D41973D31",
"8  c #3AA44CFA3AF4",
"9  c #328E54F6328E",
"0  c #37775B2C375F",
"q  c #3B2B55D53B2B",
"w  c #2B0663BA2ADA",
"e  c #2A3B7CC82A2A",
"r  c #342F78A9341C",
"t  c #442954B9181E",
"y  c #52965F971A02",
"u  c #558663241B81",
"i  c #4EAF51E122BE",
"p  c #505153972DBD",
"a  c #40E547633A75",
"s  c #578064EE1FDA",
"d  c #5540746825B5",
"f  c #5C417A4B2E48",
"g  c #5BF560C83675",
"h  c #3B254AEB41FC",
"j  c #43E3472C43C7",
"k  c #42E24CF4431A",
"l  c #4B924F404B62",
"z  c #44AB53A344C3",
"x  c #4B1552E14B0B",
"c  c #565C5D56447C",
"v  c #4D3B4EE54FDF",
"b  c #531354D754AC",
"n  c #53A159C753A1",
"m  c #537E57D25AE7",
"M  c #570958F45A48",
"N  c #5A17610348DA",
"B  c #58906C5F5890",
"V  c #73F279094432",
"C  c #5EBE63386588",
"Z  c #5D096EAC6D21",
"A  c #633267166332",
"S  c #659A689765D3",
"D  c #6C7C6F1D6C7C",
"F  c #63026B4371EF",
"G  c #68C6772E760E",
"H  c #710473347142",
"J  c #76807AD4766D",
"K  c #77A0789D78B8",
"L  c #7DEC7FD77DB9",
"P  c #1100872610EB",
"I  c #11AF896D11AF",
"U  c #20D486A620C5",
"Y  c #22388A902237",
"T  c #31348C70313E",
"R  c #398784E63987",
"E  c #3EB58D7E3EB5",
"W  c #46558445469A",
"Q  c #49DA8BC949DA",
"!  c #4E56924C4E56",
"~  c #51BF850D5285",
"^  c #5BA494A05BA5",
"/  c #62048D77628A",
"(  c #6CAE8EFD6DAC",
")  c #63BA90DF63BA",
"_  c #6866975B6866",
"`  c #6AE39A446AE5",
"'  c #772E8419772E",
"]  c #7ED582397ED5",
"[  c #6F1291EF7045",
"{  c #73A2932173BB",
"}  c #73AE989C73AE",
"|  c #78CD9F0678CA",
" . c #83EC89322521",
".. c #8A008F8227A7",
"X. c #8CBF91DB2EEF",
"o. c #9D47B7D523B3",
"O. c #A3C5BFD325B8",
"+. c #AADBC586330E",
"@. c #C069C93058AB",
"#. c #C8FCD2195E45",
"$. c #CED5D792688F",
"%. c #74D27D5E83DA",
"&. c #7BB1898C88DC",
"*. c #84F1871E84F0",
"=. c #84748ACB8468",
"-. c #821686BA8970",
";. c #83E68B8F8E06",
":. c #8DD48FDE8DBD",
">. c #809895F0817E",
",. c #84369BFB8481",
"<. c #8E7490768E74",
"1. c #82BC8AE9927E",
"2. c #89268FDA93A4",
"3. c #859B90C3939F",
"4. c #8A57931C99F6",
"5. c #932795669256",
"6. c #9EEB9F589EB1",
"7. c #86F7A60186F7",
"8. c #8BA1A6B78BA5",
"9. c #8966A8F08971",
"0. c #94ECA5569506",
"q. c #9502ACAC9501",
"w. c #9D4FA8C49EA5",
"e. c #9F5BB0DF9F5B",
"r. c #AA2AABE4AA2A",
"t. c #A41DB5BCA41D",
"y. c #ACBAB419AD16",
"u. c #A6A6B041B7E2",
"i. c #B613B73CB613",
"p. c #B5F6B9A6B5F6",
"a. c #A3B9C088BBFA",
"s. c #B412C118B413",
"d. c #BDE7C5F4BDE2",
"f. c #AF85BC14C618",
"g. c #ADD2C42DC1A3",
"h. c #BB18D20DD004",
"j. c #C24DC513C24D",
"k. c #C427CA44C426",
"l. c #CAE2CFBACADD",
"z. c #CF9DD49DCF9E",
"x. c #C13ACC9DD406",
"c. c #C458D64ED6B6",
"v. c #CABAD2BED735",
"b. c #C8E0D7F5DAFA",
"n. c #C74BDA0BD9A5",
"m. c #CD71DBAEDDBC",
"M. c #D0F9D5FBD0F9",
"N. c #D81BD8D5D81A",
"B. c #DBFEDAFBDC10",
"V. c #DEFFE134DF02",
"C. c #CECBDB43E35F",
"Z. c #D2F0DE61E54C",
"A. c #D693E297E509",
"S. c #DE00E410E31F",
"D. c #DCF8E643EA1B",
"F. c #E36DE4C8E42A",
"G. c #E2D0EB0EEDBB",
"H. c #EDC1EEAEEDC1",
"J. c #F033F117F033",
"K. c #E4F0ED03F0EB",
"L. c #EE34F328F51E",
"P. c #F3A0F4CCF4A6",
"I. c #F4C2F8DAF9F9",
"U. c #FFEEFFEEFFEE",
/* pixels */
"U.U.U.U.U.U.U.U.k.n 6 6 8 k j S F.U.U.U.U.U.U.U.",
"U.U.I.p.r.r.r.r.A 9 ) } 7.8.0.x ] r.r.r.i.P.U.U.",
"U.U.V., & * 3 4 0 ~ ` | 9.q.t.0.J ] =.<.S B.U.U.",
"U.U.B.* I Y T E ! ^ ` | 7.q.t.p.k.M.F.J.<.B.U.U.",
"U.U.B.* P Y T E ! ^ ` | 7.q.t.s.k.z.B.H.<.N.U.U.",
"U.U.B.* P Y T E W ~ / | 7.q.0.w.y.l.V.H.:.N.U.U.",
"U.U.B.* P Y T w . t 2 { 9.,.a g p w.V.H.<.N.U.U.",
"U.U.B.* I Y T 3 d o.y ( 9.>.c @. .5.F.H.:.N.U.U.",
"U.U.B.* I Y T 3 d O.u { 8.>.c #...5.S.H.<.N.U.U.",
"U.U.B.* I Y T 3 d O.y _ 7.>.c #.X.5.V.H.<.N.U.U.",
"U.U.B.* I Y T w f +.s [ 8.,.N $.X.5.F.P.<.N.U.U.",
"U.U.B.* - # %   1 d X 7 x k + V i v H 5.*.N.U.U.",
"U.U.B.* = O Z G &.3.;.-.-.-.2.4.1.%.F @ J B.U.U.",
"U.U.B.* - h a.h.n.A.G.L.I.L.K.D.Z.C.f.M L N.U.U.",
"U.U.B.* -   u.h.n.A.G.L.I.L.G.D.Z.Z.4.K :.N.U.U.",
"U.U.B.* P # &.h.n.m.A.D.D.D.D.A.Z.C.C 6.5.N.U.U.",
"U.U.B.* I ; h g.c.c.m.m.Z.Z.Z.Z.Z.u.v B.<.N.U.U.",
"U.U.B.* I U $ G h.c.c.b.m.m.C.C.x.m 5.H.<.B.U.U.",
"U.U.B.* I Y e o -.m.D.A.D.D.G.v.C S N.H.:.N.U.U.",
"U.U.B.* P U T r o S d.S.F.B.r.b A k.V.H.:.N.U.U.",
"U.U.B.* I Y T E Q 0 5 7 j 7 x =.d.z.B.H.<.N.U.U.",
"U.U.B.* I Y T E Q ^ / ( { 7.e.s.k.z.F.J.<.N.U.U.",
"U.U.V.4 = : e R Q ^ _ | 7.q.w.y.p.s.j.y.D B.U.U.",
"U.U.U.d.' B q < > > 6 q a z z l x M H *.p.U.U.U."
};
