/* XPM */
static char *____svg[] = {
/* columns rows colors chars-per-pixel */
"24 24 98 2 ",
"   c #14BE5C3414BE",
".  c #1E1E5C411E1E",
"X  c #0C696A000C69",
"o  c #1C15796D1C15",
"O  c #227043F52270",
"+  c #276D4774276D",
"@  c #27654D322765",
"#  c #27E945EB27E9",
"$  c #26D05D7326D0",
"%  c #2E2D57522E2D",
"&  c #2E8F5E2C2E8F",
"*  c #356646C03566",
"=  c #302C4A26302C",
"-  c #376349693763",
";  c #3D464CBC3D46",
":  c #328E54F6328E",
">  c #3B2B55D53B2B",
",  c #2AE37F0D2AE3",
"<  c #34C85FE634C8",
"1  c #41C84D7541C8",
"2  c #43F14B4943F1",
"3  c #4A1E4F9C4A1E",
"4  c #443E5293443E",
"5  c #4CDD55224CDD",
"6  c #504658DA5046",
"7  c #56FC5AB456FC",
"8  c #58906C5F5890",
"9  c #60DB668060DB",
"0  c #64D967A964D9",
"q  c #6C7C6F1D6C7C",
"w  c #702973107029",
"e  c #753D7C04753D",
"r  c #11AB890C11AB",
"t  c #11B88A5711B8",
"y  c #22278A232227",
"u  c #21E18B7D21E1",
"i  c #30B88B2730B8",
"p  c #30B08C8A30B0",
"a  c #398784E63987",
"s  c #3EDA8DA53EDA",
"d  c #49DB8BC949DB",
"f  c #4E7792CB4E77",
"g  c #5345875A5345",
"h  c #58C090D558C0",
"j  c #5BD894A95BD8",
"k  c #5C1694FA5C16",
"l  c #630E9013630E",
"z  c #680196CC6801",
"x  c #6A6D99936A6D",
"c  c #6B539AEB6B53",
"v  c #772E8419772E",
"b  c #7EFA83BA7EFA",
"n  c #73AE989C73AE",
"m  c #77669D807766",
"M  c #79049F3F7904",
"N  c #84B9871084B9",
"B  c #871F8A88871F",
"V  c #81929F888192",
"C  c #8E1190218E11",
"Z  c #92E89EBE92E8",
"A  c #8702A5FE8702",
"S  c #874CA655874C",
"D  c #8EC8A5A68EC8",
"F  c #942EA4D5942E",
"G  c #9282AA119282",
"H  c #959FAD4D959F",
"J  c #9F05B07F9F05",
"K  c #A9C7ABDDA9C7",
"L  c #AC80AE32AC80",
"P  c #A41AB5C0A41A",
"I  c #A48EB639A48E",
"U  c #A673B836A673",
"Y  c #AA0DB6CDAA0D",
"T  c #AE95B091AE95",
"R  c #B613B73CB613",
"E  c #B260BA7AB260",
"W  c #B24DBF36B24D",
"Q  c #B82EB9D1B82E",
"!  c #BB35BEDEBB35",
"~  c #B39AC08EB39A",
"^  c #C24DC513C24D",
"/  c #C125C963C125",
"(  c #C3D7CC27C3D7",
")  c #C7ACC8BCC7AC",
"_  c #CF4BD448CF4B",
"`  c #D20AD70CD20A",
"'  c #D828D8C6D828",
"]  c #DC52DA65DC52",
"[  c #DC6FDAC5DC6F",
"{  c #DF3EDE79DF3E",
"}  c #DDFBE074DDFB",
"|  c #E0FDE36FE0FD",
" . c #E528E59EE528",
".. c #ED89EE75ED89",
"X. c #F033F117F033",
"o. c #F7A7F7C7F7A7",
"O. c #FC03FC1CFC03",
"+. c #FFFFFFFFFFFF",
/* pixels */
"+.+.+.+.+.+.+.+.) 6 * - ; 1 2 9  .+.+.+.+.+.+.+.",
"+.+.o.Q K K K L 9 : l n V D F 5 b K K K R o.+.+.",
"+.+.{ @   . $ & < g c M S H U Z e N B C 9 ] +.+.",
"+.+.] . r y p s f k c M S H I ~ / ` | X.C ] +.+.",
"+.+.[ . r y i s f k c M S H I W / _ } ..C ' +.+.",
"+.+.[ . r y i s d k z M S H I W / _ } ..C ' +.+.",
"+.+.] . r y i s f k c M S H I W / _ } ..C ' +.+.",
"+.+.] . r y i s f k z M S H P W / _ } ..C ' +.+.",
"+.+.] . r y i s f j c M S H I W / _ } ..C ' +.+.",
"+.+.] . r y i s d j z M S H I W / _ } ..C ' +.+.",
"+.+.] . r y i s f j c M S H I W / _ } ..C ' +.+.",
"+.+.] . r y i s f j c M S H I W / _ } ..C ' +.+.",
"+.+.] . r y i s f k c M S H P E / ` { ..C ' +.+.",
"+.+.] . r y i d d j z M S H P W / ` } ..C ' +.+.",
"+.+.] . r y i s f k c M S H I W ( ` [ ..C ' +.+.",
"+.+.] . r r i d f k z M S H I W ~ _ { ..C ' +.+.",
"+.+.] . r y i s f j c M S H I E / _ } ..C ' +.+.",
"+.+.] . r y i s f k z M S H I W / _ } ..C ] +.+.",
"+.+.] . r y i s f j z M S H I W / _ { ..C ' +.+.",
"+.+.] . r y i s d j c M S H I W / _ } ..C ' +.+.",
"+.+.] . r y p s f j c M S H I W / _ } ..C ' +.+.",
"+.+.] . r y p s d j c M S H I W / _ } X.C ] +.+.",
"+.+.| % X o , a d h z m S G J Y W ! ^ L q { +.+.",
"+.+.+.! v 8 > + O + = ; > 4 4 3 5 7 w N Q O.+.+."
};
