/* XPM */
static char *___svg[] = {
/* columns rows colors chars-per-pixel */
"24 24 115 2 ",
"   c #1C0553B61C05",
".  c #1854755C1854",
"X  c #215252B82152",
"o  c #210D5C6E210D",
"O  c #28E953E628E9",
"+  c #304B554B304B",
"@  c #38E0584038E0",
"#  c #237C680B237C",
"$  c #239F6BE2239F",
"%  c #241F6BAE241F",
"&  c #29BE61C229BE",
"*  c #231D73D8231D",
"=  c #2CA872F62CA8",
"-  c #32BD6B5132BD",
";  c #360E7374360E",
":  c #3EE373E53EE3",
">  c #40805ADE4080",
",  c #47665CEC4766",
"<  c #5509583E5509",
"1  c #55C85AD955C8",
"2  c #485A756E485A",
"3  c #5339608B5339",
"4  c #58A6626F58A6",
"5  c #517377065173",
"6  c #5A97798A5A97",
"7  c #670F695D670F",
"8  c #63937CD46393",
"9  c #0D5D82BB0D5D",
"0  c #118289DC1182",
"q  c #10CA8A7010CA",
"w  c #1CB184B81CB1",
"e  c #1F3388961F33",
"r  c #1FBD88021FBD",
"t  c #2A1F858D2A1F",
"y  c #2C7D87312C7D",
"u  c #392487E83924",
"i  c #38E6887D38E6",
"p  c #445088D64450",
"a  c #44CC895F44CC",
"s  c #51608B795160",
"d  c #5D678D3D5D67",
"f  c #5DFA8E2E5DFA",
"g  c #6DDF81E66DDF",
"h  c #6EDA8AC16EDA",
"j  c #694690616946",
"k  c #699C911B699C",
"l  c #7861879B7861",
"z  c #7F2880B97F28",
"x  c #752A94C3752A",
"c  c #75A3958B75A3",
"v  c #766596427665",
"b  c #81CF83CB81CF",
"n  c #841B861F841B",
"m  c #83D18EC383D1",
"M  c #831B9C09831B",
"N  c #83859C6A8385",
"B  c #8A2391698A23",
"V  c #8F74975A8F74",
"C  c #919A929E919A",
"Z  c #94BB94BB94BB",
"A  c #99449AAC9944",
"S  c #9FAE9FAE9FAE",
"D  c #9004A28E9004",
"F  c #90C4A37890C4",
"G  c #9B88A0BD9B88",
"H  c #9DEBAB249DEB",
"J  c #9EC1ABE39EC1",
"K  c #9FA2ACE19FA2",
"L  c #A1D0A1D0A1D0",
"P  c #A6A6A6A6A6A6",
"I  c #A3E8A8D5A3E8",
"U  c #A6F9AA05A6F9",
"Y  c #A63EADA7A63E",
"T  c #A85CA85CA85C",
"R  c #A965AC77A965",
"E  c #A833B076A833",
"W  c #AA6AB3C1AA6A",
"Q  c #ADD5B6D8ADD5",
"!  c #AE70B928AE70",
"~  c #B149B149B149",
"^  c #B318B47FB318",
"/  c #B779B779B779",
"(  c #B4ACBA2DB4AC",
")  c #BA41BBD7BA41",
"_  c #BF0AC018BF0A",
"`  c #BD69C2E7BD69",
"'  c #BEA1C426BEA1",
"]  c #C301C301C301",
"[  c #C597C597C597",
"{  c #C8AFC8AFC8AF",
"}  c #CC07CC07CC07",
"|  c #CCDBCCDBCCDB",
" . c #CFA9D06ECFA9",
".. c #CF85D21DCF85",
"X. c #D0BDD0BDD0BD",
"o. c #D0EED383D0EE",
"O. c #D1AAD26AD1AA",
"+. c #D651D651D651",
"@. c #DAEFDAEFDAEF",
"#. c #E012E012E012",
"$. c #E0F7E0F7E0F7",
"%. c #E18EE18EE18E",
"&. c #E4EEE4FFE4EE",
"*. c #E847E84AE847",
"=. c #E816E868E816",
"-. c #EAE5EADAEAE5",
";. c #EBABEB35EBAB",
":. c #EC00EC00EC00",
">. c #EFCCEF47EFCC",
",. c #F0E6F0E6F0E6",
"<. c #F48EF3F6F48E",
"1. c #F8FAF8FAF8FA",
"2. c #FB1FFB1BFB1F",
"3. c #FCCBFC1DFCCB",
"4. c #FFFFFFFFFFFF",
/* pixels */
"4.4.4.4.4.4.4.4.%.Z S S S S S C ;.4.4.4.4.4.4.4.",
"4.4.2.+.| | | | P T %.%.#.%.%.L ~ | | | | 2.4.4.",
"4.4.;.T o.} { [ [ @.%.%.#.%.%.@.] [ } o.P *.4.4.",
"4.4.;./ 2.,.>.;.*.%.%.%.#.#.%.*.;.>.>.2./ ;.4.4.",
"4.4.*./ 2.>.;.*.*.%.%.#.#.%.%.*.*.;.,.1./ *.4.4.",
"4.4.;./ 2.,.>.*.*.%.%.%.#.%.%.%.;.;.,.1./ ;.4.4.",
"4.4.*./ 1.,.>.*.%.%.%.#.%.%.%.*.=.;.>.1./ *.4.4.",
"4.4.=./ 2.>.;.*.*.*.%.%.#.%.%.%.=.;.>.1./ *.4.4.",
"4.4.*./ 1.,.;.=.*.#.%.%.#.%.%.*.*.;.,.2./ *.4.4.",
"4.4.=./ 2.,.>.;.*.#.%.#.#.%.%.%.*.;.,.2./ *.4.4.",
"4.4.=./ 1.,.;.=.%.%.%.%.%.%.%.*.*.;.>.2./ *.4.4.",
"4.4.;.( 2.,.>.=.*.%.%.%.#.%.%.%.*.;.,.2./ *.4.4.",
"4.4.;./ 3.<.,.;.=.&.&.%.%.%.;.*.:.,.,.2.( ;.4.4.",
"4.4.*.B ! W E Y I U I P P U U U ~ ^ ( ` C %.4.4.",
"4.4.*.& . * = ; : 2 5 6 8 g l m C G T ) b o.4.4.",
"4.4.#.$ q e y i p s f k v N F J ! ` o.*.A X.4.4.",
"4.4.%.$ q r y u p s f k x v D K Q `  .&.A  .4.4.",
"4.4.*.$ q r y u p s f k v M D J Q `  .&.A  .4.4.",
"4.4.&.$ q r y u p s f k v M D J Q `  .&.A  .4.4.",
"4.4.&.$ q r y u p s f k v M D J Q `  .*.A  .4.4.",
"4.4.#.% q r y u a s f k v M D K Q '  .%.A  .4.4.",
"4.4.*.% q r y u a s f h v v D J Q '  .;.A  .4.4.",
"4.4.*.# 9 w t u a s j k v M D J E ( ` [ z  .4.4.",
"4.4.,.h - o   X O O @ @ , 1 1 4 4 1 1 7 n *.4.4."
};
