/* XPM */
static char *___svg[] = {
/* columns rows colors chars-per-pixel */
"24 24 105 2 ",
"   c #1FE44EF61FE4",
".  c #271D50EE271D",
"X  c #2EE952A32EE9",
"o  c #3652549A3652",
"O  c #3DA056E13DA0",
"+  c #20E1632720E1",
"@  c #2355682B2355",
"#  c #2DB861162DB8",
"$  c #275B7ECD275B",
"%  c #33767F333376",
"&  c #447A593C447A",
"*  c #4B675BF54B67",
"=  c #541558C05415",
"-  c #56305FC35630",
";  c #596C5C78596C",
":  c #4BC5763D4BC5",
">  c #55196C6D5519",
",  c #5CDA7F975CDA",
"<  c #624B7CB7624B",
"1  c #64A57BBD64A5",
"2  c #6B377BD86B37",
"3  c #6EAF7C9B6EAF",
"4  c #700872497008",
"5  c #72257DC77225",
"6  c #76E678CF76E6",
"7  c #79417AE77941",
"8  c #0D1F80DD0D1F",
"9  c #118889F51188",
"0  c #11A08A7A11A0",
"q  c #1C0482581C04",
"w  c #1FC5883A1FC5",
"e  c #29AF846029AF",
"r  c #2CB687D62CB6",
"t  c #392387E53923",
"y  c #395188543951",
"u  c #445D88EF445D",
"i  c #451D8933451D",
"p  c #4AB7824B4AB7",
"a  c #565D8463565D",
"s  c #51548B0A5154",
"d  c #51768B6E5176",
"f  c #5AA382625AA3",
"g  c #5D698D315D69",
"h  c #6D288BB56D28",
"j  c #6950906F6950",
"k  c #7B9483157B94",
"l  c #752A94C3752A",
"z  c #7679965C7679",
"x  c #79EB91E579EB",
"c  c #810986C68109",
"v  c #86F88B5686F8",
"b  c #8A7D8C568A7D",
"n  c #83AD965B83AD",
"m  c #828B9B40828B",
"M  c #839A9C84839A",
"N  c #86E498EE86E4",
"B  c #8F2690BA8F26",
"V  c #94BB94BB94BB",
"C  c #973A98A1973A",
"Z  c #9C4F9C4F9C4F",
"A  c #9004A28E9004",
"S  c #904CA2DC904C",
"D  c #94F2A1C894F2",
"F  c #9DFEAB399DFE",
"G  c #A1D0A1D0A1D0",
"H  c #A6A6A6A6A6A6",
"J  c #A360AC3BA360",
"K  c #A85CA85CA85C",
"L  c #A968B274A968",
"P  c #ADCFB6D1ADCF",
"I  c #AE5CB763AE5C",
"U  c #B149B149B149",
"Y  c #B2B9B82CB2B9",
"T  c #B78DB78DB78D",
"R  c #B3D4B94AB3D4",
"E  c #BDCDC34CBDCD",
"W  c #C301C301C301",
"Q  c #C40AC533C40A",
"!  c #C597C597C597",
"~  c #C8AFC8AFC8AF",
"^  c #CE20CE20CE20",
"/  c #CFA6D23ECFA6",
"(  c #D2AFD2AFD2AF",
")  c #D651D651D651",
"_  c #D856D968D856",
"`  c #D919D8E1D919",
"'  c #DB7DDB8BDB7D",
"]  c #DD29DC78DD29",
"[  c #E012E012E012",
"{  c #E0A5DFCFE0A5",
"}  c #E0F2E0F2E0F2",
"|  c #E3EFE3EDE3EF",
" . c #E4A5E3E5E4A5",
".. c #E864E864E864",
"X. c #E94DE81DE94D",
"o. c #EB3FEB3FEB3F",
"O. c #EC00EC00EC00",
"+. c #ECEFECEEECEF",
"@. c #EDDDEDEFEDDD",
"#. c #F136EFCFF136",
"$. c #F0E6F0E6F0E6",
"%. c #F1B9F1B8F1B9",
"&. c #F901F901F901",
"*. c #FB2EFB2EFB2E",
"=. c #FFFFFFFFFFFF",
/* pixels */
"=.=.=.=.=.=.=.=.} V G Z G Z G V o.=.=.=.=.=.=.=.",
"=.=.*.) ^ ^ ^ ^ H H } } } } } G U ^ ^ ^ ^ *.=.=.",
"=.=.o.K ( ^ ~ W W ] } } [ } } ' ! ~ ~ ( G o.=.=.",
"=.=.o.T *.#.@.o.o.[ } } [ } } ..o.@.$.*.T o.=.=.",
"=.=...T *.@.o.o.o.} } } [ } } ....o.%.&.T X.=.=.",
"=.=...T *.%.o.o...} } } [ } [ ..o.o.$.&.T X.=.=.",
"=.=...T *.@.@...} } } } } } } ..X.o.@.&.T ..=.=.",
"=.=.o.T *.@.@.o.....} } } } } } X.O.$.&.T ..=.=.",
"=.=.o.T *.%.o.X...[ } } { } } ....o.%.&.T ..=.=.",
"=.=...T *.%.@.o...[ } { } } } ..o.@.%.*.T ..=.=.",
"=.=...U @.o. .{ ] ' ' ) ) ' ' ' ' } o.@.P X.=.=.",
"=.=...> f , < < 1 1 2 3 5 5 k c v B V D 6 ' =.=.",
"=.=.{ + 8 q $ % % p a g h x N D J R Q _ B ^ =.=.",
"=.=. .@ 0 w r t p d g j l m A J P E / ..C ^ =.=.",
"=.=. .@ 0 w r y i d g j l m A F P E ( } C ^ =.=.",
"=.=. .@ 0 w r y i d g h l m A F P E / ..V / =.=.",
"=.=. .@ 0 w r t i d g j l m A F P E / | C ^ =.=.",
"=.=. .@ 0 w r t i d g j l m A F P E / | C / =.=.",
"=.=. .@ 0 w r t i d g j l m A F P E / ..C ^ =.=.",
"=.=. .@ 0 q r t i d g j l m A F I E / | C ^ =.=.",
"=.=.[ @ 0 w r y i d g j l m A F P E / ..C / =.=.",
"=.=...@ 0 q r y i d g j l M A J P E / ..C ^ =.=.",
"=.=.| @ 8 q e y i d g j l M A F L R E Q 7 / =.=.",
"=.=.$.n : # . . . X o O & * * - = = ; 4 b ..=.=."
};
