/* XPM */
static char *___svg[] = {
/* columns rows colors chars-per-pixel */
"24 24 110 2 ",
"   c #0C747A300C74",
".  c #15F36C3C15F3",
"X  c #1B757ECC1B75",
"o  c #25F44DD225F4",
"O  c #249B5FAA249B",
"+  c #293F54BB293F",
"@  c #2CAD50222CAD",
"#  c #34BD52A234BD",
"$  c #3C7E55783C7E",
"%  c #222564992225",
"&  c #203F6B69203F",
"*  c #291F6AD7291F",
"=  c #31ED6AD031ED",
"-  c #3A166B523A16",
";  c #432757934327",
":  c #4A245AA44A24",
">  c #4F3F5C4E4F3F",
",  c #51BA589751BA",
"<  c #52FC5C9F52FC",
"1  c #557759F75577",
"2  c #42BE6CBD42BE",
"3  c #4B486E314B48",
"4  c #53D170A153D1",
"5  c #5C0B73A35C0B",
"6  c #60FE640B60FE",
"7  c #660E78B9660E",
"8  c #74D2772274D2",
"9  c #761778637617",
"0  c #116D89A5116D",
"q  c #112F8A7E112F",
"w  c #1F5689091F56",
"e  c #1FC688361FC6",
"r  c #2C2D87862C2D",
"t  c #2BE7885D2BE7",
"y  c #38FE87E038FE",
"u  c #390B8876390B",
"i  c #440C8815440C",
"p  c #44E688C344E6",
"a  c #44FD89AC44FD",
"s  c #51348AEA5134",
"d  c #51658BBE5165",
"f  c #5CFA8CBF5CFA",
"g  c #5D898DD45D89",
"h  c #694990646949",
"j  c #79B0842A79B0",
"k  c #752494BD7524",
"l  c #75E195D575E1",
"z  c #84A28C1F84A2",
"x  c #882F8CAB882F",
"c  c #83489BFA8348",
"v  c #844B9D3C844B",
"b  c #8F8E91908F8E",
"n  c #94BB94BB94BB",
"m  c #942B95F8942B",
"M  c #9564972D9564",
"N  c #93D29F6993D2",
"B  c #9C4F9C4F9C4F",
"V  c #9F1C9F1C9F1C",
"C  c #9047A2D19047",
"Z  c #90CAA37990CA",
"A  c #9159A4149159",
"S  c #9EA3A2639EA3",
"D  c #9FF6A4BA9FF6",
"F  c #9D53AA7F9D53",
"G  c #9EBBABDE9EBB",
"H  c #9FF8AD3A9FF8",
"J  c #A1D0A1D0A1D0",
"K  c #A1B6A6F9A1B6",
"L  c #A414A629A414",
"P  c #A402A9E1A402",
"I  c #A674AD07A674",
"U  c #A6EAAFF1A6EA",
"Y  c #A85CA85CA85C",
"T  c #AA58ABFFAA58",
"R  c #AC58AE02AC58",
"E  c #AA81B1D7AA81",
"W  c #ADC3B6C6ADC3",
"Q  c #AF31B846AF31",
"!  c #B11BB6A4B11B",
"~  c #B490B600B490",
"^  c #B78BB78BB78B",
"/  c #B909B8FCB909",
"(  c #BC72BF2EBC72",
")  c #BDCDC34CBDCD",
"_  c #BEA0C41EBEA0",
"`  c #C301C301C301",
"'  c #C597C597C597",
"]  c #C8AFC8AFC8AF",
"[  c #CC07CC07CC07",
"{  c #CCDBCCDBCCDB",
"}  c #CFA6D23ECFA6",
"|  c #D17DD412D17D",
" . c #D2AFD2AFD2AF",
".. c #D651D651D651",
"X. c #DAEFDAEFDAEF",
"o. c #E0F4E0F4E0F4",
"O. c #E3D4E3C9E3D4",
"+. c #E469E330E469",
"@. c #E55BE646E55B",
"#. c #E82DE848E82D",
"$. c #E8F3E8F3E8F3",
"%. c #EB0FEB05EB0F",
"&. c #ED02ED02ED02",
"*. c #F0E6F0E6F0E6",
"=. c #F4B0F43AF4B0",
"-. c #F741F768F741",
";. c #F90CF90CF90C",
":. c #FB43FB3EFB43",
">. c #FCECFC66FCEC",
",. c #FFFFFFFFFFFF",
/* pixels */
",.,.,.,.,.,.,.,.o.n V B V V V n %.,.,.,.,.,.,.,.",
",.,.:...{ { { { Y Y o.#.o.o.o.J ^ { { { { :.,.,.",
",.,.%.Y  .{ ] ' ` X.o.o.o.o.o.X.' ' {  .L %.,.,.",
",.,.%.^ >.*.&.%.#.o.o.o.X.o.o.#.%.&.*.:.^ %.,.,.",
",.,.#.^ :.&.&.#.+.#.o.o.o.o.#.o.#.%.&.-.^ #.,.,.",
",.,.%.^ :.*.&.%.#.o.o.o.o.o.o.#.%.&.*.:.^ %.,.,.",
",.,.#.^ :.*.&.&.o.o.o.o.o.X.o.#.%.%.&.:.^ #.,.,.",
",.,.%.^ :.*.&.&.%.#.#.o.+.#.o.#.&.&.*.:./ #.,.,.",
",.,.%.x E T P L D S S S S S J L U T E ^ x o.,.,.",
",.,.o.+ . . * = - 2 3 4 5 7 8 j z b S R 9  .,.,.",
",.,.+.% q e r y a s g h l c A H Q ) | O.n { ,.,.",
",.,.o.% q e r y a s g h l c A G Q ) | #.n { ,.,.",
",.,.+.% q w r y i s f h l c C G W ) } O.n { ,.,.",
",.,.+.% q w r y i s f h l c C G W ) } O.m { ,.,.",
",.,.+.% q w t u i s f h l c C G W ) } O.m { ,.,.",
",.,.+.% q w t u i s f h k c C G Q ) } #.m { ,.,.",
",.,.+.% q e r y a s f h k c C H W ) } O.m } ,.,.",
",.,.+.% q e r y i s f h k c C P W ) } O.m { ,.,.",
",.,.+.% q e r y a s g h k c A D W ) } o.n { ,.,.",
",.,.+.% q e r y i s f h k c A G W ) } #.n ] ,.,.",
",.,.+.% q e r y a s g h k c C F W ) } #.m } ,.,.",
",.,.+.% q e r y a s g h k c C G W ) } #.M { ,.,.",
",.,.+.O   X X y a s g h k c A G U ! ( ) 8 } ,.,.",
",.,.-.N 5 2 @ o o @ # $ ; : > < , 1 6 8 b &.,.,."
};
