/* XPM */
static char *___svg[] = {
/* columns rows colors chars-per-pixel */
"24 24 104 2 ",
"   c #1E4C53E31E4C",
".  c #0B096B160B09",
"X  c #09A173CA09A1",
"o  c #17DD75BE17DD",
"O  c #243146152431",
"+  c #284746B82847",
"@  c #2E8948FB2E89",
"#  c #21485C9E2148",
"$  c #35654BAF3565",
"%  c #3B0E4DAC3B0E",
"&  c #3525525E3525",
"*  c #2FE659B62FE6",
"=  c #231B753A231B",
"-  c #27207CD32720",
";  c #2E0075442E00",
":  c #33F77FEB33F7",
">  c #394276583942",
",  c #411B503D411B",
"<  c #44F050B944F0",
"1  c #492D5207492D",
"2  c #529156F75291",
"3  c #445F786D445F",
"4  c #4EE57A174EE5",
"5  c #528F6792528F",
"6  c #59E07D5A59E0",
"7  c #669D69AB669D",
"8  c #645D6D3C645D",
"9  c #6D106F686D10",
"0  c #6E7A70D86E7A",
"q  c #6F1176A06F11",
"w  c #700F76AD700F",
"e  c #70157C677015",
"r  c #70FE7EC070FE",
"t  c #7519797A7519",
"y  c #786D7C33786D",
"u  c #0FFE866D0FFE",
"i  c #101A8782101A",
"p  c #1F89882F1F89",
"a  c #1FC2891A1FC2",
"s  c #2C0E87822C0E",
"d  c #383987833839",
"f  c #421F8483421F",
"g  c #44C988A444C9",
"h  c #454889984548",
"j  c #4F59884D4F59",
"k  c #51968B875196",
"l  c #5CFC8CC25CFC",
"z  c #5DAA8DBF5DAA",
"x  c #68CF8FC268CF",
"c  c #6A10916B6A10",
"v  c #721381577213",
"b  c #7302810C7302",
"n  c #7F9182867F91",
"m  c #7C948DBC7C94",
"M  c #748E9415748E",
"N  c #752694BF7526",
"B  c #803E8293803E",
"V  c #841686BA8416",
"C  c #89798BF18979",
"Z  c #81EC9A8281EC",
"A  c #83479BFA8347",
"S  c #898495BC8984",
"D  c #8D549FB98D54",
"F  c #901A91E7901A",
"G  c #94BB94BB94BB",
"H  c #9C4F9C4F9C4F",
"J  c #9FAE9FAE9FAE",
"K  c #9048A2D39048",
"L  c #9154A3FA9154",
"P  c #9989A6729989",
"I  c #9ED5ABD79ED5",
"U  c #A356A362A356",
"Y  c #A6DFA6DDA6DF",
"T  c #A380AC0AA380",
"R  c #A8D6A865A8D6",
"E  c #ABBAAD0FABBA",
"W  c #ACDCB269ACDC",
"Q  c #AE8CB72AAE8C",
"!  c #AFD6B87AAFD6",
"~  c #B183B181B183",
"^  c #B47EB625B47E",
"/  c #B855BB2FB855",
"(  c #BDE9C36BBDE9",
")  c #C2FAC28CC2FA",
"_  c #C5C8C544C5C8",
"`  c #C92BC890C92B",
"'  c #CB09CB16CB09",
"]  c #CD1CCC68CD1C",
"[  c #CECACEC8CECA",
"{  c #CFC0D258CFC0",
"}  c #D309D23CD309",
"|  c #D675D674D675",
" . c #DAD2DA77DAD2",
".. c #DFA1DF77DFA1",
"X. c #E064E02CE064",
"o. c #E1C3E1AFE1C3",
"O. c #E471E34AE471",
"+. c #E46CE385E46C",
"@. c #E671E751E671",
"#. c #E8A1E80BE8A1",
"$. c #EB54EB53EB54",
"%. c #F832F858F832",
"&. c #FB49FB49FB49",
"*. c #FFFFFFFFFFFF",
/* pixels */
"*.*.*.*.*.*.*.*.o.G J J J J H G $.*.*.*.*.*.*.*.",
"*.*.&.| { ] ] ] Y R o.o...o.X.U W } ] ] ] %.*.*.",
"*.*.$.R } ] ` _ )  .o.X.X.X.o. ._ _ ] } Y $.*.*.",
"*.*.@.8 v e e e e q q w w e t y y n V C 9 ..*.*.",
"*.*.O.  X o = ; > 3 4 6 e x m S P T ^ ` y ' *.*.",
"*.*.O.# i a s d h k l x M A L T ! ( } @.G ' *.*.",
"*.*.O.# i p s d h k l x M A L I Q ( } @.C ] *.*.",
"*.*.O.# i p s d h k l x M A L I Q ( { O.G ] *.*.",
"*.*.O.# u p s d g k l x M A L I Q ( { @.S ] *.*.",
"*.*.O.# u p s d g k l x N A L I Q ( { @.G ` *.*.",
"*.*.O.# u p s d g k l x M A L I Q ( { @.S ' *.*.",
"*.*...# u p s d g k l x M A K I Q ( { @.G ' *.*.",
"*.*.O.# i p s d h k l x M A L I Q ( { @.S ] *.*.",
"*.*.O.# i a s d h k l x M A L I Q ( { @.G ` *.*.",
"*.*.O.# i p s d h k l x M A L I ! ( ] @.S ] *.*.",
"*.*.O.# i a s d g k l x M A D I ~ ( } @.F ] *.*.",
"*.*.O.# i p s d g k l x M A L I Q ( { @.C ` *.*.",
"*.*.O.# i p s d g k l x M A L I Q ( { @.G ` *.*.",
"*.*.O.# u p s d g k l x M A L I Q ( { @.S ] *.*.",
"*.*.O.# u p s d h k l x N A L I Q ( { @.G ` *.*.",
"*.*.O.# u p s d g k l x M A L I ! ( } @.S ' *.*.",
"*.*.O.# i a s d g k l x M A L I Q ( ] $.G ' *.*.",
"*.*.#.* . o - : f j l x M A D P T W / ^ 9 } *.*.",
"*.*.*./ v 5 $ O O O @ $ % , < 1 1 2 7 B E %.*.*."
};
