/* XPM */
static char *_[] = {
/* columns rows colors chars-per-pixel */
"36 36 95 2 ",
"   c #AB34273E2660",
".  c #ABA328422763",
"X  c #ABAD2AF12A13",
"o  c #BFBC217620E8",
"O  c #BFF62CD92C4F",
"+  c #AAD62FEA2F11",
"@  c #A46C355C347D",
"#  c #A0863BCF3AF0",
"$  c #AE543E9E3DBE",
"%  c #BEA234B4342A",
"&  c #BB6E3D4D3CC2",
"*  c #C0AB2592250A",
"=  c #CB0C2411238A",
"-  c #C268286727D0",
";  c #CF262AC72A5F",
":  c #C186318130F9",
">  c #C0B73C613BBA",
",  c #D14F35E5358D",
"<  c #D1463EEC3E99",
"1  c #9ECF438542A6",
"2  c #9E084DF24D13",
"3  c #9F70585A5792",
"4  c #B93D4425439B",
"5  c #B7934EF04E65",
"6  c #B87648ED4863",
"7  c #B4315513546F",
"8  c #B64C5D7F5CFE",
"9  c #A20A68C26809",
"0  c #A9876C366B44",
"q  c #B7B9654764CE",
"w  c #B62F6D0A6C31",
"e  c #B93071C87146",
"r  c #C198458344DA",
"t  c #D026451844C5",
"y  c #CF9E47DF478C",
"u  c #CEFC4C134BBF",
"i  c #D06744C94476",
"p  c #C33857B5570C",
"a  c #CE77526D5219",
"s  c #CEA65B8B5B37",
"d  c #CE39644963F6",
"f  c #CBA96D6E6D18",
"g  c #CB7570316FD9",
"h  c #C57F7535746E",
"j  c #CC4E712970D2",
"k  c #CAB77852779A",
"l  c #C3C87C157B60",
"z  c #8A758569844C",
"x  c #968896659621",
"c  c #986E97299644",
"v  c #9F039F039F04",
"b  c #A4FC818A80BE",
"n  c #BE19843D8381",
"m  c #B106883D87D9",
"M  c #A39C95EB9582",
"N  c #A9E797A79710",
"B  c #A7129BEF9B98",
"V  c #A0BCA083A016",
"C  c #B5D4A08CA01D",
"Z  c #A25CA1AFA167",
"A  c #ABFCAC06ABFA",
"S  c #B3A0B393B360",
"D  c #BAC7B6FDB6BB",
"F  c #BDA1BDA2BDA2",
"G  c #C08B81A980F7",
"H  c #C12B8B2E8A98",
"J  c #C23290BA9009",
"K  c #C24793B89306",
"L  c #C56F9B639AB8",
"P  c #C594A506A464",
"I  c #C748B36AB30E",
"U  c #CDCCBD53BCEE",
"Y  c #D181BDBEBD53",
"T  c #C2EBC2F0C2EF",
"R  c #CF49C108C09D",
"E  c #CCE2CCE1CCDF",
"W  c #D410C368C2FF",
"Q  c #DBA6C3AAC341",
"!  c #D74DCA45C9DD",
"~  c #D8E2CEA9CE43",
"^  c #D692D693D693",
"/  c #D93ED22AD1C5",
"(  c #D819DA19DA0A",
")  c #DEF9DEF0DEEF",
"_  c #E352C9D6C974",
"`  c #E339E342E341",
"'  c #E9AAE7ABE78C",
"]  c #E7A5E89DE89F",
"[  c #ED23ED2CED2C",
"{  c #F0F3EE07EDEF",
"}  c #EF95F0DDF0E1",
"|  c #F59FF5B7F5B7",
" . c #F86DF877F878",
".. c #F802F8E4F8E6",
"X. c #FEEDFEF0FEF0",
/* pixels */
"X.X.X.X.X.X.X.X.X.X.X...' F x v v v v v v v x Z )  .X.X.X.X.X.X.X.X.X.X.",
"X.X.X.X. .[ ] ] ] ] ' ` E A V F T F T F T F A v T ) ] [ ] ] [ | X.X.X.X.",
"X.X.X. .` E E E E E E T S A F ( ` ` ` ) ` ) T A S T E E E E T `  .X.X.X.",
"X.X.X.| E S E E E T E T F T ^ ) ` ` ) ` ` ` ( E T T T T E E A E | X.X.X.",
"X.X.X.[ E D ) ` ) ( ( ^ ^ ( ) ` ) ` ` ) ` ` ` ` ) ( ) ( ` ( S E | ..X.X.",
"X.X.X.[ E T [ ..| { [ [ ' ` ` ) ` ) ) ) ` ) ` ' [ [ [ [  .[ T E [ X.X.X.",
"X.X.X.[ E T |  .[ [ [ ] ] ` ) ` ) ) ` ` ) ` ` ] ' ' [ |  .[ T E [ ..X.X.",
"X.X...[ E T [  .[ [ ' ] ' ` ` ` ` ) ) ) ` ) ` ` ] ' [ {  .[ T E [ X.X.X.",
"X.X.X.[ / T [  .[ [ [ ] ] ` ` ) ` ` ` ) ) ) ` ` ] ' [ }  .[ T E { X.X.X.",
"X.X...| E T }  .[ [ [ ] ' ` ) ` ) ) ) ) ` ` ` ' ' [ [ [  .[ T E [ ..X.X.",
"X.X.X.[ E T [  .[ [ [ ] ] ` ` ` ` ) ) ` ` ) ` ' ] [ [ [  .[ T E [ X.X.X.",
"X.X...[ E T [ ..[ [ [ ] ] ` ) ) ` ) ) ) ` ` ` ` ] ] [ [  .[ T E [ X.X.X.",
"X.X.X.[ E T { ..[ [ [ ` ] ` ) ` ` ) ` ) ` ) ` ] ] ' [ {  .[ T E [ X.X.X.",
"X.X.X.[ E F [ ..| [ [ ] ] ` ` ` ) ` ` ) ) ` ` ] ` [ [ }  .[ T E [ ..X.X.",
"X.X.X.[ E T [ ..[ [ [ ] ] ` ` ) ` ) ) ` ) ` ` ` ] ' [ } ..[ T E [ X.X.X.",
"X.X.X.[ E T [ ..} [ [ ] ] ` ) ` ` ` ) ) ` ) ` ` [ [ [ }  .[ T E [ X.X.X.",
"X.X.X.[ E T } | [ [ ' ] ' ` ) ` ) ` ) ` ` ) ` ] ' ' [ }  .[ T E [ ..X.X.",
"X.X. .[ E T } ..| [ [ ' ] ` ` ) ` ) ) ) ) ` ] ] ` [ [ }  .[ T E [ X.X.X.",
"X.X...[ E T } | [ [ ] ] ] ` ` ` ` ) ) ` ) ` ` ] ] ' [ [  .[ T E [ ..X.X.",
"X.X.X.[ E T [ ..} [ [ ' ' ` ) ` ) ) ` ) ` ) ` ` ] ' [ | | [ T E [ X.X.X.",
"X.X.X.[ E T [ | { [ [ [ ] ` ) ) ` ) ) ` ) ` ` ` ] ' [ }  .[ T E [ ..X.X.",
"X.X.X.[ E T [ | } [ [ ` ' ` ` ` ) ` ) ` ) ` ) ] [ [ [ [ | [ T E [ X.X.X.",
"X.X...[ E T [  .} [ [ ] ] ` ` ) ` ` ) ) ` ` ` ] ] [ [ [  .{ T E [ X.X.X.",
"X.X...| ~ T }  .} [ [ ' ' ` ` ` ) ) ) ` ) ` ` ] ] ' [ [  .[ T E [ X.X.X.",
"X.X...{ E T [ ..} { [ ] ` ` ` ) ` ) ) ` ) ` ` ] ` ' [ }  .[ T E [ X.X.X.",
"X.X.X.[ E T [ | } } [ ] ] ` ` ) ` ` ) ) ` ` ` ] ] [ [ }  .[ T E [ X.X.X.",
"X.X.X.[ E T |  .[ [ [ ] ] ` ) ` ) ` ) ` ` ) ` ] ' ' [ [  .[ T E [ ..X.X.",
"X.X...[ E T [  .[ [ ] ] ] ` ` ) ) ) ) ` ) ` ` ` ' [ [ [  .[ T E [ X.X.X.",
"X.X.X.[ E T [  .[ [ [ ] ] ` ) ` ` ) ) ` ` ) ` ` ] [ [ }  .[ T E [ ..X.X.",
"X.X.X.[ E T [  .| [ [ [ ] ` ` ` ` ` ` ) ` ` ` ] ] [ [ }  .[ T E | ..X.X.",
"X.X.X.[ E T [ ..| [ [ [ ] ` ` ) ` ` ` ) ` ` ` ] ' [ } } ..} T E [ X.X.X.",
"X.X.X.[ R C Q _ Q Q W W Y Y U U U U U U R R R W W ! ~ / ) ( S T [ X.X.X.",
"X.X.X.[ P 0 h k k k h l l l n G G G n H H H K J K K L P I D c S ] ..X.X.",
"X.X.X.[ L $ - = = ; ; ; , < i t y u a a s s d d f f j j G N z S [ ..X.X.",
"X.X.X...Q k p 4 > : * * * * O O O % % & 4 4 6 5 7 8 q e m B V E  .X.X.X.",
"X.X.X.X.{ ! L n w 7 $ + .       X X X @ @ # 1 1 2 3 9 b M A T ] ..X.X.X."
};
