/* XPM */
static char *__[] = {
/* columns rows colors chars-per-pixel */
"36 36 161 2 ",
"   c #B87453034AD8",
".  c #BA905B1453B7",
"X  c #A5F26BED43A7",
"o  c #A5EA6B774E6C",
"O  c #A6A972C54127",
"+  c #A74E7BFE4242",
"@  c #A82272A05D9D",
"#  c #AE6D78967414",
"$  c #C511504B4781",
"%  c #DEDA5422430B",
"&  c #ED075EC244BA",
"*  c #F08F595D4712",
"=  c #CBE477BE4F93",
"-  c #CD387D434D22",
";  c #CAD374FF5528",
":  c #CAF175BD5E10",
">  c #EEE66C2E493D",
",  c #FCBD65D94A55",
"<  c #FB2071C14D5F",
"1  c #F2E478D94CEE",
"2  c #E0C0678C5894",
"3  c #EA7372705C37",
"4  c #E6EA7A855D67",
"5  c #FAA87CE04FE1",
"6  c #C9E3734262A4",
"7  c #C61B76906C27",
"8  c #9CED9DD75EA3",
"9  c #A7F2852D43AF",
"0  c #A8428B0444F1",
"q  c #A7F7909346C7",
"w  c #A7269591490C",
"e  c #A5429C3D4CC4",
"r  c #A1F0A1355455",
"t  c #9867997A67B0",
"y  c #968B97A773F2",
"u  c #AD9A806E72BB",
"i  c #CDC284774D36",
"p  c #CDCA8BF34E3F",
"a  c #CD83937A4FBE",
"s  c #CD219ADE5152",
"d  c #E526827A5EA6",
"f  c #E2B989B55FC8",
"g  c #F5C8855E5100",
"h  c #F8E487205248",
"j  c #F791917D552E",
"k  c #F8509CDD590E",
"l  c #CCF7A201531F",
"z  c #CC81AC3055F5",
"x  c #CBB9B5EB5982",
"c  c #CB21BC225C6D",
"v  c #F7A4A6745B66",
"b  c #F66BAF4C5D79",
"n  c #E0CD91026148",
"m  c #E07F991A638B",
"M  c #DF0EA39F6589",
"N  c #DDCDAE3468A4",
"B  c #DCEDB47C6A3F",
"V  c #DC2CBA8B6BE3",
"C  c #F594B876608A",
"Z  c #CA69C2115F4D",
"A  c #C9D0C6A5640F",
"S  c #C8D0C8B56B42",
"D  c #DBDAC1176E77",
"F  c #C6C7C736752F",
"G  c #C1D7C2717E8F",
"H  c #DBE2C797713D",
"J  c #DC0BCDFD7402",
"K  c #DC1ED43376B5",
"L  c #DC23D9167AB4",
"P  c #F443C31E636E",
"I  c #F3DFC8AC6596",
"U  c #F334D09167C2",
"Y  c #F30FD8AA6AFB",
"T  c #F317E0A76E5A",
"R  c #F32AEB977460",
"E  c #F348F2887F85",
"W  c #8EEF8EEE8EEF",
"Q  c #9A619B7384D3",
"!  c #91D891D891D8",
"~  c #9E469F4391E7",
"^  c #9CD19CD09CD0",
"/  c #AE7788AF8052",
"(  c #C01989E68512",
")  c #B517986A93D1",
"_  c #BD47BDEA8903",
"`  c #A4B7A5A796E0",
"'  c #BC56BCFF962A",
"]  c #A376A3DBA149",
"[  c #AAB0AB63A238",
"{  c #AD82AD9BAC86",
"}  c #B726ACCCABCB",
"|  c #B4B0B558A4FB",
" . c #BD36BDD5A2C2",
".. c #BA18BAADA9D3",
"X. c #B562B597B45D",
"o. c #B9E8BA6AB5B1",
"O. c #BD94BDB0BD98",
"+. c #D0188C148348",
"@. c #CFF29E328613",
"#. c #D41297C2870C",
"$. c #D1D19B038673",
"%. c #D8C095488871",
"&. c #CF0C99D99714",
"*. c #CA699E209BAA",
"=. c #CDF8A379865F",
"-. c #CA88AB9B86AA",
";. c #C8D9B46388B7",
":. c #C86CBB8D8B6E",
">. c #C566ABD9AA4F",
",. c #CBB4BC54BA68",
"<. c #C8C5C2FF8EC6",
"1. c #DC5ADC39819F",
"2. c #DCFBDD598CA8",
"3. c #CA4AC9DE9541",
"4. c #CBB3CC659EF4",
"5. c #DD6CDDE194D1",
"6. c #DE76DEDE9F18",
"7. c #F3A4F2E58069",
"8. c #F39CF3878D02",
"9. c #EF8BEF9F97F5",
"0. c #F309F3129AB7",
"q. c #CCBBCD70A3CB",
"w. c #D049D0F4B40A",
"e. c #D4FBD558B899",
"r. c #E9F0EA07A209",
"t. c #E5A9E5D2ACAE",
"y. c #F296F291A8E1",
"u. c #E0D7E13DB092",
"i. c #E576E5A0BACB",
"p. c #F339F338B7AF",
"a. c #BF5CC0A3C0B0",
"s. c #C34BC339C334",
"d. c #C8ACC8D0C80D",
"f. c #CCC0CCC7CCBE",
"g. c #D9ADC34CC1DB",
"h. c #D27ACE21C5F0",
"j. c #D1DAD0D3C6A9",
"k. c #D45CD46BC94D",
"l. c #DBDBD20FCDA2",
"z. c #D843D863CE50",
"x. c #D93CD972CE03",
"c. c #D36DD386D37E",
"v. c #DAB1DAF2D2A0",
"b. c #DDF6DE33DE68",
"n. c #E2F4D74FD409",
"m. c #E90FDBE3D965",
"M. c #DFD9E066E05A",
"N. c #E639E65EC7BE",
"B. c #EAC5EAE5CBEC",
"V. c #F8F1F8E9CB8A",
"C. c #E1A6E1CFDC1F",
"Z. c #E05DDF8FE1CF",
"A. c #E031E0E0E100",
"S. c #E331E34AE34C",
"D. c #E922E701E6EC",
"F. c #E6B2E7EAE940",
"G. c #E861E87AE879",
"H. c #EC9EEC96EC9A",
"J. c #F06FF071F073",
"K. c #F4EFF4FEF504",
"L. c #FEB2FEB3FEB4",
/* pixels */
"L.L.L.L.L.L.L.L.L.L.L.L.S.X.W ^ ^ ^ ^ ^ ^ ^ ! ^ v.K.L.L.L.L.L.L.L.L.L.L.",
"L.L.L.L.K.G.S.S.Z.Z.S.b.s.{ ] o.O.O.a.O.a.a.{ ^ a.b.S.Z.S.S.S.J.L.L.L.L.",
"L.L.L.K.Z.d.d.d.a.d.s.w.{ { O.b.S.S.Z.S.G.S.d.{ { O.d.d.d.d.s.b.K.L.L.L.",
"L.L.L.K.f.o.c.c.c.f.d.s.a.f.c.A.S.S.Z.Z.S.S.b.c.d.d.d.f.c.f.o.d.K.L.L.L.",
"L.L.L.J.d.O.Z.G.S.b.b.b.b.A.A.A.A.A.b.b.A.S.S.C.b.b.Z.S.F.S.O.d.H.L.L.L.",
"L.L.L.H.f.s.K.K.J.J.H.G.F.F.A.A.Z.Z.A.A.b.A.S.G.G.H.H.J.K.J.a.f.H.K.L.L.",
"L.L.K.J.f.s.H.K.J.H.H.H.F.S.A.A.A.A.A.A.A.S.S.G.G.H.H.J.K.J.s.f.H.L.L.L.",
"L.L.L.H.f.s.K.K.J.H.G.G.D.S.A.A.S.S.S.A.A.S.S.G.G.G.H.J.K.H.a.f.H.L.L.L.",
"L.L.L.H.f.s.K.K.K.H.G.G.G.S.S.m.b.Z.A.A.A.m.S.G.G.H.G.J.K.J.a.f.H.L.L.L.",
"L.L.L.H.f.s.H.K.K.H.H.G.D.S.b.S.b.b.b.A.A.S.S.S.G.G.H.J.K.J.s.f.H.K.L.L.",
"L.L.K.K.f.s.K.K.J.J.H.G.G.S.S.S.A.b.A.A.A.S.S.G.G.G.H.J.K.H.s.f.H.L.L.L.",
"L.L.L.H.f.s.H.K.H.H.G.G.G.S.S.S.S.A.S.A.A.S.S.S.G.H.H.J.K.H.s.f.H.L.L.L.",
"L.L.K.K.f.s.K.K.K.G.G.G.G.G.S.A.A.M.b.b.A.S.S.G.G.G.H.J.L.H.a.f.H.K.L.L.",
"L.L.L.H.d.s.H.L.K.H.H.G.G.S.S.b.A.A.M.A.A.S.S.F.G.D.H.J.K.J.s.f.H.L.L.L.",
"L.L.L.H.f.s.H.K.H.H.H.G.S.S.S.S.M.S.S.S.Z.Z.S.D.H.G.H.J.K.H.s.f.H.L.L.L.",
"L.L.L.G.f.s.H.K.K.H.G.G.G.G.S.A.S.S.b.b.m.S.S.S.D.H.H.J.K.J.s.f.H.L.L.L.",
"L.L.L.H.f.s.K.K.K.H.G.G.S.F.S.A.M.M.C.S.A.M.S.S.D.G.H.H.K.H.s.f.K.K.L.L.",
"L.L.K.H.f.s.H.L.H.H.H.G.S.S.S.F.b.b.S.S.S.S.S.S.G.H.G.K.K.J.s.f.H.K.L.L.",
"L.L.L.H.f.s.H.K.K.G.G.G.F.G.S.A.b.b.b.b.S.S.S.G.G.H.G.H.K.H.s.f.H.L.L.L.",
"L.L.L.H.f.s.H.L.K.H.G.G.G.S.A.m.S.S.Z.b.b.S.S.S.G.H.H.J.K.H.s.f.H.L.L.L.",
"L.L.L.H.f.s.H.K.H.H.H.D.S.S.S.S.b.S.S.S.S.M.S.S.G.H.G.K.K.H.s.f.H.K.L.L.",
"L.L.L.H.f.s.H.K.K.G.G.D.S.S.S.S.b.S.A.S.S.S.S.G.G.G.G.J.L.J.s.f.H.L.L.L.",
"L.L.K.K.f.s.K.K.K.H.H.D.G.S.S.S.S.C.Z.Z.M.S.S.D.G.G.H.H.K.H.s.f.H.L.L.L.",
"L.L.L.H.f.s.H.K.J.J.G.D.D.S.S.A.b.S.S.b.b.A.S.D.G.H.H.K.K.H.s.f.H.L.L.L.",
"L.L.L.H.f.s.H.K.J.J.F.F.S.S.A.S.S.S.b.S.Z.S.G.S.G.H.H.J.K.H.s.f.H.L.L.L.",
"L.L.L.H.f.s.K.K.J.H.H.F.F.S.S.S.S.S.b.b.S.S.S.G.D.D.G.K.K.H.s.f.K.K.L.L.",
"L.L.L.H.f.s.H.K.J.H.H.H.F.G.S.S.b.b.b.b.Z.S.S.S.D.G.H.H.K.H.s.f.H.L.L.L.",
"L.L.L.G.f.s.K.K.H.H.H.H.G.G.A.A.S.b.S.S.b.S.S.F.G.H.J.K.K.H.s.f.H.L.L.L.",
"L.L.L.H.f.s.H.K.H.H.F.A.F.m.b.b.b.b.b.b.b.b.Z.S.S.S.G.H.K.G.O.f.H.L.L.L.",
"L.L.L.H.s.} l.m.n.l.l.l.k.h.d.h.d.h.h.h.j.j.k.z.v.z.v.M.D.b.o.s.H.L.L.L.",
"L.L.L.G.>.# +.%.#.@.@.@.=.-.-.;.;.:.:.:.<.<.3.3.4.4.q.w.k.d.] o.G.K.L.L.",
"L.L.L.H.*.. 2 3 4 d f n m M M N B V D D J K L 1.2.5.6.t.N.x.[ o.S.K.L.L.",
"L.L.L.H.&.  * , < 5 g j k v b C P P U Y T R R 7.8.0.y.p.V.B.| o.b.L.L.L.",
"L.L.L.H.*.  % & > 1 g j k v b C P I U Y T T R E 8.0.r.t.i.e.` X.M.K.L.L.",
"L.L.L.K.g.+.7 6 : ; = - i p a s l z z x c Z A S F G _ '  ...| f.K.L.L.L.",
"L.L.L.L.D.,.) / # @ o X X X + 9 9 0 q w e e r r 8 t y Q ~ [ O.S.K.L.L.L."
};
