/* XPM */
static char *___[] = {
/* columns rows colors chars-per-pixel */
"36 36 123 2 ",
"   c #19C5553D19C5",
".  c #0F2769A30F27",
"X  c #102C69F9102C",
"o  c #1AB662E31AB6",
"O  c #136673BC1366",
"+  c #111E7BC9111E",
"@  c #1D4970BF1D49",
"#  c #1F3A7D3E1F3A",
"$  c #246545052465",
"%  c #287047572870",
"&  c #2E3C491F2E3C",
"*  c #24435A722443",
"=  c #34D446BA34D4",
"-  c #338D4C18338D",
";  c #3B304B233B30",
":  c #3D0353CD3D03",
">  c #3B0E5F983B0E",
",  c #2EDF66022EDF",
"<  c #253B7201253B",
"1  c #2CB372952CB3",
"2  c #322066093220",
"3  c #338869873388",
"4  c #3DBA63D23DBA",
"5  c #3A7D69123A7D",
"6  c #348773F83487",
"7  c #3BBF723B3BBF",
"8  c #3DB577F83DB5",
"9  c #42144B7F4214",
"0  c #49CA4FAD49CA",
"q  c #4488514B4488",
"w  c #42325A234232",
"e  c #4C1D54254C1D",
"r  c #505C5677505C",
"t  c #5A5D5DEC5A5D",
"y  c #41746B334174",
"u  c #48BD65D448BD",
"i  c #4C686DC24C68",
"p  c #4B4E79714B4E",
"a  c #53FE686953FE",
"s  c #5CEC65A95CEC",
"d  c #542A70C4542A",
"f  c #5B7474785B74",
"g  c #5EE17B405EE1",
"h  c #63D86C7263D8",
"j  c #6B396E3B6B39",
"k  c #65C9770B65C9",
"l  c #64FB7CF264FB",
"z  c #699375686993",
"x  c #6CF47E3F6CF4",
"c  c #75657A5E7565",
"v  c #79F17E0679F1",
"b  c #126A80DD126A",
"n  c #146C8AD0146C",
"m  c #19288B0E1928",
"M  c #232F87F8232F",
"N  c #24878A5F2487",
"B  c #294280C22942",
"V  c #2E1D8B182E1D",
"C  c #332084293320",
"Z  c #37798C223779",
"A  c #3D1F87AA3D1F",
"S  c #38978C553897",
"D  c #41EF8E0441EF",
"F  c #4C4784534C47",
"G  c #495A8DA5495A",
"H  c #4BF291C54BF2",
"J  c #525883735258",
"K  c #51D68F0D51D6",
"L  c #5CD9895C5CD9",
"P  c #549492DA5494",
"I  c #5E29955A5E29",
"U  c #6E2088516E20",
"Y  c #666C96F2666C",
"T  c #676598306765",
"R  c #6DED97E66DED",
"E  c #689A99B0689A",
"W  c #758E8215758E",
"Q  c #7C3484277C34",
"!  c #71BC9C3A71BC",
"~  c #7CA893E97CA8",
"^  c #7C5798FA7C57",
"/  c #7B6AA0717B6A",
"(  c #804B83E8804B",
")  c #82CE8C4A82CE",
"_  c #8B0C8E158B0C",
"`  c #82F19D6682F1",
"'  c #8E3894368E38",
"]  c #92EA959292EA",
"[  c #93359CBD9335",
"{  c #9DBB9F9B9DBB",
"}  c #84F0A52984F0",
"|  c #89EDA48E89ED",
" . c #8E6BA9BC8E6B",
".. c #96D8A2EF96D8",
"X. c #9702AD129702",
"o. c #9DAEA2D89DAE",
"O. c #9824AECE9824",
"+. c #9E5DB0E59E5D",
"@. c #A3CBA600A3CB",
"#. c #A3CAAF7AA3CA",
"$. c #AE32AFA1AE32",
"%. c #A256B4C3A256",
"&. c #AFC3B0CCAFC3",
"*. c #AB84BA65AB84",
"=. c #B0CBB2DEB0CB",
"-. c #B470BF16B470",
";. c #BB79BD96BB79",
":. c #B4DAC104B4DA",
">. c #BE4CC701BE4C",
",. c #BF49C84FBF49",
"<. c #C1A9C483C1A9",
"1. c #C731CDE8C731",
"2. c #C974CE52C974",
"3. c #CBDAD136CBDA",
"4. c #D255D638D255",
"5. c #D5FED904D5FE",
"6. c #DD29DE4EDD29",
"7. c #DF76E125DF76",
"8. c #E0E7E051E0E7",
"9. c #E380E1EEE380",
"0. c #EA30EB35EA30",
"q. c #F5A5F5BFF5A5",
"w. c #FE8EFE75FE8E",
/* pixels */
"w.w.w.w.w.w.w.w.w.w.w.w.2._ e ; = ; ; 9 9 9 e v 2.w.w.w.w.w.w.w.w.w.w.w.",
"w.w.w.w.q.6.6.6.5.6.6.4.@.z q u i d f k k k s h @.1.5.5.5.5.8.0.w.w.w.w.",
"w.w.w.q.1.o.[ [ ..[ ..' h w y L ! ! ^ | ..X.W h c ] @.@.@.@.@.2.q.w.w.w.",
"w.w.w.0.[ > , , 3 5 4 y > y J Y ! / }  .O.%...) v v _ _ ] _ v @.9.w.w.w.",
"w.w.w.9.~   . O # < 1 6 8 F I E ! / }  .+.%.%.%.o.@.&.=.;.=.( @.8.w.w.w.",
"w.w.w.8.^ o b m N V S D H P I E ! / }  .O.%.*.:.>.3.4.7.0.8.{ &.6.w.w.w.",
"w.w.w.6.^ o b n N V S D H P I E ! / }  .O.%.*.:.>.1.4.6.0.6.{ &.6.w.w.w.",
"w.w.w.9.^ o b m N V S S H P I Y ! / }  .O.%.*.:.,.1.4.6.0.6.{ $.6.w.w.w.",
"w.w.w.9.^ o b m N V Z D G P I Y ! / }  .O.%.*.:.,.1.4.7.0.5...&.6.q.w.w.",
"w.w.w.9.^ o b m N V Z D H P I E / / }  .O.+.*.:.,.1.3.7.0.7...&.6.w.w.w.",
"w.w.w.6.~ o b m N V Z D H P I Y E / }  .O.%.*.:.,.1.4.7.0.6.{ $.6.w.w.w.",
"w.w.w.8.^ o b m N V S A H P I Y R / }  .O.%.*.:.,.1.4.7.0.6.{ $.6.w.w.w.",
"w.w.w.8.~ o b m N V Z D H P I E / / /  .O.%.*.:.>.1.4.5.0.6.{ $.6.q.w.w.",
"w.w.w.8.~ o b m N V Z D H P I Y ! / }  .O.%.*.:.>.1.4.6.0.6.{ $.6.w.w.w.",
"w.w.w.8.^ o b m N V S D G P I Y / / }  .O.%.*.:.>.3.4.6.0.6.{ $.6.w.w.w.",
"w.w.w.8.^ o b m N V S D H P I Y E / }  .O.%.*.:.>.1.4.6.0.6.{ $.6.w.w.w.",
"w.w.w.9.^ o b m N V S S H P I E / / /  .O.%.*.:.>.1.4.7.9.7...&.6.q.w.w.",
"w.w.q.9.^ o b m N Z S D H P I E ! / }  .O.%.*.:.>.1.4.6.0.7.{ $.6.w.w.w.",
"w.w.q.9.^ o b m N V Z D H P I E / / }  .O.+.%.:.>.3.4.6.0.6.{ $.6.w.w.w.",
"w.w.w.9.^ o b m N V S G H P I Y E / }  .+.%.*.:.>.3.5.7.0.6.{ $.6.w.w.w.",
"w.w.w.9.^ o b m N V S G H P I Y ! / }  .O.%.*.:.<.2.5.6.0.6...$.6.q.w.w.",
"w.w.w.9.^ o b m N V S D H P I Y / / }  .O.%.%.:.<.2.4.5.9.7.{ $.6.w.w.w.",
"w.w.w.6.^ o b n m V S G H P I E E / }  .O.%.:.:.>.1.4.6.0.6.{ $.6.w.w.w.",
"w.w.w.8.^ o b n m V A G H P I Y R / }  .O.%.*.:.:.,.4.6.0.6.{ $.6.w.w.w.",
"w.w.w.8.~ o b m N V Z D H P I E ! / }  .O.+.*.:.>.1.4.7.0.5...&.6.w.w.w.",
"w.w.w.8.~ o b m N V Z D H P I E ! / }  .O.%.*.:.,.1.4.5.0.7.{ =.8.q.w.w.",
"w.w.w.8.^ o b m N V Z D H P I E ! / }  .O.%.*.:.,.1.4.7.0.6.{ =.9.w.w.w.",
"w.w.w.8.^ o b m N V Z D H P I E R / }  .O.%.*.:.>.1.4.7.0.6.{ $.6.w.w.w.",
"w.w.w.9.^ o b n N V S D H P I Y ! / } | O.%.*.:.>.1.4.6.0.6.{ $.6.w.w.w.",
"w.w.w.9.~ o b m N V S D G H I E / / }  .O.%.*.:.>.3.3.6.0.6.{ $.6.w.w.w.",
"w.w.w.6.^ o b m N V S D H P I Y ! / }  .O.+.*.:.>.3.4.6.0.6.{ $.6.w.w.w.",
"w.w.w.9.^ o b m N V S S H P I Y / / }  .+.%.*.:.>.1.4.6.0.8.o.$.6.w.w.w.",
"w.w.w.9.^ o + m M V Z A H P I Y ! / }  .O.%.*.:.>.1.3.5.9.5.] $.8.w.w.w.",
"w.w.w.9.` * X O m 1 C A G H I Y ! / }  .O.+.%.*.-.>.<.1.<.$.( @.8.w.w.w.",
"w.w.w.q.:.U p 8 5 3 2 2 2 5 y i d f g l x x W Q Q ( _ ] ] ] ] >.q.w.w.w.",
"w.w.w.w.9.=.) z a w - $ $ $ $ & - ; : : q q 9 q e r t j v _ &.6.w.w.w.w."
};
