/* XPM */
static char *__[] = {
/* columns rows colors chars-per-pixel */
"36 36 140 2 ",
"   c #7D7D7E9C6790",
".  c #AD3DAD3C2C9E",
"X  c #BD9EBD09270C",
"o  c #C00EBF8E2966",
"O  c #AC45AC3E32DE",
"+  c #A9A7A9623B97",
"@  c #E7ECE5F11234",
"#  c #E581E38F1A13",
"$  c #F065EDEB1DBC",
"%  c #F186F06013B4",
"&  c #F53EF3C41309",
"*  c #FE4BFCFB1687",
"=  c #C67FC64921C8",
"-  c #D4F3D3CA2EAD",
";  c #D14ECFCF32EA",
":  c #D07ACF8A3DCB",
">  c #D1CBD0D13565",
",  c #EC7DEA302772",
"<  c #F749F4A02069",
"1  c #FB2DF86D2012",
"2  c #FD70FAA321B1",
"3  c #F995F7652B03",
"4  c #FDD9FB8B2B07",
"5  c #EB72E9CB3368",
"6  c #E926E78D3DE7",
"7  c #F896F69832EE",
"8  c #FCB5FA9E331B",
"9  c #F67AF4803A27",
"0  c #FA44F8343A62",
"q  c #FAE4F8D63AF8",
"w  c #9ACD9B524F65",
"e  c #86F487DB5EE0",
"r  c #8BD28C7F5981",
"t  c #9272932A548B",
"y  c #A800A7B3450A",
"u  c #AA1CA9B54041",
"i  c #A2B7A2DD4A2C",
"p  c #AF8DAF815625",
"a  c #B0B4B0B05C1C",
"s  c #82CC83F063E2",
"d  c #805B81816E51",
"f  c #BE98BE5A6593",
"g  c #B693B6766C98",
"h  c #B02AB0107338",
"j  c #AB6CAB9A7A3F",
"k  c #BBCFBC327793",
"l  c #CF48CE5A459A",
"z  c #CE8FCD6B4B4A",
"x  c #CE21CCEC51C6",
"c  c #C65EC5D35E9F",
"v  c #CBFDCAF45835",
"b  c #E7D9E639450A",
"n  c #E66EE4CB4C6B",
"m  c #F5BBF3C342D0",
"M  c #F949F73F436C",
"N  c #F744F53A4B6D",
"B  c #E53CE39A5257",
"V  c #E35CE1BC5CCB",
"C  c #F190EF985915",
"Z  c #F5FDF3EF5344",
"A  c #F54CF33E5BB7",
"S  c #C4F3C4F36C54",
"D  c #D2B2D1E762C5",
"F  c #DC27DB27678E",
"G  c #D75CD6B76B95",
"H  c #E031DEC168B6",
"J  c #CF56CEDE7B95",
"K  c #D3C8D35F73B8",
"L  c #DB85DA93704E",
"P  c #D16BD0B97D4E",
"I  c #E09EDFA27CC0",
"U  c #EFDDEDF06182",
"Y  c #ED23EB6C6A84",
"T  c #F13EEF736BF8",
"R  c #F3D5F1D163D5",
"E  c #E87AE74572DC",
"W  c #EC36EAEF7442",
"Q  c #E4ECE3DD7D26",
"!  c #8C708DB885E0",
"~  c #962796C39584",
"^  c #9D659D919D61",
"/  c #A3F0A46D84F7",
"(  c #A123A2028CB6",
")  c #A739A8049D90",
"_  c #ACC9AD4E9AEA",
"`  c #BF7FBF999ADA",
"'  c #A32AA390A2F4",
"]  c #A793A86CA6DB",
"[  c #AC14ACF3A813",
"{  c #ABD6AC3BAB6E",
"}  c #BD56BD89A426",
"|  c #BD52BDAAAB8E",
" . c #B45EB4AEB446",
".. c #BF9FBFF8B0DF",
"X. c #BD4CBD5DBCDA",
"o. c #CE9BCE8C851F",
"O. c #C796C6F98973",
"+. c #C89FC800880D",
"@. c #CBA2CB7E8B05",
"#. c #D064D09E8566",
"$. c #D89AD7AD861B",
"%. c #DD39DC378619",
"&. c #D61AD52D8E33",
"*. c #C4C7C4959452",
"=. c #CFBCCF33972A",
"-. c #CED1CE82A018",
";. c #D254D1BC9752",
":. c #C3FAC3F6A2C7",
">. c #CEFFCEB9A121",
",. c #C4D6C4FEA942",
"<. c #CCD3CCAEAA72",
"1. c #C4F9C55FB4FB",
"2. c #C7E0C85DB571",
"3. c #CCD7CCF1B547",
"4. c #C377C3F2BB33",
"5. c #C825C853BB26",
"6. c #CCAECD1BB975",
"7. c #D178D108B6EB",
"8. c #DB03DB2FB79F",
"9. c #D271D290BD2D",
"0. c #C335C33BC324",
"q. c #C82DC879C715",
"w. c #CAF1CB39C490",
"e. c #C80AC809C864",
"r. c #CCE6CCECCCD4",
"t. c #D4E2D477C20F",
"y. c #D500D4EECAD1",
"u. c #DA71DA39CDBC",
"i. c #D58FD5A7D54A",
"p. c #DAA8DAC2D7B9",
"a. c #DE7DDE85DE2F",
"s. c #E2B7E2D8DD52",
"d. c #E2F8E2F9E2EC",
"f. c #E8BAE8CFE799",
"g. c #E7CDE7CDE96B",
"h. c #EC4FEC51EC53",
"j. c #F0E2F0F0EF21",
"k. c #F06EF06EF08D",
"l. c #F47FF47FF4A1",
"z. c #FE93FE93FE98",
/* pixels */
"z.z.z.z.z.z.z.z.z.z.z.z.d.X.~ ^ ^ ^ ^ ^ ^ ^ ~ ' a.l.z.z.z.z.z.z.z.z.z.z.",
"z.z.z.z.l.h.f.f.g.g.g.d.r.{ ' X.X.X.0.X.X.X.{ ' e.a.g.g.g.g.g.l.z.z.z.z.",
"z.z.z.l.d.r.r.r.r.r.r.e.{ { X.i.d.g.d.a.d.d.e. . .0.r.r.r.r.e.a.l.z.z.z.",
"z.z.z.l.r. .r.i.e.e.e.0.X.e.i.a.d.d.a.a.d.a.p.r.0.0.e.e.r.r.{ r.l.z.z.z.",
"z.z.z.k.r. .a.d.a.p.p.p.i.p.a.d.d.a.a.a.d.a.d.d.p.p.p.a.g.a. .e.l.z.z.z.",
"z.z.z.h.r.0.l.l.k.k.h.g.h.d.d.a.d.a.d.a.a.d.d.g.g.f.h.k.l.l.e.r.h.l.z.z.",
"z.z.z.h.r.0.k.l.k.k.h.f.g.d.a.d.d.a.d.d.d.d.d.g.h.g.h.l.l.h.0.r.h.z.z.z.",
"z.z.z.h.r.0.l.l.k.k.f.f.g.g.d.d.a.d.a.d.d.a.d.g.g.h.h.l.l.f.0.r.h.z.z.z.",
"z.z.z.h.r.0.h.l.l.h.f.f.g.g.d.d.a.d.d.a.d.d.d.f.h.h.h.k.l.h.e.r.j.z.z.z.",
"z.z.z.h.r.0.l.l.l.f.h.f.d.d.d.d.d.d.a.d.a.d.d.f.g.g.h.h.l.k.0.r.h.l.z.z.",
"z.z.l.l.r.0.h.z.k.h.h.g.d.d.a.d.a.d.d.a.d.d.d.d.g.h.h.h.l.h.0.r.h.z.z.z.",
"z.z.z.h.r.0.k.l.k.h.h.f.h.d.d.a.a.d.d.a.d.a.d.d.g.f.h.j.l.f.0.r.h.z.z.z.",
"z.z.z.h.r.0.h.l.k.h.g.g.f.d.a.d.d.a.d.a.d.a.d.g.g.h.h.k.z.h.e.r.j.z.z.z.",
"z.z.z.h.r.0.l.z.k.h.h.f.h.d.d.a.a.d.a.d.a.d.d.g.g.f.h.k.l.k.0.r.h.l.z.z.",
"z.z.z.h.r.0.h.l.k.h.h.f.f.d.d.d.a.d.a.d.d.a.d.d.g.f.h.k.l.h.0.r.h.z.z.z.",
"z.z.z.f.r.0.h.l.k.k.h.g.f.g.g.d.d.a.d.a.d.s.d.g.g.h.h.l.l.h.0.r.h.z.z.z.",
"z.z.z.h.r.0.k.l.j.j.h.g.d.d.d.a.a.a.d.a.d.a.d.g.g.h.h.j.l.j.0.r.h.z.z.z.",
"z.z.z.h.r.0.j.z.j.h.f.g.d.d.d.d.d.a.d.a.a.a.d.g.g.g.h.j.l.k.0.r.h.z.z.z.",
"z.z.z.h.r.0.h.l.j.h.f.g.g.d.d.a.d.a.a.d.a.d.d.g.g.f.h.k.l.h.0.r.h.z.z.z.",
"z.z.z.h.r.0.k.l.k.h.h.f.f.g.d.a.a.d.a.a.d.d.d.g.h.f.h.k.l.h.0.r.h.z.z.z.",
"z.z.z.h.r.0.h.z.k.k.h.g.g.g.d.d.d.d.a.d.a.d.g.g.f.h.g.k.z.k.0.r.h.z.z.z.",
"z.z.z.h.r.0.h.l.k.h.f.d.d.d.d.d.d.a.d.a.d.a.d.g.g.g.h.k.l.h.0.r.h.z.z.z.",
"z.z.l.h.r.0.h.z.k.h.h.g.d.d.d.d.a.d.a.d.a.a.d.d.g.h.h.k.l.h.0.r.h.z.z.z.",
"z.z.l.l.r.0.k.l.k.h.f.g.g.g.d.d.d.a.d.a.d.d.d.d.g.f.h.l.l.h.0.r.h.z.z.z.",
"z.z.z.h.r.0.h.l.j.h.f.g.g.d.d.d.a.d.a.a.d.a.d.g.g.h.h.k.l.h.e.r.h.z.z.z.",
"z.z.z.h.r.q.l.z.j.j.h.h.g.g.d.d.d.d.d.d.d.d.g.f.h.h.j.k.z.k.0.r.h.z.z.z.",
"z.z.z.h.r.X.d.j.f.f.f.d.s.d.a.p.a.a.p.p.p.p.a.a.d.d.g.g.k.g.X.r.h.z.z.z.",
"z.z.z.h.4._ 9.9.9.3.3.6.2.2.1.1.1.4.1.1.1.4.4.1.5.e.r.r.i.r.] X.d.z.z.z.",
"z.z.z.h.-.a D F G G K K K J J J o.+.@.*.` ` } } | | 1.4.r.e.'  .d.l.z.z.",
"z.z.z.h.+.X # $ , 5 5 6 b n B B V F G P +.+.*.:.,.,.2.5.y.r.'  .d.l.z.z.",
"z.z.z.h.#.= & & < 3 7 9 m N Z C U Y E I $.&.;.>.<.3.9.y.s.p.]  .a.l.z.z.",
"z.z.z.j.#.= & * 1 4 8 0 M N Z A R T W Q %.&.;.-.<.7.t.u.d.a.{  .d.l.z.z.",
"z.z.z.h.o.= & * 2 4 8 q M N Z A R T W Q %.&.;.>.<.7.9.y.s.i.]  .a.l.z.z.",
"z.z.z.l.=.= @ & 1 4 8 q M N Z A R T W Q %.&.;.>.<.<.2.5.w.X.~  .d.z.z.z.",
"z.z.z.l.8.S l > ; - - > > : l z x v c f g h j j / / ( ) [ { { r.l.z.z.z.",
"z.z.z.z.s.<.k p u O . . . O O + u y i w t r s s     d ! ~ ] q.g.z.z.z.z."
};
