/* XPM */
static char *__[] = {
/* columns rows colors chars-per-pixel */
"36 36 105 2 ",
"   c #0FDF7E1C0FDF",
".  c #1E7370601E73",
"X  c #1EE978391EE9",
"o  c #23785AEC2378",
"O  c #2D125A5F2D12",
"+  c #34D75C6934D7",
"@  c #3C405D6A3C40",
"#  c #229162962291",
"$  c #2C766DAA2C76",
"%  c #2115741E2115",
"&  c #2A46700E2A46",
"*  c #2C1B7D8B2C1B",
"=  c #35FF706D35FF",
"-  c #369D799C369D",
";  c #3DCA74493DCA",
":  c #43315E7E4331",
">  c #47CB5F9047CB",
",  c #4CE361374CE3",
"<  c #43C0736143C0",
"1  c #4052791A4052",
"2  c #4A6E74A74A6E",
"3  c #545263E15452",
"4  c #5CBA671D5CBA",
"5  c #539976985399",
"6  c #5D09794E5D09",
"7  c #601B677C601B",
"8  c #62ED687362ED",
"9  c #68E16CC768E1",
"0  c #640F7C3C640F",
"q  c #6B127F6E6B12",
"w  c #73C7767A73C7",
"e  c #12F883EA12F8",
"r  c #16D588BE16D5",
"t  c #1EF682431EF6",
"y  c #17D6899B17D6",
"u  c #215D8722215D",
"i  c #22CD883722CD",
"p  c #2A3687162A36",
"a  c #32CC876D32CC",
"s  c #3346882E3346",
"d  c #3B2D84CB3B2D",
"f  c #3BB088F13BB0",
"g  c #43B1854343B1",
"h  c #42BB88FA42BB",
"j  c #4D2B83944D2B",
"k  c #4A9789D34A97",
"l  c #559884B85598",
"z  c #53558B7D5355",
"x  c #5CBD87AD5CBD",
"c  c #5C018CBC5C01",
"v  c #62AD87D662AD",
"b  c #64AC8D8464AC",
"n  c #6CB78DE96CB7",
"m  c #6BA591446BA5",
"M  c #7178823D7178",
"N  c #738B8C96738B",
"B  c #782C85C6782C",
"V  c #7D1C8C747D1C",
"C  c #73B493D273B4",
"Z  c #7B87976A7B87",
"A  c #7C3D989E7C3D",
"S  c #834A8552834A",
"D  c #84FB8C6884FB",
"F  c #839F9555839F",
"G  c #84F59C5C84F5",
"H  c #8DA692628DA6",
"J  c #8EBD9D3A8EBD",
"K  c #94C4958394C4",
"L  c #944D9D92944D",
"P  c #9D4F9E059D4F",
"I  c #841AA5F2841A",
"U  c #85C2AA6185C2",
"Y  c #8D0FA1BA8D0F",
"T  c #8892ABB28892",
"R  c #95EDA52D95ED",
"E  c #92C8AB3692C8",
"W  c #9B04A4969B04",
"Q  c #9F19ABA19F19",
"!  c #A266A366A266",
"~  c #A26AABDAA26A",
"^  c #AB4BAC3FAB4B",
"/  c #A413BA15A413",
"(  c #ABB2B4FFABB2",
")  c #B387B49AB387",
"_  c #B5BDBC6EB5BD",
"`  c #BC69BCCABC69",
"'  c #BE9BC3E8BE9B",
"]  c #C2C6C35CC2C6",
"[  c #C77BC900C77B",
"{  c #CC94CCFACC94",
"}  c #CF89D0EDCF89",
"|  c #D3B0D4C3D3B0",
" . c #D766DB07D766",
".. c #DD47DD73DD47",
"X. c #DEF4E289DEF4",
"o. c #E08AE03DE08A",
"O. c #E306E2FFE306",
"+. c #E85AE892E85A",
"@. c #E8ACE830E8AC",
"#. c #EC9CEC70EC9C",
"$. c #F0C9F053F0C9",
"%. c #F616F5B0F616",
"&. c #F84FF89CF84F",
"*. c #F87CF85FF87C",
"=. c #FEAEFEA7FEAE",
/* pixels */
"=.=.=.=.=.=.=.=.=.=.=.=.O.` K P P P ! P P P K ! ..*.=.=.=.=.=.=.=.=.=.=.",
"=.=.=.=.&.#.+.#.@.@.#.O.[ ^ P ` ] ` ` ] ` ] ^ ! ] ..@.@.@.@.@.%.=.=.=.=.",
"=.=.=.&.O.{ { { } { { [ ) ^ `  .@.o.o.o.O.O.[ ^ ) ` { { { { ] o.&.=.=.=.",
"=.=.=.%.{ ) [ | { [ [ ] ` ] | o.o.o.o.o.o.O...{ ] ] { [ { [ ) [ %.=.=.=.",
"=.=.=.$.[ ` ..O.o.....| | ....O.o.o.o.o.o.o.O.o. ... ...O...) [ #.=.=.=.",
"=.=.=.#.} ] $.*.$.#.#.@.#.+.O...o.o.o.o.o.o.O.@.@.#.#.$.*.$.] } #.=.=.=.",
"=.=.=.@.{ ] #.*.#.#.#.@.@.O.o.O.o.o.o.o.o.O.@.@.@.#.#.$.*.#.] { #.=.=.=.",
"=.=.=.#.{ ] $.*.#.#.#.@.+.O.O.o.o.o.o.o.o.o.O.@.@.@.#.$.*.$.] { #.=.=.=.",
"=.=.=.#.{ ] #.*.$.#.#.@.O.+.O.O.o.o.o.o.O.o.O.@.@.@.#.$.*.$.] { #.=.=.=.",
"=.=.=.#.{ ] $.*.$.#.#.@.@.O.O.O.O.o.O.o.o.o.O.#.#.#.#.$.$.$.] { #.=.=.=.",
"=.=.=.#.{ ] #.&.$.#.#.@.@.O.o.o.o.o.o.O.o.o.O.O.@.@.#.#.%.#.] { #.=.=.=.",
"=.=.=.#.{ ] #.&.$.#.#.@.#.O.o.O.O.o.o.o.o.O.o.O.@.@.#.$.%.#.] { #.=.=.=.",
"=.=.=.#.[ ] $.*.$.$.#.@.@.O.o.o.o.o.....o.o.@.@.@.@.#.$.%.#.] { #.=.=.=.",
"=.=.=.#.{ ] #.&.$.#.#.@.@.O.o.o.o.o...O.o.o.o.@.@.@.#.$.*.#.] { #.=.=.=.",
"=.=.=.#.{ ] $.&.#.#.@.@.@.O.O.o.o.O.o.O.o.o.o.o.@.@.#.$.*.$.] { #.=.=.=.",
"=.=.=.#.{ ] $.&.$.#.@.@.@.@.@.O.o.o.....o.o.@.#.@.#.#.$.*.#.] { #.=.=.=.",
"=.=.=.#.{ ] #.*.$.#.@.+.+.O.O.O.o.o...o.o.o.+.#.+.+.#.#.=.#.] [ #.=.=.=.",
"=.=.=.#.{ ] $.*.$.#.#.+.O.O.O...O.o.O.o.O...O.+.+.+.#.#.%.#.] { #.=.=.=.",
"=.=.=.#.{ ] #.*.$.$.#.+.+.O.o.O.O.O.o.o.o.o.O.+.+.#.#.#.*.#.] { #.=.=.=.",
"=.=.=.#.{ ] #.&.$.#.@.+.+.+.O.O.....O.o.O.o.O.+.+.+.#.#.*.$.] { #.=.=.=.",
"=.=.=.#.} ] #.%.$.$.#.+.+.+.O.O.O.o.o.O...O.O.#.@.@.#.$.*.$.] { #.=.=.=.",
"=.=.=.#.{ ] #.=.$.#.#.O.O.X.O...O.o.o.X.o.o.O.@.@.@.#.$.*.#.] { #.=.=.=.",
"=.=.=.#.{ ] #.=.%.#.#.#.+.+.O.O.O.O.O.O.O.o.O.+.#.#.#.$.$.#.] } #.=.=.=.",
"=.=.=.#.[ )  .X. . ...|  .| | | } { { } { | { |  .....o.O...` [ #.=.=.=.",
"=.=.=.#.( N I T U T J Y Y Y L Y L L L R W ! ! ~ ^ ^ ) ) ' _ K _ +.=.=.=.",
"=.=.=.#.E ; d h h k j l l x v v n N N V F F J R W ~ ( ) ' ` K ) ..&.=.=.",
"=.=.=.O.I .   e X p p - d g j l x v n C Z F Y W ~ ( ` ] | { ! ) | =.=.=.",
"=.=.=.+.I % e r u p a f g k z x b n C Z G J R Q ( _ ` { .. .! ) ..=.=.=.",
"=.=.=.#.U % e r i p s f h k z c b m C A G R W Q / ' ] { .. .^ ) ..&.=.=.",
"=.=.=.#.U X e r t p s f h k z c c m C A G R W Q ( _ ' { ..| ^ )  .&.=.=.",
"=.=.=.#.U % e r i p s f h k z c b m C A G Y R Q ( _ ] [ .. .! ) | *.=.=.",
"=.=.=.#.U % e y i p s f h k z c b m C A G Y R Q ( _ ] { .. .^ ) ..=.=.=.",
"=.=.=.#.U X e r i p s f g k z c b C C A G Y R ~ ( _ ' { ..| ! )  .*.=.=.",
"=.=.=.#.U .   e i p s f h k z c b m C A G Y W ~ ( ( _ ' [ ] K ^ ..*.=.=.",
"=.=.=.%./ k * X % % & $ = ; < 2 5 5 6 0 q M B V D D H L ! ! K ` @.=.=.=.",
"=.=.=.=.' N ; $ # o o o O O + @ @ @ , , 3 3 4 4 4 8 9 w S K ~ { %.=.=.=."
};
