/* XPM */
static char *__[] = {
/* columns rows colors chars-per-pixel */
"36 36 103 2 ",
"   c #1D5953951D59",
".  c #1EBF6CB91EBF",
"X  c #11E57C3F11E5",
"o  c #1F1870891F18",
"O  c #1E6D7BD21E6D",
"+  c #24F452E424F4",
"@  c #20105A8E2010",
"#  c #29D053C929D0",
"$  c #35D6571635D6",
"%  c #388C57CD388C",
"&  c #3AD4589D3AD4",
"*  c #24CF6C2224CF",
"=  c #282362D42823",
"-  c #2E746CA32E74",
";  c #266176242661",
":  c #26527B1A2652",
">  c #2DF97B662DF9",
",  c #35E56CF635E5",
"<  c #3AAE6EFA3AAE",
"1  c #33A67D1733A6",
"2  c #3CD17D013CD1",
"3  c #44815BB64481",
"4  c #4EBE5B934EBE",
"5  c #55A85B6755A8",
"6  c #3FE36F8B3FE3",
"7  c #43977B934397",
"8  c #4D4F72AA4D4F",
"9  c #4BB07D404BB0",
"0  c #599D6169599D",
"q  c #519174345191",
"w  c #537D7CDC537D",
"e  c #5BB177D55BB1",
"r  c #5B357E395B35",
"t  c #6AB16CF66AB1",
"y  c #64117C9E6411",
"u  c #6D1C7AFD6D1C",
"i  c #70FF7CF770FF",
"p  c #1287847E1287",
"a  c #17118A531711",
"s  c #1F6B85A01F6B",
"d  c #21D587D721D5",
"f  c #21A2883C21A2",
"g  c #2A2A873C2A2A",
"h  c #32C7878832C7",
"j  c #3B0C88383B0C",
"k  c #42A388EF42A3",
"l  c #4AE88A494AE8",
"z  c #52FA807E52FA",
"x  c #53B78C0F53B7",
"c  c #5A28823E5A28",
"v  c #5C0F8DD45C0F",
"b  c #62F684CD62F6",
"n  c #644A8F3C644A",
"m  c #69F683B369F6",
"M  c #6EFF8E876EFF",
"N  c #6B9F91BB6B9F",
"B  c #746683A97466",
"V  c #70EA8AFE70EA",
"C  c #7D5F84E27D5F",
"Z  c #7B468C967B46",
"A  c #74BD956274BD",
"S  c #78E2974A78E2",
"D  c #7D1199607D11",
"F  c #837785258377",
"G  c #83EC8B4283EC",
"H  c #8CB58E978CB5",
"J  c #8102934B8102",
"K  c #84DF9D0484DF",
"L  c #8E21919B8E21",
"P  c #896698488966",
"I  c #9539965D9539",
"U  c #948F9F62948F",
"Y  c #9D0C9E409D0C",
"T  c #83CAA5C183CA",
"R  c #8D90A1C98D90",
"E  c #95D5A65895D5",
"W  c #94FFAC3094FF",
"Q  c #9BEAA45C9BEA",
"!  c #9C5BB2C19C5B",
"~  c #A43BA595A43B",
"^  c #A24AAD68A24A",
"/  c #ABBDACD4ABBD",
"(  c #A7EDB115A7ED",
")  c #AD51B3EAAD51",
"_  c #B297B3F5B297",
"`  c #B541BCCFB541",
"'  c #BC97BD8BBC97",
"]  c #BFD6C4B0BFD6",
"[  c #C2F9C3F9C2F9",
"{  c #C7BBC8E4C7BB",
"}  c #CC2CCCB1CC2C",
"|  c #CE50D09FCE50",
" . c #D514D5F9D514",
".. c #D81ED8BED81E",
"X. c #DD1DDD58DD1D",
"o. c #DFE5E0E3DFE5",
"O. c #E34BE34EE34B",
"+. c #ECEBECBBECEB",
"@. c #EFD4F075EFD4",
"#. c #F0C7F055F0C7",
"$. c #F5E8F5D3F5E8",
"%. c #F86FF88EF86F",
"&. c #FEE2FED8FEE2",
/* pixels */
"&.&.&.&.&.&.&.&.&.&.&.&.O.' I Y Y Y Y Y Y Y I ~ X.$.%.%.%.&.&.&.&.&.&.&.",
"&.&.&.&.%.+.+.O.+.O.O.O.} / Y ' [ [ ' ' ' ' / Y [ X.+.O.+.O.O.#.&.&.&.&.",
"&.&.&.%.O.} } } } } } [ _ / ' ..O.O.O.O.O.O.{ / _ ' } } } } { X.&.&.&.&.",
"&.&.&.$.} _ } | } { { [ ' {  .X.O.O.O.O.O.O.X.} [ [ { } | } _ { +.&.&.&.",
"&.&.&.#.} ` X.O.X.X.......X.X.o.O.X.X.O.X.O.O.O.X...X.X.O.X._ { +.&.&.&.",
"&.&.%.+.} [ #.%.#.#.+.+.O.O.O.O.O.O.O.X.X.O.O.O.+.+.+.+.%.#.[ | +.&.&.&.",
"&.&.&.+.} [ #.%.#.+.+.+.+.O.O.o.X.O.X.O.O.O.O.+.+.+.+.#.%.#.[ } +.&.&.&.",
"&.&.&.+.} [ #.%.+.+.+.O.+.O.O.X.O.X.O.X.O.X.O.O.+.O.+.#.%.+.[ | +.&.&.&.",
"&.&.&.+.} [ #.%.#.#.+.O.+.O.O.O.O.X.X.O.O.O.O.O.+.+.+.#.$.+.[ } +.&.&.&.",
"&.&.&.+.} [ +.$.#.#.+.+.O.O.X.O.O.O.O.X.O.O.O.O.O.O.+.+.$.+.[ } O.&.&.&.",
"&.&.&.+.} [ +.%.#.+.+.O.O.O.O.O.X.O.O.O.X.O.O.O.+.+.+.+.$.+.[ } +.&.&.&.",
"&.&.&.+.} [ #.%.#.+.O.+.+.O.O.O.X.O.X.O.X.O.O.O.O.+.+.+.$.+.[ } +.&.&.&.",
"&.&.&.O.} [ +.%.#.+.+.O.+.O.O.O.O.O.X.O.O.X.O.+.O.+.+.#.%.#.[ } +.&.&.&.",
"&.&.&.+.} [ +.%.#.+.+.+.O.O.X.O.O.X.X.O.O.O.O.O.O.+.+.#.%.#.[ } +.&.&.&.",
"&.&.&.+.} [ +.%.#.+.+.+.+.O.X.X.X.O.O.X.O.X.O.O.+.+.+.+.%.+.[ } +.&.&.&.",
"&.&.&.+.} [ +.%.#.+.+.O.O.O.O.O.O.X.O.O.O.O.O.O.+.O.+.+.%.+.[ } +.&.&.&.",
"&.&.&.+.} ] +.$.$.+.+.O.O.O.O.O.O.X.O.X.O.O.O.O.+.O.+.+.%.+.[ } +.&.&.&.",
"&.&.&.+.| ] @.%.#.+.+.+.+.O.O.O.O.O.O.O.O.O.O.O.+.+.+.+.&.+.[ } +.&.&.&.",
"&.&.&.+.} [ $.&.$.+.+.+.+.O.O.O.O.O.O.X.O.O.+.O.+.+.$.$.&.+.[ | +.&.&.&.",
"&.&.&.+.{ ) | .. . .} } } { { { { { { [ { { } } } |  .| .. .( [ +.&.&.&.",
"&.&.&.+.) Z E W E E R E E U U U I Y Q Y Q Q Q ~ ~ / / _ ` ` I _ O.&.&.&.",
"&.&.&.+.R , 1 1 1 7 7 7 9 w r r u t m B C Z G L I Y ~ / _ _ H / ..&.&.&.",
"&.&.&.+.T . X X : : > 1 2 7 9 w r b m V Z D P U Q ^ ) ` { { I / ..%.&.&.",
"&.&.&.O.T o p a f g h j k l x v n N A S K R E ^ ) ` [ } O.X.~ )  .&.&.&.",
"&.&.%.O.T o p a f g h j k l x v n N A S D R E ! ) ] ] | o...^ )  .&.&.&.",
"&.&.&.+.T . p a f g h j k l x v n N A S J R E ( ( ` ] } X. .~ _  .%.&.&.",
"&.&.&.+.T o p a f g h j k l x v n N A D K R E ^ ( ) ] | O...~ _  .&.&.&.",
"&.&.&.+.T o p a f g h j k l x v n N A D K R E ^ ) ] ] | X...~ /  .&.&.&.",
"&.&.&.+.T . p a f g h j k l x v n N A S K R E ^ ( ` ] } X.../ _ ..%.&.&.",
"&.&.&.+.T ; p a f g h j k l x v n N A D K R E ^ ) ` ] } X...~ / ..%.&.&.",
"&.&.&.O.T o p a f g h j k l x v n N A D K R E ^ ) ] [ } X. .~ _ ..%.&.&.",
"&.&.&.O.T o p a f g h j k l x v n N A S K R E ! ( ` { } X.X.~ _ ..%.&.&.",
"&.&.&.+.T o p a s g h j k l x v n V A A D R E ^ ( ` ] } X...~ _ ..$.&.&.",
"&.&.&.+.T . X p s g h j k l x n N N A D K R E ^ ( ` ` ] } ' H ~ ..$.&.&.",
"&.&.&.#.W 2 ; o o ; * - , < 6 8 q q e y u i B C C G G G H L F / O.&.&.&.",
"&.&.&.$.] m < =       + + # # $ & & 3 4 5 5 5 0 0 5 5 5 t t i ` +.&.&.&."
};
