/* XPM */
static char *__[] = {
/* columns rows colors chars-per-pixel */
"36 36 102 2 ",
"   c #0EF77E360EF7",
".  c #1EAA6CCE1EAA",
"X  c #1A357A9B1A35",
"o  c #26D9504F26D9",
"O  c #294052312940",
"+  c #2C875DF62C87",
"@  c #3256532E3256",
"#  c #3C0D560E3C0D",
"$  c #260F6B93260F",
"%  c #2BFE6A692BFE",
"&  c #27C4763127C4",
"*  c #2E847E332E84",
"=  c #32BE6BE932BE",
"-  c #3AE86BFE3AE8",
";  c #344B7C6D344B",
":  c #3A6F7DEB3A6F",
">  c #455F594B455F",
",  c #4AE55B6D4AE5",
"<  c #531F57A8531F",
"1  c #543E5B3D543E",
"2  c #446A6F02446A",
"3  c #4ADB6D754ADB",
"4  c #44087F154408",
"5  c #4DFC71454DFC",
"6  c #4C6F7D984C6F",
"7  c #5446733A5446",
"8  c #548D7CE6548D",
"9  c #5A74756F5A74",
"0  c #5AC07C125AC0",
"q  c #634065DB6340",
"w  c #63D77B3D63D7",
"e  c #6C117E636C11",
"r  c #736675987366",
"t  c #71807FCE7180",
"y  c #135084531350",
"u  c #16E0896316E0",
"i  c #1E78836D1E78",
"p  c #17A58A9317A5",
"a  c #232184932321",
"s  c #21F3882A21F3",
"d  c #2A7E87302A7E",
"f  c #333987413339",
"g  c #330888243308",
"h  c #3C0E84253C0E",
"j  c #3B4088583B40",
"k  c #463983EF4639",
"l  c #433A8903433A",
"z  c #4E96854F4E96",
"x  c #4B5C8A514B5C",
"c  c #53A5814553A5",
"v  c #53BE8B9653BE",
"b  c #5C1E860D5C1E",
"n  c #5B9F8CEA5B9F",
"m  c #639B8E46639B",
"M  c #6C9E8C8F6C9E",
"N  c #6B9F911C6B9F",
"B  c #738681527386",
"V  c #72878AEF7287",
"C  c #7C2284A67C22",
"Z  c #79D68EDF79D6",
"A  c #739B93FB739B",
"S  c #7BAF97587BAF",
"D  c #7C8398C17C83",
"F  c #836685C48366",
"G  c #82CD895D82CD",
"H  c #897C8D46897C",
"J  c #822193648221",
"K  c #84B79C6E84B7",
"L  c #8CDA946D8CDA",
"P  c #8A0E9ADE8A0E",
"I  c #946896189468",
"U  c #93009E1C9300",
"Y  c #9C189CE89C18",
"T  c #8378A3898378",
"R  c #8DDEA1718DDE",
"E  c #96D6A68096D6",
"W  c #9AE9A52A9AE9",
"Q  c #9F21A9BC9F21",
"!  c #A016B042A016",
"~  c #A34EA41AA34E",
"^  c #A26FAC68A26F",
"/  c #ACDFADE8ACDF",
"(  c #A557B3B5A557",
")  c #AC5DB3B6AC5D",
"_  c #B44DB54AB44D",
"`  c #B5B2BC6EB5B2",
"'  c #BD10BD4DBD10",
"]  c #BDCAC355BDCA",
"[  c #C2BDC42BC2BD",
"{  c #C69BC893C69B",
"}  c #CC7CCD3DCC7C",
"|  c #D66ED690D66E",
" . c #D7BCD93ED7BC",
".. c #DD17DD43DD17",
"X. c #E087E01AE087",
"o. c #E2C8E2BEE2C8",
"O. c #E887E76DE887",
"+. c #EC5FEC36EC5F",
"@. c #F5BAF5B9F5BA",
"#. c #F84FF8AEF84F",
"$. c #F89CF7FCF89C",
"%. c #FEF2FEE5FEF2",
/* pixels */
"%.%.%.%.%.%.%.%.%.%.%.#.O.` I Y ~ Y ~ Y Y ~ I ~  .$.%.%.%.%.%.%.%.%.%.%.",
"%.%.%.%.#.+.+.O.O.O.+.o.} / Y ' ' ' ' ' ' [ / ~ { ..O.O.O.O.O.@.%.%.%.%.",
"%.%.%.#.o.} } } } } } { / / _ | X.O.X.X.o.X.{ / _ ' } } } } { ..#.%.%.%.",
"%.%.%.@.} _ { | } } { ] [ { | X.X.X.X.X.X.X. .} ' { } { } } / } @.%.%.%.",
"%.%.%.+.} _ ..O.X...|  .| ..X.X.X.X.X.X.X.X.o.o... .....X.X._ } +.%.%.%.",
"%.%.%.+.} [ +.$.@.+.+.+.+.O.X.o.O.X.X.X.X.O.O.O.O.+.+.+.$.+.[ } +.%.%.%.",
"%.%.%.+.} { +.$.+.+.+.+.+.o.X.X.X.X.X.X.X.X.O.O.O.+.+.@.$.+.[ } +.%.%.%.",
"%.%.$.+.} { +.$.+.+.O.+.O.O.X.X.X.X.X.X.X.X.o.O.O.+.+.@.$.+.' } +.%.%.%.",
"%.%.%.+.} [ +.$.+.+.+.+.O.o.X.X.X.o.X.X.X.X.o.O.+.+.+.@.$.+.[ } +.%.%.%.",
"%.%.%.+.} [ +.$.+.@.O.O.o.X.o.X.X.X.X.X.X.o.o.O.O.O.+.+.@.+.[ } +.#.%.%.",
"%.%.#.+.} { +.#.+.+.+.O.O.o.o.X.o.X.X.o.X.o.o.O.O.O.+.+.@.@.[ } +.%.%.%.",
"%.%.#.@.} { +.$.+.+.+.+.O.O.O.o.X.X.X.X.X.X...o.O.+.+.+.$.+.' } +.%.%.%.",
"%.%.%.+.| [ +.$.@.+.O.O.O.O.o.o.o.o.X.X.X.X.O.O.+.+.+.+.$.+.[ } +.%.%.%.",
"%.%.%.+.} [ @.#.+.+.+.+.O.O...X.X.X.X.X.X.o.o.+.+.+.+.@.$.+.[ } +.#.%.%.",
"%.%.%.+.} ' +.$.@.+.+.O.O.o.X.o.X.X.X.X...X.O.O.O.+.+.+.$.+.' } +.%.%.%.",
"%.%.#.+.} ' O.+.+.O.O.X........... . . ...........X.O.+.+.O.' } +.%.%.%.",
"%.%.%.+.` J ( ( ) ^ ^ ^ ^ ~ ^ ^ ^ Q ^ ~ ^ / ) / ) _ ` ' [ ` Y ` +.#.%.%.",
"%.%.#.+.E 3 6 k c 8 0 0 0 0 0 e e e e B B C C H H I I Y Q Y F ~ ..$.%.%.",
"%.%.%.O.K $ X i a ; ; : : 4 6 c b m M V Z J P U W ~ ) ` { ] I / ..#.%.%.",
"%.%.#.O.K . y y i a d h h k v v b m M S J P E Q ^ ` ] } ..| Y / | #.%.%.",
"%.%.%.+.T . y u s d g j k x v n m N A D K R E ( ( ] { } ....~ / | #.%.%.",
"%.%.%.O.T $ y u s d f j l x v n m N A D K R E ^ ( ] ] } ..| ~ / | #.%.%.",
"%.%.#.+.T . y p s d g j l x v n m M A D K R E Q ) ] [ } ..| ~ / | #.%.%.",
"%.%.%.O.T . y p s d g j l x v n m M A D K R E ^ ( ` [ } ....~ / ..#.%.%.",
"%.%.#.+.T . y p s d g j l x v n m N A D K R E ^ ) ` ] } o. .^ ) | #.%.%.",
"%.%.%.O.T . y p s d g j l x v n m N N D K R E ! ( ` ] } .. .~ ) | #.%.%.",
"%.%.%.+.T . y p s d g j l x v n m N A D K R E ^ ) ` ] } .. .~ ) ..#.%.%.",
"%.%.%.O.T . y p s d g j l x v n m N A D K R E Q ) ] ] } X...~ / | #.%.%.",
"%.%.%.O.T . y y i d g j l x x n m N A D K R E ^ ( ] ] } .. .~ / | #.%.%.",
"%.%.#.+.T $ y u i d g j l x v n m N A D K R E ^ ( ] { } .. .~ / | #.%.%.",
"%.%.#.O.T . y u s d g j l x n n m N A D K R E Q ( ` [ } ..../ / | #.%.%.",
"%.%.%.O.T . y u s d g j l x x n m N A D T R E ^ ( ] [ } o...~ / ..#.%.%.",
"%.%.%.+.T . y y i d f j l x v n m N A D T E E ( ) ` ] }  .| Y / | $.%.%.",
"%.%.#.+.T .   y i a f j l x v n m N A D K P E ^ ) ) ] ] } [ H ~  .$.%.%.",
"%.%.%.+.( 6 ; & $ $ % = = - - 3 3 7 9 w e e B C C C G H I I F / o.#.%.%.",
"%.%.%.#.] Z 8 - % O O o O O @ @ # # > > , , , 1 1 < < 1 q r F ` +.%.%.%."
};
