/* XPM */
static char *__[] = {
/* columns rows colors chars-per-pixel */
"36 36 111 2 ",
"   c #0F03771F0F03",
".  c #16056B801605",
"X  c #1E5165591E51",
"o  c #1DE56A1D1DE5",
"O  c #141E71A1141E",
"+  c #12E67EDF12E6",
"@  c #19A3704D19A3",
"#  c #25AA4D5525AA",
"$  c #28A84E0128A8",
"%  c #23005A7A2300",
"&  c #2DB950182DB9",
"*  c #31BC532931BC",
"=  c #3ACB547C3ACB",
"-  c #25B46C2625B4",
";  c #28DD679728DD",
":  c #2DEF6F352DEF",
">  c #2D8272A42D82",
",  c #32A96C0532A9",
"<  c #3F3467BD3F34",
"1  c #39A36DBF39A3",
"2  c #318475DC3184",
"3  c #3B3877283B38",
"4  c #41AB56C141AB",
"5  c #464958A24649",
"6  c #4C3E5AF74C3E",
"7  c #52A85A2D52A8",
"8  c #43636DE24363",
"9  c #4EAE6F8E4EAE",
"0  c #430371394303",
"q  c #4CCD71B94CCD",
"w  c #5E4161895E41",
"e  c #547F732D547F",
"r  c #56737E0A5673",
"t  c #591A7563591A",
"y  c #5E70787A5E70",
"u  c #69B86C5969B8",
"i  c #6085779D6085",
"p  c #65F77B1765F7",
"a  c #6D5F7E466D5F",
"s  c #76E27E5A76E2",
"d  c #784D7A8D784D",
"f  c #129A8344129A",
"g  c #174E8AC8174E",
"h  c #1DBE814C1DBE",
"j  c #179C8B27179C",
"k  c #23FE869123FE",
"l  c #21BD887221BD",
"z  c #2A1A87142A1A",
"x  c #29F3887329F3",
"c  c #326987413269",
"v  c #329788673297",
"b  c #3A9387363A93",
"n  c #3B02885A3B02",
"m  c #415685EE4156",
"M  c #42AD88DF42AD",
"N  c #483D84C4483D",
"B  c #4AE589F44AE5",
"V  c #500E85E4500E",
"C  c #53448B645344",
"Z  c #59B086B559B0",
"A  c #5BBB8C735BBB",
"S  c #648486A66484",
"D  c #637B8E8F637B",
"F  c #6B16847F6B16",
"G  c #6F0D8EE26F0D",
"H  c #641A9025641A",
"J  c #6B5F91436B5F",
"K  c #73E0846E73E0",
"L  c #7ACF84417ACF",
"P  c #7C3588D47C35",
"I  c #73AB945673AB",
"U  c #7C6598957C65",
"Y  c #8415871B8415",
"T  c #83BB89ED83BB",
"R  c #8A5D8D1E8A5D",
"E  c #805696CD8056",
"W  c #854F9D62854F",
"Q  c #8AE4944B8AE4",
"!  c #89D99B1F89D9",
"~  c #93C3963493C3",
"^  c #945B9A16945B",
"/  c #9C779D549C77",
"(  c #82B9A17482B9",
")  c #8E82A2288E82",
"_  c #9712A6C09712",
"`  c #9A33A62C9A33",
"'  c #9A80A8D99A80",
"]  c #A232A324A232",
"[  c #A24EAD1BA24E",
"{  c #ABE0AD2EABE0",
"}  c #A702B3C4A702",
"|  c #AC0EB4F7AC0E",
" . c #B334B4FFB334",
".. c #B5CDBC61B5CD",
"X. c #BC03BCD0BC03",
"o. c #BE99C259BE99",
"O. c #C2D9C4CEC2D9",
"+. c #C668CA6BC668",
"@. c #CC77CD63CC77",
"#. c #CEEDD1FCCEED",
"$. c #D5EDD629D5ED",
"%. c #D7B1D922D7B1",
"&. c #D8B0D84DD8B0",
"*. c #DCC8DD1BDCC8",
"=. c #DF9AE0D4DF9A",
"-. c #E3BEE3C7E3BE",
";. c #E8D6E7E4E8D6",
":. c #EC99EC57EC99",
">. c #F5D7F5CEF5D7",
",. c #F843F8A1F843",
"<. c #FEFFFEEEFEFF",
/* pixels */
"<.<.<.<.<.<.<.<.<.<.<.<.-. .~ / / / / / ] / ~ ] *.>.>.,.,.,.<.<.<.<.<.<.",
"<.<.<.<.,.:.;.;.;.;.;.=.@. .] X.X.O.O.X.X.X.{ ] @.*.;.;.;.;.;.>.<.<.<.<.",
"<.<.<.,.-.@.@.@.@.@.@.O. .{  .&.-.;.-.-.-.-.@.{  .O.@.@.@.@.O.=.,.<.<.<.",
"<.<.<.>.@. .@.@.@.+.+.O.X.+.&.=.-.-.=.=.*.-.&.@.O.O.O.@.@.@.{ @.>.<.<.<.",
"<.<.<.:.@. .=.;.=.*.*.%.$.*.*.-.=.=.*.*.-.-.-.*.*.&.&.-.;.=. .@.:.<.<.<.",
"<.<.<.:.@.O.:.,.:.:.:.;.;.-.-.=.-.=.*.*.*.-.-.;.;.:.:.:.>.:.O.@.:.<.<.<.",
"<.<.<.:.@.O.>.,.:.:.:.;.;.-.;.=.=.-.*.-.-.-.-.-.;.;.:.:.,.:.X.@.:.<.<.<.",
"<.<.<.:.@.O.:.>.:.:.:.;.;.-.-.=.=.=.-.*.-.-.-.;.;.:.:.:.,.:.O.@.:.<.<.<.",
"<.<.<.:.@.O.:.,.:.:.:.:.;.-.=.-.=.=.=.-.*.-.-.;.;.:.:.>.,.:.O.@.:.<.<.<.",
"<.<.<.:.@.O.>.,.>.:.:.;.-.=.=.=.-.=.=.*.*.=.-.;.;.:.:.:.>.:.O.@.:.<.<.<.",
"<.<.<.:.@.O.>.<.>.:.:.:.;.;.;.;.-.-.-.-.-.-.-.:.:.:.:.:.,.:.O.$.:.<.<.<.",
"<.<.<.:.+...-.:.-.-.-.-.=.*.*.*.&.&.$.*.*.$.*.*.-.-.;.-.:.-.X.@.:.<.<.<.",
"<.<.<.:...^  .X. . .|  .{ { { { { { { { { { {  . . . ...O.X./  .;.<.<.<.",
"<.<.<.:.` t Z A S S S F F F F K K L L P T Y R Q ^ ^ / ] { ] Y { *.<.<.<.",
"<.<.<.;.W % . . . - : 2 1 0 0 q e t y p a d P T Q Q / ] { { Y ] $.,.<.<.",
"<.<.<.;.W X + f l z c 3 m N V Z S D J I U ! _ ' [  .X.O.$.@./ { $.<.<.<.",
"<.<.<.;.( o f j l x v n M B C A H J I U ( _ _ } | o.o.#.-.%.] } $.,.<.<.",
"<.<.,.-.( o f j l x v n M B C A H J I U W ) _ [ } ..o.#.=.=.] { $.>.<.<.",
"<.<.<.;.( o f j l x v n M B C A H J I U W ) _ [ | ..o.#.*.$.] { $.,.<.<.",
"<.<.<.:.( o f j l x v n n B C A H J I U W ) _ [ } ..O.#.*.$.] { $.<.<.<.",
"<.<.<.:.( o f j l x v n M B C A H J I U W ) _ [ } ..o.@.*.$.] { $.>.<.<.",
"<.<.<.;.( o f j l x v n m B C A H J I U W ) ' ' } o.o.#.*.$.] { $.,.<.<.",
"<.<.<.-.( o f j l x v n M B C A D J I U W ) _ } | o.O.#.*.$.] { $.,.<.<.",
"<.<.<.;.( o f j l x v n m B C A D J I U W ) _ ' } ..O.@.=.*.] { $.<.<.<.",
"<.<.<.;.W o f j l z v b M B C A D J I U W ) ' [ | ..o.#.=.%.` | %.<.<.<.",
"<.<.<.;.( o f j l z v b M B C A A G I U W ) ` [ } o.o.#.=.#.] { $.,.<.<.",
"<.<.<.;.W o f j l z v n M B C A D J I U W ) ` [ } ..o.#.*.$.] { $.,.<.<.",
"<.<.<.;.U o f j l z v n M B C A D J I U W ) _ ] | ..o.#.*.$.] { $.,.<.<.",
"<.<.<.;.( o f j l z v b M B C A D J I U W ) _ [ } o.o.#.*.$.] { $.>.<.<.",
"<.<.<.;.( o f j l z v b M B C A D J I U W ) _ [ | ..o.@.*.*.] { $.,.<.<.",
"<.<.<.;.( o f j l x v n M B C A D H I U W ) _ } } ..O.#.=.&.] { $.,.<.<.",
"<.<.<.:.( o f j l x v n M B C A D G I U W ) _ ' | ..O.@.=.*.] { $.<.<.<.",
"<.<.<.;.U o f g h z c b M B C A D J I U W ) ' [ | ..o.@.*.$./ { $.,.<.<.",
"<.<.<.:.W X   f h h z b M B C A D G I U W ) ' ' } | ..o.O...Y ] $.,.<.<.",
"<.<.<.:.} Z 3 2 > - ; : , 1 8 8 9 e t i p a K L L L Y R ~ ~ Y  .-.<.<.<.",
"<.<.<.,.@.Q p q < & $ # # $ * * = = 4 5 6 6 7 7 7 7 7 w u d R X.:.<.<.<."
};
