/* XPM */
static char *__[] = {
/* columns rows colors chars-per-pixel */
"36 36 100 2 ",
"   c #0F0E71650F0E",
".  c #17906B6D1790",
"X  c #1DC166401DC1",
"o  c #11577D6C1157",
"O  c #1AC771901AC7",
"+  c #1DBC7EC01DBC",
"@  c #23D8470523D8",
"#  c #22EC483F22EC",
"$  c #29AB4CAB29AB",
"%  c #22725D712272",
"&  c #33FE55B933FE",
"*  c #3A0C53B73A0C",
"=  c #2BF8658D2BF8",
"-  c #2CEE6A4F2CEE",
";  c #22CE70B222CE",
":  c #2BE4702A2BE4",
">  c #343766843437",
",  c #3EA46AB43EA4",
"<  c #34FE719D34FE",
"1  c #3E7271C53E72",
"2  c #436E54FE436E",
"3  c #4B8353654B83",
"4  c #56335A7A5633",
"5  c #46E164C746E1",
"6  c #46F66F9B46F6",
"7  c #485866C04858",
"8  c #45C3735245C3",
"9  c #4306795A4306",
"0  c #4C3973BF4C39",
"q  c #4ACA78674ACA",
"w  c #52D7743E52D7",
"e  c #5BBD74365BBD",
"r  c #618B6511618B",
"t  c #63F3754363F3",
"y  c #643D7A90643D",
"u  c #6BB174536BB1",
"i  c #6D1379AB6D13",
"p  c #75527CD17552",
"a  c #128A8101128A",
"s  c #172689811726",
"d  c #179D8A49179D",
"f  c #216786462167",
"g  c #21D7883521D7",
"h  c #2A14874B2A14",
"j  c #324A87B2324A",
"k  c #3296881B3296",
"l  c #39FB873B39FB",
"z  c #3ACE884C3ACE",
"x  c #414E8718414E",
"c  c #42E188AE42E1",
"v  c #4AED89BD4AED",
"b  c #52EA8B0E52EA",
"n  c #5AC58C405AC5",
"m  c #624183936241",
"M  c #62FF8E6362FF",
"N  c #6E1680F86E16",
"B  c #6B3D911B6B3D",
"V  c #7453845F7453",
"C  c #7AFA81B17AFA",
"Z  c #7CE58C0B7CE5",
"A  c #7333940E7333",
"S  c #7C6098867C60",
"D  c #826985A68269",
"F  c #847C8E4D847C",
"G  c #8AE68DC68AE6",
"H  c #84529E438452",
"J  c #8DEC94A78DEC",
"K  c #8DC39CA28DC3",
"L  c #94EB964B94EB",
"P  c #96EF989996EF",
"I  c #9B9F9C5A9B9F",
"U  c #8313A03E8313",
"Y  c #8DE2A1758DE2",
"T  c #972DA6D1972D",
"R  c #977EA888977E",
"E  c #9F4DA1AE9F4D",
"W  c #9E52AA869E52",
"Q  c #A186A2B0A186",
"!  c #A1B6ADBAA1B6",
"~  c #AAD7AC13AAD7",
"^  c #AC1CB557AC1C",
"/  c #AEB1BB86AEB1",
"(  c #B3D1B5C7B3D1",
")  c #B66EBCE6B66E",
"_  c #BCE0BDB4BCE0",
"`  c #BDCDC33ABDCD",
"'  c #C34EC615C34E",
"]  c #C4DEC95BC4DE",
"[  c #CC59CD76CC59",
"{  c #CD94D0A3CD94",
"}  c #D56FD613D56F",
"|  c #D76AD88CD76A",
" . c #D899D80CD899",
".. c #DC3BDC7FDC3B",
"X. c #E012E118E012",
"o. c #E3FFE3DCE3FF",
"O. c #E914E6DCE914",
"+. c #EBD3EB50EBD3",
"@. c #F650F655F650",
"#. c #FF11FEFFFF11",
/* pixels */
"#.#.#.#.#.#.#.#.#.#.#.#.O.) P I I I I I Q Q L Q ..@.@.@.@.#.#.#.#.#.#.#.",
"#.#.#.#.@.+.O.O.O.O.O.X.[ ~ Q ( _ _ _ _ _ _ ~ Q [  .O.O.O.O.O.@.#.#.#.#.",
"#.#.#.@.o.[ [ [ [ [ [ ' ( ~ _ ..o.O.O.O.o.o.[ ~ ( _ [ [ [ [ ' ..#.#.#.#.",
"#.#.#.@.[ ( [ [ [ [ ] ' _ ' } ..X.X.X...o.o. .[ _ ' [ ' [ ' ( ' +.#.#.#.",
"#.#.#.+.[ ( ..O.X...| | } ..X.o.X.X.X.X.o.X.o....... . .O...( [ +.#.#.#.",
"#.#.#.+.[ ' +.@.@.+.+.+.o.O.o.o.o.o.X.X.o.o.X.O.O.+.+.@.@.+.' [ +.#.#.#.",
"#.#.@.+.[ ' @.@.@.+.+.O.O.o.o.o.X.O.X.o.o.o.o.O.O.+.+.@.@.+._ [ +.#.#.#.",
"#.#.#.+.[ _ O.@.O.O.o.o......... . . . . . . ...o.o.X.O.@.O._ [ +.#.#.#.",
"#.#.#.+._ E ` ` ` ` ` ` ) ( ( ( ( ( / ( ) ( _ _ _ ' ' ' [ ] Q _ O.#.#.#.",
"#.#.#.+.T 7 8 q q w w 0 e e e e t t t i p p p p p D H J P L p Q ..#.#.#.",
"#.#.#.O.U % . O ; : : < 1 8 8 w w e e N i V Z F G K T ! ( ~ D Q | @.#.#.",
"#.#.#.O.S X a s d h j l c v b n M B A S H Y T ! ^ ) ' [ .. .Q ~ } #.#.#.",
"#.#.#.O.H X a d f h k z c v b n M B A S H Y T ! ^ ) ' { X. .Q ~ } @.#.#.",
"#.#.#.O.H X a d f h k z c v b n M B A S H Y T ! ^ ) ' { X. .I ~ } @.#.#.",
"#.#.#.O.S X a d g h k z c v b n M B A S H Y R W ^ ` ' { ..| I ~ } @.#.#.",
"#.#.#.O.U X a d g h k z c v b n M B A S U Y R W ^ ) ' [ ..| Q ~ } #.#.#.",
"#.#.#.O.H X a s g h k z c v b n M B A S H T T ! ^ ) ' { X.| E ~ } @.#.#.",
"#.#.#.O.S X a s g h k z c v b n M B A S H Y T W ^ ) ` { X.} E ~ } @.#.#.",
"#.#.#.O.U X a s g h k z c v b n M B A S H Y R ! ^ ) ' { ..| E ~ } @.#.#.",
"#.#.#.+.U X a s g h k z c v b n M B A S H Y R W ^ ) ' { ..| E ~ } #.#.#.",
"#.#.#.O.U X a s g h k z c v b n M B A S H Y T ! ^ ) ' { ..} E ~ } @.#.#.",
"#.#.#.O.U X a s f h k z c v b n M B A S H Y R ! ^ ` ` { X.} E ~ } @.#.#.",
"#.#.#.O.H X a s f h k z c v b n M B A S H K T ! ^ ` ` { ..| E ~ } @.#.#.",
"#.#.#.O.U X a s f h k z c v b n M B A S H T T W ^ / ' [ ..| E ~ } #.#.#.",
"#.#.#.O.H X a s f h k z c v b n M B A S H Y T ! ^ ) ` { X.} E ~ } @.#.#.",
"#.#.#.O.H X a s g h k z c v b n M B A S H Y T ! ^ ) ` { X.| Q ~ } @.#.#.",
"#.#.#.O.H X a s f h j z c v b n M B A S H T T ! ^ / ` { X...Q ~ } @.#.#.",
"#.#.#.O.S X a s f h j z c v b n M B A S H K R ! ^ ` ' [ ..| E ~ } #.#.#.",
"#.#.#.+.U X a d g h k z z v b n M B A S H Y R ! ^ ) ` [ ..| E ~ } @.#.#.",
"#.#.#.O.U X a d g h k z x v b n M B A S H Y R ! ^ ` ' { X.| E ~ | @.#.#.",
"#.#.#.O.U X a s f h j z v v b n M B A S H Y R W ^ ) ' { ..| E ~ } @.#.#.",
"#.#.#.O.U X a s f h j z z v b n M B A S U Y R W ^ ) ' { ....E ~ | @.#.#.",
"#.#.#.O.H X o s f h j l c v b n M B A S H Y T ! ^ ) ` [ ..} I ~ } @.#.#.",
"#.#.#.O.H %   o f ; j k c v b n M B A F H Y T R ! / ) _ ' ) D E  .@.#.#.",
"#.#.#.@./ n 9 < < - = = > > , 6 0 w e e y i i p C C D G P P G ( O.#.#.#.",
"#.#.#.#.} E V e 5 & $ # @ @ $ & * * * 2 3 3 3 3 3 3 4 r u C P [ @.#.#.#."
};
