/* XPM */
static char *__[] = {
/* columns rows colors chars-per-pixel */
"36 36 115 2 ",
"   c #18965CCD1896",
".  c #0F556AE30F55",
"X  c #0B0775C80B07",
"o  c #1D0C62CD1D0C",
"O  c #1B726F4D1B72",
"+  c #105774F71057",
"@  c #114C7ED3114C",
"#  c #1F4B76C71F4B",
"$  c #1B117C951B11",
"%  c #243845AB2438",
"&  c #2BC4477E2BC4",
"*  c #2C6747F42C67",
"=  c #25AE5C0225AE",
"-  c #33D84AAA33D8",
";  c #3BAD4DA03BAD",
":  c #3A544FDE3A54",
">  c #2D9A62FA2D9A",
",  c #277E7614277E",
"<  c #24227E292422",
"1  c #2DBF75D12DBF",
"2  c #2AD97E092AD9",
"3  c #337864583378",
"4  c #349D6BEF349D",
"5  c #3AF566983AF5",
"6  c #33D575BA33D5",
"7  c #32E87E6532E8",
"8  c #39AA739F39AA",
"9  c #3B457F793B45",
"0  c #413C4FBD413C",
"q  c #452F5068452F",
"w  c #49D051EF49D0",
"e  c #551C5940551C",
"r  c #42F4691942F4",
"t  c #4DFD629D4DFD",
"y  c #4CB26C214CB2",
"u  c #433576C34335",
"i  c #4C1777774C17",
"p  c #486D78A7486D",
"a  c #55666F295566",
"s  c #58876B6C5887",
"d  c #54C7793254C7",
"f  c #5C07724F5C07",
"g  c #5D8779D15D87",
"h  c #628365C46283",
"j  c #6473754C6473",
"k  c #63097AC06309",
"l  c #6B6076AA6B60",
"z  c #6D707B286D70",
"x  c #7303759F7303",
"c  c #72D17C1C72D1",
"v  c #78667E927866",
"b  c #151585A11515",
"n  c #16CD893F16CD",
"m  c #203486012034",
"M  c #21B2884221B2",
"N  c #2A23874F2A23",
"B  c #2A3388212A33",
"V  c #324E8735324E",
"C  c #3A5687BD3A56",
"Z  c #41F382EA41F3",
"A  c #42DA88C242DA",
"S  c #4A6584DC4A65",
"D  c #4B568A4C4B56",
"F  c #52F0834A52F0",
"G  c #53748BAC5374",
"H  c #5A7985295A79",
"J  c #5B1C8C945B1C",
"K  c #639986FB6399",
"L  c #62EB8E3262EB",
"P  c #6C9185626C91",
"I  c #6D9C89BC6D9C",
"U  c #6ACB90816ACB",
"Y  c #75B58CAA75B5",
"T  c #7D0681287D06",
"R  c #7E5F8AF87E5F",
"E  c #72AB937172AB",
"W  c #7BB597E47BB5",
"Q  c #7C2698427C26",
"!  c #80ED850780ED",
"~  c #845E8A68845E",
"^  c #8C298E848C29",
"/  c #880492F98804",
"(  c #84039D2A8403",
")  c #8CAB9E888CAB",
"_  c #943D959E943D",
"`  c #91069C5B9106",
"'  c #9D6F9E1B9D6F",
"]  c #8EC7A2698EC7",
"[  c #97ACA73097AC",
"{  c #9BF8A3C49BF8",
"}  c #9CC9A8FC9CC9",
"|  c #A2A3A401A2A3",
" . c #A317AD0FA317",
".. c #A9BDAB71A9BD",
"X. c #AC5DB4DDAC5D",
"o. c #B330B435B330",
"O. c #B660BCB1B660",
"+. c #BD0EBD34BD0E",
"@. c #B763C0AAB763",
"#. c #BF20C23EBF20",
"$. c #C223C58EC223",
"%. c #C7B8C888C7B8",
"&. c #C8CDC820C8CD",
"*. c #CD04CE0DCD04",
"=. c #D025D1BDD025",
"-. c #D09FCFD0D09F",
";. c #D4A8D466D4A8",
":. c #D777D929D777",
">. c #DDEDDEAADDED",
",. c #DEF4E071DEF4",
"<. c #E086E058E086",
"1. c #E44CE408E44C",
"2. c #EA97E999EA97",
"3. c #F70DF6F3F70D",
"4. c #FF47FF31FF47",
/* pixels */
"4.4.4.4.4.4.4.4.4.4.4.4.1.+._ ' ' | ' ' ' ' _ | <.3.4.4.4.4.4.4.4.4.4.4.",
"4.4.4.4.3.2.2.2.1.2.2.<.&...' +.#.+.+.#.+.+...' %.<.2.2.1.2.1.3.4.4.4.4.",
"4.4.4.3.1.*.=.=.*.*.&.%.o...+.>.2.<.<.<.1.1.*.....+.-.*.*.*.%.>.4.4.4.4.",
"4.4.4.3.*.o.*.=.*.&.&.%.+.&.;.<.<.<.<.<.<.1.:.=.%.%.&.*.-.&.o.*.2.4.4.4.",
"4.4.4.2.o.^ |  .} { ' | { | ....................| ' | | ..| ^ o.2.4.4.4.",
"4.4.4.2.| s g k k k k k k k j l l x l z z c c T T ! ~ ^ _ ^ x | >.4.4.4.",
"4.4.4.1.( = # # , 1 6 8 u p i d f k z P I Y ~ ^ ` { | ..+.o.! ' :.3.4.4.",
"4.4.4.2.(   X X $ < 2 7 C u S F H K I Y W ( ) [  .X.o.$.-.&._ ..:.3.4.4.",
"4.4.4.2.] o X n n B V C A D G J L U E Q ] ] [  .X.O.#.=.,.:.{ ..;.3.4.4.",
"4.4.4.2.Q o b n M B V C A D G J L U E Q Q ] [  .X.O.#.=.1.:.' ..;.3.4.4.",
"4.4.4.1.( o @ n M B V C A D G J L U E Q ] ] [  .X.O.$.=.>.:.' | ;.3.4.4.",
"4.4.4.2.( o @ n M B V C A D G J L U E Q Q ] [  .X.O.#.=.>.:.| ..;.4.4.4.",
"4.4.4.2.(   @ n M B V C A D G J L U E Q Q ] [  .X.@.#.*.>.:.{ ..;.3.4.4.",
"4.4.4.2.( o @ n M B V C A D G J L U E Q ] ] [  .X.@.#.=.>.:.{ ..;.3.4.4.",
"4.4.4.1.( o X n M B V C A D G J L U E Q Q ] [  .X.O.#.=.,.:.| | ;.3.4.4.",
"4.4.4.2.( o b n M B V C A D G J L U E Q ] ] [ } X.@.#.=.,.:.{ ..:.3.4.4.",
"4.4.4.2.( o @ n M B V C A D G J L U E Q Q ] [  .@.@.#.=.,.=.[ X.;.3.4.4.",
"4.4.4.1.Q o @ n M B V C A D G J L U E Q ] ] [  . .@.#.*.,.,.[ ..;.3.4.4.",
"4.4.4.1.( o @ n M B V C A D G J L U E Q Q ] [ } X.@.@.*.>.:.[ ..;.3.4.4.",
"4.4.4.2.( o b n M B V C A D G J L U E W ] ] [  .X.@.#.=.,.:.{ ..:.3.4.4.",
"4.4.4.2.( o b n M B V C A D G J L U E W ] ] [  .X.O.#.*.,.:.| ..;.3.4.4.",
"4.4.4.2.( o X n M B V C A D G J L U E W Q ] [  .X.@.#.*.>.:.[ ..;.3.4.4.",
"4.4.4.1.Q O b n M B V C A D G J L U E W ] ] [  .X.O.$.*.>.:.' ..:.3.4.4.",
"4.4.4.2.Q o b n M B V C A D G J L U E W Q ] ]  .X.O.$.*.,.;.' ..:.3.4.4.",
"4.4.4.2.( o @ n M B V C A D G J L U E W ] ] [  .X.O.#.=.,.:.` ..;.3.4.4.",
"4.4.4.2.(   @ n M B V C A D G J L U E W Q ] [  .X.O.#.*.,.:.' | -.3.4.4.",
"4.4.4.1.( o @ n M B V C A D G J L U E W ] ] [  .X.O.$.=.,.:.| ..;.3.4.4.",
"4.4.4.2.( o @ n M B V C A D G J L U E W Q ] [  .X.O.$.*.,.:.{ ..:.3.4.4.",
"4.4.4.2.( o b n M B V C C D G J L U E W Q ] [  .X.O.#.=.,.:.{ ..;.3.4.4.",
"4.4.4.2.Q o X n M B V C A D G J L U E W ] ] [  .X.@.#.*.>.:.{ ..;.3.4.4.",
"4.4.4.1.( o b n M B V C A D G J L U E W Q ] [  .X.@.$.=.1.:.{ ..;.3.4.4.",
"4.4.4.2.( o @ n M B V C A D G J L U E W ] ] [  .X.O.$.*.>.:.{ ..:.3.4.4.",
"4.4.4.2.( o + b n N V C Z D G J L U E Q ( [ [  .X.o.#.%.:.;.' ..;.3.4.4.",
"4.4.4.2.) = . + $ 2 2 V Z S G J L U E Q ( ) [ [  .X.o.O.$.X.v ' >.3.4.4.",
"4.4.4.3.O.I p 8 4 3 > > 3 3 5 r y y a f j j z c c T ! ^ _ _ ^ O.2.4.4.4.",
"4.4.4.4.>.X.R j t ; & % % % % & - - ; ; : q q w q w e h x ^ | ;.3.4.4.4."
};
