/* XPM */
static char *__[] = {
/* columns rows colors chars-per-pixel */
"36 36 111 2 ",
"   c #1BD853661BD8",
".  c #1A885DFA1A88",
"X  c #0E0D66450E0D",
"o  c #0F2679500F26",
"O  c #100067491000",
"+  c #11266DEA1126",
"@  c #1BDD60B31BDD",
"#  c #1A306D901A30",
"$  c #13D873F613D8",
"%  c #10907E2D1090",
"&  c #1BC579FD1BC5",
"*  c #250942C22509",
"=  c #2BCD45F52BCD",
"-  c #2F9C4ADD2F9C",
";  c #27F25AA527F2",
":  c #333249DC3332",
">  c #3C994D103C99",
",  c #3D225F2F3D22",
"<  c #23D46D2F23D4",
"1  c #2E3C62A62E3C",
"2  c #2BAA6D822BAA",
"3  c #25507D4A2550",
"4  c #2E107F672E10",
"5  c #338D6346338D",
"6  c #33CD6BD633CD",
"7  c #39D364FE39D3",
"8  c #38C76F0C38C7",
"9  c #3E7C72A93E7C",
"0  c #446B4D4B446B",
"q  c #3FD158183FD1",
"w  c #4CCD51A94CCD",
"e  c #57125ABE5712",
"r  c #424464244244",
"t  c #4B4566EA4B45",
"y  c #4C1F6B634C1F",
"u  c #475D7589475D",
"i  c #4D84764B4D84",
"p  c #4D4C79E44D4C",
"a  c #55856CAA5585",
"s  c #53DE77C253DE",
"d  c #5CF772005CF7",
"f  c #5A5879CE5A58",
"g  c #67986A7B6798",
"h  c #641174756411",
"j  c #60C87C2D60C8",
"k  c #6BBE74FB6BBE",
"l  c #6BE57A426BE5",
"z  c #72D0755772D0",
"x  c #746A7974746A",
"c  c #7A157EFB7A15",
"v  c #159F85EF159F",
"b  c #161989151619",
"n  c #1B92838F1B92",
"m  c #1AE288A11AE2",
"M  c #216587CC2165",
"N  c #2377886E2377",
"B  c #2A3B87982A3B",
"V  c #323D8738323D",
"C  c #3A4887A43A48",
"Z  c #3A82882A3A82",
"A  c #4010843F4010",
"S  c #42BF88A042BF",
"D  c #48C7866748C7",
"F  c #4B0289D04B02",
"G  c #530E8B1B530E",
"H  c #5B158CB75B15",
"J  c #63148E9B6314",
"K  c #6F8783846F87",
"L  c #6B1891076B18",
"P  c #76C4877C76C4",
"I  c #72238B237223",
"U  c #7B4381DD7B43",
"Y  c #7E828C0D7E82",
"T  c #7337943C7337",
"R  c #7BE497F67BE4",
"E  c #7CF5993C7CF5",
"W  c #818584D68185",
"Q  c #84D68B0084D6",
"!  c #8B478DAE8B47",
"~  c #84CA933184CA",
"^  c #83EF9CCF83EF",
"/  c #8BC1952E8BC1",
"(  c #8CC09D428CC0",
")  c #92B8949A92B8",
"_  c #93379B6D9337",
"`  c #9D349ED29D34",
"'  c #8E2CA1BE8E2C",
"]  c #974EA6EC974E",
"[  c #9EB0A2E39EB0",
"{  c #9907A8F49907",
"}  c #A22AA341A22A",
"|  c #A468AB89A468",
" . c #AA73AAEEAA73",
".. c #ABF2B533ABF2",
"X. c #B278B626B278",
"o. c #B65CBD63B65C",
"O. c #BBA8BCCBBBA8",
"+. c #BDA6C3DEBDA6",
"@. c #C17FC652C17F",
"#. c #CC8FCE70CC8F",
"$. c #CEF8D1E4CEF8",
"%. c #D4BAD559D4BA",
"&. c #D7AAD8C2D7AA",
"*. c #DD28DD7BDD28",
"=. c #DFBDE0C0DFBD",
"-. c #E503E539E503",
";. c #EAC1E9BFEAC1",
":. c #F072F03FF072",
">. c #F735F75CF735",
",. c #F814F889F814",
"<. c #FF57FF42FF57",
/* pixels */
"<.<.<.<.<.<.<.<.<.<.<.<.;.O.) } } ` ` } ` } ` } *.>.<.<.<.<.<.<.<.<.<.<.",
"<.<.<.<.>.*.*.&.&.&.&.&.O.` ) |  . . . . . .) ) X.#.&.&.&.&.*.;.,.<.<.<.",
"<.<.<.,.#.[ _ ( _ _ _ ( c x U _ [ [ } } } [ Q x W ) ` [ } } } #.>.<.<.<.",
"<.<.<.;.] , 1 5 5 7 7 7 , q t a d d h g l x k k z x c Q Q Q z [ *.,.<.<.",
"<.<.,.;.~   X $ # < < 2 6 u u p s f J l K P ~ ~ / / ` | X. .W ` %.>.<.<.",
"<.<.<.;.E @ % b N B V Z S F G H J L T E ^ ' { | ..+.+.$.=.&.`  .%.>.<.<.",
"<.<.<.;.^ @ % m B B V Z S F G H J L T E ^ ' ] { ..o.@.$.*.&.`  .%.>.<.<.",
"<.<.,.;.^ @ % m N B V Z S F G H J L T E ^ ] ] | ..o.@.#.*.&.`  .%.>.<.<.",
"<.<.<.;.E @ v b m B V Z S F G H J L T R ' ' { | ..o.@.#.=.&.`  .%.>.<.<.",
"<.<.,.;.^ @ o b N B V Z S F G H J L T R E ' { { ..o.@.#.*.&.`  .%.>.<.<.",
"<.<.<.;.E @ o b N B V Z S F G H J L T R ' ' ] | ..+.+.#.*.&.`  .%.>.<.<.",
"<.<.<.;.E . v b m B V Z S F G H J L T R E ' ] | ..o.@.#.*.&.[ } %.>.<.<.",
"<.<.,.;.^ @ v v N B V Z S F G H J L T R ^ ' ] | ..o.@.#.*.&.[  .%.>.<.<.",
"<.<.<.;.^ @ o b N B V Z S F G H J L T R ^ ' ] | ..O.@.#.*.&.` | %.>.<.<.",
"<.<.<.;.^ @ o b m B V Z S F G H J L T R ^ ' ] | ..o.@.#.*.&.` | %.>.<.<.",
"<.<.,.;.E @ v b N B V Z S F G H J L T R ^ ' ] | ..o.@.#.*.&.`  .%.>.<.<.",
"<.<.,.;.^ . $ v N B V Z S F G H J L T R ' ' { | +.+.+.$.=.%.] | %.>.<.<.",
"<.<.,.;.E . $ v N N V Z S F G H J L T R E ' ] { | ..+.#.=.=.[ | %.>.<.<.",
"<.<.,.;.^ @ o b m B V Z S F G H J L T R ' ' { | +.+.+.#.*.&.[  .%.>.<.<.",
"<.<.<.-.^ @ o b M B Z Z S F G H J L T R E ' { | { +.+.@.*.&.` | %.>.<.<.",
"<.<.<.;.^ @ v b M B V C S F G H J L T R E ' { { ..o.@.#.*.&.`  .%.>.<.<.",
"<.<.<.;.^ @ o b M B V C S F G H J L T R ' ' { | ..O.@.#.=.&.` | %.>.<.<.",
"<.<.,.;.^ @ o m B B V C S F G H J L T R E ' ] | ..o.@.$.=.&.`  .%.>.<.<.",
"<.<.<.;.E . v m B B V C S F G H J L T R ' ' ] { ..o.@.#.=.%.` | %.>.<.<.",
"<.<.<.;.^ . % m N V V Z Z F G H J L T E ' ' ] | ..o.@.#.-.&.` | %.>.<.<.",
"<.<.<.;.E . % m N N V Z S F G H J J T R E ' ] | ..o.@.$.*.&.`  .%.>.<.<.",
"<.<.<.;.^ @ % m B V V Z S F G H J L T R ' ' ] | ..o.@.$.=.%.` | %.>.<.<.",
"<.<.,.;.^ . % b N B V Z S F G H J L T E E ' { | ..o.@.#.=.%.`  .%.>.<.<.",
"<.<.<.;.^ @ o b m B V Z S F G H J L T E ^ ' { { ..o.+.#.=.&.}  .%.>.<.<.",
"<.<.,.;.^ . v b N B V Z S F G H J L T E ^ ' { | ..o.@.#.*.&.` } %.>.<.<.",
"<.<.<.-.E @ o b N B V Z S F G H J L T E ^ ' ] | ..o.@.#.*.&.`  .%.>.<.<.",
"<.<.<.;.E . v b m B V Z S F G H J L T E ^ ' ] | ..o.@.#.-.&.`  .%.>.<.<.",
"<.<.<.;.^ . o v n B V C S D G H J L T E ^ ' ] | ..o.+.#.*.$.) } &.,.<.<.",
"<.<.,.;.^ ; O $ $ 3 4 V A D G H J L T E ^ ' ] { [ ..X.o.@. .W ` *.,.<.<.",
"<.<.<.>.+.I p 9 9 6 1 1 ; 5 , 7 t y a d h h k l x c W / ) ) / O.;.<.<.<.",
"<.<.<.<.-.X.~ l a > : * * * = = - : > 0 > 0 0 0 0 w e g x !  .&.,.<.<.<."
};
