/* XPM */
static char *_[] = {
/* columns rows colors chars-per-pixel */
"36 36 210 2 ",
"   c #7AD97D623A21",
".  c #5B105D7A4A8F",
"X  c #4E274FCA512A",
"o  c #554D5714588F",
"O  c #545858915C4E",
"+  c #5C285CFA5BB7",
"@  c #67EC6AD64649",
"#  c #744075EA4E12",
"$  c #6C046D1E5BE2",
"%  c #6E8370155B3A",
"&  c #7A7E7C1E532C",
"*  c #75B676C55971",
"=  c #7DF27F8B5C3C",
"-  c #60E362496382",
";  c #6B006BAA65AC",
":  c #610566486ADA",
">  c #677969736A61",
",  c #6CFE6D576C98",
"<  c #6FDD71176929",
"1  c #7E057E9D64C0",
"2  c #6B7C6F857309",
"3  c #6C8D72BC780B",
"4  c #750874CD74FC",
"5  c #7C887CDA72CC",
"6  c #723479267D7A",
"7  c #7A2B7B507C67",
"8  c #AB16276E2690",
"9  c #AB5C28482768",
"0  c #ABA52A9E29BF",
"q  c #C0132D832CF9",
"w  c #AAD22FE22F09",
"e  c #A4ED357E34A1",
"r  c #A0833BCE3AF0",
"t  c #ADC63E763D93",
"y  c #BF22345233C9",
"u  c #BBB13D6E3CE4",
"i  c #C0CB25A92520",
"p  c #CB2C2416238F",
"a  c #C1E028D82848",
"s  c #CE85294028D3",
"d  c #D1782DC12D65",
"f  c #C192317C30F5",
"g  c #C0A63C583BB1",
"h  c #D24934C53472",
"j  c #D1353B883B33",
"k  c #D0DB3FE93F95",
"l  c #9ECF438542A6",
"z  c #9E084DF24D13",
"x  c #9F6E585C5794",
"c  c #B948444543BB",
"v  c #B7934EEF4E64",
"b  c #B87D48FE4874",
"n  c #B43355155472",
"m  c #B69B5D395CB8",
"M  c #81FD7F997FF8",
"N  c #A1FA68D96822",
"B  c #A9266C1E6B2B",
"V  c #B64D6708668B",
"C  c #B6326D0F6C37",
"Z  c #B25E799B7905",
"A  c #C19344D04425",
"S  c #D03444574403",
"D  c #CF404A6C4A18",
"F  c #C34556A355F7",
"G  c #CE7C5262520F",
"H  c #CE715AF15A9D",
"J  c #CE21641863C5",
"K  c #CBBD6E726E1B",
"L  c #C3C074D6740F",
"P  c #C9C072E17283",
"I  c #CB69788077C7",
"U  c #C3527C497B9B",
"Y  c #7F0680CA7A8E",
"T  c #826985543CC1",
"R  c #9BF99FB63E61",
"E  c #8C058E0E57FC",
"W  c #8EDC90DE5A60",
"Q  c #925C94675CB5",
"!  c #A2D3A69B4547",
"~  c #8437851162AB",
"^  c #86E18880639C",
"/  c #958897DA621F",
"(  c #96159862631F",
")  c #845D85197584",
"_  c #8CC68E467425",
"`  c #835B83A17CBC",
"'  c #8FE491827A7C",
"]  c #9BE89C3976AE",
"[  c #B8A9809D7FC1",
"{  c #A00BA14B6EDA",
"}  c #A489A6B56518",
"|  c #A0CEA25F6BA4",
" . c #A400A51C73B6",
".. c #AB67AD7E72B6",
"X. c #A58CA6AE7BD8",
"o. c #A7EDA8FC78E0",
"O. c #C3C2C6016F7B",
"+. c #C36BC5E2773B",
"@. c #CABACD1374EB",
"#. c #C624C88E79BA",
"$. c #CACACD377E77",
"%. c #CDBFD0717856",
"&. c #7DE47F4D80B2",
"*. c #7C9E81A38472",
"=. c #7E38847E8A05",
"-. c #83AF846B84F9",
";. c #8BBF8D2984C2",
":. c #82F885DB88BA",
">. c #860B891A8ACC",
",. c #8BAD8C918CE8",
"<. c #91A891DE8232",
"1. c #95A593EB8894",
"2. c #9E0F9ED78BF5",
"3. c #8C3C8F1691BA",
"4. c #8D1F90B39445",
"5. c #8BE092FF9967",
"6. c #9423949294ED",
"7. c #9919957C953E",
"8. c #9A779ADF95B7",
"9. c #93DC96F49948",
"0. c #95C49A4B9D60",
"q. c #9B469C3B9C26",
"w. c #A504818580BA",
"e. c #AC5F8B018A58",
"r. c #C00C859B84EA",
"t. c #B9D790478FC8",
"y. c #AA3695729512",
"u. c #A27096FE98B4",
"i. c #A21F9D2E9C4F",
"p. c #B4B59EF09E87",
"a. c #A396A4728E43",
"s. c #BCA4BE3F84A5",
"d. c #A806A8789281",
"f. c #A8C0A927933C",
"g. c #8EA39901A1CB",
"h. c #95EE9BB9A0D2",
"j. c #9B9F9EC2A1B6",
"k. c #9E46A1EEA4FE",
"l. c #9D9EA672AE2E",
"z. c #A34CA38BA3E7",
"x. c #A8F0A4B6A4FE",
"c. c #ABA3ABF9A5D2",
"v. c #A57CA7D7AA3B",
"b. c #A682A9A4AC39",
"n. c #AC8DAD21AD65",
"m. c #B5FCA0DEA0A8",
"M. c #B198B183AF5B",
"N. c #A5D2AD18B3CB",
"B. c #ADB3AFD5B1D4",
"V. c #AE0FB1EAB5CA",
"C. c #ACE6B2AFB917",
"Z. c #B480B447B38F",
"A. c #B4A6B713B97F",
"S. c #B85AB811B967",
"D. c #B5B0BA1ABE41",
"F. c #BCC9BD12BC00",
"G. c #C054825E81AC",
"H. c #C1008D5B8CAA",
"J. c #C220935392A1",
"K. c #C4CC9A339986",
"L. c #C432A435A37D",
"P. c #C4A7A97FA8FF",
"I. c #C288B4A1B447",
"U. c #C339BE75BE58",
"Y. c #CEE3BEC7BE65",
"T. c #D273BFB4BF48",
"R. c #BF76C1038749",
"E. c #C27BC4098A54",
"W. c #DD7BC06BC009",
"Q. c #B4A0BCFCC439",
"!. c #BB15BE6BC15F",
"~. c #BD0AC1A0C540",
"^. c #BCA0C6ADCF77",
"/. c #C2B1C2E2C312",
"(. c #CA5BC554C4E1",
"). c #C860C853C7ED",
"_. c #C1DDC738CBB2",
"`. c #C88BC72BC897",
"'. c #C628C956CC27",
"]. c #CD0ECD09CD32",
"[. c #D3C4C3B8C34A",
"{. c #DB1CC493C42E",
"}. c #D276CC5DCC28",
"|. c #D866CD6FCD09",
" X c #D058D05AD048",
".X c #C697CE16D49F",
"XX c #CB34CFB0D3B4",
"oX c #C4C2CF8BD8EA",
"OX c #CCB7D1B8D61C",
"+X c #CD9ED47CDA7F",
"@X c #D39AD3F9D4CE",
"#X c #D9C7D320D2CB",
"$X c #D2D0D722DB3C",
"%X c #D8D7D7F4D8F7",
"&X c #D670D928DBB1",
"*X c #DC94DD10DDAC",
"=X c #E45DCA14C9B0",
"-X c #E13DDE97DE7F",
";X c #E028E021E075",
":X c #E005E0BCE169",
">X c #E449E478E496",
",X c #E932E75CE720",
"<X c #E7F8E8CCE8EB",
"1X c #ED20ED36ED56",
"2X c #F0C8EB1DEAED",
"3X c #F063F063F077",
"4X c #EF3AF13FF147",
"5X c #F426F463F498",
"6X c #F7ECF83DF88C",
"7X c #FDD4FDDAFDE0",
/* pixels */
"7X7X7X7X7X7X7X7X7X7X7X7X>XF.7.y.u.0.j.q.8.i.6.f.&X6X7X7X7X7X7X7X7X7X7X7X",
"7X7X7X7X6X1X<X>X>X>X1X>X].n.z.I.U.F.~.F.F./.b.k.`.*X>X>X<X>X1X6X7X7X7X7X",
"7X7X7X6X>XXX].].].]. X).n.n.F.*X>X>X>X>X>X>X_.b.A./.].].].].].*X6X7X7X7X",
"7X7X7X5X].S.].XX].'.).(.U.).%X;X>X*X*X:X>X>X*X X/.).].].].].n.].5X7X7X7X",
"7X7X7X<X).F.*X,X*X&X%X#X@X@X*X*X*X*X*X*X>X*X*X%XOX$X&X*X>X&XS.).1X7X7X7X",
"7X7X7X<X}./.3X7X3X1X,X-X X_.~.~.].*X>X>X%X).F.F.F. X:X1X6X1X/.].1X7X7X7X",
"7X7X7X1X]./.1X7X5X3X-XU.8.<._ ^ c.%X>X-X/.,.5 1 & <.W.:X7X5X/.].1X7X7X7X",
"7X7X7X1X]./.1X5X3X1X%XZ.1.] } Y a.XX-X*XF.5 ~ Q   ^ n.>X7X3X/.].1X7X7X7X",
"7X7X7X1X]./.1X6X3X<XOXZ.a.R.O.E 2.].*X*XF.) | O.R Q c.>X6X1XW.^.1X7X7X7X",
"7X7X7X1X].U.1X6X3X3X@XZ.d.R.+.W a.@X-X*XF.)  .@.! Q c.>X6X1X~. X<X7X7X7X",
"7X7X7X1X]./.1X6X4X4X@XZ.d.R.@.W a.].*X*XF.M  .@.! ( c.>X6X1X/.].1X7X7X7X",
"7X7X7X1X]./.1X6X5X5X@XZ.d.R.$.Q a.@X>X*XF.) o.@.! ( c.<X6X1X/.].1X7X7X7X",
"7X7X7X1X]./.1X6X5X4X@XZ.f.R.E.Q a.@X>X:X~.` o.%.! ( c.<X7X5X/.].1X7X7X7X",
"7X7X7X<X].U.,X>X@X].Z.8.<.X...& ) x.Z.n.9.; ^ } T # ` V.).).Z.].1X7X7X7X",
"7X7X7X1X]./.>X].c.z.6.-.Y ' _ % < 7 -.7 < + @ Y @ . + 4 *.,.k.).2X7X7X7X",
"7X7X7X1X]./.*XF.3.0.0.0.0.0.8.;.>.:.:.-.*.Y -.;.*.6 3 2 O O 1.).1X7X7X7X",
"7X7X7X1X'.Q.>XS.4.V.Q.D.Q.!.D.D.A.Z.V.V.V.V.V.C.C.N.l.g.: X ,./.1X7X7X7X",
"7X7X6X1X].W.;XF.0.^.+X+X&X&X$X&X&X&X*X&X&X$X+X+X+X+XoXQ.=.: 6.'.1X7X7X7X",
"7X7X7X1X X/.>X~.q.~.OX+X+X$X&X$X&X&X&X&X$X$X+X+X+X+XoXN.:.7 x.OX1X7X7X7X",
"7X7X6X4X]./.<X].k.A..X$X+X+X+X@X$X$X$X$X+X+X+X+XoX+X^.5.*.,.n. X1X7X7X7X",
"7X7X7X1X].~.1X%Xn.k.D.$X+X+XOX+XOXOX+X+X+X.X+XOX+X+XQ.6 &.v.Z.].2X7X7X7X",
"7X7X7X1X^.W.1X<X/.0.v.XX$X+XOX.X.XOX.X.X.X.X.X.XoX^.l.: 3.'.F.].<X7X7X7X",
"7X7X7X1X]./.1X5X*Xq.0.C..X+X.X.X.X.X.X.X.X.X.X.X+XN.=.2 n.>X~.].1X7X7X7X",
"7X7X7X1X].~.1X7X>XZ.9.0.!.OXOXOX.X.X.XOX.XOX.X.XQ.>.> 6.}.1X/.].1X7X7X7X",
"7X7X7X1X]./.1X7X1X@Xn.>.q.D.+X$X+XOXOXOXOX+XOX~.>.> Y _.1X1X/. X1X7X7X7X",
"7X7X7X1X]./.1X6X3X<X].v.3.6.b./.].@X+X+XOX~.l.>., -.V.:X6X1XW.].1X7X7X7X",
"7X7X7X1X]./.1X6X4X1X<X Xj.>.;.z.Z.A.A.A.V.0.Y > ) B.:X4X6X1XQ.'.1X7X7X7X",
"7X7X7X1X].F.1X6X4X1X<X>X XZ.9.-.4 < < > > 2 *.a.W.+X<X4X6X1X/.].1X7X7X7X",
"7X7X7X1X]./.<X7X4X1X<X1X>X@X~.n.q.,.,.,.3.8.Z. X;X<X1X4X6X1X/.].2X7X7X7X",
"7X7X7X1XXX/.2X6X4X4X1X<X<X<X:X:X&XOX].}.+X*X>X<X1X1X1X4X6X4X/.].<X7X7X7X",
"7X7X7X1X]./.5X7X4X4X<X:X<X<X:X:X:X*X*X;X*X>X<X<X<X1X4X4X6X4X/.].<X7X7X7X",
"7X7X7X1X(.p.W.=X{.[.).W.W.W.F.W.W.U.W.W.W.W.).W.W.|.|.@X;X$XN.W.1X7X7X7X",
"7X7X7X1XP.B P I I I L U U U [ G.G.r.r.r.r.H.H.J.J.J.K.L.I.S.7.S.,X7X7X7X",
"7X7X7X4XK.t a p p s d d h j S S D D G G H H J J K K L U t.y.-.Z.<X7X7X7X",
"7X7X7X6X{.U F c g f q q i a a a q y y u c c b v n m V Z e.y.x.].6X7X7X7X",
"7X7X7X7X2X{.K.r.C n t 0 0 9 8 0 0 0 w w e r l l z x N w.e.p.].1X7X7X7X7X"
};
