/* XPM */
static char *__[] = {
/* columns rows colors chars-per-pixel */
"36 36 256 2 ",
"   c #7AD77D5F3A17",
".  c #5B585DA84AAB",
"X  c #4EC85071510B",
"o  c #555956B657C3",
"O  c #53E1581B5BA8",
"+  c #5BFC5D0C5BF5",
"@  c #6BF76D505C5A",
"#  c #6E4970215B8B",
"$  c #749576145050",
"%  c #75AF76C1596C",
"&  c #7E1B7FDD5CBD",
"*  c #796E7C7453A4",
"=  c #67E96AE74674",
"-  c #5E95616B6076",
";  c #6025625A6312",
":  c #6261671D6B5D",
">  c #66FD69E96C82",
",  c #6B786C5A6CBD",
"<  c #6AF26B1464AC",
"1  c #6FDE7108690D",
"2  c #7E0E7EA964D5",
"3  c #6B896EF571F1",
"4  c #6D6C709D7320",
"5  c #6E1E74EB7A40",
"6  c #72FB74F0769D",
"7  c #7C467C8D7001",
"8  c #7D2B7DD27D98",
"9  c #74027A367C4A",
"0  c #B87753014AD9",
"q  c #BA475BE053DC",
"w  c #A5F26BDF43A5",
"e  c #A60F6CEE4CF6",
"r  c #A6857142429B",
"t  c #A74F7C054241",
"y  c #A821729C5DA2",
"u  c #A3547A09782B",
"i  c #AD327905736A",
"p  c #C512504A4782",
"a  c #DEE25418430C",
"s  c #ED0B5EC344C0",
"d  c #F09559554714",
"f  c #CD7B7C3D4DD9",
"g  c #DEF36AE558C1",
"h  c #CB0B757259AF",
"j  c #EE936C01491D",
"k  c #FCC165FB4A73",
"l  c #F9A570F34CCA",
"z  c #F287788D4CBA",
"x  c #E35F7D0B5CFE",
"c  c #E96174BD5C77",
"v  c #C80074EA6766",
"b  c #7F21810F7AF9",
"n  c #8278855D3CDE",
"m  c #9BFC9FBA3E5D",
"M  c #8C228E5A5837",
"N  c #9F538AF551D8",
"B  c #940194B65CAE",
"V  c #A7F3852F43B2",
"C  c #A8448AFE44EF",
"Z  c #AB278A164EE9",
"A  c #A7F8908E46C3",
"S  c #A6AB972449CD",
"D  c #A4A49D3B4E38",
"F  c #A233A60B4355",
"G  c #A1E2A1F854CD",
"H  c #8452851A63B9",
"J  c #86E8889763BD",
"K  c #9537977E630D",
"L  c #9B809C3D617E",
"P  c #85EE87197678",
"I  c #8D0B8FD3722E",
"U  c #8459846C7C4D",
"Y  c #8ABC8D23787A",
"T  c #9682979F7405",
"R  c #9082911F7C9E",
"E  c #9CCE9DC275AF",
"W  c #AD9A806972C0",
"Q  c #A33FA4FC68AD",
"!  c #A35FA446753C",
"~  c #A7D8A9147913",
"^  c #A872A9F476F3",
"/  c #CD158C0F4F64",
"(  c #CD5193094F16",
")  c #CCDB9A4B5065",
"_  c #E06D88915EC3",
"`  c #F601852E50D3",
"'  c #F98093A255CC",
"]  c #F8629EB858FB",
"[  c #CC80AC1A55E6",
"{  c #CCB9A18E5251",
"}  c #CBA5BA2D5BC3",
"|  c #F760A6F05B1D",
" . c #F66FAE2F5CEC",
".. c #F50EB76D5ED3",
"X. c #E1E193316200",
"o. c #E0B19C156437",
"O. c #DF6DA43165F3",
"+. c #DE4DAD8F6805",
"@. c #DD79B9A16D39",
"#. c #F441BFF061BE",
"$. c #C9B3C4F16331",
"%. c #C3C3C6036F72",
"&. c #C932C90569D2",
"*. c #CA3FCC0D7358",
"=. c #C653C85B7916",
"-. c #CC42CB437BCE",
";. c #C36FC3DD7B66",
":. c #DD83C3677111",
">. c #DD0ECA707466",
",. c #CDB1D065781F",
"<. c #DCD7D74F79EC",
"1. c #F3C5C86C6536",
"2. c #F371D0EC6894",
"3. c #F361DC4A6D53",
"4. c #F372E2D07010",
"5. c #F370EBAD74BB",
"6. c #F374F2B97FFD",
"7. c #7DF17F5D8109",
"8. c #7DFF826184F7",
"9. c #7CEF839989BA",
"0. c #824D84438580",
"q. c #87C8890A8310",
"w. c #841F86C38891",
"e. c #869F8A008BC8",
"r. c #8BE38D1D8CAD",
"t. c #8B858E9784A3",
"y. c #989C805981A6",
"u. c #982D8BF08FCC",
"i. c #8F4C9041846D",
"p. c #930F935883E8",
"a. c #901390588FEC",
"s. c #99DF9F348CA0",
"d. c #9A569B6984E9",
"f. c #8A788E3191F8",
"g. c #8BCF92FB997A",
"h. c #92FB94909492",
"j. c #979F989A9322",
"k. c #9B389D359288",
"l. c #92BB979C9BD5",
"z. c #94B999A99C9F",
"x. c #9C1F9C889C37",
"c. c #9C5D93E993B2",
"v. c #AE7788AF8052",
"b. c #C01B89E78514",
"n. c #A9909E5B883A",
"m. c #B4EF9F898677",
"M. c #B4589DC59FCC",
"N. c #B519986C93D4",
"B. c #A612A4728E35",
"V. c #BD6EBE688708",
"C. c #A7DFA84F9266",
"Z. c #A8A8A9159324",
"A. c #A4B3A5A396DC",
"S. c #BC50BCFA9635",
"D. c #8E8698C9A16D",
"F. c #97A79E74A3FC",
"G. c #A09D9DE0A29E",
"H. c #9D33A263A7C5",
"J. c #9D63A610AD4C",
"K. c #A356A40BA3B1",
"L. c #AA7DAB69A4E8",
"P. c #A49CA6E8A960",
"I. c #AC8FACFDAC68",
"U. c #A533A8FCAC5C",
"Y. c #B43AAA1CA8A1",
"T. c #B034B04FB011",
"R. c #BCA6BB5FAC4A",
"E. c #B8F3B997A3E0",
"W. c #A672AD4EB3BE",
"Q. c #ABFBAFB9B3D5",
"!. c #AEBFB12AB382",
"~. c #ACDEB34AB9AF",
"^. c #B594B5CEB42B",
"/. c #B9D9BA4BB4FF",
"(. c #B57CB737B921",
"). c #B453B98FBE4E",
"_. c #BD9CBDCCBD09",
"`. c #B96BB47BB4D2",
"'. c #CC73907A82AF",
"]. c #D04F9EBD8674",
"[. c #D4C29766870E",
"{. c #D2379B3686B1",
"}. c #CF23998996C7",
"|. c #CA7C9DCA9B68",
" X c #CD87A2DA8682",
".X c #C97DAEB88896",
"XX c #C713B635868D",
"oX c #C90DB5218721",
"OX c #C8F9B9D386CB",
"+X c #C588AB3AA9E0",
"@X c #CBB6BC56BA6A",
"#X c #C114C348897C",
"$X c #DCB5DC3F8691",
"%X c #C892C5759139",
"&X c #CAA1C9E5955C",
"*X c #CBE3CC429E3E",
"=X c #DDC8DE439876",
"-X c #F393F37F8D12",
";X c #EF86EF9B97F7",
":X c #F300F30A9AB3",
">X c #C9BAC70FA880",
",X c #CCCCCC72ACA2",
"<X c #C84BC70EA834",
"1X c #DF15DF78A4D2",
"2X c #C057C063BFEE",
"3X c #CB30CA38B649",
"4X c #CFCBD07AB53E",
"5X c #D4FBD558B898",
"6X c #E7CBE7ECA74F",
"7X c #F294F28FA8D0",
"8X c #E11AE17FB1E5",
"9X c #E577E5A1BACC",
"0X c #F339F337B7AB",
"qX c #B41CBC4AC38D",
"wX c #BB83BEEFC2AD",
"eX c #BE8AC116C268",
"rX c #BD51C527CC22",
"tX c #BF6FC9BCD2DA",
"yX c #C3C7C3C8C3B1",
"uX c #CA2ACAFCC67E",
"iX c #C0D3C784CD52",
"pX c #CCBBCCCACCDC",
"aX c #D950C2F0C17F",
"sX c #D4A5CEA0CB2E",
"dX c #DB57CFBECCE5",
"fX c #D129D274CE7C",
"gX c #DAFCD1FECD41",
"hX c #D9D3D9E7CCE0",
"jX c #D2BDD31DC75A",
"kX c #C69FCDBDD3F6",
"lX c #C9F2CF88D47F",
"zX c #C4BECF83D8E1",
"xX c #CB9CD1B6D6FF",
"cX c #C810D238DB0D",
"vX c #CD3BD414DA19",
"bX c #D32DD396D44E",
"nX c #E000D4CDD128",
"mX c #D9ADDA0ED264",
"MX c #D30BD740DB32",
"NX c #D6A0D9D6DCDD",
"BX c #DCCFDCFBDD44",
"VX c #E1DAE017E02A",
"CX c #E4F9D8E5D5BC",
"ZX c #E5F3E624C785",
"AX c #EAC7EAE7CBED",
"SX c #F8F2F8EACB8B",
"DX c #DF00DFBFE135",
"FX c #DFA5E145E258",
"GX c #E37DE3A2E3BB",
"HX c #E7B2E90AEA2D",
"JX c #ED40ED29ED4B",
"KX c #E98DE43BE3BA",
"LX c #EFB9F019F08E",
"PX c #F33FF352F375",
"IX c #F87CF85FF8A6",
"UX c #FE0BFE0CFE11",
/* pixels */
"UXUXUXUXUXUXUXUXUXUXUXUXGX^.a.x.x.x.x.x.x.x.g.x.bXPXUXUXUXUXUXUXUXUXUXUX",
"UXUXUXUXPXHXGXGXFXFXGXBX2XI.P.(.@X_._.eX@XyXI.x.2XbXVXVXGXGXGXPXUXUXUXUX",
"UXUXUXUXDXuXuXuXyXuXuX2XU.Y.uXBXGXGXGXGXGXGXuXI.^._.yXuXuXyX_.BXUXUXUXUX",
"UXUXUXPXpX`.lXxXsXlXpXuXyXpXMXGXGXGXDXFXGXGXBXfXuXuXlXbXbXlX!.uXPXUXUXUX",
"UXUXUXJXuX(.GXJXGXBXBXNXbXmXBXVXGXVXDXDXVXDXBXNXbXBXVXGXHXVX(.uXJXUXUXUX",
"UXUXIXJXpXyXPXIXLXJXGXBXuXuX2X2XfXBXGXFXbXuX_./.@XpXVXPXIXJXyXlXHXUXUXUX",
"UXUXUXJXpXyXPXIXJXPXVX2Xj.i.R P L.MXFXFXuXr.7 2 % i.wXHXUXPXyXpXJXUXUXUX",
"UXUXUXJXpX2XPXIXJXLXmX`.p.E Q & k.cXBXBX_.8 H B   J Y.FXUXLX2XsXJXUXUXUX",
"UXUXUXJXpXyXLXUXLXJXbXT.B.V.=.M s.iXBXNX_.b ! %.m B L.GXUXJXeXpXJXUXUXUX",
"UXUXUXJXpXyXJXIXLXJXmXT.Z.#X=.M s.kXBXBX_.U ! *.F B L.GXUXLXyXpXJXUXUXUX",
"UXUXUXJXpX2XJXIXPXJXbX^.Z.#X-.N B.pXDXBX_.U ! *.F B L.FXUXLXyXpXJXUXUXUX",
"UXUXUXJXpX2XJXIXPXJXmXT.Z.#X,.Z m.bXFXBX_.U ! ,.F B L.HXUXJXeXpXJXUXUXUX",
"UXUXUXHXpXyXJXIXPXLXMX`.Z.#X,.B B.bXGXBX@XU ~ ,.F K I.HXUXLXyXpXJXUXUXUX",
"UXUXUXJXpXyXHXHXmXpX`.x.p.~ ^ * P L.^.I.h.< H Q n $ 0.Q.uXuX(.pXHXUXUXUX",
"UXUXUXJXpXeXHXbXI.K.h.w.8 Y I # , 7.0.7.3 + @ & = . + 6 8 r.K.uXJXUXUXUX",
"UXUXUXHXpX@XBX).r.l.D.l.l.z.z.r.w.w.0.0.7.7.0.r.0.9 5 3 O o f.yXJXUXUXUX",
"UXUXUXJXpX2XBX(.r.W.).qXqXqXqXqX(.!.Q.!.!.!.~.~.~.W.J.D.: X f.uXJXUXUXUX",
"UXUXIXHXpX2XGX_.z.rXvXMXxXvXMXMXBXMXNXBXNXMXMXvXvXcXzXqX9.- h.uXJXUXUXUX",
"UXUXUXJXbXyXKXyXx.wXxXMXbXMXMXDXNXNXNXNXMXMXvXvXvXvXtXW.8.6 P.bXJXUXUXUX",
"UXUXUXJXpXyXJXpXK.W.rXNXbXvXvXvXvXMXMXMXMXMXvXvXzXvXtXg.8.r.I.xXJXUXUXUX",
"UXUXUXJXpXyXPXNXQ.F.qXMXvXvXvXvXvXvXxXvXvXlXxXvXcXcXqX5 8.I.^.pXJXUXUXUX",
"UXUXUXHXpXyXLXHX2Xh.P.kXMXvXxXxXlXkXkXkXkXkXkXzXcXkXJ.; r.pXwXpXHXUXUXUX",
"UXUXUXHXpXyXJXPXnXF.z.(.xXMXlXlXkXkXkXkXkXkXkXkXcXW.8., I.HXyXpXHXUXUXUX",
"UXUXUXJXpX2XJXIXHX`.z.l.qXkXlXlXlXkXkXkXkXvXkXkXwXe.> f.bXPXyXpXJXUXUXUX",
"UXUXUXJXpXyXJXUXJXBXI.r.l.~.kXvXMXvXvXxXvXvXxX_.e.> 6 yXPXPXyXpXJXUXUXUX",
"UXUXUXJXpXyXPXPXJXJXpXP.f.u.M.wXvXMXvXvXxXeXP.e.3 8.I.DXIXLXyXuXKXUXUXUX",
"UXUXUXJXpXyXJXPXHXPXHXpXH.y.u G.~.wX_.(.!.x.8 , 7.Q.GXLXIXJXwXpXJXUXUXUX",
"UXUXUXJXpXyXPXUXPXHXHXFXbX^.c.7.6 3 , > : 4 8.H.uXDXLXPXIXJX2XpXJXUXUXUX",
"UXUXUXJXpXyXJXPXJXHXHXHXFXxX).P.j.i.e.U i.l.!.pXGXHXHXHXPXGX_.pXJXUXUXUX",
"UXUXUXJXyXY.dXCXnXnXgXgXsXsXsXuX3X<X/.<X,XuXfXhXmXmXmXBXGXBXT.yXHXUXUXUX",
"UXUXUXHX+Xi '.[.[.{.].]. X X XoXoXOXXXoXOX%X&X&X*X>X4X4XjXuXL./.GXUXUXUX",
"UXUXUXJX|.q g c c _ _ X.X.o.O.+.@.@.:.:.>.<.<.$X$X=X1X1XZXhXY./.BXUXUXUX",
"UXUXUXJX}.p d k l z ` ' ] |  ...#.1.2.3.4.4.5.6.-X:X7X0XSXAXE./.BXIXUXUX",
"UXUXUXJX|.0 a s j z z ' |  . .....1.2.4.4.5.5.-X-X;X6X6X9X5XA./.DXIXUXUX",
"UXUXUXPXaX'.v v v h f / / / ( ) { [ [ } $.$.$.&.*.;.V.S.E.R.L.pXPXUXUXUX",
"UXUXUXUXKX@XN.v.i y e w w w t V V C A S F G G G G L T d.s.L.2XGXUXUXUXUX"
};
