/* XPM */
static char *___[] = {
/* columns rows colors chars-per-pixel */
"36 36 256 2 ",
"   c #1CF656791D25",
".  c #27DF58E417BF",
"X  c #0D2773750E54",
"o  c #0BF27D620C1F",
"O  c #104D6C021064",
"+  c #1AE263031AF4",
"@  c #19516D841AA6",
"#  c #0E3E74A50F9B",
"$  c #121F750E12B4",
"%  c #111F7D501129",
"&  c #16797462188A",
"*  c #194573151B22",
"=  c #1B0B7A901CA6",
"-  c #372968EE199C",
";  c #32CB64A916B4",
":  c #3ED276E81F6F",
">  c #3C0278231F79",
",  c #25A149ED2599",
"<  c #271147D52704",
"1  c #2F9F50072F9C",
"2  c #298D5A612848",
"3  c #3C164CF43AA6",
"4  c #34B74830339C",
"5  c #340956F134CC",
"6  c #3A8B53C23A46",
"7  c #3A065FB43A10",
"8  c #1E246C6020F9",
"9  c #1F2973FD1FB7",
"0  c #1F257DBB22BF",
"q  c #2099633220D8",
"w  c #24ED6A242242",
"e  c #29F26B442485",
"r  c #2DB964B92E21",
"t  c #294167D52583",
"y  c #2FCF67C320C6",
"u  c #334E6DB823E6",
"i  c #2FEE6C3D2DE2",
"p  c #23B8738024DC",
"a  c #292A73512A2D",
"s  c #251E7C8C287B",
"d  c #2B797A182AAD",
"f  c #278B78F123B3",
"g  c #322673EC237F",
"h  c #3444748D27E9",
"j  c #2EE16EA63136",
"k  c #310166BA31DE",
"l  c #34396C26342D",
"z  c #3ACC64223BE0",
"x  c #39E06A9D3A89",
"c  c #391F66943203",
"v  c #2C037B4E3066",
"b  c #30A870FA311C",
"n  c #3B7872DC3C69",
"m  c #36947CCC3850",
"M  c #485252CA2EDB",
"N  c #47C4516537B3",
"B  c #496453BE39C8",
"V  c #496053FA2FF2",
"C  c #50F45C6B342F",
"Z  c #45377F5A23D9",
"A  c #4B6676F03F17",
"S  c #637B6E8B2AF0",
"D  c #66C2720C2AE4",
"F  c #6088682A3F63",
"G  c #3F0862F8408B",
"H  c #3DFA7ECB4340",
"J  c #3EDA777A426F",
"K  c #43634CE54300",
"L  c #48224D454529",
"P  c #46CD49DF493B",
"I  c #44545A2E43B0",
"U  c #4B5C5BDE45AB",
"Y  c #4D7D54814D0E",
"T  c #43D851734384",
"R  c #4EC254755602",
"E  c #52A85A965325",
"W  c #56015E115B24",
"Q  c #57FC5D835806",
"!  c #456E63FF45B3",
"~  c #44736C764495",
"^  c #492266094A70",
"/  c #4C7B6C8A4C37",
"(  c #5AE16A36491B",
")  c #42AF72A44398",
"_  c #4BDA77973FCA",
"`  c #4C6478C24236",
"'  c #482E70734819",
"]  c #46B17B1B48E9",
"[  c #519F7CD14751",
"{  c #4E4F699550F3",
"}  c #570260BA5749",
"|  c #551569FB511D",
" . c #588E6BD7521B",
".. c #5A9E61BB5D12",
"X. c #530568335856",
"o. c #5A666BE55ABC",
"O. c #534C710C540B",
"+. c #52D17E795546",
"@. c #5CD774FD5CB7",
"#. c #56847FC05994",
"$. c #62A772304747",
"%. c #72537F7B4125",
"&. c #5FED76AD55D6",
"*. c #651279825C74",
"=. c #72D87B8353D3",
"-. c #5E8367B0697F",
";. c #5E69688B686D",
":. c #5A66622764BE",
">. c #5D8D7056622D",
",. c #637E6765655E",
"<. c #63496D626595",
"1. c #6AEC6DD86B5F",
"2. c #64B96E6C69DF",
"3. c #64AB745A66C7",
"4. c #65ED76726940",
"5. c #6A3974006B26",
"6. c #66F3785768F6",
"7. c #6B417D0E6D82",
"8. c #6A247D8C61B2",
"9. c #66CF6EEE70B4",
"0. c #6DFF7A4673D6",
"q. c #6C8475BB75A3",
"w. c #727176AB70C8",
"e. c #748A7AD2753A",
"r. c #75867C577E11",
"t. c #7A157D267B07",
"y. c #0E9280BF0EA1",
"u. c #12C281E412BF",
"i. c #1D7983241DD2",
"p. c #18FC8B6118F6",
"a. c #220687532239",
"s. c #249C8A6324AC",
"d. c #2752843827B3",
"f. c #2C76833B2D82",
"g. c #2E468B0D2E41",
"h. c #2DEB84263184",
"j. c #2FA48B203064",
"k. c #319D831F32BE",
"l. c #354389E9368F",
"z. c #38EE861D3D45",
"x. c #39228C2F396D",
"c. c #37B683ED38D1",
"v. c #44B082562615",
"b. c #4EE2871D24ED",
"n. c #3EC5865D435C",
"m. c #426E863141A7",
"M. c #41148BC443B3",
"N. c #495482474995",
"B. c #4592892F4B07",
"V. c #4AA38BBF4DE5",
"C. c #4B6490C54B5A",
"Z. c #4A668B915052",
"A. c #53B78CC05426",
"S. c #52978D14584A",
"D. c #57D485C359A7",
"F. c #556E91F85609",
"G. c #5E0995355E16",
"H. c #7E028B8B48D0",
"J. c #7DBF85E450B7",
"K. c #7A608A2F5498",
"L. c #763185FC50D9",
"P. c #5A2E8ED8615D",
"I. c #5D7F90EE62A4",
"U. c #63C1865F64CF",
"Y. c #6A6086CA6B68",
"T. c #699989766CC4",
"R. c #7C9C85246F6A",
"E. c #64DB93CB6639",
"W. c #650893176B91",
"Q. c #6A3195AF6C3A",
"!. c #67C198A8681C",
"~. c #68E099D668CC",
"^. c #6F608D4D7361",
"/. c #76E281137664",
"(. c #72508A5F74F3",
"). c #7CB183357C6C",
"_. c #78EA8D0C7EAA",
"`. c #6E2E96CA74FF",
"'. c #6E789A437015",
"]. c #70F396D6723F",
"[. c #715D9AF073A2",
"{. c #7BB594597B63",
"}. c #77099C2F7A27",
"|. c #7B759A237CB7",
" X c #810E8D322F40",
".X c #82468E6530FF",
"XX c #9F6FAD6E5844",
"oX c #9C15AA0A5509",
"OX c #802186F67F68",
"+X c #77C67E908076",
"@X c #7DDE88078B72",
"#X c #7C929E5882C5",
"$X c #7EFC929F88A2",
"%X c #817D83DC8194",
"&X c #840F8BA38494",
"*X c #8A7F8E2A8A80",
"=X c #819D9CD583DC",
"-X c #84499D118A43",
";X c #8902959E8AC6",
":X c #901E93BC900F",
">X c #80E98D169224",
",X c #883697D69672",
"<X c #8A14965498A2",
"1X c #8AC9989498F8",
"2X c #847F962E90A6",
"3X c #927F949F9299",
"4X c #94F89C309431",
"5X c #99449D9D94E9",
"6X c #9CFA9EC99D31",
"7X c #8489A3E88558",
"8X c #855BA28E8B3A",
"9X c #8A40A4998B7C",
"0X c #8DC1A96F8E25",
"qX c #9013A9C9900C",
"wX c #8D59A51B956E",
"eX c #8F95A858945C",
"rX c #930BA0F594A9",
"tX c #9218A9EF93B2",
"yX c #9C67A1AA9C56",
"uX c #9528AA619B09",
"iX c #99EEACF89988",
"pX c #9431A1FBA2A2",
"aX c #9583AABEA0ED",
"sX c #9A3EAD49A343",
"dX c #9CA7AE10A9F8",
"fX c #9E3BB0B3A9F5",
"gX c #A33CA567A345",
"hX c #A3A6ACB6A451",
"jX c #AD61AE9EAD68",
"kX c #A2A1B349A33B",
"lX c #A160B352AA75",
"zX c #AEBDB20DAEA2",
"xX c #AB7FBA36ACFD",
"cX c #A23CAF9DB59D",
"vX c #A49DB46DB2D4",
"bX c #AC5CBB47BCB7",
"nX c #B1A7B3B1B1D1",
"mX c #B4CCBD94B425",
"MX c #BB8ABDA3BB83",
"NX c #B746C23FB744",
"BX c #BD5AC396BD68",
"VX c #ADDCBC47C04F",
"CX c #C258C6BFC246",
"ZX c #C493CA42C48F",
"AX c #CAC4CE31CAC3",
"SX c #CF25D2CFCF38",
"DX c #D076D2F7D031",
"FX c #D2DFD5A1D2CB",
"GX c #D7DAD891D7DC",
"HX c #DDC3DE71DDC5",
"JX c #DFB1E0B5DFB3",
"KX c #E326E26FE329",
"LX c #EBD9ECC9EBEB",
"PX c #EFD1F0BDEFEE",
"IX c #F4E1F58DF4F7",
"UX c #FE7DFE6BFE7D",
/* pixels */
"UXUXUXUXUXUXUXUXUXUXUXIXFX*XY 3 4 4 M N K N Y e.AXIXUXUXUXUXUXUXUXUXUXUX",
"UXUXUXUXLXKXHXHXHXHXHXAXgX5.I ^ { O.&.*.4.4.:.,.gXAXGXGXGXHXHXLXUXUXUXUX",
"UXUXUXIXZXrX4X4X4X4XrX;X3.I G P.~.}.#X8XtXiX).Q e.3XgXgXgXgXhXAXLXUXUXUX",
"UXUXUXLXrX7 j j l x ~ ! B ) A.E.[.|.7XeXiXhXyX&Xt.).&X*X3X*Xe.gXLXUXUXUX",
"UXUXUXKXOX+ $ $ * p b n J Z.F.!.[.|.7XqXiXkXhXsX6XyXhXnXMXnX%XgXKXUXUXUX",
"UXUXUXJXOX9 u.u.i.g.x.n.H v.C.D.!.}.7XqXqX9X-X9XgXmXAXGXLXJXgXnXHXIXUXUX",
"UXUXUXJXOX+ u.p.a.g.k.a r e h y [ ].7XqXOX*. .( ( R.jXDXLXJX6XjXHXUXUXUX",
"UXUXUXKX|.+ u.p.s.g.f.d w g > ; A '.7X9XOX[ ( H.S =.6XDXLXJX6XjXHXUXUXUX",
"UXUXUXKX{.+ u.p.s.d.f.d f v.b.; A ].7X7X{.| L.oX XJ.3XFXLXJX6XjXHXUXUXUX",
"UXUXUXKX|.+ u.p.s.g.f.d - v.b.- A ].7X9X{.| K.XX XJ.5XDXLXJX6XnXKXIXUXUX",
"UXUXIXKX|.+ u.p.s.j.f.h g v.b.- A ].7X9X{.| K.XX XK.6XDXLXHX6XnXKXUXUXUX",
"UXUXUXKX|.+ u.p.s.j.f.d h v.b.- A ].7X9X{.| K.XX X.X6XDXPXHX6XjXHXUXUXUX",
"UXUXIXKX=X+ u.p.s.l.k.d g v.b.- ` ].7XqX|. .K.XX.X.X5XGXPXKX6XjXHXUXUXUX",
"UXUXUXKX|.  u.u.i.s f 9 w g : . c #.U.Y.>.U $.H.F ( w.gXMXMX3XjXHXIXUXUX",
"UXUXUXJX|.+ y.y.$ & @ + 2 w e . 2 c ! ! T 3 U ( C B R 9.t.%X%XjXHXUXUXUX",
"UXUXUXJX|.+ % o X $ @ 8 w j l z z ! ! ^ { X.*.5.2.2.,.,.R P 1.gXKXUXUXUX",
"UXUXUXKX|.+ o o X 9 0 v m H ] +.#.#.Y.Y.^.$X$X2X,X1X<X@X-.P 2.hXKXUXUXUX",
"UXUXIXKX|.+ o o X a.h.z.n.Z.S.E.Q.}.7X9XeXaXaXfXvXbXVXcX+XR q.jXJXIXUXUX",
"UXUXIXKX|.+ u.o X 0 h.z.n.Z.S.I.W.`.#X8XeXuXsXfXvXVXbXpX+X1.t.zXHXUXUXUX",
"UXUXUXKX{.+ u.y.X 0 f.n.M.Z.S.P.W.`.}.8XwXuXsXdXvXNXcX@Xt.+X*XnXHXUXUXUX",
"UXUXUXKX|.+ u.u.$ & d.z.n.Z.S.P.W.`.}.-XwXuXaXdXcXbXdX9.t.6X3XnXKXUXUXUX",
"UXUXUXKX}.+ u.u.= & 0 v n.Z.S.P.W.`.#X#X8XwXaXdXvXcX<XW &XMX6XnXHXIXUXUX",
"UXUXIXKX#X  u.p.i.& 8 s B.Z.S.P.W.`.}.#X#XwXaXdXlX<Xq.,.gXGX6XjXHXUXUXUX",
"UXUXUXKX}.+ u.p.i.= 8 8 m B.S.P.W.`.#X#X#XwXdXdXpXe.:.%XCXHX6XnXHXUXUXUX",
"UXUXIXKX=X+ u.p.s.s.0 8 a J S.P.W.`.}.#XwXuXaXrX0.W 2.nXJXJXyXjXKXUXUXUX",
"UXUXUXKX{.+ % p.s.g.d.p w i J A.W.`.#X8X8X-X_.4.Q 5.5XSXLXJX6XzXHXIXUXUX",
"UXUXUXJX|.+ u.p.s.g.x.x.i t r ) +.U.T.(.(.7.o.E <.4XZXHXLXHXyXzXHXUXUXUX",
"UXUXUXJX{.+ u.p.s.g.x.n.m.n l r 2 5 5 6 6 U o._.hXBXFXHXLXHX6XzXHXUXUXUX",
"UXUXUXKX|.+ u.p.s.g.x.C.C.Z.Z.v.) ~ / | O.Y.&XsXNXAXSXHXLXHX6XjXKXUXUXUX",
"UXUXUXKX|.+ % p.s.g.x.v.C.F.I.!.Q.`.}.OX9XaXxXNXCXAXSXHXLXHX6XjXHXIXUXUX",
"UXUXIXJX|.+ u.p.s.g.x.M.C.F.G.~.'.}.7X0XiXkXxXNXCXAXFXHXLXHX6XjXHXUXUXUX",
"UXUXUXJX|.q u.p.s.g.x.M.Z.F.G.~.[.}.7X0XiXkXxXNXBXSXFXHXLXKX6XjXHXUXUXUX",
"UXUXUXKX|.q % p.a.f.x.n.C.F.G.~.[.|.7X0XiXfXxXmXCXZXDXHXKXGX6XjXJXUXUXUX",
"UXUXUXLX=X2 O $ 0 d k.z.B.A.G.~.`.}.7XeXtXkXlXxXmXBXCXZXBXjXt.gXKXUXUXUX",
"UXUXUXIXNXY.] n n l r k k x J ' O.@.*.8.Y.e././.).OX*X4X5X3X3XBXIXUXUXUX",
"UXUXUXUXJXnX&X6.| B 1 , < , , < 1 3 V N T T K K L L Q 5.t.*XmXGXIXUXUXUX"
};
