/* XPM */
static char *__[] = {
/* columns rows colors chars-per-pixel */
"36 36 243 2 ",
"   c #7AC07D3439E3",
".  c #5B515DBB4A24",
"X  c #4DB04FDE51D0",
"o  c #556656BC57C0",
"O  c #5B3F5BC452C4",
"+  c #546558965B26",
"@  c #59E25A9E5841",
"#  c #5ED560685DA9",
"$  c #67F06AE84672",
"%  c #5FF8607A5795",
"&  c #6598660C5C77",
"*  c #6BF66CA45CB2",
"=  c #748D76254FEF",
"-  c #79987AFA5348",
";  c #764177B45ABC",
":  c #7E147FDB5CC4",
">  c #618463BE6590",
",  c #69A369AD63AF",
"<  c #612F67756CF6",
"1  c #6677698E6BBF",
"2  c #6CA66E436D6F",
"3  c #7E257ED3650D",
"4  c #7BFE7C746DB5",
"5  c #69D16F58735E",
"6  c #6C9D72ED779E",
"7  c #73C77644744E",
"8  c #7C0D7CBE7618",
"9  c #753279267B89",
"0  c #7A077AA27A7A",
"q  c #7FC480CD7D46",
"w  c #826D85543CB7",
"e  c #9BF99FB63E5F",
"r  c #ABF7AC052CF6",
"t  c #BD58BCE2271B",
"y  c #C027BFA2296C",
"u  c #AB57AB723205",
"i  c #A9C5A9803B04",
"p  c #B562B5533C1B",
"a  c #E7F6E5F91238",
"s  c #E56FE3831A1C",
"d  c #F190F06613B2",
"f  c #F09FEE701E18",
"g  c #F54CF3CF1305",
"h  c #FF66FF0216FB",
"j  c #FD13FC59180F",
"k  c #C611C5B72229",
"l  c #C8ABC86020DD",
"z  c #D486D3612E44",
"x  c #CFE5CEFF3E76",
"c  c #D0E5CFF83A28",
"v  c #D3E9D2BB345A",
"b  c #ED46EAF627F7",
"n  c #FB04F8462163",
"m  c #FEA7FBD12229",
"M  c #F9BEF78B2B24",
"N  c #FD3FFAF12A9C",
"B  c #EB75E9CE3372",
"V  c #E96CE7D43E32",
"C  c #F89BF6A13346",
"Z  c #FC89FA723335",
"A  c #F76DF5763B41",
"S  c #FB3DF92F3B6A",
"D  c #90668FD24D49",
"F  c #93F293714C1C",
"G  c #9ACB9B504F63",
"H  c #849C849454CA",
"J  c #8D738D225041",
"K  c #84FA85795E83",
"L  c #8C708E2C58B1",
"P  c #900E92115BAF",
"I  c #92719328548A",
"U  c #9C969C385045",
"Y  c #939F95B05D3D",
"T  c #A3DDA6D44535",
"R  c #A9B0A943405C",
"E  c #A2B6A2DC4A2A",
"W  c #AE39ADC65CD2",
"Q  c #B730B74F53A9",
"!  c #B20CB2135BAB",
"~  c #8368845562AF",
"^  c #86D188556378",
"/  c #824F82F36AD6",
"(  c #9542979F6143",
")  c #9616984D64F9",
"_  c #84F38593764D",
"`  c #8CAB8E967460",
"'  c #82B083087BAD",
"]  c #90099048720C",
"[  c #9CD19DB77597",
"{  c #90FE91C57A08",
"}  c #A490A6A764EE",
"|  c #A102A2526E06",
" . c #BF16BED665F8",
".. c #B701B6E16CD5",
"X. c #A48AA5877604",
"o. c #AB52AD39728C",
"O. c #A586A6C17B17",
"+. c #AB6BAB9C7A47",
"@. c #B058B03C7352",
"#. c #BBF4BC4B7710",
"$. c #CF50CE5F44C8",
"%. c #CE4ACD294ADC",
"&. c #CDE7CCB451AF",
"*. c #C6B9C62D5EFE",
"=. c #CC03CAFB5835",
"-. c #DD89DBE15C5A",
";. c #E857E6B74587",
":. c #E803E6604DAB",
">. c #F5F6F3FC4309",
",. c #F959F74D4372",
"<. c #F707F5004B5E",
"1. c #E69EE4FD54BE",
"2. c #E270E0CB58FB",
"3. c #F1CFEFD65B15",
"4. c #F5BFF3B65373",
"5. c #F55BF34D5BBA",
"6. c #C3CDC45A6CD2",
"7. c #CC24CB676F37",
"8. c #D4A7D38B62FC",
"9. c #DCEEDB9B6635",
"0. c #D688D5FF6D08",
"q. c #D8F9D7E0694D",
"w. c #CAB9CD1374E4",
"e. c #C77BC6C87932",
"r. c #C648C84E7911",
"t. c #C960CBC67CCC",
"y. c #CDC6D0797850",
"u. c #D372D2FA73D9",
"i. c #E0F0DFEF7B0E",
"p. c #F039EE45627E",
"a. c #ED64EBA66A1C",
"s. c #F1BFEFF36C55",
"d. c #F41FF21C63EE",
"f. c #E807E6CF724E",
"g. c #ED28EBE07538",
"h. c #E608E4F57E2C",
"j. c #7D4A7F1380D9",
"k. c #7DDA81D2841B",
"l. c #7E10842E8992",
"z. c #82B084418485",
"x. c #8B7B8CB38774",
"c. c #82C685A68892",
"v. c #861A8A738CE7",
"b. c #8A398BF68CC4",
"n. c #923792CB829D",
"m. c #97F198758635",
"M. c #901890638FE4",
"N. c #9E239EE38F9A",
"B. c #8D2F8F319184",
"V. c #8F3F907090FA",
"C. c #8E2893D2990F",
"Z. c #947A95A495DD",
"A. c #980E992C9734",
"S. c #9AC59B5C94F5",
"D. c #92D5962D991F",
"F. c #96AD9A419C95",
"G. c #9CE49D2E9CA3",
"H. c #A859A8C281D8",
"J. c #A2C2A37D8C9D",
"K. c #BD99BEEC8521",
"L. c #A752A7C392D4",
"P. c #A2B4A37F9E2E",
"I. c #AF8CAFFB9A95",
"U. c #8E6498A4A196",
"Y. c #9F17A284A550",
"T. c #9D97A651AE07",
"R. c #A365A3ECA390",
"E. c #AAE8AB4FA587",
"W. c #A5ADA6F2A861",
"Q. c #A621A983AD14",
"!. c #ACD7AD48ACDB",
"~. c #B454B4FFA1E3",
"^. c #B956B991A70C",
"/. c #B195B1A9AED5",
"(. c #A4E3AD02B4B8",
"). c #A9E5AEDBB3E7",
"_. c #AE86B1AAB4A2",
"`. c #A79BB036BA28",
"'. c #ADEEB384B98F",
"]. c #B4C8B517B449",
"[. c #B864B88BB6C0",
"{. c #B40CB6BFB8C2",
"}. c #B536B97CBD71",
"|. c #BD96BDCBBCD0",
" X c #C639C599854A",
".X c #CF73CF8186A8",
"XX c #C11DC2A98962",
"oX c #CC98CCAA8AF5",
"OX c #D08ED09A859A",
"+X c #DD0EDC0D8620",
"@X c #D692D5A58E6A",
"#X c #C604C5B8913E",
"$X c #C571C56A9BAA",
"%X c #D09BD01496C3",
"&X c #D2E2D24B97F2",
"*X c #C574C587A1F3",
"=X c #CEEFCECFA23E",
"-X c #C577C5A2AA47",
";X c #CCFCCCDDAB47",
":X c #C4D6C558B3FF",
">X c #CDC6CDC4B4AF",
",X c #C34DC3B2BE4D",
"<X c #CDCCCE61B8B1",
"1X c #DB3CDB52B695",
"2X c #D333D31ABCBA",
"3X c #B5C3BC9EC337",
"4X c #BDE2BFF8C20B",
"5X c #BDA8C263C6C9",
"6X c #BD46C671CE7A",
"7X c #BF5FC9A3D295",
"8X c #C32FC359C33A",
"9X c #CA82CAA1C556",
"0X c #C55BC8F1CC4B",
"qX c #CCDBCD02CCDA",
"wX c #D4E2D477C209",
"eX c #D33CD373CBBE",
"rX c #DAC0DA85CDE0",
"tX c #C6CACE15D483",
"yX c #CA6FCF95D45C",
"uX c #C4BFCF81D8DE",
"iX c #C80FD08AD81D",
"pX c #CC4CD19DD659",
"aX c #C811D222DAEE",
"sX c #CD3ED445DA73",
"dX c #D35BD3F0D48A",
"fX c #DA50DA61D770",
"gX c #D292D733DB92",
"hX c #D6C7D9D3DCC3",
"jX c #DD45DD78DD65",
"kX c #E3C2E3CDDDF5",
"lX c #E8F1E919DB36",
"zX c #DFC4E01CE0BE",
"xX c #DFFAE101E201",
"cX c #E40EE431E441",
"vX c #E9E3E9EFE6FC",
"bX c #E830E841E879",
"nX c #ED33ED3AED09",
"mX c #F28AF290EF14",
"MX c #F41EF41FF48F",
"NX c #F86AF85EF8E6",
"BX c #F87AF872F8C8",
"VX c #F84AF885F8C0",
"CX c #FE20FE21FE2F",
/* pixels */
"CXCXCXCXCXCXCXCXCXCXCXCXbX[.Z.A.G.G.G.G.A.G.Z.R.jXNXCXCXCXCXCXCXCXCXCXCX",
"CXCXCXCXMXnXbXbXbXcXbXxX0X/.R.[.|.8X8X8X8X|.!.G.8XjXbXbXbXbXnXMXCXCXCXCX",
"CXCXCXMXcXyXqXqXqXqXqX9X/.!.[.dXzXcXcXcXcXcX9X!.!.|.dXqXqXdXqXxXMXCXCXCX",
"CXCXCXMXqX{.qXdX0X9X8X8X|.qXhXzXcXcXcXcXcXcXjXqX8X,X9X9XqX8X!.qXMXCXCXCX",
"CXCXBXnX9X[.xXbXjXfXfXdXdXhXjXkXzXzXzXzXzXzXzXfXhXdXfXzXbXhX].9XnXBXCXCX",
"CXCXCXnXqX8XMXBXMXnXnXjXqX9X8X8XqXfXjXjXfX8X|.|.,XeXcXnXCXmX8XqXnXCXCXCX",
"CXCXCXnXqX8XnXBXMXMXjX8XS.{ ] _ E.dXzXzX8Xb.4 3 ; n.8XbXCXnX|.qXnXCXCXCX",
"CXCXBXnXqX8XnXBXMXnXhX].n.[ | : N.dXzXjX,X8 3 I   ^ !.cXNXnX8XqXnXCXCXCX",
"CXCXCXnXqX8XnXNXmXnXyX/.J.XXe.L J.qXxXjX[._ X.6.e Y E.cXBXnX8XqXnXCXCXCX",
"CXCXCXnXqX8XnXMXmXnXdX/.J.XXt.L J.dXxXjX|.' X.w.e ( E.cXBXnX8XqXnXCXCXCX",
"CXCXCXnXqX8XnXBXMXmXdX].L.XXt.L J.yXzXfX|.' X.w.T ) E.cXBXnX|.qXnXCXCXCX",
"CXCXCXnXqX8XnXBXMXMXdX].L.XXt.L J.dXcXjX|.' X.w.E ) E.vXCXnX8XqXnXCXCXCX",
"CXCXCXnXqX|.nXMXmXnXdX].L.#X.XL J.dXcXkX8X' X.w.T ) !.nXCXmX8XqXnXCXCXCX",
"CXCXCXnXqX8XbXbXdXqX].A.n.O.o.- _ W././.Z., ^ } w = z./.9XqX{.qXnXCXCXCX",
"CXCXCXnXqX8XbXdX!.R.Z.z.8 ` ] * 2 j.z.j.6 O * 3 $ . @ 7 q b.R.qXnXCXCXCX",
"CXCXCXnXqX|.kX}.B.F.F.C.Z.F.A.B.b.c.c.z.k.q z.x.k.9 6 5 o o M.8XnXCXCXCX",
"CXCXCXnXqX|.zX}.C.`.3X3X3X3X3X}._.)._._._.'.{.'.`.(.T.U.< X v.0XnXCXCXCX",
"CXCXNXnXqX8XcX|.F.3XuXzXgXgXgXgXhXfXhXhXhXgXsXpXaXaXuX3Xl.> D.0XnXCXCXCX",
"CXCXCXnXdX8XbX8XG.4XaXsXdXgXgXgXgXgXhXhXgXgXgXsXsXsXuX(.c.0 W.yXnXCXCXCX",
"CXCXNXnXqX8XbX9XY.'.4XzXsXdXgXgXgXgXgXgXgXgXsXiXaXsX6XC.j.b.!.dXnXCXCXCX",
"CXCXCXnXqX4XnXhX).Y.3XdXdXpXgXpXpXpXiXpXsXsXiXyXuXaX3Xj.j.W.].qXnXBXCXCX",
"CXCXCXnXqX8XMXnX8XZ.Q.yXpXdXiXiXyXiXyXtXyXiXyXiXaX6XT.> B.yX|.qXnXCXCXCX",
"CXCXCXnXqX8XnXMXdXG.F.'.yXgXuXyXyXtXtXtXtXtXtXuXuX(.j.5 !.cX8XqXnXCXCXCX",
"CXCXCXnXqX8XnXNXbX{.F.D.3XyXiXyXiXyXyXtX0XuXiX0X3Xv.1 B.qXmX8XqXnXCXCXCX",
"CXCXCXnXqX8XnXNXnXfXQ.b.F.3XgXgXsXaXpXpXsXpXpX4Xv.5 0 8XnXnX8XyXnXNXCXCX",
"CXCXCXnXqX8XmXBXmXnXyXQ.B.Z.!.8XyXdXdXdXpX5XQ.b.5 c./.cXNXMX8XqXnXCXCXCX",
"CXCXCXnXqX,XnXnXvXvXcX9XZ.z.z.G./.[.[.[.!.G.0 > 6 Q.zXbXMXbX8X9XnXCXCXCX",
"CXCXCXnX,XI.2X2X<X<X<X:X~.m.4 * * * * & % @ & 8 R.[.9XqXdXqXW.,XnXCXCXCX",
"CXCXCXnX$X! -.q.q.0.u.u.u.6.W U D D J H H : ] J.^.:X:X,X9X8XP.[.cXNXCXCX",
"CXCXBXnXoXt s f b B B V ;.:.1.2.-.8.8.7.e. X#X$X*X-X;X,XeXeXP.].zXNXCXCX",
"CXCXNXnX.Xl d j n M C A >.<.4.3.p.s.f.i.+X@X%X=X-X>X2XeXkXfX!.[.fXNXCXCX",
"CXCXCXnX.Xl g h m M Z S >.<.4.5.d.s.g.h.+X@X&X=X;X>XwXrXkXzX!.[.jXCXCXCX",
"CXCXCXnXoXl g h m N Z S ,.<.4.5.d.s.g.h.+X@X&X=X;X>X2XrXjXrXW.[.xXBXCXCX",
"CXCXCXnXoXk a g n N Z S ,.<.4.5.d.s.g.h.+X@X%X=X;X;X>X,X9X:XA.].bXBXCXCX",
"CXCXCXMX1X6.$.v v z z v c c $.%.&.=.6. ...@.+.H.J.J.J.R.E.!.!.qXMXCXCXCX",
"CXCXCXCXlX;X#.Q p r r r u u u i i T T U I L ^ ~ / 4 8 x.S.W.8XbXCXCXCXCX"
};
