/* XPM */
static char *__[] = {
/* columns rows colors chars-per-pixel */
"36 36 218 2 ",
"   c #100E7F8E100E",
".  c #1EA373D11EA2",
"X  c #18217C7D1821",
"o  c #244B5CA02454",
"O  c #34DA5B1934DF",
"+  c #3A69546C3A95",
"@  c #3B575AFC3BB1",
"#  c #24316311242D",
"$  c #2B1C613F2B20",
"%  c #29986CA52991",
"&  c #21F8741421F8",
"*  c #2CAC70F12CB1",
"=  c #28007C162800",
"-  c #317262443175",
";  c #33246B7F3318",
":  c #389D67A539A7",
">  c #3B496B6E3B80",
",  c #324975263247",
"<  c #30E27BEE30D7",
"1  c #3CB475C13CB2",
"2  c #3C2079D93C09",
"3  c #7ABC7D3239DC",
"4  c #3F975A923FE3",
"5  c #447B546244C0",
"6  c #4B07525E4D19",
"7  c #4C0A5AB24CAA",
"8  c #5BB95DEE49E3",
"9  c #4DEC505D5180",
"0  c #501F53ED542C",
"q  c #54AF5A6155A0",
"w  c #53DC58B95C13",
"e  c #5B645CF95B91",
"r  c #43466C6543A5",
"t  c #4A8269394B4E",
"y  c #4423745B4425",
"u  c #465C7E3B465A",
"i  c #4C3B74224CA8",
"p  c #54C863CE54D8",
"a  c #53296A7C5462",
"s  c #54E260FD5801",
"d  c #5C9165D75CBF",
"f  c #59406F695B15",
"g  c #55247574554A",
"h  c #575C7D485775",
"j  c #5A907ABC5BA5",
"k  c #67F06AE54673",
"l  c #74B476404DCB",
"z  c #6BD06D015BEE",
"x  c #6E4A6FF95B67",
"c  c #7AAA7C44533D",
"v  c #764477B65ABE",
"b  c #7DE57FA95CA7",
"n  c #5F2B623162AA",
"m  c #616463E56452",
"M  c #6307694F630F",
"N  c #612367D26CE3",
"B  c #6A3C6C966BF3",
"V  c #60CC75AF60E1",
"C  c #635279A563BE",
"Z  c #644D738F686A",
"A  c #67A97C8969AC",
"S  c #6A9F7F876A9E",
"D  c #7E377EDC6512",
"F  c #7063713668FB",
"G  c #7C5A7C876EBC",
"H  c #66E26E8474D8",
"J  c #6BE2726C77CB",
"K  c #710971C1718D",
"L  c #71C87A5F71C6",
"P  c #7D667D6977D8",
"I  c #738B79787C8A",
"U  c #7C747DA07D14",
"Y  c #13C6848613C6",
"T  c #171E88C6171E",
"R  c #17F789D317F7",
"E  c #220B8691220B",
"W  c #2259886A2259",
"Q  c #2A8E858C2A8E",
"!  c #32AF867732AE",
"~  c #3A5E85CC3A5B",
"^  c #3B4E88923B4E",
"/  c #434585624344",
"(  c #42D988BF42D9",
")  c #494883904949",
"_  c #4A9D89AB4A9D",
"`  c #54458BA75445",
"'  c #5BB28CB95BB2",
"]  c #637C82F665F2",
"[  c #62B18D6762B0",
"{  c #6AD88B986BB2",
"}  c #6728901D6728",
"|  c #6B1791636B16",
" . c #6ED687537252",
".. c #720A84F57507",
"X. c #73568CEF73F4",
"o. c #786C864A785C",
"O. c #7C828B967E24",
"+. c #7460952E745D",
"@. c #7A4994497B5C",
"#. c #7C6299607C5C",
"$. c #827C85623CDE",
"%. c #9BFA9FB83E5B",
"&. c #8CCF8ED658B1",
"*. c #8F2D912F5AC4",
"=. c #93E196095DD9",
"-. c #A235A60B4354",
";. c #83A784686456",
":. c #86DD8871637A",
">. c #956A97C46166",
",. c #86498706764C",
"<. c #8D898FAA71A5",
"1. c #8360838C7C99",
"2. c #8BDA8D4C7804",
"3. c #900991007FB1",
"4. c #9BF29CF8751D",
"5. c #90439166794F",
"6. c #A493A6AE64F6",
"7. c #A08CA2326BBD",
"8. c #A347A42F7560",
"9. c #AB8BAD7E7289",
"0. c #A5A1A6B97BD9",
"q. c #C3C1C6016F70",
"w. c #C424C69977DE",
"e. c #CA92CCF0746B",
"r. c #C985CBEE7CF2",
"t. c #CDB8D06C7820",
"y. c #79AF7FB783CE",
"u. c #7DC481CF83CE",
"i. c #7E5784AA8952",
"p. c #835F850D84E6",
"a. c #852E8CEF852D",
"s. c #8EEC8FC18060",
"d. c #8328865F895C",
"f. c #86B98CDE8A99",
"g. c #8C058D8A8D15",
"h. c #82A196F48790",
"j. c #84759D4B8489",
"k. c #85D194A98CF0",
"l. c #8C0C90978988",
"z. c #88E69C65894B",
"x. c #93AD94598528",
"c. c #9E629F028FB3",
"v. c #8CA18EF49111",
"b. c #8B0893D69333",
"n. c #8F569A69977F",
"m. c #8DC693E599B2",
"M. c #945F95779545",
"N. c #93339C6B932A",
"B. c #992F99D7937A",
"V. c #95EE99E49BBE",
"C. c #9CDC9D329CFC",
"Z. c #8575A3DF857B",
"A. c #8654AA808653",
"S. c #8DB7A1918DBB",
"D. c #89A0AB4B89A6",
"F. c #975CA72A9757",
"G. c #9503AD729504",
"H. c #A2D5A3A88DA6",
"J. c #BC32BDCA8438",
"K. c #A786A7F3921E",
"L. c #A848A8B292D3",
"P. c #8ECC98D6A14D",
"I. c #979F9C77A147",
"U. c #9ABE9CD5A1F3",
"Y. c #A08B9FF5A214",
"T. c #9F11A283A54A",
"R. c #9D88A621AD59",
"E. c #A37EA433A41F",
"W. c #A1F9AD0BA1FB",
"Q. c #AB31AB81A566",
"!. c #A73CA764A832",
"~. c #A4C1A980ADE8",
"^. c #ABF0AC80ABE5",
"/. c #A164BA74A186",
"(. c #AA8EB350AA83",
"). c #B393B3A1B01B",
"_. c #A511AD32B4F6",
"`. c #AABBAEB5B261",
"'. c #A797B021BA1B",
"]. c #AE50B1C6B45A",
"[. c #ACDAB3B0BA76",
"{. c #B427B4DBB398",
"}. c #B498BAFAB49B",
"|. c #B28BB5CFBA82",
" X c #B635BA3ABEAC",
".X c #BCA5BD09BC82",
"XX c #BE69C2A0BE2A",
"oX c #C06FC1FC87E4",
"OX c #C1FFC38A89B9",
"+X c #C24EC3D9BF54",
"@X c #B615BDEBC2FC",
"#X c #BC24C016C298",
"$X c #BBC8C268C40F",
"%X c #BD02C6DBCF86",
"&X c #BFDFC9DED2B7",
"*X c #C2CAC378C2EE",
"=X c #C6B8C8BFC6B7",
"-X c #C218C800CD48",
";X c #C6B9C8C6C851",
":X c #CCB2CD1ECCE9",
">X c #CD91D19CCD8D",
",X c #C701CE33D534",
"<X c #CB68CF85D3CD",
"1X c #C4BFCF7DD8DB",
"2X c #CE3FD23FD5E0",
"3X c #CC84D3E5DA85",
"4X c #D3DAD47ED528",
"5X c #D7FAD862D7DF",
"6X c #D869D8C4D826",
"7X c #D26ED718DB7B",
"8X c #D73FDA11DCC1",
"9X c #DCA2DD3FDD32",
"0X c #E02AE08DE063",
"qX c #E422E495E460",
"wX c #E834E94EE83E",
"eX c #ED4AED41ED65",
"rX c #F578F562F5A3",
"tX c #FE7BFE74FE80",
/* pixels */
"tXtXtXtXtXtXtXtXtXtXtXtXwX.XM.C.C.C.C.C.Y.Y.M.Y.9XrXtXtXtXtXtXtXtXtXtXtX",
"tXtXtXtXrXeXwXwXqXqXwXqX:X^.E..XXXXX*X.X.X*X^.Y.=X0XwXwXqXqXwXrXrXtXtXtX",
"tXtXtXrXqX4X:X:X:X:X:X=X^.^..X9XwX0X9X0XqXqX=X^.{.*X:X:X:X:X:X0XrXtXtXtX",
"tXtXtXeX:X{.:X<X:X:X:X*X.X:X4XqX0X0X9X0XqXqX9X:X*X*X=X:X:X=X].:XrXtXtXtX",
"tXtXtXeX;X.X0XqX9X9X5X4X4X5X9X9X0X9X0X0X0X0X9X4X4X4X6X9XwX9X{.;XeXrXtXtX",
"tXtXtXeX:X*XeXtXeXeXqX9X:X*X+X+X:X9XqX0X4X=X.X.X*X:X0XeXtXrX*X:XrXrXtXtX",
"tXtXtXeX:X*XeXtXrXrX0XXXB.3.5.,.Q.4X0X0X=Xg.G D v x..XeXtXeX*X:XeXtXtXtX",
"tXtXtXeX:X*XeXrXrXeX5X{.x.4.7.b c.:X0X9X.XP ;.=.3 :.).qXrXeX*X:XeXtXtXtX",
"tXtXtXeX:X*XeXrXrXeX2X).H.J.w.&.H.:X9X6X.X1.8.q.%.=.Q.qXtXeX.X:XeXrXtXtX",
"tXtXtXeX:X.XeXrXrXwX4X).L.oXr.*.H.4X0X9X.X1.8.e.%.>.Q.qXtXeX*X:XrXrXtXtX",
"tXtXrXeX:X*XeXrXrXeX4X).L.oXr.*.H.4X0X9X.X1.8.e.-.=.Q.qXrXeX*X:XeXtXtXtX",
"tXtXtXeX:X*XeXrXrXrX4X).L.oXr.&.H.4X0X9X.X1.8.e.-.>.Q.qXtXeX*X:XeXtXtXtX",
"tXtXrXeX4X*XeXtXrXrX5X).L.OXr.=.H.4X0X0X*Xp.0.t.-.>.^.wXtXeX*X:XeXrXtXtX",
"tXtXtXeX:X*XeXwX4X:X].M.s.0.9.c ,.Y.).^.M.B ;.6.&.l 1.`.;X:X{.:XrXrXtXtX",
"tXtXtXeX:XXXqX:X!.Y.v.y.U 2.<.x K U p.U K e z b 3 6 e J u.s.E.:XeXtXtXtX",
"tXtXrXrX:X*X0X.Xg.C.U.P.V.V.V.g.g.d.p.p.p.U p.d.y.K J H w e v.=XeXtXtXtX",
"tXtXtXeX:X*X0X}.v.`.@X@X X@X@X@X{.{.].`.`.].[.[.'._.R.P.N 9 v.;XeXrXtXtX",
"tXtXtXeX:X*X0X.XV.$X3X7X4X4X7X7X6X9X9X6X8X7X7X3X1X3X1X@Xy.N M.;XrXrXtXtX",
"tXtXtXeX:X*XwX+XC.@X2X7X7X7X7X7X8X8X8X8X8X4X3X3X3X3X1X_.d.U Y.4XeXtXtXtX",
"tXtXtXeX:X*XeX:XY.[.-X7X3X7X4X3X7X7X7X7X7X4X3X3X3X3X%Xm.y.v.^.4XeXtXtXtX",
"tXtXtXeX:X*XrX9X^.U.@X7X3X2X4X3X3X3X3X3X3X3X3X3X3X3X@XI y.Y.].4XrXrXtXtX",
"tXtXtXeX:X*XrXwX*XM.~.,X3X3X3X3X3X,X,X<X,X,X,X,X3X,XY.n g.:X.X:XeXtXtXtX",
"tXtXrXeX:X*XrXrX4XT.U.|.:X3X3X1X,X,X,X<X,X,X,X,X1X'.u.B !.qX*X:XeXrXtXtX",
"tXtXrXrX=X}.8XqX>XE.f.f.].$X$X@X@X@X@X@X@X#X@X@X@Xy.n p.*X0X|.:XeXtXtXtX",
"tXtXtXeX(.X.Z.D.Z.+.j t A O.h.k.k.k.k.b.b.m.n.k.N 9 q M.}..XV.{.wXrXtXtX",
"tXtXtXeXG.y ^ ( ) _ 2 ; : r i h ] {  .......Z q 9 n u.Q.*X.XV.^.qXrXtXtX",
"tXtXtXeXZ..   X & Q ! < % # $ > i h j j C f 7 5 e l.}.*X4X:XE.).9XrXtXtX",
"tXtXtXwXZ.& Y T E Q ! ! ~ 1 ; - O O O + @ 5 p L N.(.$X:X9X4X!.].9XrXtXtX",
"tXtXtXwXA.& Y R W Q Q ^ / / / y y r t t a V o.N.(.XX+X>X9X6XQ.}.9XrXtXtX",
"tXtXtXwXA.. Y R W Q ! ^ / _ ` ' ' [ { ..@.z.F.W.(.}.XX:X9X6X!.{.9XrXtXtX",
"tXtXtXeXA.& Y R W Q ! ^ / _ ` } } | +.@.j.S.G.W.(.}.+X>X9X5X!.{.9XrXtXtX",
"tXtXtXeXA.. Y R W Q ! ^ ( _ ` [ } | +.#.j.S.F.F.(.}.*X:X0X9X(.{.9XrXtXtX",
"tXtXtXeXD.. Y R E Q ! ^ ( _ ` ' [ | +.#.Z.S.F.W.(.}.XX:X6X4XQ.}.8XtXtXtX",
"tXtXtXeXA.& Y Y R Q ! ~ ( _ ` ' } | +.#.Z.S.G.T.(.}..X.X=X.XM.!.6XrXtXtX",
"tXtXtXrX/./ = & & % * * , 1 y y i g z A A  .o.O.a.f.g.M.Y.!.V..XeXrXtXtX",
"tXtXtXrXXX| 2 % # o o o # $ O @ @ 4 7 7 p p d d d d B F p.B.!.>XrXtXtXtX"
};
