/* XPM */
static char *__[] = {
/* columns rows colors chars-per-pixel */
"36 36 245 2 ",
"   c #1D4F53961D4F",
".  c #1E866E941EA7",
"X  c #123E7C68123D",
"o  c #1E36722D1E37",
"O  c #1F6D7D0F1F6B",
"+  c #22A7525622A7",
"@  c #20105A8E2010",
"#  c #28AE52D128AA",
"$  c #2C6B58F32C63",
"%  c #33465C693343",
"&  c #3BA355703BC8",
"*  c #3B3459473B36",
"=  c #241B6D862454",
"-  c #29ED65572A89",
";  c #2B776C922BC8",
":  c #2377761523D7",
">  c #26747830268E",
",  c #26FB75D9281E",
"<  c #2B3373872C4A",
"1  c #2E337CCD2E28",
"2  c #33B7652233C5",
"3  c #32AF6C8E3389",
"4  c #39E06EF13A05",
"5  c #32817A80335B",
"6  c #3BE673243CF5",
"7  c #3BA57AE03D6D",
"8  c #7AE47D693A2E",
"9  c #433249434741",
"0  c #43CE5A5D43F7",
"q  c #4B945C4C4B47",
"w  c #5BCC5DE24994",
"e  c #4C2E50755165",
"r  c #552C56B157A1",
"t  c #52FF5A51540C",
"y  c #55A75A185A01",
"u  c #5BF25D1C5B4B",
"i  c #42E76D3142EE",
"p  c #4B3269B54B6C",
"a  c #421473DC42FA",
"s  c #43707AFD44CF",
"d  c #463576FB4AC1",
"f  c #49A474914BF9",
"g  c #4BB37C7B4E02",
"h  c #53AB627D540E",
"j  c #533B6AFB537D",
"k  c #5A12617E5ACC",
"l  c #4F3976F653EC",
"z  c #4FC87A9454DE",
"x  c #53C274D253C0",
"c  c #53D3775F58BB",
"v  c #5B1177695B11",
"b  c #56427C365BDC",
"n  c #5871782C5DA2",
"m  c #685B6ADC45D4",
"M  c #740D761D4FC3",
"N  c #6BBC6D345C6F",
"B  c #6EB06FFC5ACD",
"V  c #7A957C43535C",
"C  c #759776B65957",
"Z  c #7DC17F965C9A",
"A  c #582B5E896090",
"S  c #5E46639A641A",
"D  c #5DDA6ED560B7",
"F  c #5F5B74D06206",
"G  c #5CBF7BBC629A",
"H  c #612163FD64D6",
"J  c #64C969336542",
"K  c #6B3A6B7264FD",
"L  c #60B067BC6C59",
"P  c #613C6F276808",
"I  c #6C786E156D09",
"U  c #615974D66144",
"Y  c #628F7AB5658B",
"T  c #667270FA6EB7",
"R  c #66BE7D356AA3",
"E  c #6C9E7BF96D1B",
"W  c #7E0E7EA664C7",
"Q  c #7042710C68DD",
"!  c #7C697C996EDD",
"~  c #683A6ECF7448",
"^  c #6C2573C37506",
"/  c #6D447F127293",
"(  c #721F738B74DB",
")  c #7C9C7D0D73EF",
"_  c #73B57C3579D4",
"`  c #7CDD7DD27E1A",
"'  c #1307841E1308",
"]  c #17448A1F1743",
"[  c #17B68A6217B6",
"{  c #214887692148",
"}  c #21B2881F21B2",
"|  c #29B186B729B1",
" . c #331486363320",
".. c #3BBB841F3BC0",
"X. c #3B5988623B59",
"o. c #426885C54314",
"O. c #42D488B942D4",
"+. c #4AB985864EC5",
"@. c #4B0189F34B01",
"#. c #53F684465663",
"$. c #53968BCC5396",
"%. c #5BF284075EC4",
"&. c #545088265831",
"*. c #5B4D8C335B95",
"=. c #5C0789D46021",
"-. c #63D982E9642A",
";. c #62CE8CD4646C",
":. c #637780C1697C",
">. c #6FB580096FB5",
",. c #66E88B9E6D87",
"<. c #6BE68DC66D8A",
"1. c #6B3791356B3F",
"2. c #6BBE823F714A",
"3. c #6DFF8E587554",
"4. c #761E84CD7612",
"5. c #72858E0872F5",
"6. c #710985FF79CD",
"7. c #7D0283497E6B",
"8. c #757E8B5F7BD7",
"9. c #7E258F5D7E2E",
"0. c #7379932274E4",
"q. c #758891BA7DA0",
"w. c #7A23941A7CB7",
"e. c #7CC299257CBE",
"r. c #826785633D03",
"t. c #9BE49FA53E5A",
"y. c #8CD48EDB58B7",
"u. c #8F2E912F5AC5",
"i. c #93F7961A5DE0",
"p. c #A1C7A5B24316",
"a. c #84448514623D",
"s. c #86C588546363",
"d. c #94FF97A0630D",
"f. c #852285CD7632",
"g. c #8CB18E66744F",
"h. c #835484387CA7",
"j. c #882E886D7F71",
"k. c #8FA890BB7FC7",
"l. c #9C049D037517",
"z. c #90529146795C",
"x. c #9FD1A10F6F69",
"c. c #A4B9A6C6650A",
"v. c #A08DA23A6BC1",
"b. c #A3B4A4FD75A3",
"n. c #AB8CAD7C729C",
"m. c #A54FA6817BC0",
"M. c #A7C7A9147912",
"N. c #C34FC5A46F38",
"B. c #C431C6A477EC",
"V. c #C780CA53727C",
"C. c #CB45CE1675EE",
"Z. c #C985CBEF7CF2",
"A. c #7D7A7F23803E",
"S. c #7AF289588436",
"D. c #7E31862D8B5E",
"F. c #7EB194138704",
"G. c #8205847F842C",
"H. c #84E98AAB8504",
"J. c #81EA861C8986",
"K. c #844B8B428993",
"L. c #8BF08D698C9A",
"P. c #822A95088249",
"I. c #852D9CF28531",
"U. c #871E95F78EC8",
"Y. c #8EC392648EAD",
"T. c #849F995C8D23",
"R. c #8C459C3D8C4E",
"E. c #929293058381",
"W. c #9D669EB38B43",
"Q. c #84E88EA5917D",
"!. c #8D708E7090B2",
"~. c #862B958D919E",
"^. c #8AE6965C92AF",
"/. c #8B259B1E9411",
"(. c #8FC597469AA0",
"). c #947B959B94E0",
"_. c #96059A5E9656",
"`. c #98CB99A7965F",
"'. c #93C09A039B83",
"]. c #9DA29E039DB1",
"[. c #83B9A5D483BE",
"{. c #8E74A2D48E7C",
"}. c #9011A724900C",
"|. c #974CA71E974C",
" X c #9B01B30A9B27",
".X c #A2EFA3C78DB7",
"XX c #BC30BDC98436",
"oX c #A7A3A80D922C",
"OX c #A86FA8D792F0",
"+X c #8E9B98C7A16C",
"@X c #93C99DDBA06D",
"#X c #99ECA02CA277",
"$X c #9C09A5B4AE66",
"%X c #A3A0A460A3EE",
"&X c #A3D3AC06A2AA",
"*X c #AB05AB73A529",
"=X c #A77CA793A834",
"-X c #A4BEA9E9A995",
";X c #AC80AD61AC74",
":X c #A687B061A694",
">X c #AD4BB49EAD49",
",X c #B1B0B2D0AE3D",
"<X c #A5C1ADF7B46D",
"1X c #AB2BAFC6B3DE",
"2X c #AD51B208B430",
"3X c #A79EB15CB8D4",
"4X c #AC56B2CCBA44",
"5X c #B412B496B357",
"6X c #B53CBE29B544",
"7X c #B5C1B734B88D",
"8X c #B5EFBB18BE85",
"9X c #BC91BD4ABC47",
"0X c #BFC9C35DBF7F",
"qX c #C066C1F487DE",
"wX c #C1F8C38489B5",
"eX c #C1D8C26CBF4B",
"rX c #B6C2BD04C163",
"tX c #BA4BBEB9C25C",
"yX c #B302BE74C857",
"uX c #BD7DC3F1C9DF",
"iX c #C26FC34FC2A6",
"pX c #C80DC92DC7ED",
"aX c #C5BAC9DECC14",
"sX c #CC71CCEDCCB1",
"dX c #CDF3D059CDFD",
"fX c #C20DCD01D6C7",
"gX c #CCBDCF7BD216",
"hX c #CFE4D170D2CC",
"jX c #C52CD066DA75",
"kX c #CDC7D578DC74",
"lX c #D486D4E9D558",
"zX c #D7FAD8FED7F9",
"xX c #D90CD96AD7E4",
"cX c #D3CCD733DA55",
"vX c #D48FD925DDDD",
"bX c #DCEADD91DDCF",
"nX c #D5DBDB6AE0D8",
"mX c #DDC0DF40E0D0",
"MX c #DFFFE126E240",
"NX c #E413E453E464",
"BX c #ECA4ECA8ECCE",
"VX c #F5B6F5C7F5EA",
"CX c #F874F8A7F870",
"ZX c #F86FF861F8BF",
"AX c #FEA1FE99FEA6",
/* pixels */
"AXAXAXAXAXAXAXAXAXAXAXAXNX7X).].].].].].].%X`.%XxXVXAXAXAXAXAXAXAXAXAXAX",
"AXAXAXAXVXBXBXNXBXNXNXNXsX;X%X9XiXeXeXeX9X9X=X%XiXbXNXNXNXNXBXVXAXAXAXAX",
"AXAXAXZXMXgXsXsXsXsXhXpX5X;X9XbXNXMXmXmXMXMXiX;X5XiXsXsXsXsXpXMXZXAXAXAX",
"AXAXAXBXgX7XgXhXsXsXpXiXeXpXxXMXNXmXmXbXNXNXbXhXpXpXsXsXhXpX,XpXBXAXAXAX",
"AXAXAXBXaX9XbXNXmXxXxXlXlXxXbXmXbXbXMXMXMXMXbXxXlXlXbXbXNXbX7XpXBXAXAXAX",
"AXAXAXBXgXiXBXZXVXBXNXbXaXiXeXeXsXbXNXMXxXiX9X9X9XsXNXVXZXBXiXsXBXAXAXAX",
"AXAXAXBXaXiXBXZXVXBXmXeX`.k.z.f.*XlXNXbXiXL.! Z C E.iXNXZXBXiXsXBXAXAXAX",
"AXAXAXBXsXiXBXZXVXBXxX5XE.l.v.Z W.gXMXbX9X) a.i.8 s.,XNXZXBXiXsXBXAXAXAX",
"AXAXAXBXsXiXBXZXVXBXhX,X.XXXB.y.W.sXMXbX9X) x.N.t.i.*XNXZXBXiXsXVXZXAXAX",
"AXAXAXBXsXeXBXVXBXVXlX5XoXqXZ.y..XdXMXxX9Xh.b.V.p.i.*XMXAXBXiXsXBXZXAXAX",
"AXAXAXBXsXiXBXCXVXBXlX5XOXwXZ.y..XlXMXbX9Xj.b.V.p.i.*XNXAXBX9XsXBXAXAXAX",
"AXAXAXBXsXiXBXCXVXBXlX5XOXwXZ.y..XdXMXMX9Xj.M.C.p.i.;XBXAXBXiXsXBXAXAXAX",
"AXAXZXBXsXiXBXCXVXBXlX5XOXwXZ.i..XdXMXMXiXj.M.C.p.d.=XBXAXVXiXsXBXZXAXAX",
"AXAXAXBXsXiXBXNXlXsX7X`.E.m.n.V f.*X5X,X).K s.c.r.M G.5XiXpX5XsXBXAXAXAX",
"AXAXAXBXsXiXNXhX;X%X).J.f.z.g.B Q A.A.` I u N W m w A ( A.L.].sXBXAXAXAX",
"AXAXZXBXhXiXmX9XL.`.'.'.).`.).L.L.J.G.A.A.A.G.J.A.` ( ~ r r !.iXBXAXAXAX",
"AXAXAXBXsX9XMX7XY.<X8X8XtXtXrX7X7X5X1X1X1X2X4X4X4X<X$X+X~ e Q.uXBXAXAXAX",
"AXAXZXBXsXiXNX9X'.uXkXvXvXkXvXvXbXbXnXvXnXvXvXkXkXkXuXyXD.S (.fXBXZXAXAX",
"AXAXAXBXlXiXNXiX].tXkXvXvXvXvXvXvXbXmXnXvXvXcXlXkXkXuX<XJ.( %XgXBXAXAXAX",
"AXAXAXBXiX;XsX5X!.#X<XuXrX8XrX8XtXtXtXtXtX8X8X8X8XrXyXD.( ` ].pXBXAXAXAX",
"AXAXAXBX>XF.}.P.E R 6.T.T.U.U.U.!.!.^.(.(.(.(.(.'.'.Q.A H ` Y.7XNXAXAXAX",
"AXAXZXBX}.4 5 1 ; - 3 a d l x c G F R R / 6.` S.D.S.^ 9 ~ ].L.;XbXZXAXAX",
"AXAXAXBX[.o X X X . . < 5 7 s g l n G :.2.6.S.U.~.6.k y ).iX).;XlXZXAXAX",
"AXAXZXBXF.. X ] { O : , 5 o.+.#.=.=.,.3.q.F.T./.~.T y ` 9XxX=X,XlXZXAXAX",
"AXAXZXBX[.. ' [ } | > = < ..+.&.=.;.<.5.w.T.~.K.P t J &XlXbX-X2XzXVXAXAX",
"AXAXZXBX[.. ' [ } | 1 < ; 3 6 +.*.;.<.w.w.8.2.v t J ).iXbXbX-X2XzXCXAXAX",
"AXAXAXBX[.. ' [ } |  . .3 - 2 a z #.b -.:.U j q k L.9XsXbXbX-X>XlXCXAXAX",
"AXAXZXBX[.: ' [ } |  .X...7 3 2 % % * & & 0 k E Y.>X0XsXbXxX&X,XbXZXAXAX",
"AXAXAXNX[.. ' ] } |  .X.O.@.s s a i p p j U 4.R.:X6XiXsXbXxX*X,XzXVXAXAX",
"AXAXAXBX[.. ' ] } |  .X.O.@.$.*.*.;.<.5.w.I.|.&X:X0XiXdXbXbXOX,XzXCXAXAX",
"AXAXZXBX[.. ' ] } |  .X.O.@.$.*.*.1.5.e.I.{.|.&X>X0XiXsXmXzX%X1XlXCXAXAX",
"AXAXAXBX[.. ' ] } |  .X.O.@.$.*.;.<.0.e.I.{.|. X X0XiXsXMXxX=X,XbXZXAXAX",
"AXAXAXBX[.. ' ] } |  .X.O.@.$.*.;.1.0.e.[.{.|.&X>X0X0XaXbXlX%X>XxXZXAXAX",
"AXAXZXBX[.. X ' [ |  .X.O.@.$.*.;.1.0.g.I.{.|.OX:X2X0X0XpXeXY.=XxXZXAXAX",
"AXAXZXVX X7 : o = = = 3 3 4 6 f x v v U R / 4.7.h.S.9.H.Y.Y.G.;XNXZXAXAX",
"AXAXAXVX6X-.4 - @     + # $ % % * 0 0 q h h h k h t t t u I ` 7XBXAXAXAX"
};
