/* XPM */
static char *__[] = {
/* columns rows colors chars-per-pixel */
"36 36 228 2 ",
"   c #3B653DCD3DC2",
".  c #1ED94FEF1ED6",
"X  c #0EE37D310EE2",
"o  c #1EA86D1A1EAC",
"O  c #1476792D14AC",
"+  c #19F474D31A78",
"@  c #1B557B3D1BED",
"#  c #20DB4ED020DB",
"$  c #239352BD239A",
"%  c #2C4152082C3D",
"&  c #348753DC3486",
"*  c #31AC5BB2322F",
"=  c #3B4355693B68",
"-  c #25696B15259A",
";  c #2A9F60882AE2",
":  c #27496D69280D",
">  c #2ADC6A162AE0",
",  c #236C755823E8",
"<  c #24B2787B26C3",
"1  c #27A0742F2951",
"2  c #2A9C73E62B51",
"3  c #272F7D90289F",
"4  c #2AEC7F042BDD",
"5  c #2F846EED30FB",
"6  c #344964103569",
"7  c #34716B8A3488",
"8  c #3ACE6CFD3B11",
"9  c #2EF87C09316E",
"0  c #32037CDD3326",
"q  c #36DB7C193A0A",
"w  c #3A5A7CBB3C64",
"e  c #7ADE7D633A21",
"r  c #3E2B76084050",
"t  c #3C9E7A643FF3",
"y  c #429D45304448",
"u  c #45D04B624E87",
"i  c #450159114515",
"p  c #4C9D551A4EE1",
"a  c #4CC55A594C33",
"s  c #5B335DA4492B",
"d  c #4F9853BF56E0",
"f  c #537A560E53F1",
"g  c #53345AAE53D1",
"h  c #58B25A3B5747",
"j  c #52C7585F5AA5",
"k  c #5D9C5F795E20",
"l  c #43B76D90445B",
"z  c #4AE467484C13",
"x  c #4C3F6E2C4C8C",
"c  c #431372EA4390",
"v  c #457F7B66469B",
"b  c #452C713749D6",
"n  c #4C7A7D5A4E22",
"m  c #544060FC5462",
"M  c #53816A525433",
"N  c #5DC164C85E31",
"B  c #5A3568635D3B",
"V  c #4F5F767554BD",
"C  c #4E6D7B4F507B",
"Z  c #546570785562",
"A  c #54D27B34554F",
"S  c #547E766A59B4",
"D  c #595D760D5BF0",
"F  c #68626B47478F",
"G  c #5FF261FE5F02",
"H  c #6E486FBC5B63",
"J  c #75807AD050F2",
"K  c #7B457CE453DE",
"L  c #759A76B85956",
"P  c #7E537FB059E2",
"I  c #5E326B386226",
"U  c #5C5177B860A3",
"Y  c #5E377F016068",
"T  c #63A665836346",
"R  c #66C06C766570",
"E  c #6BF26C8C62D0",
"W  c #64446BCD6BAB",
"Q  c #6C466E656DDC",
"!  c #613F757D61B3",
"~  c #615578B96303",
"^  c #6EC770206828",
"/  c #66107B3968F7",
"(  c #69847B876A9C",
")  c #7E1E7EBE64D1",
"_  c #704C71B46FE4",
"`  c #70297B2C6EC1",
"'  c #7B2C7BFF6E63",
"]  c #669F6E3672E9",
"[  c #6EBD74037450",
"{  c #6E7A7C157287",
"}  c #7304756575F6",
"|  c #715D7BC072C9",
" . c #7C8C7CF777CE",
".. c #75647B307B3D",
"X. c #7BD67DAD7DD4",
"o. c #0DBA80B50DAF",
"O. c #131683CB1316",
"+. c #16D0894616CD",
"@. c #1C9B82431CA9",
"#. c #17B18A6C17B0",
"$. c #221687402217",
"%. c #21FE882E21FD",
"&. c #29D9870C29D8",
"*. c #331C862233A3",
"=. c #3B5583BC3D74",
"-. c #3B7488783B72",
";. c #3F7C809B42F0",
":. c #437E841446A0",
">. c #42FB88D542FA",
",. c #4A48848F4E34",
"<. c #4B518A4D4B51",
"1. c #525A85715657",
"2. c #53988BD75396",
"3. c #599C84F75DA6",
"4. c #5488881A584E",
"5. c #5B178BF25BA0",
"6. c #5EC588E963F4",
"7. c #638C84CE65DA",
"8. c #62108C1E6462",
"9. c #67B286986D41",
"0. c #6A1184126B0E",
"q. c #66378B516B5E",
"w. c #6A7F8CB16D60",
"e. c #6BB491846BF9",
"r. c #6E008CC57401",
"t. c #73F981F974E2",
"y. c #730E8D1775B0",
"u. c #761A82C17D12",
"i. c #7F4C80127992",
"p. c #75988D2A7AA5",
"a. c #7B298B577BA6",
"s. c #737293E9741E",
"d. c #764E91507C71",
"f. c #7A1B93F97BFF",
"g. c #7CDB99277CCE",
"h. c #839286623EC6",
"j. c #9BFA9FB83E5B",
"k. c #8D108F0A58D9",
"l. c #8F3391335AC8",
"z. c #93E395FC5DD5",
"x. c #A233A6044353",
"c. c #81B6827862DF",
"v. c #872888526554",
"b. c #80C782B967F0",
"n. c #95DD9BAB63E1",
"m. c #8655874B7672",
"M. c #8C798E1074C4",
"N. c #8367845A7C98",
"B. c #9B099C507731",
"V. c #90C6919979D1",
"C. c #A1EAA3586C73",
"Z. c #A79DA9696B38",
"A. c #A3C5A4B6759B",
"S. c #AC24AE1E732A",
"D. c #A5DAA70A7C28",
"F. c #C3C1C6016F70",
"G. c #CA8FCCEC7464",
"H. c #C675C87A793A",
"J. c #CA6CCCDD7C02",
"K. c #76B17E908307",
"L. c #7D9A7EB68023",
"P. c #7A6683BA82C2",
"I. c #7D3C8F9A8420",
"U. c #7DA085E98903",
"Y. c #7D919380842A",
"T. c #838A85A28498",
"R. c #850D893A858E",
"E. c #8D128E2B8174",
"W. c #844D89DA8C56",
"Q. c #8A598BE28A75",
"!. c #8088954382A0",
"~. c #85359CFB8540",
"^. c #837E933C8BA4",
"/. c #8D0F93C78CD9",
"(. c #853A99618BF0",
"). c #89B99CBC8C39",
"_. c #915791C18207",
"`. c #91F4937C8C64",
"'. c #9DD89EF28BC9",
"]. c #8BEC92CA944E",
"[. c #8AEE9C82951E",
"{. c #8E4C9D559A82",
"}. c #934B94979415",
"|. c #954298B69522",
" X c #91839D299F24",
".X c #9C389C949B17",
"XX c #8377A4068379",
"oX c #8E06A1DE8E36",
"OX c #978FA730978B",
"+X c #911FA17D9CF2",
"@X c #9E56A1B99EAB",
"#X c #A31EA4118DD2",
"$X c #BDA8BEFA8508",
"%X c #A78EA7FA9215",
"&X c #A855A8C092DF",
"*X c #95F5A2E7A33B",
"=X c #9C1FAAD0AA51",
"-X c #A3BAA495A3C5",
";X c #A30AAD98A2FF",
":X c #AB77AC20A5CC",
">X c #A7E7A8A0A90D",
",X c #AD8FAE46AD74",
"<X c #A0C1B3F9A0CA",
"1X c #ACF5B25AACE8",
"2X c #B38FB39EB015",
"3X c #AFB7B153B092",
"4X c #B472B4A6B38D",
"5X c #B569BB4CB565",
"6X c #BDDBBE57BD1B",
"7X c #BD62C487BD85",
"8X c #C1AAC332894A",
"9X c #C311C3E6C30B",
"0X c #C5EEC84EC5EE",
"qX c #CC86CD08CC9B",
"wX c #D022D09AD06F",
"eX c #D536D573D594",
"rX c #D7D4D9A8D7DF",
"tX c #DCF8DD3BDD2E",
"yX c #DFE4E0C0DFE5",
"uX c #E070E034E07E",
"iX c #E455E465E461",
"pX c #E836E928E83A",
"aX c #E84DE865E879",
"sX c #EC48EC32EC6A",
"dX c #F5DFF5F0F601",
"fX c #F855F8A2F854",
"gX c #F859F84BF893",
"hX c #FEA0FE95FEA5",
/* pixels */
"hXhXhXhXhXhXhXhXhXhXhXhXaX6X.X.X.X.X.X.X.X.X.X-XtXgXhXhXhXhXhXhXhXhXhXhX",
"hXhXhXhXdXsXaXsXaXaXaXuXqX,X-X4X6X6X9X6X6X6X>X-X0XtXaXaXiXaXaXdXhXhXhXhX",
"hXhXhXfXiXqXqXqXqXqXqX0X,X>X6XeXuXaXuXuXuXaX0X4X4X9XqXqXqXqXqXuXdXfXhXhX",
"hXhXhXdXqX4XqXwXqXqXqX9X6XqXeXuXaXaXuXuXaXuXuXwXqX0X0XqXqXqX3XqXdXhXhXhX",
"hXhXhXsXqX4XtXaXuXtXeXwXwXeXtXtXuXuXtXuXuXtXtXeXeXeXeXuXaXtX4XqXsXhXhXhX",
"hXhXhXsXqX9XsXdXdXsXaXtXqX9X9X9XwXtXuXuXeX9X6X6X6XqXuXsXgXdX9XqXsXhXhXhX",
"hXhXhXsXwX9XsXgXdXsXuX6X}.E.V.m.:XeXuXuX0XQ.' ) L _.6XsXgXsX9XwXsXhXhXhX",
"hXhXgXsXqX9XsXgXdXsXrX2X`.B.C.P '.wXuXuX6X .c.z.e v.3XaXgXsX9XqXsXhXhXhX",
"hXhXhXsXqX9XsXgXsXsXwX3X#X$XH.k.'.qXuXtX6XN.A.F.j.z.:XaXgXsX9XwXsXfXhXhX",
"hXhXfXsXqX9XsXgXdXsXwX4X%X8XJ.l.#XwXuXtX6Xm.A.G.x.z.:XuXgXsX9XqXsXhXhXhX",
"hXhXhXsXwX9XsXgXdXsXeX4X&X8XJ.k.#XwXtXrX6XN.A.G.x.z.:XuXgXsX9XqXsXfXhXhX",
"hXhXhXsXqX9XsXgXdXdXeX4X&X8XJ.k.#XwXuXtX6XN.A.G.x.n.:XaXgXsX9XqXsXhXhXhX",
"hXhXhXsXqX9XsXgXsXdXeX4X&X8XJ.z.#XwXaXuX9XN.A.J.x.n.3XaXhXsX9XwXsXhXhXhX",
"hXhXfXsXqX9XsXaXeXqX4X.XV.#XS.K m.>X4X2X|.E v.Z.k.K T.3X0X0X4XqXsXhXhXhX",
"hXhXhXdXqX9XiXwX,X-X}.T.i.m.M.H ^ X.T.X.Q h E ) e p k _ L.Q.-XqXsXhXhXhX",
"hXhXfXsXqX9XtX4XQ.].].].}.}.}.T.L.L.L.X.X.} X.U.} Q ] W d d Q.9XsXdXhXhX",
"hXhXgXsX5X/.OXp.I { u.P.a.U.P.P.X.} ..} ..u.P.P.P.K.K.] u   ] 4XsXdXhXhX",
"hXhXhXsXOXx v 8 6 b V S S D D ~ ( ( | ..t.u...u.P.U.K.K.d y T -XiXfXhXhX",
"hXhXgXsX~.- @ O + < 9 q t v n A 3.7.0.t.y.Y.Y.Y.[. X{.U.W T L.,XtXdXhXhX",
"hXhXgXaXXXo o.o.X @ 3 9 =.;.v 1.3.8.q.r.Y.Y.(.[.{.=X*XK.} X./.4XrXfXhXhX",
"hXhXhXsXXX, O.O.@ @ 3 *.=.:.,.4.3.6.w.r.Y.Y.[.{.*X=X XI } |..X4XeXdXhXhX",
"hXhXfXaXXXo O.O.@.@ 3 =.=.:.,.4.3.6.q.r.d.Y.Y.[.*X*XW.j T.6X@X,XrXdXhXhX",
"hXhXhXsXXXo O.+.@.+ , 9 =.:.,.1.3.6.q.r.d.Y.Y.+X*XW.W B @XwX-X,XrXdXhXhX",
"hXhXfXaXXXo O.+.@.@ , < q :.,.1.6.6.q.r.d.Y.Y.+X].] g u.7XrX-X,XrXfXhXhX",
"hXhXfXsXXXo O.+.$.&., - 2 t <.1.6.8.q.s.f.~.[.Y.W g T ;XrXtX-X,XrXdXhXhX",
"hXhXhXaXXXo O.#.%.&.4 2 : 5 c ,.3.q.w.s.f.a.| I g R /.9XuXrX-X,XrXfXhXhX",
"hXhXhXsXXXo O.#.$.&.*.*.2 > 6 c n 3.D 7.9.! g p N /.6XwXtXrX-X4XrXdXhXhX",
"hXhXfXsXXXo O.#.$.&.*.*.=.w 7 6 * * = = = i M 0./.1X7XwXtXrX-X,XtXfXhXhX",
"hXhXfXpXXX- O.+.%.&.*.-.>.>.:.v l l z z M ! y.oX<X5X7XwXtXrX-X,XrXdXhXhX",
"hXhXhXpXXXo O.+.$.&.*.-.>.<.2.5.6.8.w.y.f.~.OX;X1X5X0XqXtXrX-X,XrXgXhXhX",
"hXhXhXpXXX- O.+.$.&.*.-.>.<.2.5.8.e.s.f.~.oXOXOX1X5X9XqXtXrX-X,XrXdXhXhX",
"hXhXhXpXXX+ O.+.$.&.*.-.>.<.2.5.8.e.s.g.~.OXOX<X1X5X9XqXtXtX-X2XrXfXhXhX",
"hXhXhXsXV.+ O.+.%.&.*.-.;.<.2.5.8.e.f.g.XXoXOX;X1X5X7XqXtXeX@X>XrXgXhXhX",
"hXhXfXaX~.o X O.%.&.*.=.;.<.2.5.8.e.s.M.XXoXOX;X1X2X7X7XqX6XQ.>XrXgXhXhX",
"hXhXhXsX<Xn 0 1 , , - 5 7 7 t b x Z D ~ ( ( t.a.a.N.N.Q.`.`.R.,XaXfXhXhX",
"hXhXhXdX7Xf.A 8 * . . . $ % * & = = i i a f m M g g g g G _ R.6XsXhXhXhX"
};
