/* XPM */
static char *__[] = {
/* columns rows colors chars-per-pixel */
"36 36 252 2 ",
"   c #28AE391C28A3",
".  c #32463B432930",
"X  c #311836E3328B",
"o  c #3A493E853D81",
"O  c #1ECA55981D84",
"+  c #1A285A031A5A",
"@  c #0EAC77AE0EAC",
"#  c #1699646016B0",
"$  c #14296BCD142A",
"%  c #1D1F67701D13",
"&  c #1DDE69FE1DDD",
"*  c #13F276AD144B",
"=  c #14557C9714CB",
"-  c #1A5474B11B32",
";  c #1CF37E721DB6",
":  c #25AC4E33259E",
">  c #2DD442E72E86",
",  c #2C42486A2CF4",
"<  c #330F40D42E15",
"1  c #248854AB20F6",
"2  c #288156372258",
"3  c #209B5F462086",
"4  c #2E2C54022E29",
"5  c #3FB85AC02C42",
"6  c #3C3F47D931D7",
"7  c #3D3645C439B6",
"8  c #33B95C7733B7",
"9  c #3BBC55463BD2",
"0  c #37DC58E1382E",
"q  c #1F6C72EC20F2",
"w  c #253B6EEA25E8",
"e  c #2CD167D02DBB",
"r  c #273E6F69281E",
"t  c #2A4F6C252B02",
"y  c #20F077752282",
"u  c #23127BE324B6",
"i  c #2B7674EC2CC5",
"p  c #2C267E6B2DC7",
"a  c #339D651233AA",
"s  c #33C46C1E33DD",
"d  c #3A6262E43BEF",
"f  c #38B36C2538A9",
"g  c #2F6B70C830F6",
"h  c #307B768E3079",
"j  c #319979023485",
"k  c #36A67E9938F7",
"l  c #3BE97B813D1E",
"z  c #46E94B702EBE",
"x  c #4D775449241A",
"c  c #4DB5562E3A0A",
"v  c #46245BC93E6B",
"b  c #54DE6CC93B1F",
"n  c #600868503B55",
"m  c #7AD77D5B3A1C",
"M  c #3F2260484193",
"N  c #3E0177524036",
"B  c #43D246A045E7",
"V  c #4587480346B0",
"C  c #446C49B84A95",
"Z  c #48A64B544AF7",
"A  c #40CD552040C5",
"S  c #45035AEB45ED",
"D  c #45D85E6B48D7",
"F  c #4BE95CB44CD2",
"G  c #512653AA4D04",
"H  c #4FBF5AB04FD5",
"J  c #50FD55F152E4",
"K  c #53D75B5D549D",
"L  c #53F75ADF5B60",
"P  c #471A62263FCA",
"I  c #42EC6E12441B",
"U  c #4A816CBD4B44",
"Y  c #41A0739B4294",
"T  c #44DB7D6D4629",
"R  c #4F5E71204F5C",
"E  c #4CBE7BE44E76",
"W  c #54DE66BF551F",
"Q  c #53AC6B8453F0",
"!  c #547E63615A5F",
"~  c #5ACC65525C24",
"^  c #597D68475EE2",
"/  c #537173ED54AC",
"(  c #532C7CC754F3",
")  c #52A7756E5933",
"_  c #591073A95956",
"`  c #55A47C545914",
"'  c #5BC17D715CC6",
"]  c #6D10719745F0",
"[  c #748477234B4B",
"{  c #75A276C0595D",
"}  c #7E667FC459F8",
"|  c #5BDB618361FD",
" . c #5E456FD660C8",
".. c #5F0366A2689D",
"X. c #64156A4163B4",
"o. c #64B86EFF6D13",
"O. c #6B496D406B33",
"+. c #6174764A61D2",
"@. c #62F17DC56456",
"#. c #6E6770786E6F",
"$. c #6B337D8A6B52",
"%. c #7E117EB464C1",
"&. c #7A9F7C976C83",
"*. c #6FCF772F7A79",
"=. c #7161739D71BB",
"-. c #74987C4874C4",
";. c #7FBE7FFA77F0",
":. c #746779547A03",
">. c #7B257CC37A4E",
",. c #11F2827C11F5",
"<. c #163C88AB1639",
"1. c #1D1284391D3B",
"2. c #17B48A6517B2",
"3. c #1E5B80571FF5",
"4. c #221686EB2245",
"5. c #21F0881E21EC",
"6. c #29FB85392A87",
"7. c #32D3852733CC",
"8. c #371F8513389B",
"9. c #3B4E83D63D7C",
"0. c #3B4C885B3B44",
"q. c #7D3D821835C0",
"w. c #3F25853B3FF7",
"e. c #43F4846A46E4",
"r. c #42BD888742CC",
"t. c #4410851A47D5",
"y. c #4B1385624EF9",
"u. c #4B538A364B49",
"i. c #51CF85C4564E",
"p. c #53418B8B535B",
"a. c #545D87C257F1",
"s. c #5A0486165D73",
"d. c #55B288C458A1",
"f. c #5B678B9E5B5D",
"g. c #7ECE826D5C62",
"h. c #5DC98A23619C",
"j. c #650E81CC665C",
"k. c #62108B7E64A7",
"l. c #660080136A3D",
"z. c #66B38A9169E4",
"x. c #6A0B8CEC6CF0",
"c. c #6B9C91BD6BD9",
"v. c #6DB582F77251",
"b. c #6E2D8CED7343",
"n. c #76E586CC76D6",
"m. c #7EC882987077",
"M. c #714D8EDF741F",
"N. c #73E786F77C38",
"B. c #7C7783AE7CBB",
"V. c #78728D247C13",
"C. c #72EE932A743A",
"Z. c #763C92C77BC9",
"A. c #7AC094A17CF4",
"S. c #7C7498DB7CD2",
"D. c #9C219FDC3E6B",
"F. c #9B629F64400D",
"G. c #89F18C1D570B",
"H. c #8CE78ED55864",
"J. c #8F72919F5B2D",
"K. c #937C957B5D13",
"L. c #98D19DE35F7E",
"P. c #9BBAA0F55BD3",
"I. c #A2E8A6B5426A",
"U. c #819682AA6387",
"Y. c #86BC884A6347",
"T. c #96CB992A6117",
"R. c #92B494D368C9",
"E. c #867087287667",
"W. c #839B84147CAA",
"Q. c #9D3A9E9B74D8",
"!. c #90CB919C79D9",
"~. c #A01EA14C7384",
"^. c #A265A3CE6CD2",
"/. c #A392A4C67602",
"(. c #A6D5A7B67833",
"). c #C3F1C62F6F8B",
"_. c #C22AC4E873C8",
"`. c #CC2DCE6B7534",
"'. c #C74AC94E7977",
"]. c #CB2DCD867C06",
"[. c #74AF7E558193",
"{. c #78C689CE839B",
"}. c #7B8487068B57",
"|. c #7E578C008A47",
" X c #7D4A957C832C",
".X c #82C885B082F3",
"XX c #86D588658387",
"oX c #8DCE8F36814F",
"OX c #80BA8E368E59",
"+X c #8A9A8D458A83",
"@X c #80769763870F",
"#X c #85969DEE8596",
"$X c #85E796CD882E",
"%X c #8D9493618D8B",
"&X c #85209A6D8C68",
"*X c #8C119C2F8DED",
"=X c #920D92B7831F",
"-X c #9B8C9CCD86C7",
";X c #9346948488DF",
":X c #9E3B9F1C8F7B",
">X c #85B19432904E",
",X c #8BC99E389580",
"<X c #8A4A95E19A3A",
"1X c #93C3962493B5",
"2X c #96FD9C2296F8",
"3X c #92109A639C6F",
"4X c #9CDC9DBE9CE2",
"5X c #82C1A20682C0",
"6X c #8EA5A2448EA5",
"7X c #8EC2A0E7962D",
"8X c #965AA68C96E9",
"9X c #936CA429A014",
"0X c #9F81A0CE9FDB",
"qX c #9957A8BA9D83",
"wX c #A31BA3EA8DD4",
"eX c #BBC0BD0F83F2",
"rX c #A7CBA8089225",
"tX c #A51EA5719F3A",
"yX c #94E1A445A168",
"uX c #9D3DA821A131",
"iX c #9770A420A94E",
"pX c #98D0A714A85B",
"aX c #9D10AB80AC1F",
"sX c #A280A403A28A",
"dX c #A337AC12A337",
"fX c #AB75ABCDA591",
"gX c #AC9CADE4AC77",
"hX c #A5B1B651A5BB",
"jX c #AC2BB372AC33",
"kX c #B35BB369AFE7",
"lX c #A054AE1EB0C5",
"zX c #B54DB585B45B",
"xX c #B50ABBB2B54F",
"cX c #B540B976BBDD",
"vX c #BCF7BD89BC7B",
"bX c #BEC0C054855F",
"nX c #BF43C47DBF4B",
"mX c #C2C9C44B88AF",
"MX c #C3D7C4A9C3C6",
"NX c #C6D3CA48C6E0",
"BX c #CC8DCD14CCAD",
"VX c #CEECD05CCF16",
"CX c #D01ED121D054",
"ZX c #D4F5D53CD541",
"AX c #D819D900D81D",
"SX c #DD53DD83DD7E",
"DX c #E05FE097E079",
"FX c #E4A1E4A8E4B1",
"GX c #E875E7D9E86E",
"HX c #EC22EBE6EC29",
"JX c #F56AF570F57C",
"KX c #FED3FEC4FED4",
/* pixels */
"KXKXKXKXKXKXKXKXKXKXKXKXGXcX1X4X4X0X0X4X4X4X1XsXZXJXKXKXKXKXKXKXKXKXKXKX",
"KXKXKXKXJXGXGXGXGXFXGXDXBXgX0XvXvXvXvXvXvXvXgXsXMXSXGXGXFXGXGXJXKXKXKXKX",
"KXKXKXKXFXBXBXBXBXBXBXMXgXgXvXSXGXDXDXFXFXDXMXkXzXMXBXBXBXBXMXDXKXKXKXKX",
"KXKXKXJXBXzXBXBXBXBXBXMXvXBXAXDXDXDXDXDXFXFXSXCXMXMXMXBXVXMXgXBXJXKXKXKX",
"KXKXKXHXNXcXDXFXSXSXAXZXCXZXSXSXDXSXSXDXDXDXSXAXZXZXAXSXFXAXzXNXHXKXKXKX",
"KXKXKXHXBXMXHXKXJXHXFXAXNXMXMXnXBXSXSXDXAXMXvXvXvXBXFXJXKXJXMXBXHXKXKXKX",
"KXKXKXHXBXnXHXJXJXHXDXvX1X=X!.E.fXZXDXDXMX+X;.%.{ =XvXGXKXJXMXCXHXKXKXKX",
"KXKXKXHXVXMXGXJXJXJXAXzX;XQ.^.g.:XCXDXSXvX>.U.K.m Y.gXFXKXHXMXBXHXKXKXKX",
"KXKXKXHXVXMXGXJXJXGXZXkXwXeX'.H.wXCXDXSXcXW./.).D.K.fXFXKXHXvXCXHXKXKXKX",
"KXKXKXHXCXMXJXJXGXJXZXkXwXbX].J.wXCXDXSXvXW./.`.I.K.fXFXKXHXMXCXHXKXKXKX",
"KXKXKXHXCXMXJXKXJXJXAXzXrXmX].K.rXZXFXSXvXE.(.`.I.T.gXFXKXJXMXBXHXKXKXKX",
"KXKXKXHXNXvXGXHXGXGXBXgX:XeX_.G.-XMXAXZXzX;.Q.).F.J.tXSXHXDXzXBXHXKXKXKX",
"KXKXKXGXcX3XxXxXzXkXuX$Xm.R.L.] &.4XfXfX;XX.g.L.m [ XXzXMXvX4XcXGXKXKXKX",
"KXKXKXGXqX) s.f.@._ ) U P b b 5 v ~ X.X.! 7 c n x z G O.>..X>.fXDXKXKXKX",
"KXKXKXGX#X+ $ $ # + + + O 1 2 1 : , , > X   . 6 . . X o V J ..4XAXJXKXKX",
"KXKXKXGX#X% = ,.* - - q r g f d d M M P S U ! X.~ L L L Z V #.sXZXKXKXKX",
"KXKXKXGX5X& ,.,.= 3.q p 8.N T E E ` ' @.z.v.{.{.|.|.|.}.| C #.sXAXJXKXKX",
"KXKXKXGX5X$ ,.,.= 3.7.8.w.t.y.a.h.x.C. X X X&X7X9XaXaXiX[.L :.sXZXJXKXKX",
"KXKXKXGX5X& ,.,.q q p 8.w.t.y.d.h.x.C.Z. X7X7X7XyXaXaX<X*.O.XXgXZXJXKXKX",
"KXKXKXGX5X& ,.,.,.3.p k w.w.y.i.h.h.x.Z. X X5X9XyXaXiX{.*..X%XkXZXKXKXKX",
"KXKXKXGX5X& ,.,.3.3.6.k w.w.y.i.h.h.z.b. X X X9XyXiX<XX.:.4X3XzXZXJXKXKX",
"KXKXKXGX5Xq ,.2.3.3.q j 9.t.y.i.h.h.z.b.{. X|.7XyXyX}.K XXvX4XgXZXJXKXKX",
"KXKXKXGX Xq <.2.3.3.q p l t.y.i.h.h.v.b. X X X7XyX|.O.| 4XZX0XgXZXJXKXKX",
"KXKXKXGX X- ,.2.3.3.q i k e.y.i.i.h.z.b.Z. X,X,X>Xo.L [.vXSXsXgXZXKXKXKX",
"KXKXKXGX#X& ,.2.5.5.6.y g l y.a.h.k.x.M.A.$X*XOXX.J X.sXAXSXdXgXZXJXKXKX",
"KXKXKXGX5X& ,.2.5.6.6.i r h l E s.z.x.C.A.V.v._ J X.1XMXDXAXsXgXZXJXKXKX",
"KXKXKXGX5X& ,.2.5.6.6.7.i t s Y E ` ' j.l.+.W F ~ %XvXVXDXZXsXgXAXKXKXKX",
"KXKXKXGX5X& ,.2.5.6.7.0.l l s a 8 8 0 9 9 S W v.1XjXMXVXSXZXsXgXAXJXKXKX",
"KXKXKXGX5X& ,.2.5.6.7.0.r.t.w.b I I U U Q +.n.*XhXxXNXVXSXZXsXgXZXKXKXKX",
"KXKXKXGX5X& ,.2.5.6.7.0.r.u.u.f.k.z.x.M.S.*X8XtXjXxXnXBXSXAXuXgXAXJXKXKX",
"KXKXKXGX5X& ,.2.5.6.7.0.r.u.p.f.k.c.M.A.#X6X8XtXjXxXMXBXSXAX0XgXZXJXKXKX",
"KXKXKXGX5X& ,.2.3.6.7.0.r.u.p.f.k.c.C.S.5X6X8XqXjXxXMXCXDXAXsXgXZXKXKXKX",
"KXKXKXGX5X& ,.<.4.6.7.0.r.u.p.f.k.c.C.S.5X6X8XhXjXxXnXBXSXCX4XfXZXJXKXKX",
"KXKXKXGX5X% @ ,.4.6.7.8.r.u.p.f.k.c.C.S.#X6X8XtXjXjXxXnXNXxXXXsXAXJXKXKX",
"KXKXKXHXhX( l j i t t e s f b N R ) _ +.$.$.-.n.B.B.B.%X1X1X.XkXFXKXKXKX",
"KXKXKXJXNX%X@.U d 4 : : : : , 0 9 9 A S F F H K K K K ~ O.-.+XvXHXKXKXKX"
};
