/* XPM */
static char *__[] = {
/* columns rows colors chars-per-pixel */
"36 36 250 2 ",
"   c #214B5DD01B77",
".  c #30A057891F35",
"X  c #0F9371490F51",
"o  c #1D4E65A01D21",
"O  c #18F76CD2191C",
"+  c #131D7DBD1347",
"@  c #1C3372021C47",
"#  c #1CA87AF61D85",
"$  c #225546D62255",
"%  c #25884AF02587",
"&  c #241A5DA12383",
"*  c #2B895DA02465",
"=  c #3BD751832599",
"-  c #31C85CC82EF1",
";  c #38B74DCA37B5",
":  c #32C6558C32C9",
">  c #35595ADF30F4",
",  c #3E6F5DAB36A6",
"<  c #3B2F55303B39",
"1  c #1F77754D20A5",
"2  c #2C1F62A924CB",
"3  c #239C6E112393",
"4  c #2B7C66912C4E",
"5  c #2B2C6C4B2A5A",
"6  c #39E06A402589",
"7  c #32E86B9B28F2",
"8  c #22B474A2238A",
"9  c #299A715725B7",
"0  c #22C07C2D23C8",
"q  c #279D74FD2966",
"w  c #2B0B72D02C19",
"e  c #26E47D0428AA",
"r  c #2AAD7D202AA0",
"t  c #3C5175012797",
"y  c #329E7707298C",
"u  c #32A7655432BB",
"i  c #3AF366DB34CC",
"p  c #323D6DA632D2",
"a  c #3D0F63C43D9E",
"s  c #37A66A8638E5",
"d  c #3BFB6A313BFB",
"f  c #2DFF7C993068",
"g  c #350971EF35FE",
"h  c #33D87DBC3637",
"j  c #3D8776CE3F98",
"k  c #37017E443A05",
"l  c #3BBA7B603E13",
"z  c #58225FB42335",
"x  c #445F4C903D0F",
"c  c #4BC7578B3366",
"v  c #4E465895376D",
"b  c #42BC54AD3EA3",
"n  c #43FA5CE23EC1",
"m  c #48BB59103E40",
"M  c #541E59DF3679",
"N  c #56975EFE3DB8",
"B  c #5F4069FA26E6",
"V  c #5EA76A6C2BBA",
"C  c #3FC57F242C54",
"Z  c #4C3C66C83505",
"A  c #517069D33158",
"S  c #5BBA63A63E33",
"D  c #6C4274043D7B",
"F  c #7529777937D8",
"G  c #4584481B486F",
"H  c #4BD04E374DF0",
"J  c #440A5B6344CE",
"K  c #4ADC543C4AE6",
"L  c #51F05E664836",
"P  c #4C9851A551EC",
"I  c #5108572E5720",
"U  c #52BB5B12549A",
"Y  c #564658A85899",
"T  c #445964594526",
"R  c #45816D9744AF",
"E  c #468564C9492F",
"W  c #494F659F4ABD",
"Q  c #49C56A2F4AE7",
"!  c #57E7659A4300",
"~  c #5A6A694941BD",
"^  c #522166754CE3",
"/  c #40BF731C41B3",
"(  c #483174333FFB",
")  c #434F7B9944DC",
"_  c #4C9F74574CB0",
"`  c #4BDF7B2F4D3A",
"'  c #4D9B6364511F",
"]  c #565565225435",
"[  c #54266C55543A",
"{  c #5E4664B55C8D",
"}  c #5771689B5BD6",
"|  c #5C946C8B5CB7",
" . c #4F807523501D",
".. c #5491723B54AF",
"X. c #504E79F05340",
"o. c #58147D1F577D",
"O. c #5A1F71765A1E",
"+. c #573E794C597C",
"@. c #5DB67B325EBD",
"#. c #6F78752245F6",
"$. c #72D67FC24411",
"%. c #75967CA54DB6",
"&. c #61446EEF574F",
"*. c #79F17A685733",
"=. c #76B677D759D5",
"-. c #7B537C235E9E",
";. c #56EA5D9A6122",
":. c #59416336625B",
">. c #5DFB6CF96385",
",. c #5E76679F6A37",
"<. c #5F957E826083",
"1. c #61A4658061B0",
"2. c #6381696E633B",
"3. c #69256B1362C1",
"4. c #64466D436A2A",
"5. c #6A8F6C476AB6",
"6. c #630576EE631E",
"7. c #60777D6D6407",
"8. c #64A670786D9B",
"9. c #6C3D72C96C2E",
"0. c #662F7EAC6BAC",
"q. c #6CB77BFC6C8A",
"w. c #7F487FED6566",
"e. c #719676876DEC",
"r. c #715E7D376C82",
"t. c #6FBE787279B7",
"y. c #749B76717428",
"u. c #72827C8074BE",
"i. c #7C747D837017",
"p. c #733977DD788F",
"a. c #7A2B7BD67A3E",
"s. c #1233822C1232",
"d. c #1707894D1706",
"f. c #1D07836E1D23",
"g. c #17868A8517AB",
"h. c #22888570232C",
"j. c #21E0886921DC",
"k. c #2A9E855E2B5D",
"l. c #2A9888712A8B",
"z. c #3323856C345D",
"x. c #32E1883832CA",
"c. c #367B848F37F7",
"v. c #3B8D84053DE8",
"b. c #3AEE88543AE6",
"n. c #46EB801C2B58",
"m. c #763E82DB3203",
"M. c #7F5783BF32A0",
"N. c #435384824647",
"B. c #42E888BD42E9",
"V. c #4B1685644EFA",
"C. c #4B1789D24B0E",
"Z. c #51CF85C4564E",
"A. c #53088B2A5323",
"S. c #545D87C357F3",
"D. c #58F486B55D8D",
"F. c #55B488B958A0",
"G. c #5AC28B685B7F",
"H. c #6FC1803C505F",
"J. c #5EC789736336",
"K. c #6363844D6407",
"L. c #633C8C0264B0",
"P. c #669E82F568CD",
"I. c #6E2187156DCD",
"U. c #65D28AC969DB",
"Y. c #6A5C8D0C6D5B",
"T. c #6B9191B96BC8",
"R. c #6D1782B572FC",
"E. c #6E9C8E2F7309",
"W. c #758D85CF75BD",
"Q. c #71048F81739F",
"!. c #73BB85787C18",
"~. c #7D6A82B37C38",
"^. c #730693517468",
"/. c #760D92117BE9",
"(. c #7A3695827CA0",
"). c #8DB18EF55680",
"_. c #8140833E5E07",
"`. c #8E789CDE530F",
"'. c #9D84A26B5CA9",
"]. c #807485326F9E",
"[. c #94EB9B176867",
"{. c #9AE99B7D684E",
"}. c #81D2878A7106",
"|. c #876788217716",
" X c #96CD96A671A8",
".X c #922092F27ABA",
"XX c #79458A56820D",
"oX c #78D683FD88E0",
"OX c #7EC58BFF8CF1",
"+X c #7DA296448463",
"@X c #82C78571830B",
"#X c #80718BD58C91",
"$X c #8B398D938A66",
"%X c #90E08FEB82BC",
"&X c #80E197F38751",
"*X c #831B9ED082EA",
"=X c #833694F18CE4",
"-X c #8CCF930B8B2B",
";X c #855B9A8A8D70",
":X c #8A989E518BDE",
">X c #919992338177",
",X c #903B951F8BB8",
"<X c #9A409A868C16",
"1X c #85E695C09168",
"2X c #8C449E5D950A",
"3X c #94259596941D",
"4X c #96E09C8F964E",
"5X c #99A199E5930F",
"6X c #90B49D8E9F85",
"7X c #9BE59CBF9BE4",
"8X c #8F1DA1BA8F25",
"9X c #8E4EA02F988D",
"0X c #95F9A52E9689",
"qX c #906EA20B98EE",
"wX c #9DDDA4DF9D5D",
"eX c #A02CA1359FCF",
"rX c #957AA4F0A2A9",
"tX c #9A64A462A46F",
"yX c #9DDCAC65AD07",
"uX c #A1F0A328A1FF",
"iX c #A449AC58A45C",
"pX c #AA6BAAC9A5AF",
"aX c #A671AC61AC53",
"sX c #AB9AAC93ABA8",
"dX c #AB84B450AB90",
"fX c #AFA1BCE5AFC6",
"gX c #A041AE7BB06D",
"hX c #B422B523B41C",
"jX c #B845B81CB833",
"kX c #B55BBBC3B569",
"lX c #BD17BDD4BC50",
"zX c #BC95C32DBC3B",
"xX c #C0AFC106BF7B",
"cX c #C07CC034C07F",
"vX c #C40DC55DC3BE",
"bX c #CBA0CC7DCB8F",
"nX c #CF0CD0D1CF3A",
"mX c #D0D7D0D8CFA4",
"MX c #D4E8D535D50A",
"NX c #D714D89BD726",
"BX c #D847D9BCD9D1",
"VX c #DC70DCA9DC92",
"CX c #DFE1E0BDE001",
"ZX c #E0ABE007E0AE",
"AX c #E45AE441E466",
"SX c #E96BE80CE98D",
"DX c #EB2EEACDEB32",
"FX c #F203F00DF214",
"GX c #F638F646F63B",
"HX c #FF0DFEFEFF0D",
/* pixels */
"HXHXHXHXHXHXHXHXHXHXHXGXSXjX3X7X7X7X7X7X7XeX3XuXVXGXHXHXHXHXHXHXHXHXHXHX",
"HXHXHXHXGXDXSXSXSXAXSXZXbXsXuXjXcXcXcXcXcXcXpXuXvXZXSXSXAXSXSXGXHXHXHXHX",
"HXHXHXGXAXbXbXbXbXbXbXvXhXsXjXBXAXAXZXZXSXZXcXhXjXcXmXbXbXbXvXZXGXHXHXHX",
"HXHXHXGXbXhXbXbXbXbXbXvXvXbXNXZXZXZXZXZXZXZXZXmXcXvXbXbXmXbXsXbXGXHXHXHX",
"HXHXHXFXbXhXVXSXVXVXNXMXmXNXVXVXZXZXZXZXZXZXVXBXMXMXVXVXAXVXhXbXDXHXHXHX",
"HXHXHXDXbXvXGXHXGXFXAXVXbXvXxXxXmXZXZXZXVXvXlXlXlXbXZXFXGXDXcXbXDXHXHXHX",
"HXHXGXFXbXvXFXHXGXFXZXvX5X.X.X|.sXBXZXZXvX$Xi.w.=.>XlXSXHXFXvXnXDXHXHXHX",
"HXHXHXDXbXlXDXDXSXSXmXsX>X X{.*.<XbXVXMXjXy.-.).F H.pXVXGXSXjXbXDXHXHXHX",
"HXHXHXDXlXwXzXvXzXzXiX-XW.[.'.$.}.aXkXhX4X2._.'.M.*.$XcXMXvXuXcXSXGXHXHX",
"HXHXGXDX0XR / _ _ _ R a , A A = m &.6.5.{ x S #.z M &.$X7X$Xa.uXZXGXHXHX",
"HXHXHXDX8X  O # 3 9 4 2 2 6 A . , [ @.6.} b S m.B S e.wXhXsX@XuXBXGXHXHX",
"HXHXHXDX(.o s.s.j.k.k.e y t C 6 Z L.^.(.I.^ H.`.M.%.-XvXZXBXuXsXNXGXHXHX",
"HXHXHXSX*Xo s.d.j.l.k.q y t C 6 ) L./.(.Y.^ H.`.m.*.,XvXZXVXuXsXNXGXHXHX",
"HXHXHXDX*Xo s.s.f.h.e 8 w y t 2 i  .@.D...b ~ H.V ! 5.7XjXhX3XsXNXGXHXHX",
"HXHXHXDX(.o + s.+ 1 1 1 9 9 7 * > , T T J ; m ! c x P 5.y.a.@XpXNXGXHXHX",
"HXHXGXDX8XO + s.+ 1 1 q w g g s a T T E W ' } >.>.{ ;.;.P H y.uXNXGXHXHX",
"HXHXHXSX(.o + s.1 h.e f k l ) ` X.+.@.J.P.R.!.XXOXOXOXoX;.G t.uXNXGXHXHX",
"HXHXHXDX+XO s.s.s.1 k.h v.N.V.Z.J.Y.^./.+X;X8XqXrXgXgXrXt.Y p.uXNXGXHXHX",
"HXHXGXSX(.@ s.s.+ h.k.c.v.N.V.D.J.Y.^.(.+X;X9X9XrXyXyX;Xu.5.@XsXNXGXHXHX",
"HXHXHXSX8Xo s.s.f.1 f c.v.N.V.Z.J.U.Y./.+X+X;X9XrXyXtXXXt.@X$XsXNXGXHXHX",
"HXHXHXDX8XO s.s.+ 1 h.c.v.N.V.Z.D.J.U.Q.+X+X;X9XqXyX6X4.p.7X3XsXNXGXHXHX",
"HXHXGXSX+XO s.s.f.1 1 c.v.N.V.Z.D.J.U.E./.+X+X6XrXrXOXI @XjX7XsXNXGXHXHX",
"HXHXHXDX+XO + g.g.1 1 z.v.N.V.Z.D.J.U.E./.+X=X2XrX#X4.:.eXmXuXsXNXGXHXHX",
"HXHXHXDX+Xo + g.j.1 1 q k N.V.Z.D.J.U.E./.+X;X2X1X8.I |.xXNXtXsXNXGXHXHX",
"HXHXHXSX*Xo + d.f.h.9 3 y l V.S.D.U.E.^.+X;X2X=X4.U 2.pXBXBXtXaXMXGXHXHX",
"HXHXHXDX*Xo s.d.j.l.k.w 5 p l ` D.L.Y.^.(.XXr.&.U 2.-XzXVXBXtXaXNXGXHXHX",
"HXHXHXDX8Xo + d.j.l.x.h p 4 u / ` o.<.K.P.>.L v } -XkXnXZXNXeXsXNXGXHXHX",
"HXHXGXDX(.o s.d.j.l.x.c.v.j g u > > < < < J ] I.4XdXzXnXCXNXeXsXNXGXHXHX",
"HXHXHXSX(.O s.d.j.l.x.b.B.N.) ) R R Q Q Q 6.W.8XiXzXxXnXZXNXeXsXNXGXHXHX",
"HXHXHXDX8XO s.d.j.l.x.b.B.C.A.A.J.L.Y.Q.^.8X0XiXdXzXvXnXVXNXeXsXNXGXHXHX",
"HXHXHXAX8Xo s.d.j.l.x.b.B.C.A.G.L.T.Q.^.^.8X0XiXdXzXxXmXZXNXeXsXNXGXHXHX",
"HXHXHXDX(.  s.g.j.l.x.b.B.C.A.G.L.T.^.(.8X8X0XwXdXfXvXmXCXBXuXsXNXGXHXHX",
"HXHXHXSX*X  + d.h.k.c.b.B.C.A.G.L.T.^.*X8X8X0XiXdXkXzXbXVXNX7XpXMXGXHXHX",
"HXHXHXSX;Xo X + 1 h.k.c.v.C.A.G.L.T.^.*X8X8X0XwXiXdXkXzXvXhX@XtXBXGXHXHX",
"HXHXHXFXfXH.) g p 5 5 4 u u d R Q ....<.0.q.q.y.u.~.~.-X3X3X$XhXDXGXHXHX",
"HXHXHXHXMXwXW.O.T : % % $ % % : < < < < J K K K K L Y :.9.~.4XbXGXHXHXHX"
};
