/* XPM */
static char *__[] = {
/* columns rows colors chars-per-pixel */
"36 36 236 2 ",
"   c #188A5CCC1889",
".  c #20755D2119DC",
"X  c #2A9B5B601CC3",
"o  c #0F6C6A970F21",
"O  c #0B05757A0B05",
"+  c #10D0798E0F6E",
"@  c #1D0262AF1CD6",
"#  c #1B8A6F361B8A",
"$  c #112675071150",
"%  c #122D7DF01240",
"&  c #1EAA74881F75",
"*  c #1BF37AEC1CA9",
"=  c #2F1162141F81",
"-  c #2440689A1F87",
";  c #255246272550",
":  c #2911470C2911",
">  c #2D3B4B482D3A",
",  c #3ACB439A2615",
"<  c #3F4549DD2D80",
"1  c #26045B742553",
"2  c #2A765D742565",
"3  c #2DA453EB27B3",
"4  c #2F08592227A8",
"5  c #311B5D052DC5",
"6  c #31B24F0531B2",
"7  c #3BA74903325C",
"8  c #391D4D8238B5",
"9  c #35B2510435B2",
"0  c #35DE5A0635F4",
"q  c #3BD655B93BFC",
"w  c #1F0779F22090",
"e  c #24816D732446",
"r  c #2D696AA7203B",
"t  c #2DB965A12E50",
"y  c #2B6B6CD629F2",
"u  c #335169EE2096",
"i  c #381B6A7B241F",
"p  c #32A46BA9288C",
"a  c #221D755E2272",
"s  c #293A718F26D0",
"d  c #24377CB82506",
"f  c #2768752F28DB",
"g  c #29D874102A5F",
"h  c #2B5C7C102B8C",
"j  c #3C917581278D",
"k  c #321C77182A3B",
"l  c #336563E33392",
"z  c #32FA6B3B335E",
"x  c #3B9A688D3602",
"c  c #3CE464DB3D39",
"v  c #376D6A9C3886",
"b  c #3F4B69FC3958",
"n  c #2E9B74963054",
"m  c #2EFC7C243031",
"M  c #32C770B933A8",
"N  c #33617BB43606",
"B  c #3A10714A3A1E",
"V  c #37167E6C3A33",
"C  c #3BB87AA43CF1",
"Z  c #501B5B4B207D",
"A  c #46E24E4F3B5E",
"S  c #4BF857913374",
"D  c #421E56953E58",
"F  c #4B695BAC3B3C",
"G  c #5EF06A5F2BD0",
"H  c #40487FAB2CA4",
"J  c #412962FE3E92",
"K  c #5E7C6BC23546",
"L  c #5A2C61F53F0B",
"P  c #731C7F142E6D",
"I  c #3E03774D4039",
"U  c #3CFE7DF24093",
"Y  c #448A476F4787",
"T  c #4AE54DC44D23",
"R  c #43BD52FD4364",
"E  c #43755B314280",
"W  c #49FE530949F8",
"Q  c #54315AD64973",
"!  c #4C9A51DD5152",
"~  c #5189577156FD",
"^  c #53145AA454E3",
"/  c #564D58F258CD",
"(  c #43D0643F44D0",
")  c #44026A204413",
"_  c #468864CC4933",
"`  c #4BE563E74D5F",
"'  c #4B1D6A914B94",
"]  c #57C565C8426B",
"[  c #5F68679F4521",
"{  c #5A0469D84250",
"}  c #52C966A54D9B",
"|  c #418D727241F0",
" . c #48C774D140AC",
".. c #44B27C9645A9",
"X. c #4B8D7B984D04",
"o. c #4D97633E5128",
"O. c #535062B9536B",
"+. c #53136C6F5344",
"@. c #5C1E657D5DB3",
"#. c #56AE690659F4",
"$. c #5D256D2D5C51",
"%. c #4F1679A651C8",
"&. c #5361731F53D0",
"*. c #557C78E15735",
"=. c #5B8877295B96",
"-. c #5C337C3B5CD8",
";. c #6DDF7E394E81",
":. c #74257CDF4D2C",
">. c #60CA65665E44",
",. c #621971595FA7",
"<. c #56FF5DDC6157",
"1. c #5BDB630C6146",
"2. c #5D1E6BBB6140",
"3. c #5EB67FC36008",
"4. c #618A6741618A",
"5. c #62F56AC4638D",
"6. c #636E6CA46AB3",
"7. c #6B296E866B00",
"8. c #62C7750662D7",
"9. c #63497C0763F5",
"0. c #65CD70C76E08",
"q. c #6BB373696BA3",
"w. c #66287EC16B98",
"e. c #6B6778E36B47",
"r. c #6E0E7BA370D4",
"t. c #72F076E37378",
"y. c #72057BDC71BB",
"u. c #714577C3799C",
"i. c #746B79B87A61",
"p. c #7C617EC27C9B",
"a. c #11A3839A11B9",
"s. c #16D1890E16D1",
"d. c #1CF2839D1D10",
"f. c #21F7843522D2",
"g. c #21D1887621D6",
"h. c #2B0B84782B8E",
"j. c #2AA888A42AA7",
"k. c #331084A03451",
"l. c #328F880E3284",
"z. c #3AF885173C8C",
"x. c #47A780C82BC4",
"c. c #47CB80F82BDA",
"v. c #765E826A312D",
"b. c #433C84D845C3",
"n. c #42C2889942C6",
"m. c #462D85B94841",
"M. c #4AD6859E4E3B",
"N. c #4B4E8A1A4B4E",
"B. c #5185860D5588",
"V. c #53178B135317",
"C. c #545C87C757F2",
"Z. c #59FE85B55D83",
"A. c #557B8856585F",
"S. c #5B258B775B22",
"D. c #726780114566",
"F. c #6FDE8047502D",
"G. c #70278081506B",
"H. c #5C7C891C60DB",
"J. c #636883836479",
"K. c #62A78AAB6451",
"L. c #6CB985006CAD",
"P. c #66678C2F6A27",
"I. c #6ADB8CE96D3C",
"U. c #6B8591606B9E",
"Y. c #6CEB831172AB",
"T. c #6E378E89744E",
"R. c #771D83BA7772",
"E. c #71648E697303",
"W. c #732F86A77AFB",
"Q. c #7C7681687C8C",
"!. c #7C108BFE7C4B",
"~. c #73039303741E",
"^. c #75F292A17A5D",
"/. c #7A2994EE7BE5",
"(. c #7CA498B77CF2",
"). c #8A5698334EC1",
"_. c #8E829C7D5244",
"`. c #83CA8E257F92",
"'. c #75947F5A8234",
"]. c #787889748308",
"[. c #79B5849E8883",
"{. c #7E1A8BCB8B46",
"}. c #7DA7966D842D",
"|. c #8246856382B3",
" X c #867B8A368566",
".X c #81F58D8E8C9A",
"XX c #8B4C8D9A8B58",
"oX c #82A69D09828D",
"OX c #8DF293448B20",
"+X c #85279AE58C0D",
"@X c #8AF29D848A5F",
"#X c #870A958B91BB",
"$X c #8AD79D42945E",
"%X c #8A4C95D399EC",
"&X c #8DA29F6B9881",
"*X c #93A6957B93A2",
"=X c #94189A7D940A",
"-X c #911B9DAE9F61",
";X c #9D4A9E099D6D",
":X c #8E4FA1B98E39",
">X c #8FB0A1329979",
",X c #9569A55B960C",
"<X c #954FA59C99D7",
"1X c #9DBEA1B99DD1",
"2X c #9B62A83B9D31",
"3X c #955DA44CA323",
"4X c #9FF3A2ADA037",
"5X c #9D66AA64A47B",
"6X c #976CA41FA950",
"7X c #9951A68AA8BB",
"8X c #9DEFAC56ACA7",
"9X c #A2B3A49BA2CB",
"0X c #A593AAEFA5A9",
"qX c #A7FFAA02A85D",
"wX c #AA1BAB21AA27",
"eX c #ABCBB341AC1C",
"rX c #A04AAE1DB0C9",
"tX c #B3E3B510B3E2",
"yX c #B5B6BB75B5A0",
"uX c #BB55BD31BB50",
"iX c #B749C0B8B774",
"pX c #BF89C3BCBF8B",
"aX c #C069C039C069",
"sX c #C3AAC5CCC38E",
"dX c #CBABCCD5CBB0",
"fX c #CF53D0D2CF5D",
"gX c #D4EFD568D4F1",
"hX c #D733D8F9D72B",
"jX c #DBA1DC11DBA5",
"kX c #DFEFE18ADFED",
"lX c #E4ECE4F9E4F9",
"zX c #E887E7E5E887",
"xX c #EA60E9FCEA61",
"cX c #F741F757F741",
"vX c #F857F8B1F857",
"bX c #FF44FF33FF44",
/* pixels */
"bXbXbXbXbXbXbXbXbXbXbXvXlXyX*X;X;X;X;X;X;X;X*X4XjXcXvXbXbXbXbXbXbXbXbXbX",
"bXbXbXbXcXxXzXzXlXlXxXlXdXwX4XuXaXaXuXaXaXaXwX4XaXjXzXzXzXxXzXcXbXbXbXbX",
"bXbXbXvXlXdXdXdXdXdXgXdXtXwXuXjXlXlXjXkXlXzXdXwXtXaXdXdXdXdXdXjXvXbXbXbX",
"bXbXbXcXdXyXdXfXdXdXdXsXaXdXhXkXlXlXkXkXlXlXhXdXsXdXdXdXgXdXeXdXxXbXbXbX",
"bXbXbXxXyXXX9X0X9X9X;X1X;X9XqX0XqXqXqXqXwXwX9X1X;X;X0X0XqX9XXXtXzXvXbXbX",
"bXbXvXxX1X@.-.9.9.8.8.=.$.$.,.>.4.7.r.r.q.4.>.>.>.7.p. X*XXXt.1XlXvXbXbX",
"bXbXvXxXoX1 # & h g M y 2 2 4 3 E =.F.w.0.R 7 A , Q Q.4XuXeX!.;XhXvXbXbX",
"bXbXbXxXoX  O % * d d a - = u X J Z.P.T.9.E F K Z [  XyXgXfX*X9XgXcXbXbX",
"bXbXbXxX:X# + s.g.j.j.h k x.x.p J K.~./.L.} F.).P :.OXdXlXhX9XwXgXcXbXbX",
"bXbXvXxX(.@ + a.g.j.h.h h x.x.p K K.~./.L.} G._.P :.OXsXlXhX4XwXgXcXbXbX",
"bXbXbXxX`.& + s.g.j.h.h k j c.i b.K.E.~.L.} G._.v.:.OXsXkXjX;XwXgXvXbXbX",
"bXbXbXxX}.@ % s.g.j.h h h x.c.i  .K.~./.E.} G._.v.:.OXsXlXjX4XwXgXcXbXbX",
"bXbXbXxXoX@ % s.g.j.h.g k x.c.i  .K.~./.L.} G._.v.:.OXsXlXjX4XwXgXvXbXbX",
"bXbXvXzXoX@ a.a.* f.d s s k j = b *.-.Z.*.q { D.G L q.=XtXtX*XwXgXcXbXbX",
"bXbXbXxXoX@ % a.* * a e e y p 2 5 c ( ( E 8 F ] S A ! 4.t.p.|.wXgXcXbXbX",
"bXbXvXxXoX@ + a.% * d a g M z v c ( ( _ ` o.#.5.5.4.4.<.! T 7.4XgXvXbXbX",
"bXbXbXzX}.@ O a.w w f.m N U U X.%.*.-.9.L.Y.W.].{.{.{.[.<.Y 7.4XgXvXbXbX",
"bXbXvXzX}.@ + a.a.d h.k.U M.B.B.Z.P.~.(.}.+X$X>X3X8XrX3Xu./ i.9XgXcXbXbX",
"bXbXbXzX(.# + a.* w h.V z.b.B.B.H.P.~.(.}.+X$X&X3X8X8X%Xi.7.|.qXgXcXbXbX",
"bXbXvXzX:X@ % a.% w h.V z.b.M.B.H.P.I.^.}.}.+X&X<XrX7X[.t.[.XXwXgXvXbXbX",
"bXbXbXxXoX@ a.a.w w w k.z.b.M.B.H.H.P.T.}.}.+X&X3X7X&X6.i.;X*XwXgXcXbXbX",
"bXbXvXxXoX@ % s.s.w d V U b.M.B.H.H.P.T.^.}.+X&X6X6X.X~ |.uX;XwXgXcXbXbX",
"bXbXbXxX}.# % s.d.* w N z.b.M.B.H.H.Y.T.^.}.}.>X3X{.6.@.;XfX;XqXgXcXbXbX",
"bXbXbXxX}.@ % s.d.w w f V b.M.B.H.H.P.T.^.}.#X$X#X0.^ R.uXhX;XqXgXvXbXbX",
"bXbXbXxXoX@ % s.g.f.a f n U M.C.Z.J.I.E./.oX$X.X6.^ 2.0XhXhX;XwXgXcXbXbX",
"bXbXbXxXoX@ % s.g.f.h g e M I %.Z.P.I.~./.!.Y.2.^ 5.OXpXkXjX;XqXgXcXbXbX",
"bXbXbXxXoX@ + s.g.j.l.l.g y z I %.-.H.w.w.8.} W >.OXyXdXkXjX1XwXgXcXbXbX",
"bXbXvXxXoX@ a.s.g.j.l.l.U C z z l 0 q q q R O.y.=XtXpXfXkXhX;XwXgXvXbXbX",
"bXbXbXxXoX@ % s.g.j.l.z.c.b.b...J  .' ' &.,.R.:XeXuXsXfXjXhX1XqXgXcXbXbX",
"bXbXbXxXoX@ % s.g.j.l.z.m.N.V.S.S.K.I.E./.:X,X5XeXyXpXdXkXgX;XqXgXcXbXbX",
"bXbXvXxX`.@ a.s.g.j.l.z.n.N.V.S.K.I.~.(.(.:X<X0XeXyXsXfXkXgX;XwXgXvXbXbX",
"bXbXbXxX`.@ + s.g.j.l.z.n.N.V.S.K.U.~.(.:X:X<X5XeXyXsXfXkXjX;XwXgXcXbXbX",
"bXbXbXzXoX. + s.f.j.k.z.n.N.V.H.K.U.~.(.oX:X<X5X0XyXpXdXjXgX=X9XgXvXbXbX",
"bXbXbXxX@X1 o $ * d h.k.c.M.V.S.K.U.~./. X@X,X2X0XeXyXiXuXtX[.;XhXvXbXbX",
"bXbXbXcXiXL.X.B z t t t l 0 v I ' &.&.$.,.8.e.y.y.p.!.XX*X*XXXyXxXbXbXbX",
"bXbXbXbXkXwX!.8.} q > ; ; : : > 6 9 8 q E R R W W W ^ 4.t. X9XgXvXbXbXbX"
};
