/* XPM */
static char *__[] = {
/* columns rows colors chars-per-pixel */
"36 36 236 2 ",
"   c #1D7953CC1D79",
".  c #1A565F551A55",
"X  c #0ECB65C20ECA",
"o  c #0F5A7C5C0F56",
"O  c #0FEF67140FF1",
"+  c #11A86DA711A7",
"@  c #1C64606A1C63",
"#  c #1A426DEB1A42",
"$  c #115872F01175",
"%  c #11C97CD211E8",
"&  c #1C387BAC1D64",
"*  c #264543A9263E",
"=  c #29FA45FA29F6",
"-  c #2E0647E62E05",
";  c #274E5A69274F",
":  c #2BA65C7624B4",
">  c #32DD4B6132F3",
",  c #39834CE637B2",
"<  c #3AFE4C913B21",
"1  c #34415BC83341",
"2  c #3B6B523A39D7",
"3  c #3F015C1E3EBE",
"4  c #1EF179D620B1",
"5  c #2F8561CC20A4",
"6  c #24446DC22326",
"7  c #2D3A6DD52711",
"8  c #2EA263482EB5",
"9  c #29636CB52921",
"0  c #3305640C2450",
"q  c #380F6A52241D",
"w  c #33006A98291D",
"e  c #22B2768322EA",
"r  c #2ABA726C26F2",
"t  c #222C7DC82342",
"y  c #2A18736929EC",
"u  c #26027FCB280F",
"i  c #2BA37C032BA3",
"p  c #3531726725F7",
"a  c #3C5A70BC25CE",
"s  c #320776DB2A3A",
"d  c #3C5D74FF2858",
"f  c #3498654D3341",
"g  c #3B79675736A2",
"h  c #33966CAA3378",
"j  c #3C6963E63D7A",
"k  c #369B6EDE37ED",
"l  c #3A5B6BA03B27",
"z  c #2ECF708930F4",
"x  c #2F5E7FC930AC",
"c  c #31CA723D30CB",
"v  c #33CE7E5832D1",
"b  c #3D6973343E99",
"n  c #3C0B7B223BD9",
"m  c #46254E353BA9",
"M  c #4BF757943367",
"N  c #468855573B78",
"B  c #4B3059983CCF",
"V  c #59E764F22A51",
"C  c #5EF46A572BD8",
"Z  c #40357F752CA3",
"A  c #5A5962133EF2",
"S  c #71F47DE12D14",
"D  c #680975523ED0",
"F  c #3EFD66074105",
"G  c #3E1B773A4013",
"H  c #3DAD7B8F40B1",
"J  c #449C4BC343EC",
"K  c #49A54D614B70",
"L  c #428E58C6423F",
"P  c #4D4951444E42",
"I  c #4B5158E44AF6",
"U  c #4C2D51465191",
"Y  c #4F1C59C451DA",
"T  c #539B59D85624",
"R  c #53715AF057EE",
"E  c #42DD64214456",
"W  c #44C46D6E43F8",
"Q  c #468A64154892",
"!  c #4BA464E24B29",
"~  c #45B0682147C9",
"^  c #4B146ADA4B68",
"/  c #5775650D4246",
"(  c #592166114756",
")  c #57D16BDC420E",
"_  c #527D65D54CCD",
"`  c #44BF749D431B",
"'  c #485074203FF5",
"]  c #456B7DD94673",
"[  c #4BDB762C4C02",
"{  c #44B67CD247CD",
"}  c #4C777ABC4E50",
"|  c #4DE36B154FFC",
" . c #522363F35214",
".. c #557F6AA9553B",
"X. c #5DB763E25F2C",
"o. c #57CE6F24589A",
"O. c #5AC56A6E5BD5",
"+. c #513F76515367",
"@. c #531D7BAD54F0",
"#. c #57C271A658C5",
"$. c #5D3D72F45C1C",
"%. c #56E27F225B17",
"&. c #5A5C7BA05BB5",
"*. c #68A06FEF4F85",
"=. c #6E3A7E8A4EB0",
"-. c #730D7C0B4CBD",
";. c #63E576D55BB3",
":. c #57235E8C60A8",
">. c #590262EF6223",
",. c #5D896D5061EA",
"<. c #5F9F7C8A6101",
"1. c #611C64FA6418",
"2. c #64C26A2265AE",
"3. c #62F86E2D6A93",
"4. c #6B5C6DFA6BC4",
"5. c #63D17502635A",
"6. c #63727DF863D6",
"7. c #64FF70AA6DBC",
"8. c #6CC273F46C77",
"9. c #6A7B7D226B22",
"0. c #732E7958685D",
"q. c #72DD761C734C",
"w. c #741B7A8774F6",
"e. c #71A179157A90",
"r. c #7AB17E797B30",
"t. c #131E85111324",
"y. c #161688851611",
"u. c #1B3684BF1BAE",
"i. c #1F6E86831FE5",
"p. c #216A860221F3",
"a. c #211188952110",
"s. c #2737859B2868",
"d. c #2A9A85032AF1",
"f. c #2A2588612A25",
"g. c #2EDE850E304D",
"h. c #338B85153478",
"j. c #328788373287",
"k. c #3B6284B13CA9",
"l. c #3AA388463AA0",
"z. c #444A805F2CA6",
"x. c #48C681992D3A",
"c. c #760582012F6A",
"v. c #7708830031AF",
"b. c #3D3984173FC3",
"n. c #43CD8466459C",
"m. c #42A9889642C4",
"M. c #452585CB47FE",
"N. c #4C00850F4EE4",
"B. c #4B238A0A4B41",
"V. c #4D938736500D",
"C. c #5293863B56B1",
"Z. c #532A8B525345",
"A. c #54A587E957FB",
"S. c #5A1C86235DE8",
"D. c #5619891158B6",
"F. c #5B318AE15BF2",
"G. c #726C800A4567",
"H. c #6E1981FF502C",
"J. c #700980355052",
"K. c #5B0A88036015",
"L. c #5F4F897E6402",
"P. c #64FB81CB6584",
"I. c #630A8B1A6456",
"U. c #6DC684EB6DCD",
"Y. c #65598B766992",
"T. c #6AC18DB56DAA",
"R. c #6B1E91166B6F",
"E. c #6D638E19733D",
"W. c #732785527489",
"Q. c #796E81A277F3",
"!. c #71C18C4672A9",
"~. c #7406854C7CBC",
"^. c #7C4782477CCC",
"/. c #77F68DCC78FF",
"(. c #7BD6881D7C81",
"). c #729493967318",
"_. c #757E91C87AF5",
"`. c #7AFB957E7BEA",
"'. c #7CFF98A47D29",
"]. c #893897064D94",
"[. c #8E7F9C715211",
"{. c #7725882A82A6",
"}. c #793C84D388F9",
"|. c #7EC98C008D0C",
" X c #7CE494DE83A0",
".X c #8143842B8178",
"XX c #84378B2E846B",
"oX c #88DA8EE98731",
"OX c #806E8C398C50",
"+X c #8B538DCA8B23",
"@X c #87099426841D",
"#X c #82999C3A8317",
"$X c #8DC592A38C31",
"%X c #858C9B2D8C07",
"&X c #8B729CCB8C08",
"*X c #860E9558914E",
"=X c #900696F2908A",
"-X c #8B4D9E0C9462",
";X c #8A9395FE99FB",
":X c #8D8F9F5C9860",
">X c #934995149347",
",X c #94FE9B5F9563",
"<X c #90959F389E4B",
"1X c #9D419EE39D2D",
"2X c #8E1CA1A48E25",
"3X c #8DE9A0F59200",
"4X c #95C3A57195B0",
"5X c #9580A5809A2C",
"6X c #9E17A3A09E1E",
"7X c #9541A480A233",
"8X c #9C8AA6E0A41F",
"9X c #9C13A9A5A4BA",
"0X c #97B3A44EA977",
"qX c #9E1DAC22AD66",
"wX c #A254A3B5A249",
"eX c #A63DAA07A620",
"rX c #AAA6ABAFAAA0",
"tX c #AB45B2C2ABB7",
"yX c #A061AE2AB0C7",
"uX c #B35BB503B334",
"iX c #B4F4BAACB4D3",
"pX c #B84BBE44B818",
"aX c #BAE4BCDABAED",
"sX c #BBD9C2ECBBE1",
"dX c #C2C3C67DC2CE",
"fX c #C6BAC9D3C6C9",
"gX c #CC03CE51CC12",
"hX c #CEF2D112CF06",
"jX c #D44BD503D449",
"kX c #D733D8ABD733",
"lX c #DB66DC16DB6C",
"zX c #E004E0F9E010",
"xX c #E2A3E3AEE2C9",
"cX c #EB3DEAB0EB3E",
"vX c #F716F73FF716",
"bX c #FF40FF30FF40",
/* pixels */
"bXbXbXbXbXbXbXbXbXbXbXvXzXaX1XwXwX1XwX1X1XwX>XwXlXvXbXbXbXbXbXbXbXbXbXbX",
"bXbXbXbXcXxXlXlXlXlXlXjXaX1X>XwXrXrXrXrXrXrX>X>XuXhXkXlXjXkXlXcXvXbXbXbX",
"bXbXbXvXhX6X&X&X,X,X4X3X^.q.w.,X6XwX1XwXwXwX+Xe..X>XwXwXwX6XwXgXvXbXbXbX",
"bXbXbXcX4X3 8 8 f f l B 3 F ^ #.$.$.5.7.4.e.e.7.4.e..X.X+XXXq.6XlXbXbXbX",
"bXbXbXcX#X  X + # 6 6 h h b ` [ +.&.<.P.U.Q.[.|.@X$X1XeXuXrX.X1XjXvXbXbX",
"bXbXvXcX#X@ % y.a.d.j.h.k.] ] N.F.T.).'. X`./.@X&XeXaXgXxXlX1XeXjXvXbXbX",
"bXbXbXcX'.@ % y.a.d.d.i r 0 w f [ Y.!.`.!..._ ( / 0.1XfXxXkX1XwXjXvXbXbX",
"bXbXbXcX#X@ o y.a.d.g.i r p d 0 Z U.).`.!.! A D V *.>XdXxXkX1XeXkXvXbXbX",
"bXbXbXcX#X@ % y.a.d.d.i s d x.q ] L.).`.!._ =.].S -.$XdXzXkX1XrXjXvXbXbX",
"bXbXbXcX#X@ % u.s.d.i i s Z x.q ` H.).`.U._ =.[.S -.$XdXzXkX1XeXjXvXbXbX",
"bXbXbXxX#X@ % y.p.d.d.i s z.x.q Z U.).).U._ J.[.v.-.$XfXxXkX1XeXjXvXbXbX",
"bXbXbXcX#X. % y.a.d.x i p h.x.q ` Y.).`.U._ H.[.v.-.$XfXxXlX1XrXkXvXbXbX",
"bXbXvXcX#X. o t.p.g.i i s z.x.q ` I.!.`.E.^ J.[.v.-.>XgXcXlX1XeXjXvXbXbX",
"bXbXbXcX#X. o t.u.u i r r s d 5 g +.&.<.o.3 ) -.C P 4.>XuXuX>XeXjXvXbXbX",
"bXbXbXcX#X@ % t.% 4 e 6 6 w w : 1 F E Q L , B A M m U 1.q.r.[.0XjXvXbXbX",
"bXbXbXcX#X@ % t.% e e e r s k j j F E Q !  .O.2.1.1.:.:.U U q.0XkXvXbXbX",
"bXbXvXcX'.. o t.& i.u x n H H } } @.&.P.U.E.~.{.|.|.|.}.:.J 4.wXjXvXbXbX",
"bXbXbXcX'.. o t.% 4 g.h.b.b.C.C.I.R.).'. X%X%X:X0XyXyX0Xe.R q.wXjXvXbXbX",
"bXbXbXcX'.@ o o % 4 i h.b.M.N.C.K.T./.`. X3X-X:X7XqXqX;Xe.4..XrXjXvXbXbX",
"bXbXbXcX'.@ o t.% 4 u k.b.b.N.C.K.Y.T._. X X%X:X7XqX0X~.e..X+XrXjXvXbXbX",
"bXbXbXcX X# t.t.& 4 s.h.b.b.C.C.K.L.Y.E. X X%X:X7XqX<X2.w.,X>XrXjXvXbXbX",
"bXbXbXcX X@ o y.u.% 4 h.b.M.N.C.K.L.Y.E._. X%X:X7X7XOXR .XaX1XrXjXvXbXbX",
"bXbXbXxX2X@ o y.i.4 4 h.G H V.C.S.L.Y.E./. X%X-X7X|.3.:.1XhX1XeXjXvXbXbX",
"bXbXbXcX X@ o t.i.i.4 z F G V.C.S.L.Y.E._. X%X-X*X3.R .XaXkX1XeXkXvXbXbX",
"bXbXvXcX#X. o y.u.s.e 9 z H V.C.S.Y.T./. X#X%X|.2.R 2.eXlXlX6XeXjXvXbXbX",
"bXbXbXcX'.@ o y.a.d.i y y z G @.S.I.E._.`./.9.O.Y 2.$XdXzXkX1XeXjXvXbXbX",
"bXbXbXcX#X@ o y.u.f.d.h.y 9 f Z } S.K.6.9.5._ I O.$XaXhXxXjX1XeXjXvXbXbX",
"bXbXbXcX#X. o y.a.d.h.l.k.n k 8 1 1 1 2 2 L O.r.,XtXdXhXlXjX1XrXkXvXbXbX",
"bXbXbXcX#X@ % y.a.d.j.l.m.M.{ Z W W ~ ! ..&.(.:XtXaXdXgXzXjX1XrXjXvXbXbX",
"bXbXvXcX#X@ % y.a.d.j.l.m.B.D.F.F.I.T.).`.2X4X9XtXiXdXgXzXjX1XeXjXvXbXbX",
"bXbXbXcX#X@ % y.a.f.j.l.m.B.Z.F.I.R.).`. X3X5X6XtXiXdXgXxXlX1XrXjXvXbXbX",
"bXbXbXcX#X. t.y.a.f.j.l.m.B.Z.F.I.R.).'.2X3X5XeXtXiXdXhXxXlX1XeXjXvXbXbX",
"bXbXbXcX[.; % y.i.s.g.b.b.V.Z.K.L.R.).'.#X3X4XeXtXiXsXgXlXhX,XeXjXvXbXbX",
"bXbXbXcX&X; O $ 4 u u H b.b.V.D.L.T.).'.'.2X4X5XeXtXiXsXaXrXr.wXlXvXbXbX",
"bXbXbXvXsX!.[ b F z 8 8 8 h F F ~ | o.#.;.5.8.9.w.r.(.$X,X>X$XaXcXbXbXbX",
"bXbXbXbXzXiXoX8.| L > = * * = = - > < L B J J J K P T 2.w.+XrXjXvXbXbXbX"
};
