/* XPM */
static char *__svg[] = {
/* columns rows colors chars-per-pixel */
"24 24 79 1 ",
"  c #AB4826F32616",
". c #AC1628B227D4",
"X c #AC0A2C082B2A",
"o c #A3BB366E3590",
"O c #A90F30BD2FDF",
"+ c #ACD5318330B4",
"@ c #A05F3D1B3C3E",
"# c #AA893DED3CCF",
"$ c #C6A80DE50D5D",
"% c #CA4410911012",
"& c #D215178A1738",
"* c #D6601FA31F68",
"= c #D5C027A9276D",
"- c #D4123668362D",
"; c #D2EC3D843D49",
": c #9EF544C943EC",
"> c #9E5450124F34",
", c #B19D4C374B86",
"< c #80C67E387CF3",
"1 c #A19A62A361F2",
"2 c #A1FD759274A2",
"3 c #B74C72CF71EF",
"4 c #D22244AB446F",
"5 c #D2324C0D4BD1",
"6 c #D1DA532A52EF",
"7 c #D1705A3759FC",
"8 c #CDA9667E663E",
"9 c #945393D292D5",
"0 c #951F951F951F",
"q c #9C579C579C57",
"w c #9FAF9FAF9FAF",
"e c #A5FF879086C1",
"r c #B9728DFF8D28",
"t c #BE968E968DCC",
"y c #BD168F5B8E92",
"u c #AEB2948393FB",
"i c #BBCF92BA91F1",
"p c #BC71912D9064",
"a c #BC7295AE94E5",
"s c #BED09C939BCA",
"d c #A105A105A105",
"f c #A3E7A3E7A3E7",
"g c #A8B7A8B7A8B7",
"h c #B25DB25DB25D",
"j c #B780B780B780",
"k c #B83CB843B84C",
"l c #C0498DBB8CF2",
"z c #C5478DCC8D04",
"x c #C9008E5D8D98",
"c c #CDDF8F5B8E96",
"v c #C412A660A597",
"b c #C563B082AFBC",
"n c #C301C301C301",
"m c #C597C597C597",
"M c #C8AEC8AEC8AE",
"N c #CCA1CCA1CCA1",
"B c #D25AD25AD25A",
"V c #D692D692D692",
"C c #DFCED18ED126",
"Z c #DAECDAECDAEC",
"A c #E012E012E012",
"S c #E18AE18EE18B",
"D c #E3D3E3D3E3D3",
"F c #E292E49FE4A5",
"G c #E6E3E6E3E6E3",
"H c #E864E864E864",
"J c #EA63E78FE764",
"K c #E69DE8E0E8E6",
"L c #EBF8EBF8EBF8",
"P c #EA0EEC6EEC74",
"I c #ECECECECECEC",
"U c #EE41EE41EE41",
"Y c #EE22F09CF0A2",
"T c #F14BF14BF14B",
"R c #F2D7F56EF574",
"E c #F919F919F919",
"W c #FACFFAE6FAE8",
"Q c #FA8CFD49FD4F",
"! c #FFFFFFFFFFFF",
/* pixels */
"!!!!!!!!S0ddwww9L!!!!!!!",
"!!WVNNNNggSSSSAwhNNNBW!!",
"!!LgBNMmnZSSASSZmMmBdL!!",
"!!LjWTULGSSSASSGUUTWjL!!",
"!!GjWUUGGSSAASSGGLTEjG!!",
"!!LjWTLGGSSSAASSGLTWjL!!",
"!!LjWUULGSSAASSGLLUEjG!!",
"!!GjWUUGGSSSASSGGLTEjL!!",
"!!GjWTLGGSSSASSGGLTEjG!!",
"!!LjETULGSSSASSSGLTWjL!!",
"!!LjEYLKGSSSASSGLLTEjG!!",
"!!JjWTUJGSSSASSGGLTEjG!!",
"!!GjETLGGSSAASSGGUTEjG!!",
"!!LjETLLGSSAASSSGLTEjL!!",
"!!GjETLGGSSSASSGLLUEjG!!",
"!!LjWTUIGSSAASSGGUUWjL!!",
"!!LjETUGGSSSASSGGLTWjL!!",
"!!GjEUUKGSSSASSGJLUEjK!!",
"!!GjWTIHGSSAASSDLLTEjG!!",
"!!LjETLLGSSSASSGGLTEjL!!",
"!!LkWRUIGSSFSSSGIYYQjL!!",
"!!J2cxztttppiasssvbM9A!!",
"!!L#%%&&=--;4567888u<G!!",
"!!!Cp3,+. .XOo@:>1efMW!!"
};
