/* XPM */
static char *___svg[] = {
/* columns rows colors chars-per-pixel */
"24 24 103 2 ",
"   c #BD584EE74860",
".  c #AC6155E05010",
"X  c #A6D96EE74161",
"o  c #A65069CE467B",
"O  c #A7B377B941CA",
"+  c #A7526F4A583C",
"@  c #A4BA68586437",
"#  c #E39F547A4196",
"$  c #FFFF5F6B4A84",
"%  c #E9D167D947C9",
"&  c #FDDD70CD4E74",
"*  c #F1677B1F4D84",
"=  c #D5577F3E734A",
"-  c #A81B811D4332",
";  c #A8E48A1344C0",
":  c #A87292724781",
">  c #A6E299904B2D",
",  c #A4CC9FF34EEE",
"<  c #A259A2B2557A",
"1  c #9C9A9D9360F8",
"2  c #964F976B7016",
"3  c #AF6F83BA77AB",
"4  c #FB5A808A5176",
"5  c #F6848E685451",
"6  c #F79D9F525A07",
"7  c #F56FABE25BAB",
"8  c #F61CAD395DB8",
"9  c #F3E9B90F5F41",
"0  c #CEA08DCD73CB",
"q  c #D110866A7362",
"w  c #CC659491745B",
"e  c #CA879B79755E",
"r  c #C8D3A2277643",
"t  c #C79FA8CE77B6",
"y  c #C6C6AF3979A3",
"u  c #C64CB5A77C10",
"i  c #C6BEBC887F35",
"p  c #F487BA3A6141",
"a  c #F2C2C5486357",
"s  c #F355C64F6553",
"d  c #F243D1F8685B",
"f  c #F2D6D2DE6A4D",
"g  c #F244DDF86D74",
"h  c #F241E992725B",
"j  c #F239F1467BBF",
"k  c #F2D7F1E67D5D",
"l  c #8CF08CF08CF0",
"z  c #958196A78BC5",
"x  c #9BF89D05895A",
"c  c #9882997691D1",
"v  c #9BDC9BDC9BDC",
"b  c #9DCE9DCE9DCE",
"n  c #B0228F4789DF",
"m  c #A384A45E9C17",
"M  c #AB27ABDB9EDB",
"N  c #A0EDA0EDA0ED",
"B  c #A791A791A791",
"V  c #AB8FAB8FAB8F",
"C  c #AF7CAFB5AF88",
"Z  c #B0A7B0BFB0A7",
"A  c #B779B77AB77A",
"S  c #C6F7C31D822E",
"D  c #C7A0C7F887F4",
"F  c #C8EEC9BE93EE",
"G  c #F2BAF2C39008",
"H  c #E857E8739D81",
"J  c #CCEACDB3AED0",
"K  c #DB28DB6CBC20",
"L  c #E027E063ABFC",
"P  c #F373F36BA63A",
"I  c #F661F657BE1A",
"U  c #C412C412C412",
"Y  c #C4F6C4F6C4F6",
"T  c #C796C796C796",
"R  c #CAE7CAE7CAE7",
"E  c #CDC6CDC6CDC6",
"W  c #D168C4CDC37A",
"Q  c #D0B7D0B7D0B7",
"!  c #D49DD4BAD4C4",
"~  c #DBE0DBE0DBE0",
"^  c #DCB3DCDADCBF",
"/  c #E00DE017E00F",
"(  c #FDD4FDC4DADE",
")  c #E0F9E0F9E0FA",
"_  c #E0B0E17AE169",
"`  c #E2E9E2E9E2EA",
"'  c #E408E40BE410",
"]  c #E513E5DDE5C9",
"[  c #E864E864E864",
"{  c #E9CFE6CBE6B6",
"}  c #E864E869E863",
"|  c #E8F2E8F2E8F2",
" . c #EABDEABDEABD",
".. c #EC01EC05EC04",
"X. c #ECE7ECE7ECE9",
"o. c #EDDEEDEAEDF1",
"O. c #F0E6F0E6F0E6",
"+. c #F19CF19DF19F",
"@. c #F812F812F812",
"#. c #F8EBF8EBF8EB",
"$. c #FAF1FAF1FAF1",
"%. c #FC78FC7FFC83",
"&. c #FFFFFFFFFFFF",
/* pixels */
"&.&.&.&.&.&.&.&.^ l b b b v b l | &.&.&.&.&.&.&.",
"&.&.$.E Y Y U Y N Z _ ' _ ' ' B V Y U Y Y @.&.&.",
"&.&. .V ^ ! E R R ^ _ ' ^ ' ' ~ E E Q ~ V  .&.&.",
"&.&. .A $.+.o. . ._ _ ^ _ ^ _ {  .o.O.$.A } &.&.",
"&.&.[ A $.o.o. .{ _ ) ' _ _ ' ' [  .O.#.A [ &.&.",
"&.&.[ A $.+. .[ ' ' ) _ ) _ _ {  . .O.#.A [ &.&.",
"&.&.[ A $.+.o. .{ _ ) ~ ~ ) ' _ [  .O.#.A [ &.&.",
"&.&. .A $.o.o.[ ' ] ' ) ' _ ' ]  . .O.#.A [ &.&.",
"&.&.[ A $.+. .[ [ _ ) ) ~ ) ' ' |  .+.#.A | &.&.",
"&.&.[ A @.+.o. ._ ' _ ) ' _ ) {  . .O.#.A | &.&.",
"&.&.[ A $.O.o.[  .' _ ' ^ _ _ ' {  .o.$.A  .&.&.",
"&.&.[ A $.+. .[ _ ' ' ~ ' ' _ '  . .+.@.A [ &.&.",
"&.&. .A @.+... .{ ' _ ) ~ ) ' '  . .o.@.A } &.&.",
"&.&.[ A $.+.o.[ _ ' ) ) ' _ _ '  . .+.$.A } &.&.",
"&.&.[ A @.+...{ ' ' ) ) ) ' ' ' [  .o.$.A  .&.&.",
"&.&. .A $.+.o.[ { ' _ ) ) ^ _ {  . .+.@.A [ &.&.",
"&.&.[ A $.+.X.[ ' _ ' ' ) _ ' ] {  .+.@.A  .&.&.",
"&.&. .A @.+. . .[ ' _ ^ ^ ) _ ' [  .+.@.A [ &.&.",
"&.&.[ A $.o.o. . ._ _ _ ' _ ' {  .o.+.@.A [ &.&.",
"&.&.[ C o.[ _ ^ ^ ! ! ! ! ! ! ~ ^ ^ [  .C [ &.&.",
"&.&.{ @ = q 0 w e r t y u i S D F F J E c ^ &.&.",
"&.&.{   $ & 4 5 6 7 p a d g h j G P I ( M ! &.&.",
"&.&. .. # % * 5 6 8 p s d g h k G H L K z ^ &.&.",
"&.&.&.W n 3 + o X O - ; : > , < 1 2 x m Y %.&.&."
};
