/* XPM */
static char *___svg[] = {
/* columns rows colors chars-per-pixel */
"24 24 114 2 ",
"   c #7DF87F146906",
".  c #ACE4ACEB2CF8",
"X  c #BC4FBC51267A",
"o  c #B206B1BF2D58",
"O  c #AA66AA8D35C6",
"+  c #AA38A9D93D08",
"@  c #B567B540338C",
"#  c #B7BBB7A23F3A",
"$  c #EF4CECB70DF3",
"%  c #EC82EA011AF8",
"&  c #FFFFFEDF1122",
"*  c #F913F63E1CE1",
"=  c #E9E2E78C281E",
"-  c #FE62FB7520EB",
";  c #FD84FB5C2D8A",
":  c #E83CE6C233A3",
">  c #E5F9E47E3DDB",
",  c #F9C5F7B737D2",
"<  c #FB19F9103966",
"1  c #8AC88B705B28",
"2  c #94B8956F53AE",
"3  c #A9CDA961440F",
"4  c #A1DEA21E4BC9",
"5  c #848385A46355",
"6  c #B889B8DA6ABF",
"7  c #DFDBDE525C7C",
"8  c #E1B5E02D5219",
"9  c #E3C5E23C47E7",
"0  c #F7E8F5E645B7",
"q  c #F8D5F6CB454A",
"w  c #F5F3F3EE5131",
"e  c #F6C4F4B3515E",
"r  c #F3F7F1F05D4B",
"t  c #F510F3015DDF",
"y  c #DDCBDC4F66DD",
"u  c #D6D5D61571DF",
"i  c #F141EF5B6962",
"p  c #F329F1396A62",
"a  c #EA53E9317618",
"s  c #88D08A11883D",
"d  c #8FFD914C8C49",
"f  c #94E694E694E6",
"g  c #975B986696C5",
"h  c #9ACB9B989ABA",
"j  c #9C4F9C4F9C4F",
"k  c #9F199F199F19",
"l  c #9FAD9FAD9FAD",
"z  c #9EE6A02A9E22",
"x  c #A13CA1DB8BDD",
"c  c #A070A1569FC8",
"v  c #A3B0A3B0A3B0",
"b  c #A6AEA6AEA6AE",
"n  c #A85CA85CA85C",
"m  c #C03EC02BA34B",
"M  c #BDBDBE2AABD1",
"N  c #BEA3BF35AADB",
"B  c #B145B145B145",
"V  c #B773B773B773",
"C  c #BB2EBBDFB225",
"Z  c #BC31BCF3B5CC",
"A  c #B825B821B95F",
"S  c #B857B850B858",
"D  c #BEC8BF87BA5A",
"F  c #C4A5C41C88D0",
"G  c #DE31DD3083CF",
"H  c #DFB6DEAA84A9",
"J  c #C09EC0A9959C",
"K  c #CEFFCEB89DA2",
"L  c #D05BD01A9F0C",
"P  c #D4EDD404905F",
"I  c #D547D45E907B",
"U  c #C056C0E7AAC4",
"Y  c #C1FAC28BAA9C",
"T  c #C4ABC540AB83",
"R  c #C7CBC866AC9C",
"E  c #CA51C9EAA8E8",
"W  c #CB5DCBD6AE19",
"Q  c #CF44CEE4AE23",
"!  c #CF94CF2FAE33",
"~  c #CF65CFFAB463",
"^  c #C4DDC50BBA68",
"/  c #C1F4C28CBEAA",
"(  c #D29CD237BDEE",
")  c #C301C301C301",
"_  c #C597C597C597",
"`  c #C63CC701C4C0",
"'  c #CC07CC07CC07",
"]  c #CE20CE20CE20",
"[  c #DA6ADA45CF43",
"{  c #D2AFD2AFD2AF",
"}  c #D4B5D55DD4BE",
"|  c #D651D651D651",
" . c #DAEEDAEEDAEE",
".. c #E012E012E012",
"X. c #E0F9E0F9E0F9",
"o. c #E3DAE3F3E40B",
"O. c #E4F2E4F5E4F2",
"+. c #E467E465E5AF",
"@. c #E685E683E7EA",
"#. c #E864E864E864",
"$. c #E8E3E8D9E4B7",
"%. c #EA34EA84E5BE",
"&. c #E949E968E82F",
"*. c #E9F4E9F1EB73",
"=. c #EB3FEB3FEB3F",
"-. c #EC00EC00EC00",
";. c #ECEDECEDECED",
":. c #EE01EDFEEF9E",
">. c #F0E6F0E6F0E6",
",. c #F1A1F1A1F1A3",
"<. c #F8F4F8F4F8F4",
"1. c #FB2EFB2EFB2E",
"2. c #FCE4FCF7FCFC",
"3. c #FFFFFFFFFFFF",
/* pixels */
"3.3.3.3.3.3.3.3.X.f k h k k k f =.3.3.3.3.3.3.3.",
"3.3.1.| ] ] ] ] b n X.#.X.X.X.v B ] ] ] ] 1.3.3.",
"3.3.=.n { ] _ _ )  .X.X. .X.X. ._ _ ' { v =.3.3.",
"3.3.=.V 1.,.:.=.#.X.X.X.X.X.X.&.=.=.,.1.A #.3.3.",
"3.3.#.V 1.:.:.&.#...X.X.X.X.X.#.&.=.>.<.V #.3.3.",
"3.3.#.V 1.,.=.&.#.#.X.X.X.X.X.#.=.=.>.<.V #.3.3.",
"3.3.#.V 1.,.=.#...X.X.X.X.X.X.#.#.=.:.<.V #.3.3.",
"3.3.=.V <.,.=.=.=.X.X.X.X.X.X.X.&.=.>.<.V #.3.3.",
"3.3.#.V 1.,.=.#.#.X.X.X...X.X.#.#.=.,.<.V #.3.3.",
"3.3.#.V 1.,.=.=.#.X.X.X...X.X.o.&.=.,.1.V #.3.3.",
"3.3.#.V <.>.:.#.#.#...X.....X.&.#.=.>.<.V #.3.3.",
"3.3.#.V 1.>.-.&.X.X.X.........#.#.=.>.<.V =.3.3.",
"3.3.=.V <.>.=.#.#...X.X...X.X.#.#.=.,.<.V #.3.3.",
"3.3.#.V 1.,.:.#.#.#.X.X.......#.=.=.>.<.V #.3.3.",
"3.3.#.V <.,.=.#.....X.X.X.X.X.#.#.=.:.<.V #.3.3.",
"3.3.#.V 1.,.=.#.#.#.X.X.X.X.X.X.&.=.>.<.V =.3.3.",
"3.3.=.V 1.,.=.&.@.X.X.......X.#.#.=.,.1.V =.3.3.",
"3.3.&.V 1.>.:.=.@.@.X.@.X...X.#.=.:.>.1.V #.3.3.",
"3.3.&.x ~ W R R Y Y M M M U Z M D ) ` ] j X.3.3.",
"3.3.&.o % = : > 9 8 8 y u F F m m T ^ | g } 3.3.",
"3.3.%.X & * ; , q e r i a G P L Q ( [ &.z | 3.3.",
"3.3.%.X & - ; < 0 e r i a G P K Q ( [ &.c | 3.3.",
"3.3.;.@ $ * ; , q e t p a G P K E T ^ / s X.3.3.",
"3.3.2.~ 6 3 o . . O + 3 4 2 1 5     d z ] 3.3.3."
};
