/* XPM */
static char *___svg[] = {
/* columns rows colors chars-per-pixel */
"24 24 108 2 ",
"   c #21165C0A2116",
".  c #257559CE2575",
"X  c #2BD75A312BD7",
"o  c #33CC5C9733CC",
"O  c #3B685DA23B68",
"+  c #230464572304",
"@  c #237E6CF4237E",
"#  c #257B7194257B",
"$  c #25B271A225B2",
"%  c #345B74E9345B",
"&  c #425A5EA0425A",
"*  c #494B6041494B",
"=  c #513763165137",
"-  c #583765945837",
";  c #5E7A68455E7A",
":  c #611368006113",
">  c #66E36B1B66E3",
",  c #63FF7E8C63FF",
"<  c #772F799F772F",
"1  c #0DC781460DC7",
"2  c #0D8E84560D8E",
"3  c #1177894F1177",
"4  c #1C8980441C89",
"5  c #1D8785D61D87",
"6  c #208E883C208E",
"7  c #2A3985812A39",
"8  c #2CDD875F2CDD",
"9  c #373E86B7373E",
"0  c #3FB381513FB3",
"q  c #3939883D3939",
"w  c #443C88AE443C",
"e  c #4BB6831B4BB6",
"r  c #5746855F5746",
"t  c #51558B165155",
"y  c #5D608D045D60",
"u  c #5DED8DEC5DED",
"i  c #62C488AC62C4",
"p  c #6E2E8CD76E2E",
"a  c #6958907C6958",
"s  c #6A5191B86A51",
"d  c #757D952C757D",
"f  c #72739ADF7273",
"g  c #78B393AC78B3",
"h  c #7ADD92E17ADD",
"j  c #7E6192417E61",
"k  c #823383978233",
"l  c #897A8AD7897A",
"z  c #816392268163",
"x  c #825F9B12825F",
"c  c #83569C378356",
"v  c #879E99C4879E",
"b  c #885F93E8885F",
"n  c #8D3396758D33",
"m  c #90DF928490DF",
"M  c #94BB94BB94BB",
"N  c #921899839218",
"B  c #97E49D5697E4",
"V  c #9D569E599D56",
"C  c #8FC6A25A8FC6",
"Z  c #9619A2F99619",
"A  c #9EA3A2C09EA3",
"S  c #9DCAAB039DCA",
"D  c #9ECAABEC9ECA",
"F  c #A1D0A1D0A1D0",
"G  c #A6A6A6A6A6A6",
"H  c #A535A84FA535",
"J  c #A494AD7EA494",
"K  c #A85CA85CA85C",
"L  c #AA73ABCDAA73",
"P  c #A8FEB209A8FE",
"I  c #ADE7B6E9ADE7",
"U  c #B149B149B149",
"Y  c #B494B4A9B494",
"T  c #B77AB779B77A",
"R  c #B378B90BB378",
"E  c #B7B8B908B7B8",
"W  c #BBE6BE95BBE6",
"Q  c #BD4DC2CBBD4D",
"!  c #BDEFC36EBDEF",
"~  c #C301C301C301",
"^  c #C420C6DFC420",
"/  c #C8AFC8AFC8AF",
"(  c #CE20CE20CE20",
")  c #CE9BD133CE9B",
"_  c #D1F4D298D1F4",
"`  c #D2AFD2AFD2AF",
"'  c #D5F5D64AD5F5",
"]  c #D926DA3DD926",
"[  c #D969D969D969",
"{  c #DCE1DC8BDCE1",
"}  c #E012E012E012",
"|  c #E0ABDFFAE0AB",
" . c #E0F5E0F4E0F5",
".. c #E3F7E3F5E3F7",
"X. c #E504E504E504",
"o. c #E554E6EFE554",
"O. c #E6E4E7F5E6E4",
"+. c #E854E855E854",
"@. c #EB3FEB3FEB3F",
"#. c #EC0FEC10EC0F",
"$. c #ECF6ECF6ECF6",
"%. c #EF65EE0FEF65",
"&. c #F0EEF0EEF0EE",
"*. c #F19EF19EF19E",
"=. c #F78EF5FEF78E",
"-. c #F8FEF8FEF8FE",
";. c #FB2EFB2EFB2E",
":. c #FFFFFFFFFFFF",
/* pixels */
":.:.:.:.:.:.:.:. .M F V F V V M @.:.:.:.:.:.:.:.",
":.:.;.' ( ( ( ( G G  . . . . .F U ( ( ( ( ;.:.:.",
":.:.@.K ` ( / ^ ~ {  . .|  .+.' ^ / / ` F @.:.:.",
":.:.@.T ;.&.%.@.@.}  . .| }  .+.@.%.&.;.E @.:.:.",
":.:.+.T ;.%.@.+.+. . . .{  . .+.+.@.&.=.T +.:.:.",
":.:.+.T ;.&.@.@. .+. . . . . .+.+.@.&.;.T @.:.:.",
":.:.+.T ;.&.%.+.+. . . . . . .+.@.@.%.;.T +.:.:.",
":.:.@.T =.&.@.@.+. . . . . . . .O.@.&.=.T +.:.:.",
":.:.+.T ;.&.%.+.+. . . .{  . .@.+.@.&.=.E O.:.:.",
":.:.+.T ;.%.@.+.+. . . . . . . .+.@.&.;.T @.:.:.",
":.:.@.E ;.%.@.@.+.+. . .{  . .@.@.@.&.-.T +.:.:.",
":.:.O.T ;.&.%.+. . . . . .} } +.O.@.%.-.T +.:.:.",
":.:.+.T ;.&.%.+.+. . . . . . .+.+.@.&.-.T +.:.:.",
":.:.@.T =.&.%.+.+.+. . . . .} +.+.@.&.;.T +.:.:.",
":.:.+.T ;.&.@.+. . . . . . . .+.+.@.&.;.T +.:.:.",
":.:.+.T =.@.@.+.+. . .{ { { { { +.O.@.%.T @.:.:.",
":.:.@., f f d g g j z z b n N B A G P E l } :.:.",
":.:. .@ 1 4 7 % 0 e r i p g c Z J R ^ ] M ` :.:.",
":.:. .# 3 6 8 q w t u a d x Z S I Q ) O.V ` :.:.",
":.:.@.# 3 5 8 q w t u a d x Z S I Q )  .V ) :.:.",
":.:.+.# 3 6 8 q w t u a d x C S I ! )  .V ` :.:.",
":.:...# 3 6 8 q w t u p d x C S I ! ) +.V ` :.:.",
":.:.+.# 2 5 8 9 w t u a d c C S P R Q ~ k ' :.:.",
":.:.;.j % +   . X o O & * = - ; : > < m K &.:.:."
};
