/* XPM */
static char *___svg[] = {
/* columns rows colors chars-per-pixel */
"24 24 118 2 ",
"   c #0B9F73850B9F",
".  c #1B1B7C121B1B",
"X  c #22D346E222D3",
"o  c #2347492C2347",
"O  c #290049E42900",
"+  c #20AE5F5620AE",
"@  c #2F8354542F83",
"#  c #29A05BAF29A0",
"$  c #365E56AC365E",
"%  c #3AD352D33AD3",
"&  c #220B608A220B",
"*  c #2A1A63CD2A1A",
"=  c #27BB7F6E27BB",
"-  c #30BA638730BA",
";  c #35DB629C35DB",
":  c #3B38621C3B38",
">  c #41A3558841A3",
",  c #464155EB4641",
"<  c #4B0653FD4B06",
"1  c #4C8A52E64C8A",
"2  c #542A58AC542A",
"3  c #459D62C6459D",
"4  c #4B6E63B34B6E",
"5  c #4B54685E4B54",
"6  c #510E654B510E",
"7  c #565E674C565E",
"8  c #5D1D6ACB5D1D",
"9  c #63846E0D6384",
"0  c #6527687D6527",
"q  c #6A7572986A75",
"w  c #69D57CAF69D5",
"e  c #721674407216",
"r  c #7C227E777C22",
"t  c #0EF5861D0EF5",
"y  c #110987F71109",
"u  c #111D8889111D",
"i  c #1DCA86831DCA",
"p  c #1FCB884E1FCB",
"a  c #2A2785CB2A27",
"s  c #2C0D87882C0D",
"d  c #350E8244350E",
"f  c #36C3862B36C3",
"g  c #389B87E2389B",
"h  c #38D2884338D2",
"j  c #42E885E442E8",
"k  c #4318871A4318",
"l  c #44EB88C744EB",
"z  c #4F5C89414F5C",
"x  c #503589C25035",
"c  c #514E8B10514E",
"v  c #5B518B365B51",
"b  c #5CFE8CC65CFE",
"n  c #67A08ED867A0",
"m  c #694B9066694B",
"M  c #6A7291E96A72",
"N  c #737393327373",
"B  c #752694C07526",
"V  c #82FC860B82FC",
"C  c #81989A6E8198",
"Z  c #83859C478385",
"A  c #8DFC90608DFC",
"S  c #923594019235",
"D  c #935B9524935B",
"F  c #94BB94BB94BB",
"G  c #9C4F9C4F9C4F",
"H  c #8ECDA1598ECD",
"J  c #904CA2D5904C",
"K  c #9AF5A7FD9AF5",
"L  c #9EBCA0749EBC",
"P  c #9EBDABE09EBD",
"I  c #A3B0A3B0A3B0",
"U  c #A69DA6D5A69D",
"Y  c #A76FAF5AA76F",
"T  c #A881A895A881",
"R  c #AC6BB58CAC6B",
"E  c #AE8EB791AE8E",
"W  c #B149B149B149",
"Q  c #B7EDB7EDB7ED",
"!  c #B86EB862B86E",
"~  c #BA9FBD74BA9F",
"^  c #BCA0BE0ABCA0",
"/  c #BC3FC1D9BC3F",
"(  c #BDF2C371BDF2",
")  c #BEDCC45BBEDC",
"_  c #C301C301C301",
"`  c #C597C597C597",
"'  c #C8B1C8C1C8B1",
"]  c #C9BDC9DAC9BD",
"[  c #CC07CBFBCC07",
"{  c #CBBBCCA1CBBB",
"}  c #CCC2CCF6CCC2",
"|  c #CE1FCE13CE1F",
" . c #CEBDCEBDCEBD",
".. c #CF9FD237CF9F",
"X. c #CFD3D26BCFD3",
"o. c #D102D0D5D102",
"O. c #D0E6D37BD0E6",
"+. c #D2B4D2EAD2B4",
"@. c #D4ADD4D3D4AD",
"#. c #D651D651D651",
"$. c #DAEFDAEFDAEF",
"%. c #E012E012E012",
"&. c #E084DFC3E084",
"*. c #E2D4E2D1E2D4",
"=. c #E438E539E438",
"-. c #E46BE350E46B",
";. c #E4E2E4D5E4E2",
":. c #E7FEE8E1E7FE",
">. c #E8E9E8F1E8E9",
",. c #EA70EA61EA70",
"<. c #EB3FEB3FEB3F",
"1. c #ED5AED5AED5A",
"2. c #EE7DEE6CEE7D",
"3. c #F275F26DF275",
"4. c #F30AF301F30A",
"5. c #F96FF96FF96F",
"6. c #FAFEFAF4FAFE",
"7. c #FFFFFFFFFFFF",
/* pixels */
"7.7.7.7.7.7.7.7.*.F G G G G L F <.6.7.7.7.7.7.7.",
"7.7.6.#.} } } } U T *.*.*.-.*.I W } } } } 6.7.7.",
"7.7.<.T o.} ' ` _ $.*.%.%.%.*.$.` ` ' o.I ;.7.7.",
"7.7.<.Q 6.4.1.<.;.;.*.*.%.*.*.*.<.1.4.5.Q <.7.7.",
"7.7.;.! 6.4.1.<.;.;.*.*.*.*.-.;.<.1.4.6.Q <.7.7.",
"7.7.<.T &.$.#.o.} ' ' ' ` ' ' } o.o.#.%.U =.7.7.",
"7.7.;.$ * - ; : 3 3 4 6 7 8 9 q q N V A 0 #.7.7.",
"7.7.*.+ t i a f l c v n B Z H P R / X.=.S { 7.7.",
"7.7.-.& u p s h l c b m B Z H P E ) X.:.D { 7.7.",
"7.7.-.& u p s h l c b m B Z J P E ) X.=.A { 7.7.",
"7.7.-.& u p s h l c b m B Z J P E ) o.;.D { 7.7.",
"7.7.*.& u p s h l c b m B Z J P E ) O.;.D { 7.7.",
"7.7.-.& u p s h l c b m B Z J P E ) X.=.S { 7.7.",
"7.7.-.& u p s h l c b m B Z H P E ) X.*.S { 7.7.",
"7.7.-.& u i s h l c b m B Z J P E ) X.;.S { 7.7.",
"7.7.-.& u i s h l c b m B Z J P E ) X.;.S { 7.7.",
"7.7.-.& y p s g l c v m B Z J P E ) X.*.D { 7.7.",
"7.7.-.& y p s g l c v m B Z J P E ) X.<.D { 7.7.",
"7.7.-.& y p s g l z b m B Z J P E ) } ;.S { 7.7.",
"7.7.-.& y p s g l c b m B Z J P E ) X.;.S { 7.7.",
"7.7.;.& y p s h l z b m B Z H P E ) X.;.S { 7.7.",
"7.7.-.& u p s h l z b m B Z J P E ) o.:.D { 7.7.",
"7.7.;.#   . = d k c b m B Z H K Y E ~ ^ e o.7.7.",
"7.7.6.Y w 5 @ o X O $ % > , < < 1 2 0 r L 4.7.7."
};
