/* XPM */
static char *___svg[] = {
/* columns rows colors chars-per-pixel */
"24 24 103 2 ",
"   c #138B5716138B",
".  c #1C8F59071C8F",
"X  c #0B9066640B90",
"o  c #18CC760D18CC",
"O  c #229942622299",
"+  c #26BA43BD26BA",
"@  c #2D43470D2D43",
"#  c #2AE44CA72AE4",
"$  c #20575A2F2057",
"%  c #214C5A45214C",
"&  c #23B2588A23B2",
"*  c #35044B373504",
"=  c #3AE24D673AE2",
"-  c #3F844E173F84",
";  c #2FF457C82FF4",
":  c #341459243414",
">  c #3A61545D3A61",
",  c #26F57BD226F5",
"<  c #3E5660683E56",
"1  c #338C7EE6338C",
"2  c #42824D9E4282",
"3  c #45814DDB4581",
"4  c #48C54EB748C5",
"5  c #53B5579853B5",
"6  c #47BD643147BD",
"7  c #4E5966084E59",
"8  c #54FD686E54FD",
"9  c #5A416CBD5A41",
"0  c #5CC46C505CC4",
"q  c #61C564B261C5",
"w  c #6BBF6ED56BBF",
"e  c #6C686F1B6C68",
"r  c #649A70D5649A",
"t  c #688E7191688E",
"y  c #729F774A729F",
"u  c #75EE773275EE",
"i  c #7D0A7E577D0A",
"p  c #0F2F86F50F2F",
"a  c #0FBC85870FBC",
"s  c #1EC087D61EC0",
"d  c #1E6E89481E6E",
"f  c #2C1487852C14",
"g  c #3835877B3835",
"h  c #419483644194",
"j  c #44C988A444C9",
"k  c #45448A3A4544",
"l  c #4EDA87674EDA",
"z  c #51358AEB5135",
"x  c #51978C3D5197",
"c  c #5B7E8AB45B7E",
"v  c #5CFC8CC25CFC",
"b  c #5D568DDF5D56",
"n  c #68B38FA068B3",
"m  c #69DD919669DD",
"M  c #7AAC873B7AAC",
"N  c #748194017481",
"B  c #75EE960375EE",
"V  c #853286878532",
"C  c #881E8A66881E",
"Z  c #83479BFA8347",
"A  c #83789C328378",
"S  c #84509D618450",
"D  c #8ECA90FB8ECA",
"F  c #8CA19ED38CA1",
"G  c #902492519024",
"H  c #9730971C9730",
"J  c #9EEA9ED09EEA",
"K  c #9044A2CF9044",
"L  c #9181A44F9181",
"P  c #9865A5299865",
"I  c #9ED5ABD79ED5",
"U  c #9F4DAC549F4D",
"Y  c #A1D9A1BFA1D9",
"T  c #A26DAAE7A26D",
"R  c #A0A0ADCCA0A0",
"E  c #A7AAA8F1A7AA",
"W  c #A8EAAA32A8EA",
"Q  c #AD27AE6DAD27",
"!  c #ABE8B15CABE8",
"~  c #AF03B047AF03",
"^  c #AE8CB72AAE8C",
"/  c #B266B3B9B266",
"(  c #B317B444B317",
")  c #B0E4B999B0E4",
"_  c #B6ACB99CB6AC",
"`  c #BA84BBA2BA84",
"'  c #BDE6C368BDE6",
"]  c #BF02C485BF02",
"[  c #C9EACAF1C9EA",
"{  c #D004D0EFD004",
"}  c #D025D2BCD025",
"|  c #D19FD432D19F",
" . c #D300D593D300",
".. c #D55BD642D55B",
"X. c #E14DE13BE14D",
"o. c #E471E35CE471",
"O. c #E62DE5E6E62D",
"+. c #E696E77DE696",
"@. c #E913E9F1E913",
"#. c #F4C4F4F4F4C4",
"$. c #F908F92BF908",
"%. c #FDC5FDCAFDC5",
"&. c #FFFFFFFFFFFF",
/* pixels */
"&.&.&.&.&.&.&.&.X.H Y J Y J Y H @.&.&.&.&.&.&.&.",
"&.&.$.` W W W W V i Q ~ Q ~ Q u D W W E / #.&.&.",
"&.&.O.#   . & & ; < 6 7 8 0 r t t y M C q { &.&.",
"&.&.o.$ p s f g k x b m B S L R ) ]  .+.G [ &.&.",
"&.&.o.$ a f f g j z b m B Z K I ^ ' { +.D [ &.&.",
"&.&.o.$ p d f g j z v n B Z K I ^ ' { +.D [ &.&.",
"&.&.o.$ p s f g j z b n B Z K I ^ ] { O.D [ &.&.",
"&.&.o.$ p s f g j z b n N Z K I ^ ] { O.D [ &.&.",
"&.&.O.$ p s f g j z v n N Z K I ^ ' { +.D [ &.&.",
"&.&.o.$ p s f g j z b m B Z K I ^ ] { +.D [ &.&.",
"&.&.X.. p s f g j z v n N Z K I ^ ] { +.D [ &.&.",
"&.&.X.. o s f g j z v n N Z K I ^ ] } +.D [ &.&.",
"&.&.X.$ p s f g j z v m B Z K I ^ ' { +.D [ &.&.",
"&.&.O.$ p s f g j z v n N Z K I ^ ' { +.D [ &.&.",
"&.&.o.$ p s f g j z v n N Z K I ^ ] { O.D [ &.&.",
"&.&.o.$ p f f g j z b m N Z K I ^ ] | O.D [ &.&.",
"&.&.o.$ a d f g j z v n B Z K I ^ ' | O.D [ &.&.",
"&.&.o.$ a f f g j z v n N Z K I ^ '  .O.D [ &.&.",
"&.&.o.$ p s f g j z b n B Z K I ^ ' | O.D [ &.&.",
"&.&.o.$ p s f g j z v m N Z K I ^ ' [ @.D [ &.&.",
"&.&.o.$ p s f g k z v n B A K I ^ ] { O.D [ &.&.",
"&.&.o.. p s f g k l v n B A K U ^ ]  .@.D [ &.&.",
"&.&.O.: X o , 1 h l c n N Z F P T ! _ Q e ..&.&.",
"&.&.&.' M 9 > + O + @ * = - 2 3 4 5 e V / $.&.&."
};
