/* XPM */
static char *___svg[] = {
/* columns rows colors chars-per-pixel */
"24 24 152 2 ",
"   c #B7C138EE2650",
".  c #B4EC3CA22D18",
"X  c #A4C235CB357C",
"o  c #A7F03D1A3CC3",
"O  c #A98F3EB93D8C",
"+  c #BEBB44DB30B1",
"@  c #BCC7487A35B0",
"#  c #E4FA4E131A3C",
"$  c #D81A4CF62251",
"%  c #DD6F4D5320D8",
"&  c #D73951C12D45",
"*  c #C57C4BCA3507",
"=  c #C55E4E823A50",
"-  c #E8E1529920E1",
";  c #E0F8536E27AB",
":  c #E89856A62892",
">  c #E52A5A002ED9",
",  c #E89059802E58",
"<  c #E4C35D8E33D8",
"1  c #E8A25D2C347F",
"2  c #D2C060133E31",
"3  c #DCF762653B93",
"4  c #E54660EE3AA3",
"5  c #AD0D461B4336",
"6  c #BD584EE74860",
"7  c #AC6155E05010",
"8  c #BD4758CC4FF7",
"9  c #A6956C5B43EE",
"0  c #A7B377B941CA",
"q  c #A7526F4A583C",
"w  c #A4BA68586437",
"e  c #C50B537D4304",
"r  c #C6375D244B36",
"t  c #E39F547A4196",
"y  c #FFFF5F6B4A84",
"u  c #CEC963F64E73",
"i  c #D5BC68EE4862",
"p  c #CDDC659D5368",
"a  c #CE596B1F5B81",
"s  c #DA7871CF579D",
"d  c #E472653942FE",
"f  c #E9D167D947C9",
"g  c #E24E6B4A4D31",
"h  c #E1F371194D6F",
"j  c #FDDD70CD4E74",
"k  c #F1677B1F4D84",
"l  c #E3C66E2B50AC",
"z  c #E1E776995B7E",
"x  c #E4567B7F5C3C",
"c  c #D28A79296B55",
"v  c #DA487F006BDB",
"b  c #D5577F3E734A",
"n  c #E4357E9862F0",
"m  c #A81B811D4332",
"M  c #A8E48A1344C0",
"N  c #A87292724781",
"B  c #A5D79CC24D0E",
"V  c #A259A2B2557A",
"C  c #9C9A9D9360F8",
"Z  c #964F976B7016",
"A  c #AF6F83BA77AB",
"S  c #FB5A808A5176",
"D  c #F6848E685451",
"F  c #F7699EC45930",
"G  c #F5C6AC8E5CB2",
"H  c #F3E9B90F5F41",
"J  c #CEA08DCD73CB",
"K  c #D110866A7362",
"L  c #D84A8CC17630",
"P  c #DE1F8D6A770B",
"I  c #CC659491745B",
"U  c #CA879B79755E",
"Y  c #E56084776B45",
"T  c #E92E88F66EC7",
"R  c #E432876E722D",
"E  c #E514898E744C",
"W  c #E9078D5375B5",
"Q  c #E5AC8C6F7951",
"!  c #E8C8915F7D61",
"~  c #C8D3A2277643",
"^  c #C79FA8CE77B6",
"/  c #C6C6AF3979A3",
"(  c #C64CB5A77C10",
")  c #C6BEBC887F35",
"_  c #F30CC5CC6455",
"`  c #F28DD26B6954",
"'  c #F295DE636E69",
"]  c #F29DE9F8734D",
"[  c #F288F1967C8E",
"{  c #8D0F8D0F8D0F",
"}  c #958196A78BC5",
"|  c #9BF89D05895A",
" . c #9882997691D1",
".. c #9D599D599D59",
"X. c #B0228F4789DF",
"o. c #A384A45E9C17",
"O. c #A55AA55AA55A",
"+. c #AC58AC6BAC5C",
"@. c #B712B714B713",
"#. c #DC0D96708856",
"$. c #DC2399348D9E",
"%. c #E8D299AB8658",
"&. c #E5079BFC8C78",
"*. c #E70E9FED9132",
"=. c #DB57A7EA9A4C",
"-. c #D676AC9BA5FE",
";. c #DEE0B247A677",
":. c #D757B052AA6D",
">. c #D78FB5B2B0CB",
",. c #D966BEEEBBAE",
"<. c #E1A1AC96A1C0",
"1. c #E5EDB211A71F",
"2. c #E5EDB65FAB39",
"3. c #E0F6BD07B795",
"4. c #C74CC58A8511",
"5. c #C8EEC9BE93EE",
"6. c #F037F0438E82",
"7. c #F2BAF2C39008",
"8. c #E857E8739D81",
"9. c #CA44CB0DA0AF",
"0. c #CCEACDB3AED0",
"q. c #DE80C266BE83",
"w. c #D2B5D37DC038",
"e. c #DB28DB6CBC20",
"r. c #E596C1E7BA0D",
"t. c #E027E063ABFC",
"y. c #F373F36BA63A",
"u. c #F661F657BE1A",
"i. c #C562C56FC538",
"p. c #CD77CD77CD77",
"a. c #D168C4CDC37A",
"s. c #DE0BD151CEEF",
"d. c #D4F1D596D5A4",
"f. c #DF80D882D742",
"g. c #D7AFD858D866",
"h. c #DD1FDCD8DCC2",
"j. c #E951CD7EC74B",
"k. c #E6FCD1A2CE72",
"l. c #E198D626D3EA",
"z. c #EBB2D97FD6F6",
"x. c #E56ADF7BDEEC",
"c. c #ECBDE127DF49",
"v. c #FDD4FDC4DADE",
"b. c #E37EE3BCE3CE",
"n. c #EBA2E59DE50A",
"m. c #E864E869E863",
"M. c #E804E873E8C7",
"N. c #EA45EA2AEA2A",
"B. c #F0A9F015F03F",
"V. c #F05CF0D1F11A",
"C. c #F1CEF1FEF20A",
"Z. c #FE71FE87FE8C",
/* pixels */
"Z.Z.Z.Z.Z.Z.Z.Z.h.{ ..........{ m.Z.Z.Z.Z.Z.Z.Z.",
"Z.Z.Z.p.i.i.i.i...@.b.b.b.b.b.O.O.i.i.i.i.Z.Z.Z.",
"Z.Z.N.+.h.d.d.p.p.h.b.x.x.x.b.g.p.d.d.g.O.N.Z.Z.",
"Z.Z.N.@.Z.C.N.N.b.b.h.b.h.b.b.b.N.N.B.Z.@.N.Z.Z.",
"Z.Z.N.@.Z.N.N.N.M.b.b.b.b.b.b.b.N.N.C.C.@.N.Z.Z.",
"Z.Z.N.@.Z.C.N.N.M.g.,.:.-.>.d.b.N.N.C.Z.@.N.Z.Z.",
"Z.Z.N.@.C.C.N.m.,.$.c 8 6 p v =.x.N.C.Z.@.N.Z.Z.",
"Z.Z.N.@.Z.C.N.3.#.E a o X e l g #.b.C.C.@.N.Z.Z.",
"Z.Z.m.@.Z.C.k.&.Q R a o X e g d d <.B.C.@.N.Z.Z.",
"Z.Z.m.@.C.N.1.! E Y a O X e d d 4 z c.Z.@.N.Z.Z.",
"Z.Z.m.@.Z.n.*.! E n a O X = d 4 1 4 r.Z.@.m.Z.Z.",
"Z.Z.m.@.Z.z.%.W Y n p o X = 4 < , > 1.C.@.N.Z.Z.",
"Z.Z.N.@.Z.z.%.W Y x u o X * 4 > : : 2.Z.@.N.Z.Z.",
"Z.Z.N.@.Z.N.&.T n s r o X + & ; - 4 j.Z.@.N.Z.Z.",
"Z.Z.N.@.C.C.2.Y x r 5 5 X X   % # s N.Z.@.N.Z.Z.",
"Z.Z.N.@.Z.V.c.! x s @ o X . $ # < r.C.C.@.N.Z.Z.",
"Z.Z.N.@.Z.C.N.k.P h 3 @ . $ % 3 ;.N.C.Z.@.N.Z.Z.",
"Z.Z.b.@.C.C.N.N.l.=.Y i 2 i L q.N.N.C.C.@.m.Z.Z.",
"Z.Z.N.@.Z.C.N.N.m.b.f.k.s.s.b.M.N.N.V.Z.@.N.Z.Z.",
"Z.Z.N.@.N.b.b.b.g.g.d.d.d.d.d.g.h.b.b.N.+.N.Z.Z.",
"Z.Z.m.w b K J I U ~ ^ / ( ) 4.4.5.9.0.w. .h.Z.Z.",
"Z.Z.n.6 y j S D F G H _ ` ' ] [ 7.y.u.v.+.d.Z.Z.",
"Z.Z.N.7 t f k D F G H _ ` ' ] [ 6.8.t.e.} x.Z.Z.",
"Z.Z.Z.a.X.A q 9 9 0 m M N B V V C Z | o.i.Z.Z.Z."
};
