/* XPM */
static char *___svg[] = {
/* columns rows colors chars-per-pixel */
"24 24 140 2 ",
"   c #6BEC36D02069",
".  c #23465AEC2346",
"X  c #2BD75A312BD7",
"o  c #33CC5C9733CC",
"O  c #3B685DA23B68",
"+  c #230464572304",
"@  c #237E6CF4237E",
"#  c #2602714C2602",
"$  c #345B74E9345B",
"%  c #68B74F661F6A",
"&  c #5E7A54AD2014",
"*  c #7D2149C92471",
"=  c #7DFD53072AFD",
"-  c #78695D983775",
";  c #48B8705934CF",
":  c #425A5EA0425A",
">  c #494B6041494B",
",  c #513763165137",
"<  c #583765945837",
"1  c #5E7A68455E7A",
"2  c #74BD7E6B5FAD",
"3  c #63FB698E63FB",
"4  c #772F799F772F",
"5  c #91CF3ACB12D4",
"6  c #B816390A265A",
"7  c #B10139842B50",
"8  c #A49A35B7356B",
"9  c #A5E03BD93B7B",
"0  c #A9643E8B3D83",
"q  c #93BD44022276",
"w  c #BEBB44DB30B1",
"e  c #E4EE4D3D1971",
"r  c #D47D4ABA215C",
"t  c #DDC44D6D20E1",
"y  c #D73951C12D45",
"u  c #C55E4E823A50",
"i  c #DC755AE131B0",
"p  c #E8E1529920E1",
"a  c #E0F8536E27AB",
"s  c #E89856A62892",
"d  c #E52A5A002ED9",
"f  c #E89059802E58",
"g  c #E4C35D8E33D8",
"h  c #E8A25D2C347F",
"j  c #E88C5F7F3949",
"k  c #E54660EE3AA3",
"l  c #AD60463F4350",
"z  c #BABA505B447C",
"x  c #BD4758CC4FF7",
"c  c #817B69434AB4",
"v  c #979C77626979",
"b  c #C50B537D4304",
"n  c #C6625D384B45",
"m  c #CEC963F64E73",
"M  c #DC6C6E1D4EAB",
"N  c #CDDC659D5368",
"B  c #CE596B1F5B81",
"V  c #DA7871CF579D",
"C  c #E472653942FE",
"Z  c #E24E6B4A4D31",
"A  c #E3C66E2B50AC",
"S  c #E1E776995B7E",
"D  c #E33B7AD35C41",
"F  c #D28A79296B55",
"G  c #DA487F006BDB",
"H  c #E3507E4E6266",
"J  c #0DAB82CE0DAB",
"K  c #1177894F1177",
"L  c #208687E22086",
"P  c #209E8824209E",
"I  c #2C5686FF2C56",
"U  c #35D283FD364F",
"Y  c #392687EC3926",
"T  c #3939883E393A",
"R  c #44CE88E044DA",
"E  c #51528ABB514F",
"W  c #5D558C7E5CA7",
"Q  c #682C88D85FFA",
"!  c #74108BD06A0D",
"~  c #698D90D869AF",
"^  c #757D95B775B8",
"/  c #72739ADF7273",
"(  c #8105941E7A29",
")  c #E57184856B52",
"_  c #E92E88F66EC7",
"`  c #E432876E722D",
"'  c #E9078D5375B5",
"]  c #E5AC8C6F7951",
"[  c #E8C8915F7D61",
"{  c #823383978233",
"}  c #897A8AD7897A",
"|  c #82369C248250",
" . c #9237937683E7",
".. c #942394D99423",
"X. c #9DEB9E5E9DEB",
"o. c #8F9CA2068F79",
"O. c #9E8AABB29E8A",
"+. c #9F5AAD32A036",
"@. c #A430A4F2A439",
"#. c #A47CAE82A5FE",
"$. c #AAAEAB8FAAB7",
"%. c #AD00B606AD02",
"&. c #B6EDB717B6ED",
"*. c #B5A0B923B5B3",
"=. c #DC0D96708856",
"-. c #DC2399348D9E",
";. c #E0E7911C8201",
":. c #E5079BFC8C78",
">. c #EA039AF9888D",
",. c #D676AC9BA5FE",
"<. c #DAB8A91CA024",
"1. c #D757B052AA6D",
"2. c #D78FB5B2B0CB",
"3. c #DFBEBDE6B5E4",
"4. c #D966BEEEBBAE",
"5. c #E1A1AC96A1C0",
"6. c #E5EDB211A71F",
"7. c #E619B68BAB66",
"8. c #BD9EC31CBD9D",
"9. c #DE80C266BE83",
"0. c #E72FC1AAB9F2",
"q. c #C3D7C4A1C3D7",
"w. c #CCFFCCFFCCFF",
"e. c #CF0AD1A1CF0A",
"r. c #DDA8D199D03A",
"t. c #D2B3D316D2B3",
"y. c #DD06DC3EDBF4",
"u. c #E951CD7EC74B",
"i. c #E6FCD1A2CE72",
"p. c #EBB2D97FD6F6",
"a. c #E60DDC77DBA3",
"s. c #EC57DD1FDAD2",
"d. c #ECBDE127DF49",
"f. c #E3B6E435E3E5",
"g. c #ECBBE550E463",
"h. c #EA2CEA0BEA0A",
"j. c #EF99EF02F07E",
"k. c #F104F06EF09A",
"l. c #F284F28CF2A0",
"z. c #FEBDFED4FED9",
/* pixels */
"z.z.z.z.z.z.z.z.f...X.X.X.X.X...f.z.z.z.z.z.z.z.",
"z.z.z.t.w.e.w.e.@.$.f.f.y.f.y.@.&.t.w.w.w.z.z.z.",
"z.z.h.$.t.w.w.q.q.y.f.f.y.f.f.y.w.q.w.t.@.h.z.z.",
"z.z.h.&.z.l.h.h.f.f.f.y.f.y.f.f.h.h.h.z.&.h.z.z.",
"z.z.h.&.z.h.h.h.f.f.f.f.f.f.f.f.h.h.l.l.&.h.z.z.",
"z.z.h.&.z.l.h.h.f.y.4.1.,.2.r.f.h.h.l.z.&.h.z.z.",
"z.z.h.&.l.h.h.h.9.-.F x z N G <.a.h.k.z.&.h.z.z.",
"z.z.h.&.z.l.h.0.;.] B 9 8 b A Z =.f.l.l.&.h.z.z.",
"z.z.h.&.z.l.i.>.] G B 0 8 b Z C C 5.k.l.&.h.z.z.",
"z.z.h.&.z.h.6.[ ] ` B 0 8 b C C k S d.z.&.h.z.z.",
"z.z.f.&.l.h.:.[ ` H B 0 8 u C j h k 0.z.&.g.z.z.",
"z.z.g.&.z.p.>.' ) H N 0 8 u j j f f 1.l.&.h.z.z.",
"z.z.h.&.l.s.>.' ) D m 0 8 u g d s s 6.z.&.h.z.z.",
"z.z.h.&.z.h.:.' H V n 0 8 w y a p g u.z.&.h.z.z.",
"z.z.h.&.z.j.7._ D n l 9 8 8 6 t e H g.z.&.h.z.z.",
"z.z.h.&.l.j.p.;.D M z 9 8 7 r e i 3.h.l.&.h.z.z.",
"z.z.h.Q / / / 2 - = *       5 q v @.%.*.} y.z.z.",
"z.z.f.@ @ K L $ Y ; & & % = c  .#.*.8.y.o.t.z.z.",
"z.z.f.# K P I T R E W Q ! ( o.+.%.8.w.f.X.t.z.z.",
"z.z.h.# K P I T R E W ~ ^ | o.O.%.9.w.f.X.t.z.z.",
"z.z.f.# K P I T R E W ~ ^ | o.O.%.8.e.f.X.t.z.z.",
"z.z.f.# K P I T R E W ~ ^ | o.O.%.8.e.f.X.t.z.z.",
"z.z.h.# J L I U R E Q ~ ^ | o.O.%.*.8.q.{ t.z.z.",
"z.z.l.| $ + . . X o O : > , < 1 3 3 4 ..$.l.z.z."
};
