/* XPM */
static char *___svg[] = {
/* columns rows colors chars-per-pixel */
"24 24 149 2 ",
"   c #3F56344F16FC",
".  c #43D62DCF1617",
"X  c #59BB378C1C43",
"o  c #564E3C051C4D",
"O  c #68E03AF5195F",
"+  c #757F36FE1858",
"@  c #74BA29642658",
"#  c #79DF3F952218",
"$  c #77CF2FF72BDE",
"%  c #3A18548A1DC2",
"&  c #31BA58531AFE",
"*  c #0C747A300C74",
"=  c #15F76C491601",
"-  c #27A6603D1C5E",
";  c #38906F931A2F",
":  c #2B7F77C518C7",
">  c #2B1A79DC1B46",
",  c #375A73421F59",
"<  c #38FC717A1CB8",
"1  c #247F4DCA247F",
"2  c #278057D52780",
"3  c #249B5FAA249B",
"4  c #2AF6526E2AF6",
"5  c #34BD52A234BD",
"6  c #3C7E55783C7E",
"7  c #221B64A0221B",
"8  c #20066AE21FAE",
"9  c #3EFA65CB3EFA",
"0  c #4487459A1D32",
"q  c #4F2F441B1C96",
"w  c #47204CA51BB3",
"e  c #4FFF451E1D1D",
"r  c #5F624092183E",
"t  c #581148A61927",
"y  c #4E11512B1B1D",
"u  c #45865AD71B63",
"i  c #51A455821E3B",
"p  c #5B4B58F319F3",
"a  c #7DAD45EE142F",
"s  c #4E2061A31D95",
"d  c #448269A81D13",
"f  c #42CD50E81FF8",
"g  c #54BA595D21AF",
"h  c #718743D521DA",
"j  c #73F247DA233E",
"k  c #6E71524420D7",
"l  c #63FE57FA21B9",
"z  c #7DBD579C2AE5",
"x  c #44136D392202",
"c  c #511C667D22E4",
"v  c #514368792552",
"b  c #59C363FC28FC",
"n  c #4DF375223669",
"m  c #432757934327",
"M  c #4CB25B794CB2",
"N  c #53645A645364",
"B  c #5AF476C15AF4",
"V  c #60FE640B60FE",
"C  c #74FE773274FE",
"Z  c #761778637617",
"A  c #8C503DE12F1C",
"S  c #A571355335C4",
"D  c #AAB43E913E23",
"F  c #8CF4443213B6",
"G  c #8901467A1C93",
"H  c #9C1142D913FF",
"J  c #9BA046FC1B3C",
"K  c #AD39429A1288",
"L  c #ADEE46A21845",
"P  c #ADE649AD1DE1",
"I  c #91584F1521F1",
"U  c #90CF50C125D9",
"Y  c #98B7501A274C",
"T  c #91D0537329DC",
"R  c #9FCA50EA2915",
"E  c #8A4B4B1A347B",
"W  c #A7604EEA26EB",
"Q  c #AEAF4DB52509",
"!  c #BB244C07231A",
"~  c #BA4A52342BFC",
"^  c #A3604D343442",
"/  c #91384F8840F3",
"(  c #B9DB508F47AA",
")  c #BD4758CC4FF7",
"_  c #89CF6CA54BC1",
"`  c #9FD16392508D",
"'  c #B4906B844F57",
"]  c #9D8870B761E2",
"[  c #C72854D3450F",
"{  c #CCF563EE5340",
"}  c #D0B06DB05F7E",
"|  c #E64D6F3B517E",
" . c #D28A79296B55",
".. c #116589D51171",
"X. c #1F43865A1D71",
"o. c #1FCA88451FD2",
"O. c #2B9C86612B49",
"+. c #3916881B3934",
"@. c #44C188B444D0",
"#. c #512B8AFC512E",
"$. c #5CEB8C3B5C43",
"%. c #67F288A55FEC",
"&. c #73C58B9B69F6",
"*. c #699A90E969BC",
"=. c #757F954B75A8",
"-. c #817894C87AE9",
";. c #A6888ED37D3E",
":. c #E7078A8C76A0",
">. c #89B28C9E89B2",
",. c #83979C7183B6",
"<. c #9A51975D863A",
"1. c #946995F49469",
"2. c #9A1594699017",
"3. c #9E379E379E37",
"4. c #8F51A1348ED8",
"5. c #906FA30A9079",
"6. c #9E83ABD59EBE",
"7. c #B7BCA2D996F9",
"8. c #A40DA40DA40D",
"9. c #A6C0AED1A70C",
"0. c #AA81AB3DAAB8",
"q. c #AD6EB54CADAA",
"w. c #B61EB6C1B61F",
"e. c #BA54BB1FBA54",
"r. c #DE85976188FB",
"t. c #C64B9EC1922C",
"y. c #E3C392888381",
"u. c #C937AC31A33A",
"i. c #D676AC9BA5FE",
"p. c #DAB8A91CA024",
"a. c #C937B481ACBC",
"s. c #D757B052AA6D",
"d. c #D78FB5B2B0CB",
"f. c #D966BEEEBBAE",
"g. c #E3E3BE88B93A",
"h. c #BDE2C36BBDF3",
"j. c #C3ACC3FCC3AC",
"k. c #CCFDCD5FCCCA",
"l. c #CFB2D1CDCFB6",
"z. c #DDA8D199D03A",
"x. c #CFB8D35CD11A",
"c. c #D28DD311D28D",
"v. c #DDBFDC5ADC3E",
"b. c #E400E418E43F",
"n. c #EB59E451E38F",
"m. c #E7B8EA09E97C",
"M. c #EAABEAA9EAAB",
"N. c #F28DF293F29D",
"B. c #FF69FF67FF68",
/* pixels */
"B.B.B.B.B.B.B.B.b.1.3.3.3.1.3.1.m.B.B.B.B.B.B.B.",
"B.B.B.c.k.k.k.k.8.0.b.b.b.b.b.8.w.c.k.k.k.B.B.B.",
"B.B.M.0.c.k.k.j.j.v.b.v.v.b.b.c.j.j.k.l.8.m.B.B.",
"B.B.M.w.B.N.M.M.b.n.v.b.b.v.b.m.m.M.N.B.w.m.B.B.",
"B.B.M.w.B.M.M.M.b.v.b.b.b.b.b.b.M.M.N.B.w.M.B.B.",
"B.B.M.w.B.N.M.m.b.v.f.s.i.d.z.b.M.M.N.N.w.M.B.B.",
"B.B.M.w.N.N.M.n.z.r. .) ( {  .p.b.M.N.N.w.M.B.B.",
"B.B.M.w.B.N.N.g.:.:.} D S [ | | y.n.N.B.w.m.B.B.",
"B.B.m.>.9.9.3.] ` ` / $ @ A ^ ^ ^ <.0.w.>.n.B.B.",
"B.B.b.2 = - - & % f 0   . X h # G E 2.0.Z k.B.B.",
"B.B.b.7 ..X.: < x v g e o j T R Q ~ u.m.1.k.B.B.",
"B.B.b.8 ..X.: < x v g e o h U Y P ~ t.b.1.k.B.B.",
"B.B.n.7 ..X.: < d c g q o j I W L ! t.b.1.k.B.B.",
"B.B.b.7 ..X.: < d s i q o O G J L ~ a.m.1.k.B.B.",
"B.B.b.7 ..o.> ; d u w q X X + H K ' k.m.1.k.B.B.",
"B.B.b.7 ..X.O., d s y q o O F H W 7.l.b.1.k.B.B.",
"B.B.b.7 ..o.O., < i p t r a F Y ;.h.l.b.1.k.B.B.",
"B.B.b.7 ..o.O.+.@.n b l k z _ <.q.h.x.b.1.l.B.B.",
"B.B.n.7 ..o.O.+.@.#.$.%.&.-.4.6.q.h.x.m.1.k.B.B.",
"B.B.b.7 ..o.O.+.@.#.$.*.=.,.5.6.q.h.x.b.1.k.B.B.",
"B.B.b.7 ..o.O.@.@.#.$.*.=.,.5.6.q.h.c.b.1.k.B.B.",
"B.B.b.7 ..o.O.+.@.#.$.*.=.,.5.6.q.h.c.b.1.k.B.B.",
"B.B.m.3 * X.O.+.@.#.$.*.=.,.5.6.9.w.e.h.Z c.B.B.",
"B.B.N.4.B 9 2 1 1 4 5 6 m M M N N N V C 1.M.B.B."
};
