/* XPM */
static char *___svg[] = {
/* columns rows colors chars-per-pixel */
"24 24 144 2 ",
"   c #44652D001A09",
".  c #55FF3BCC1C21",
"X  c #68E03AF5195F",
"o  c #757F36FE1858",
"O  c #520236D8238E",
"+  c #0B9F73850B9F",
"@  c #1B1B7C121B1B",
"#  c #2B5E77E618C4",
"$  c #2B077A391BEB",
"%  c #372A734C1EF2",
"&  c #388B718D1C87",
"*  c #22D346E222D3",
"=  c #290049E42900",
"-  c #20AE5F5620AE",
";  c #2F8354542F83",
":  c #29A05BAF29A0",
">  c #31664D6C3166",
",  c #365E56AC365E",
"<  c #3AD352D33AD3",
"1  c #2200608A2200",
"2  c #2A1A63CD2A1A",
"3  c #27BB7F6E27BB",
"4  c #349F7AFE29EB",
"5  c #334F631E3359",
"6  c #3AD5613C3A3D",
"7  c #4F2A44381CAE",
"8  c #47204CA51BB3",
"9  c #5F624092183E",
"0  c #581148A61927",
"q  c #4E11512B1B1D",
"w  c #45865AD71B63",
"e  c #51A455821E3B",
"r  c #5B4B58F319F3",
"t  c #7DAD45EE142F",
"y  c #7358456B1EC2",
"u  c #4E2061A31D95",
"i  c #448469A61D14",
"p  c #505B61AB1B71",
"a  c #544F5A132350",
"s  c #44EE513C30FE",
"d  c #730C46B421F5",
"f  c #728448E925ED",
"g  c #6E71524420D7",
"h  c #63FE57FA21B9",
"j  c #7DBD579C2AE5",
"k  c #6181466A332D",
"l  c #440A6D8D2339",
"z  c #511366DE23A9",
"x  c #59C363FC28FC",
"c  c #515D6A6228E5",
"v  c #4DF375223669",
"b  c #43F255BA43F2",
"n  c #4AD4540D4AD4",
"m  c #542A58AC542A",
"M  c #657751D4444B",
"N  c #4B54685E4B54",
"B  c #6527687D6527",
"V  c #68336ABF6833",
"C  c #6FC271E06B29",
"Z  c #69D57CAF69D5",
"A  c #721674407216",
"S  c #7B4B7EFB7B9A",
"D  c #8CF4443213B6",
"F  c #8901467A1C93",
"G  c #9C0E42D713FF",
"H  c #9B9E46FA1B3C",
"J  c #AD9E42F31286",
"K  c #AE4646D61845",
"L  c #AE1649AB1DE0",
"P  c #91584F1521F1",
"I  c #9E7D4CA92252",
"U  c #98B450172749",
"Y  c #90D253EC2B61",
"T  c #9E8251522ABC",
"R  c #8F205776324B",
"E  c #911C574530AA",
"W  c #9C9F555832FA",
"Q  c #A7EC4F28271D",
"!  c #AE524D7B24F6",
"~  c #BB384C09231C",
"^  c #AE5450502AAF",
"/  c #B9A251C62B9A",
"(  c #AAEC54D133AF",
")  c #89CF6CA54BC1",
"_  c #B4B06BA14F56",
"`  c #A3447901659E",
"'  c #110A87FA110C",
"]  c #1113883F112B",
"[  c #1F18863E1D84",
"{  c #1F9C880D1F98",
"}  c #2AD9821C259E",
"|  c #1FD088671FDD",
" . c #2BB186E32B53",
".. c #362181A032D6",
"X. c #38B7882A38D6",
"o. c #437383C43F41",
"O. c #42E885E442E8",
"+. c #44F688E44508",
"@. c #50F58AA350F7",
"#. c #5CCB8C0B5C24",
"$. c #67F288A55FEC",
"%. c #73C58B9B69F6",
"&. c #699890E569BA",
"*. c #7580954C75A9",
"=. c #817894C87AE9",
"-. c #A6F98F387DA5",
";. c #82FB860782F8",
":. c #83699C3C8389",
">. c #8DFC90608DFC",
",. c #9A4E975A8637",
"<. c #928194189281",
"1. c #9E379E379E37",
"2. c #B63691DA83CB",
"3. c #8F20A1538EE3",
"4. c #9CD9A4389CD9",
"5. c #9ED5AC329F1E",
"6. c #B7EAA2ED970A",
"7. c #BFCCA0CA9C38",
"8. c #A4AEA4CAA4AE",
"9. c #A649AEAFA649",
"0. c #A93AA947A93A",
"q. c #AE63B6E1AE7E",
"w. c #B5B6B5B6B5B6",
"e. c #BA22BAE8B4D4",
"r. c #BA07BB11BA07",
"t. c #C6449EBC9227",
"y. c #C08EA3B39FDA",
"u. c #C3EDAA4EA466",
"i. c #C930B47BACB7",
"p. c #C2B5B1ADB033",
"a. c #BE08C391BE19",
"s. c #C587C4B9C4A5",
"d. c #CC31C529C105",
"f. c #CC59CCBFCC32",
"g. c #CF6BD1E0CF99",
"h. c #D322D386D323",
"j. c #DC96DC8EDC96",
"k. c #E084DFC3E084",
"l. c #E425E41DE445",
"z. c #E71AE8B8E7FC",
"x. c #E63CE8ECE877",
"c. c #EAB2EAB1EAB2",
"v. c #F305F30CF305",
"b. c #FFACFFABFFAC",
/* pixels */
"b.b.b.b.b.b.b.b.l.<.1.1.1.1.1.<.c.b.b.b.b.b.b.b.",
"b.b.b.h.f.f.f.f.0.0.j.l.l.l.j.8.w.f.f.f.f.b.b.b.",
"b.b.c.0.f.f.f.s.s.j.k.l.j.l.l.j.s.f.f.h.8.z.b.b.",
"b.b.c.w.b.v.v.c.l.l.l.j.k.j.l.l.c.c.v.v.w.c.b.b.",
"b.b.l.r.b.v.c.c.x.l.l.l.l.l.l.x.c.c.v.b.r.c.b.b.",
"b.b.c.0.k.h.h.g.f.f.p.t.7.u.s.f.g.g.h.k.0.l.b.b.",
"b.b.l., 2 5 5 6 < s >     O k M C S ;.>.B h.b.b.",
"b.b.l.1 ' [  .4 l c a 7 . f R W ` e.g.l.<.f.b.b.",
"b.b.l.: ] | } % l c a 7 . f E ( ( 2.g.z.<.f.b.b.",
"b.b.l.- ] | $ % l c a 7 . f E T ^ _ d.z.<.f.b.b.",
"b.b.l.- ] { # % l z a 7 . d Y U ! / y.z.<.f.b.b.",
"b.b.l.- ] [ # & l z a 7 . d P I ! ~ t.z.<.f.b.b.",
"b.b.l.1 ' [ # & i z a 7 . d P I L ~ t.z.<.f.b.b.",
"b.b.l.1 ' { # & i w e 7 . y F H K / i.z.<.f.b.b.",
"b.b.l.- ' { $ & i w 8 7 . . o G J _ f.l.<.f.b.b.",
"b.b.l.1 ' {  .% i p q . . X D G Q 6.g.l.<.f.b.b.",
"b.b.l.- ' |  ...l u r 0 9 t D U -.a.g.z.>.f.b.b.",
"b.b.l.1 ' |  .X.o.v x h g j ) ,.q.a.g.z.<.f.b.b.",
"b.b.l.1 ] |  .X.+.@.#.$.%.=.3.5.q.a.g.z.<.f.b.b.",
"b.b.l.1 ] |  .X.+.@.#.&.*.:.3.5.q.a.g.z.<.f.b.b.",
"b.b.l.1 ] |  .X.O.@.#.&.*.*.3.5.q.a.h.k.<.f.b.b.",
"b.b.l.1 ] |  .X.O.@.#.&.*.3.3.5.q.a.h.z.<.f.b.b.",
"b.b.l.: + @ 3 ..O.@.#.&.*.3.3.4.0.q.r.s.A g.b.b.",
"b.b.b.9.Z N ; = * = , < < b n n n m V %.1.v.b.b."
};
