/* XPM */
static char *___svg[] = {
/* columns rows colors chars-per-pixel */
"24 24 162 2 ",
"   c #561E3BD21C2D",
".  c #68E03AF5195F",
"X  c #757D37001858",
"o  c #138B5716138B",
"O  c #1C8F59071C8F",
"+  c #0B9066640B90",
"@  c #18CC760D18CC",
"#  c #2B6B77EE18CE",
"$  c #2B127A3F1BF7",
"%  c #3840714B1C59",
"&  c #24AA431024AA",
"*  c #2A9846B32A98",
"=  c #2AE44CA72AE4",
"-  c #21525A2D2152",
";  c #2A38583D2A38",
":  c #35044B373504",
">  c #3D334DBF3D33",
",  c #2FF457C82FF4",
"<  c #341459243414",
"1  c #3A61545D3A61",
"2  c #26F57BD226F5",
"3  c #373D73E220E6",
"4  c #36387C742BBA",
"5  c #3E5660683E56",
"6  c #338C7EE6338C",
"7  c #4F4B44401CBE",
"8  c #47204CA51BB3",
"9  c #581148A61927",
"0  c #4E11512B1B1D",
"q  c #45885AD61B64",
"w  c #51A455821E3B",
"e  c #5B4B58F319F3",
"r  c #6F4C40F71C43",
"t  c #7DAD45EE142F",
"y  c #7358456B1EC2",
"u  c #4E2261A31D96",
"i  c #4468699D1D0A",
"p  c #505D61AD1B73",
"a  c #58C350A72582",
"s  c #548F5A352379",
"d  c #613649C22597",
"f  c #730C46B421F5",
"g  c #731448B6254D",
"h  c #72B049E327D8",
"j  c #6E71524420D7",
"k  c #63FE57FA21B9",
"l  c #7DBD579C2AE5",
"z  c #770652CA3073",
"x  c #44386DA42367",
"c  c #511466E023AA",
"v  c #513C68FB270E",
"b  c #567361642BE5",
"n  c #59C363FC28FC",
"m  c #51306A75291C",
"M  c #4E3B72AF3430",
"N  c #42BA7DDA38A0",
"B  c #44024DBD4402",
"V  c #48C54EB748C5",
"C  c #53B5579853B5",
"Z  c #47BD643147BD",
"A  c #4E5966084E59",
"S  c #59927E2F4D2D",
"D  c #54FD686E54FD",
"F  c #5B836C875B83",
"G  c #64E279A44FDC",
"H  c #70347A1156DF",
"J  c #61C564B261C5",
"K  c #6C146EF86C14",
"L  c #691D70EE691D",
"P  c #7447773E7447",
"I  c #7CC97F127CC9",
"U  c #8CF2443313B4",
"Y  c #88FF467B1C93",
"T  c #9C3142BE1400",
"R  c #9BBE46D91B3C",
"E  c #AE01428D1285",
"W  c #AEAA46701845",
"Q  c #AE8749521DEC",
"!  c #91564F1721F1",
"~  c #9EA64C922261",
"^  c #90CD50C225D8",
"/  c #98E250182766",
"(  c #90D153EC2B60",
")  c #9E9A51512AC7",
"_  c #90F65731309C",
"`  c #9D6A5588333E",
"'  c #90F158653323",
"]  c #ACA14DE425D3",
"[  c #BB304C062315",
"{  c #AE9350532AD6",
"}  c #B99A51C32B95",
"|  c #AAFF54743382",
" . c #8AF0637244D2",
".. c #89CD6CA54BBF",
"X. c #B60465B94A87",
"o. c #B4A96B9F4F52",
"O. c #A5247A216746",
"+. c #0F2F86F50F2F",
"@. c #0FBE85A20FC7",
"#. c #1E9987231DF7",
"$. c #1EBE88891ED7",
"%. c #2ADC8204259E",
"&. c #2BFA872A2BB1",
"*. c #2C2B88982C2B",
"=. c #36CF80A33046",
"-. c #37E686B1375F",
";. c #383787873844",
":. c #419483644194",
">. c #44E188F744F3",
",. c #4EDA87674EDA",
"<. c #4FDA870B4D16",
"1. c #51428B2A514C",
"2. c #5CB58C315C52",
"3. c #67F288A55FEC",
"4. c #68B38FA068B3",
"5. c #7D58829E6708",
"6. c #697890F069BF",
"7. c #7AAC873B7AAC",
"8. c #753B95207582",
"9. c #979182926F72",
"0. c #817894C87AE9",
"q. c #851986E68519",
"w. c #8B3B8D048B3B",
"e. c #833B9C28837A",
"r. c #8D31983C84E6",
"t. c #8ED891098ED8",
"y. c #8CA19ED38CA1",
"u. c #9A6F975A8658",
"i. c #94C7956E94C7",
"p. c #9EEA9ED09EEA",
"a. c #B60091A88396",
"s. c #8F4FA1348ED6",
"d. c #909DA35590BF",
"f. c #9865A5299865",
"g. c #9ED8ABE19EE6",
"h. c #B7E1A2E99704",
"j. c #9F06ACEFA02D",
"k. c #A21BA201A21B",
"l. c #A392AB37A392",
"z. c #AB53ACA7AB53",
"x. c #AC2FB094A791",
"c. c #AE60B5E8AE7E",
"v. c #B2BFB3FFB2BF",
"b. c #B3C8B99BB3C8",
"n. c #BBCCBC7CB681",
"m. c #BA84BBA2BA84",
"M. c #C6D29E329164",
"N. c #C7E4AAEAA1F0",
"B. c #C9B6B500AD3D",
"V. c #BE34C386BE4E",
"C. c #C06DC5FAC06D",
"Z. c #CCB6C5AEC18B",
"A. c #CA20CB05C9E3",
"S. c #D015D285D024",
"D. c #D03BD357D0E3",
"F. c #D353D558D353",
"G. c #E538E4FBE542",
"H. c #E6D0E8E6E84C",
"J. c #E6DBE96BE8EE",
"K. c #E9C7EA17E9C7",
"L. c #F4C4F4F4F4C4",
"P. c #FFDCFFDCFFDC",
/* pixels */
"P.P.P.P.P.P.P.P.F.p.k.j.k.k.k.i.K.P.P.P.P.P.P.P.",
"P.P.L.m.z.l.z.z.q.I z.v.z.z.z.P w.z.z.l.v.L.P.P.",
"P.P.H.= o O - ; , 5 Z A D F L K L P 7.w.J S.P.P.",
"P.P.G.- +.%.&.;.>.1.2.6.8.e.d.j.c.V.F.K.t.A.P.P.",
"P.P.G.- +.#.&.;.>.1.2.6.8.e.d.l.c.V.S.G.t.A.P.P.",
"P.P.G.- +.#.&.-.>.,.<.G H 5.r.j.c.V.S.J.t.A.P.P.",
"P.P.G.- +.#.&.-.N M b a d z  .9.x.V.S.H.t.A.P.P.",
"P.P.G.- @.#.&.4 x b s 7   h ' ` O.n.S.H.t.A.P.P.",
"P.P.G.- @.$.%.3 x m s 7   g _ | | a.D.H.t.A.P.P.",
"P.P.G.- @.$.$ % x m s 7   g ( ) { X.Z.J.t.A.P.P.",
"P.P.G.- @.#.# % x v s 7   g ( / ] } N.H.t.A.P.P.",
"P.P.G.- @.#.# % x c s 7   f ^ ~ ] [ M.H.t.A.P.P.",
"P.P.G.- +.#.# % i c s 7   y ! ~ Q [ M.H.t.A.P.P.",
"P.P.G.- +.#.# % i w w 7   r Y R W } B.H.t.A.P.P.",
"P.P.G.O +.#.$ % i q 8 7     X T E o.A.H.t.A.P.P.",
"P.P.G.- +.#.&.% i u 0 7   . U T ] h.D.H.t.A.P.P.",
"P.P.G.O @ #.&.=.3 p e 9 r t U ~ u.B.D.G.t.A.P.P.",
"P.P.G.- +.#.&.-.:.M n k j l ..u.c.C.D.G.t.A.P.P.",
"P.P.G.- +.#.&.-.>.1.2.3.4.0.s.j.c.C.D.H.t.A.P.P.",
"P.P.G.- +.#.*.-.>.,.2.6.8.e.d.g.c.C.D.H.t.A.P.P.",
"P.P.G.- +.$.&.;.>.,.2.6.8.e.y.g.c.V.D.J.t.A.P.P.",
"P.P.G.- +.$.&.;.>.,.2.6.8.e.d.g.c.V.F.J.t.A.P.P.",
"P.P.H.< + @ 2 6 S >.2.4.8.e.y.f.l.x.m.z.K F.P.P.",
"P.P.P.V.7.F 1 * & & * : > > B B V C K q.b.L.P.P."
};
