/* XPM */
static char *__svg[] = {
/* columns rows colors chars-per-pixel */
"24 24 130 2 ",
"   c #AB4826F32616",
".  c #ABBB2839275C",
"X  c #AC102A5D297F",
"o  c #B7C138EE2650",
"O  c #B4EC3CA22D18",
"+  c #A4AA35DA357E",
"@  c #AAF23120304A",
"#  c #A56A3D1A3C97",
"$  c #A9AE3EA03D74",
"%  c #C6A80DE50D5D",
"&  c #CA4410911012",
"*  c #D215178A1738",
"=  c #D5C027A9276D",
"-  c #D4123668362D",
";  c #D2EC3D843D49",
":  c #BEBB44DB30B1",
">  c #BCC7487A35B0",
",  c #E4FA4E131A3C",
"<  c #D81A4CF62251",
"1  c #DD6F4D5320D8",
"2  c #D73951C12D45",
"3  c #C57C4BCA3507",
"4  c #C52751193E7E",
"5  c #E8E1529920E1",
"6  c #E0F8536E27AB",
"7  c #E89756A52890",
"8  c #E52A5A002ED9",
"9  c #E4C25D8D33D7",
"0  c #E8A25D2C347F",
"q  c #E88C5F7F3949",
"w  c #D2C060133E31",
"e  c #DCF762653B93",
"r  c #E54560ED3AA2",
"t  c #9EF544C943EC",
"y  c #9E5450124F34",
"u  c #AD0D461B4336",
"i  c #B19D4C374B86",
"p  c #BC15514044EF",
"a  c #BD4758CC4FF7",
"s  c #80C67E387CF3",
"d  c #A19A62A361F2",
"f  c #A1FD759274A2",
"g  c #B74C72CF71EF",
"h  c #BDFD786477F7",
"j  c #D22244AB446F",
"k  c #D2324C0D4BD1",
"l  c #C50B537D4304",
"z  c #C6375D244B35",
"x  c #D1DA532A52EF",
"c  c #D1705A3759FC",
"v  c #CEC963F64E73",
"b  c #D5BC68EE4862",
"n  c #CDDC659D5368",
"m  c #CE596B1F5B81",
"M  c #DA7871D0579A",
"N  c #E472653942FE",
"B  c #E38B687E46F8",
"V  c #E24E6B4A4D31",
"C  c #E3C66E2B50AC",
"Z  c #E1E476965B7B",
"A  c #E4567B9F5C7B",
"S  c #CDA9667E663E",
"D  c #D075605B6020",
"F  c #D28A79296B55",
"G  c #DA487F006BDB",
"H  c #E4357E91630C",
"J  c #D84A8CC17630",
"K  c #DE1F8D9D7731",
"L  c #E56084946B66",
"P  c #E92E88F06EE3",
"I  c #E432876B722A",
"U  c #E51489B27470",
"Y  c #E9078D6C75CD",
"T  c #E5AD8CCA79AA",
"R  c #E8C891717D74",
"E  c #94CD94A2944E",
"W  c #9E369E369E36",
"Q  c #A5FF879086C1",
"!  c #BC5F8EA58DD7",
"~  c #AEB2948393FB",
"^  c #BD2598AB97E2",
"/  c #BED09C939BCA",
"(  c #A3DDA3DDA3DD",
")  c #A9D8A9D8A9D8",
"_  c #B72AB72AB72A",
"`  c #B83CB843B84C",
"'  c #C2C38DBD8CF4",
"]  c #CB708EDC8E17",
"[  c #DC0D96708856",
"{  c #DC2599348D9D",
"}  c #E8D299AA8656",
"|  c #E5079C0B8C86",
" . c #EA039AF7888C",
".. c #E70E9FEC9131",
"X. c #DB57A7EA9A4C",
"o. c #C2B3A3C8A2FF",
"O. c #D676AC9BA5FE",
"+. c #DAB8A91CA024",
"@. c #C563B082AFBC",
"#. c #DEE0B247A677",
"$. c #D757B052AA6D",
"%. c #D78FB5B2B0CB",
"&. c #E620B243A751",
"*. c #E61FB692AB6B",
"=. c #E0F2BD18B7B3",
"-. c #DE59C264BE8E",
";. c #E5C7C218BA3E",
":. c #C4BAC4BAC4BA",
">. c #CD07CD07CD07",
",. c #DEAAC6D3C120",
"<. c #DD1ACE2FCA2E",
"1. c #D2C4D2BBD2A6",
"2. c #DEF9D4B9D374",
"3. c #DDAFDC4ADC2E",
"4. c #E9B6CDE2C7AF",
"5. c #E6FCD1A0CE70",
"6. c #E198D624D3E9",
"7. c #EBB8D985D6FC",
"8. c #E32FDFA3DF79",
"9. c #EAA6DD02DABD",
"0. c #ED22E18BDFAE",
"q. c #E03BE131E176",
"w. c #E338E3B6E3C3",
"e. c #EC27E5E2E525",
"r. c #E751E8AAE8D7",
"t. c #EA72EA60EA60",
"y. c #F0AFF01BF045",
"u. c #EE22F09CF0A2",
"i. c #F1A8F1FAF206",
"p. c #FE44FE5EFE63",
/* pixels */
"p.p.p.p.p.p.p.p.w.E W W W W W E r.p.p.p.p.p.p.p.",
"p.p.p.3.>.>.>.1.) ) w.q.w.w.q.W _ >.>.>.1.p.p.p.",
"p.p.r.) 1.>.>.:.:.2.q.q.3.w.w.3.:.>.>.1.( t.p.p.",
"p.p.r._ p.i.t.t.r.w.q.q.q.3.w.w.t.t.i.p._ r.p.p.",
"p.p.t._ p.t.t.t.q.0.w.q.q.w.w.w.t.t.i.i._ t.p.p.",
"p.p.t._ p.i.t.t.q.3.-.$.O.%.2.w.t.t.i.p._ t.p.p.",
"p.p.t.` i.y.t.e.,.{ F a p n G +.9.t.i.p._ t.p.p.",
"p.p.t._ p.i.t.=.[ U S # + l C V [ w.i.i._ t.p.p.",
"p.p.r._ p.i.5.| T I m $ + l V N N +.i.i.` t.p.p.",
"p.p.r._ p.t.&.R U L m $ + 4 B r q Z 0.p._ t.p.p.",
"p.p.r._ i.e...R U L n $ + 4 N r 0 q ;.p._ t.p.p.",
"p.p.r._ p.7. .Y L L v # + 4 r 9 8 8 &.i._ t.p.p.",
"p.p.t.` p.7.} Y L A v $ + 3 9 8 7 7 *.p._ t.p.p.",
"p.p.t.` p.e.| P H M z $ + : 2 6 5 9 4.p._ t.p.p.",
"p.p.t._ i.y.*.L A z u $ + @ o 1 , A t.p._ t.p.p.",
"p.p.t._ p.u.0.R A M p # + O < , 9 ;.i.i._ t.p.p.",
"p.p.t._ p.i.t.5.K V e > O < 1 e #.t.y.p._ r.p.p.",
"p.p.t._ i.i.t.t.6.X.L b w b J -.t.t.u.p._ r.p.p.",
"p.p.t.` p.i.t.t.r.8.3.<.<.2.q.r.t.t.i.i.` t.p.p.",
"p.p.t._ p.i.t.t.w.w.w.w.q.q.q.w.r.t.i.p._ r.p.p.",
"p.p.t.` p.u.t.t.r.w.w.w.q.q.w.w.t.u.u.p.` r.p.p.",
"p.p.e.f ] ] ' ' ! ! ! ! ^ ^ ^ ^ / o.@.:.E 0.p.p.",
"p.p.y.$ % & * = = - - ; j k x c D S h ~ s r.p.p.",
"p.p.p.<.! g i @ .   . X @ + t u y d Q ~ 1.p.p.p."
};
