/* XPM */
static char *____svg[] = {
/* columns rows colors chars-per-pixel */
"24 24 170 2 ",
"   c #4BAA3E780DA1",
".  c #5CDE2F74109C",
"X  c #5D95305D114A",
"o  c #55D737E510ED",
"O  c #69B3363F0C15",
"+  c #61743D640AF9",
"@  c #748332390F5E",
"#  c #69A52C3512BB",
"$  c #7C6B3A0E1376",
"%  c #14BE5C3414BE",
"&  c #1E245C4A1E24",
"*  c #0C696A000C69",
"=  c #1C15796D1C15",
"-  c #3EB767580E45",
";  c #3E5E6B1413BD",
":  c #3D256DE91966",
">  c #2F14719611A0",
",  c #2E9D77761A1A",
"<  c #2E65793A1B42",
"1  c #2FD970FE104F",
"2  c #24EF45B524EF",
"3  c #27654D322765",
"4  c #27E945EB27E9",
"5  c #26D05D7326D0",
"6  c #2E2D57522E2D",
"7  c #2E8F5E2C2E8F",
"8  c #356646C03566",
"9  c #33C849C833C8",
"0  c #3B624E113B62",
"q  c #328E54F6328E",
"w  c #3B2B55D53B2B",
"e  c #2AE37F0D2AE3",
"r  c #3B9D7BB02AC0",
"t  c #34C85FE634C8",
"y  c #4BBA4E530CDD",
"u  c #553044DC0C86",
"i  c #596D57D10DDF",
"p  c #5D064D4B1244",
"a  c #5EC753211A69",
"s  c #5C575FA618CC",
"d  c #67DF50000A72",
"f  c #6CC142C71D90",
"g  c #624748011C48",
"h  c #7DE94DD21797",
"j  c #71E452851768",
"k  c #4C9F60400F2A",
"l  c #4D73634913CB",
"z  c #4C97668F1924",
"x  c #4CB868FA1D95",
"c  c #5C5661FD1C69",
"v  c #63A05DD5229D",
"b  c #5C5D649E2101",
"n  c #575B74D934AB",
"m  c #42DC4C5F42DC",
"M  c #4A1E4F9C4A1E",
"N  c #43D6526143D6",
"B  c #4A6152B04A61",
"V  c #53A159C753A1",
"C  c #58906C5F5890",
"Z  c #633267166332",
"A  c #6C7C6F1D6C7C",
"S  c #702973107029",
"D  c #831E315710F0",
"F  c #817A3F0D168B",
"G  c #8F2A405A093F",
"H  c #9C4740470D8B",
"J  c #815A42061B76",
"K  c #9B9844FA1694",
"L  c #A365429C0935",
"P  c #B2A542880AC2",
"I  c #ADC2452A1427",
"U  c #A5664E991CA2",
"Y  c #B2714CEB1C55",
"T  c #8160453C2141",
"R  c #8F4656BF25C0",
"E  c #86EC50FD2CB8",
"W  c #A4ED52232386",
"Q  c #AB5052402461",
"!  c #A4ED56452A9C",
"~  c #A4EE58F82EDA",
"^  c #B24D513D23ED",
"/  c #B9E651812522",
"(  c #B27A566D2D7E",
")  c #A5185A4531F1",
"_  c #AF075AA1365D",
"`  c #BD3F58663436",
"'  c #C0B443A10E59",
"]  c #C19147FB1564",
"[  c #C1514B831B9C",
"{  c #C1534F332142",
"}  c #C15D5204262C",
"|  c #CC2450D52556",
" . c #C14853EE2A50",
".. c #CA0055402BF1",
"X. c #9DBB67D7473F",
"o. c #9C6973234FD3",
"O. c #C62C6BA14E60",
"+. c #C4BC7187530B",
"@. c #11A7894011B6",
"#. c #2EC381B02638",
"$. c #22198A31221B",
"%. c #2F6685892A61",
"&. c #30B28B4730B5",
"*. c #398784E63987",
"=. c #3EDA8DC33ECF",
"-. c #4BF189B6453B",
";. c #49DB8BC949DB",
":. c #4DD991724DF5",
">. c #5345875A5345",
",. c #5A418F475621",
"<. c #5B7194395B7E",
"1. c #65AF850D5400",
"2. c #731180045653",
"3. c #630E9013630E",
"4. c #68E893E063F7",
"5. c #680196CC6801",
"6. c #6AA49A0A6AD7",
"7. c #773494C26C4B",
"8. c #772E8419772E",
"9. c #7ED582397ED5",
"0. c #758A9B0E758A",
"q. c #791F9F7B7943",
"w. c #7936A0737A61",
"e. c #805882455ED7",
"r. c #8E688D0D71D1",
"t. c #850099A277EB",
"y. c #B6B483386EFC",
"u. c #A9D38E3679D4",
"i. c #871F8A88871F",
"p. c #8E46904C8E46",
"a. c #92E89EBE92E8",
"s. c #B92C9B3388E4",
"d. c #86D7A5F086FB",
"f. c #8741A769889B",
"g. c #8EC8A5A68EC8",
"h. c #936FA4258AF0",
"j. c #942EA4D5942E",
"k. c #954EAD349594",
"l. c #9F05B07F9F05",
"z. c #AD29A6CE9520",
"x. c #A072A8C595FD",
"c. c #AA2AABE4AA2A",
"v. c #A468B60CA46C",
"b. c #AC51B3AFAC51",
"n. c #B613B73CB613",
"m. c #B3B1BD27B3B9",
"M. c #BACCBF1BBACC",
"N. c #C61D9C518D89",
"B. c #D41AA77599EA",
"V. c #D43EA9B39CA5",
"C. c #C803AF47A30C",
"Z. c #D53FB53CABC1",
"A. c #B311C089B3C0",
"S. c #BE9FC1D0B91B",
"D. c #D721C040B80E",
"F. c #C24DC513C24D",
"G. c #C243C9CFC264",
"H. c #CCB5CC37C6A7",
"J. c #CF42D45ACF68",
"K. c #DA51D223CDFC",
"L. c #D14FD64FD14F",
"P. c #D828D8C6D828",
"I. c #DBB5D97DD67A",
"U. c #DC9EDB49DCA4",
"Y. c #DE52E0C6DE81",
"T. c #E349E3FCE349",
"R. c #ED98EEC9EDED",
"E. c #EE9FF0D3F040",
"W. c #F52AF58CF52A",
"Q. c #FFEEFFEEFFEE",
/* pixels */
"Q.Q.Q.Q.Q.Q.Q.Q.H.B 8 8 0 m m Z T.Q.Q.Q.Q.Q.Q.Q.",
"Q.Q.W.n.c.c.c.c.Z q 3.0.d.g.j.B r.c.c.c.n.W.Q.Q.",
"Q.Q.T.3 % & 5 7 t >.6.w.f.k.v.a.8.9.i.p.Z U.Q.Q.",
"Q.Q.U.& @.$.&.=.:.<.6.w.f.k.v.A.G.L.Y.E.p.P.Q.Q.",
"Q.Q.U.& @.$.&.=.:.<.6.w.f.k.v.m.G.J.Y.R.p.P.Q.Q.",
"Q.Q.U.& @.$.&.=.:.<.1.2.e.r.x.m.G.J.Y.R.p.P.Q.Q.",
"Q.Q.U.& @.$.&.=.n n v g f E X.u.S.J.U.R.p.P.Q.Q.",
"Q.Q.U.& @.$.&.r x b a o X T ) _ y.H.Y.R.p.P.Q.Q.",
"Q.Q.U.& @.$.#.: x b a o . T ~ ( ` N.Y.R.p.U.Q.Q.",
"Q.Q.U.& @.$., ; z z a o X T ! (  .O.K.E.p.P.Q.Q.",
"Q.Q.U.& @.@.> ; z c a o X J W ^ } ..Z.R.p.P.Q.Q.",
"Q.Q.U.& @.#.1 ; l s p o . F W ^ { | B.R.p.P.Q.Q.",
"Q.Q.U.& @.$.1 ; k c g o X F U Y [ [ V.R.p.P.Q.Q.",
"Q.Q.U.& @.@.> l k i p o X $ K I ] ..D.W.p.P.Q.Q.",
"Q.Q.U.& @.$.< - k y   o X # D I ' +.I.R.p.P.Q.Q.",
"Q.Q.U.& @.$.%.; k i u o X @ H P / C.Y.R.p.P.Q.Q.",
"Q.Q.U.& @.$.&.r z i d + O G L Q s.J.Y.R.p.P.Q.Q.",
"Q.Q.U.& @.$.&.=.-.n v j h R o.z.S.J.Y.R.i.P.Q.Q.",
"Q.Q.U.& @.$.&.=.:.<.4.7.t.h.v.A.G.J.Y.E.p.P.Q.Q.",
"Q.Q.U.& @.$.&.=.:.<.6.q.d.k.v.m.G.L.Y.E.p.P.Q.Q.",
"Q.Q.U.& @.$.&.=.:.<.6.q.d.k.v.A.G.J.U.R.p.P.Q.Q.",
"Q.Q.U.& @.$.&.=.:.<.6.q.d.k.v.m.G.L.T.E.p.P.Q.Q.",
"Q.Q.T.6 * = e *.;.,.5.0.d.g.l.b.m.M.F.b.A T.Q.Q.",
"Q.Q.Q.M.8.C w 4 2 4 9 w w N N M M V S i.n.W.Q.Q."
};
