/* XPM */
static char *___svg[] = {
/* columns rows colors chars-per-pixel */
"24 24 157 2 ",
"   c #7DF87F146906",
".  c #B7C138EE2650",
"X  c #B4EC3CA22D18",
"o  c #A4C235CB357C",
"O  c #A7F03D1A3CC3",
"+  c #A98F3EB93D8C",
"@  c #BEBB44DB30B1",
"#  c #BCC7487A35B0",
"$  c #E4FA4E131A3C",
"%  c #D81A4CF62251",
"&  c #DD6F4D5320D8",
"*  c #D73951C12D45",
"=  c #C57C4BCA3507",
"-  c #C55E4E823A50",
";  c #C52751193E7E",
":  c #E8E1529920E1",
">  c #E89856A62892",
",  c #E52A5A002ED9",
"<  c #E4C35D8E33D8",
"1  c #E8A25D2C347F",
"2  c #E88C5F7F3949",
"3  c #DCF762653B93",
"4  c #E54660EE3AA3",
"5  c #AD0D461B4336",
"6  c #BC15514044EF",
"7  c #BD4758CC4FF7",
"8  c #C50B537D4304",
"9  c #C6375D244B36",
"0  c #CEC963F64E73",
"q  c #D3D961284030",
"w  c #D6C669F74A7C",
"e  c #CDDC659D5368",
"r  c #CE596B1F5B81",
"t  c #DA7871CF579D",
"y  c #E472653942FE",
"u  c #E38B687E46F8",
"i  c #E24E6B4A4D31",
"p  c #E1F371194D6F",
"a  c #E3C66E2B50AC",
"s  c #E4567B7F5C3C",
"d  c #D28A79296B55",
"f  c #DA487F006BDB",
"g  c #E4357E9862F0",
"h  c #ACE4ACEB2CF8",
"j  c #BCEFBCC82667",
"k  c #B18DB17A2D6C",
"l  c #AAF4AB1A32C8",
"z  c #AA38A9D93D08",
"x  c #B567B540338C",
"c  c #B7BBB7A23F3A",
"v  c #EF4CECB70DF3",
"b  c #EC82EA011AF8",
"n  c #FFFFFEDF1122",
"m  c #F913F63E1CE1",
"M  c #E9E2E78C281E",
"N  c #FEB2FBC2207F",
"B  c #FC93FA6C2CF8",
"V  c #E83CE6C233A3",
"C  c #E5F9E47E3DDB",
"Z  c #FA00F7F838E8",
"A  c #FB19F9103966",
"S  c #8AC88B705B28",
"D  c #94B8956F53AE",
"F  c #A9CDA961440F",
"G  c #A1DEA21E4BC9",
"H  c #848385A46355",
"J  c #B889B8DA6ABF",
"K  c #DA8C80616650",
"L  c #DE1F8D6A770B",
"P  c #D9938E067802",
"I  c #E56084776B45",
"U  c #E92E88F66EC7",
"Y  c #E432876E722D",
"T  c #E514898E744C",
"R  c #E9078D5375B5",
"E  c #E5AC8C6F7951",
"W  c #E8C8915F7D61",
"Q  c #E002DF035D4D",
"!  c #E1C4E0595249",
"~  c #E3C4E23A47E5",
"^  c #F8AAF69D4513",
"/  c #F639F42F5140",
"(  c #F455F24B5D7C",
")  c #DDF3DD5A6825",
"_  c #CD69CD797F00",
"`  c #D6FED7347343",
"'  c #F1BDEFD4695A",
"]  c #F329F1396A62",
"[  c #E969E84C760E",
"{  c #EAD3E9AF76A5",
"}  c #88D08A11883D",
"|  c #8FFD914C8C49",
" . c #950C950C950C",
".. c #975B986696C5",
"X. c #9DA59DC79DA2",
"o. c #A13CA1DB8BDD",
"O. c #A070A1569FC8",
"+. c #B9F0AC4A978B",
"@. c #A416A416A416",
"#. c #A991A991A991",
"$. c #B8D4B007A147",
"%. c #C03EC02BA34B",
"&. c #B73DB73DB73D",
"*. c #BC76BE90B7C4",
"=. c #B825B821B95F",
"-. c #DC0D96708856",
";. c #DC2399348D9E",
":. c #E16993C58210",
">. c #E8D299AB8658",
",. c #E5079BFC8C78",
"<. c #EA039AF9888D",
"1. c #E70E9FED9132",
"2. c #DC60A8F09C9C",
"3. c #D676AC9BA5FE",
"4. c #DAB8A91CA024",
"5. c #DEE0B247A677",
"6. c #D78FB5B2B0CB",
"7. c #D966BEEEBBAE",
"8. c #E1A1AC96A1C0",
"9. c #E5EDB211A71F",
"0. c #E5EDB65FAB39",
"q. c #E0F6BD07B795",
"w. c #C4BDC46B8928",
"e. c #DEF6DDF08421",
"r. c #C09DC0A7959A",
"t. c #D05BD01A9F0C",
"y. c #D50BD4229068",
"u. c #C36FC464ABA4",
"i. c #C7CBC865AC9B",
"p. c #CD22CCF5ACD6",
"a. c #C466C43DB13A",
"s. c #CF65CFFAB463",
"d. c #C2ECC360BD3E",
"f. c #DE80C266BE83",
"g. c #D29CD237BDEE",
"h. c #E596C1E7BA0D",
"j. c #C51BC54CC4BC",
"k. c #C9FFCA23C05A",
"l. c #CD07CD22CCFC",
"z. c #DAAADA85CF89",
"x. c #D47FD4C3D40D",
"c. c #DDBEDC5ADC3E",
"v. c #E951CD7EC74B",
"b. c #E6FCD1A2CE72",
"n. c #E2A3D730D65A",
"m. c #EBB2D97FD6F6",
"M. c #E56ADF7BDEEC",
"N. c #EAA3DD00DABA",
"B. c #ECBDE127DF49",
"V. c #E315E34AE351",
"C. c #ECBBE550E463",
"Z. c #E9B5E9E1E5F1",
"A. c #EA41EA2BEA31",
"S. c #F0A9F015F03F",
"D. c #F05CF0D1F11A",
"F. c #F197F1CEF1F6",
"G. c #FE7FFE95FE9D",
/* pixels */
"G.G.G.G.G.G.G.G.M. .X.X.X.X.X. .V.G.G.G.G.G.G.G.",
"G.G.G.x.l.l.l.x.@.#.V.V.V.V.V.O.&.l.l.l.l.G.G.G.",
"G.G.A.#.x.l.l.j.j.c.V.V.c.V.V.x.j.l.l.x.@.A.G.G.",
"G.G.A.=.G.F.A.A.Z.V.M.c.V.V.V.V.A.A.S.G.=.A.G.G.",
"G.G.A.&.G.A.A.A.V.V.V.V.V.V.V.V.A.A.F.F.&.A.G.G.",
"G.G.A.&.G.F.A.A.V.c.7.6.3.6.x.V.A.A.F.G.&.A.G.G.",
"G.G.A.&.F.F.A.Z.f.;.d 7 6 e f 4.M.A.F.F.&.A.G.G.",
"G.G.A.&.G.F.A.q.:.T r O o 8 a i -.V.F.G.&.Z.G.G.",
"G.G.Z.&.G.F.b.,.E Y r + o 8 u y y 8.F.F.=.A.G.G.",
"G.G.Z.&.F.A.9.W E f r + o ; u y 4 t B.G.&.A.G.G.",
"G.G.Z.&.G.C.1.W T g r + o - y 2 1 2 h.G.&.Z.G.G.",
"G.G.Z.&.G.m.<.R Y g e + o - 2 1 , , 9.F.&.A.G.G.",
"G.G.A.=.G.m.>.T I s 0 + o = < < > > 9.G.&.A.G.G.",
"G.G.A.&.G.Z.,.U g t 9 + o # * & : < v.G.&.A.G.G.",
"G.G.A.&.G.A.0.I s 9 5 O o o . & $ g A.F.&.A.G.G.",
"G.G.Z.&.G.F.N.:.s a 6 O o X % $ < h.F.G.&.Z.G.G.",
"G.G.A.&.G.F.A.b.L p 3 # @ % $ 3 5.A.D.G.&.Z.G.G.",
"G.G.A.=.G.A.D.A.n.2.K w q w P f.Z.S.D.G.&.Z.G.G.",
"G.G.A.o.s.p.i.u.u.u.$.+.+.$.&.*.*.d.j.l.X.V.G.G.",
"G.G.Z.k b M V C ~ ! Q ) ` _ w.r.%.a.k.x...x.G.G.",
"G.G.Z.j n N B A ^ / ( ' { e.y.t.p.g.z.Z.O.x.G.G.",
"G.G.Z.j n N B Z ^ / ( ' [ e.y.t.p.g.z.Z.O.x.G.G.",
"G.G.A.x v m B Z ^ / ( ] { e.y.t.p.i.d.d.} Z.G.G.",
"G.G.G.s.J c k h l l z F G D S H     | X.l.G.G.G."
};
