/* XPM */
static char *___svg[] = {
/* columns rows colors chars-per-pixel */
"24 24 160 2 ",
"   c #3E8D3F261870",
".  c #43BF379718AB",
"X  c #499531731854",
"o  c #56A23C731C81",
"O  c #63032E121424",
"+  c #69243B471972",
"@  c #795C2B6A27B1",
"#  c #7C1D31CC2CBF",
"$  c #1C0553B61C05",
"%  c #3EC34B6D1894",
"&  c #35A85CA818EA",
"*  c #18567564185C",
"=  c #373473F41F4C",
"-  c #215252B82152",
";  c #210D5C6E210D",
":  c #28E953E628E9",
">  c #304B554B304B",
",  c #38E0584038E0",
"<  c #23FB6B4023FB",
"1  c #2B38685B1FC4",
"2  c #29BE61C229BE",
"3  c #230B73B02305",
"4  c #32BD6B5132BD",
"5  c #4F05440E1C40",
"6  c #5F654092183E",
"7  c #581048A41926",
"8  c #4E9851C91B6B",
"9  c #5B88594C1A16",
"0  c #7D4645F11431",
"q  c #44A069361AEA",
"w  c #506F61C91B7C",
"e  c #6E73524620D8",
"r  c #63FC57F721B6",
"t  c #7D74575F2ACF",
"y  c #42546DD22306",
"u  c #5A1B64612954",
"i  c #4E1075433685",
"p  c #43F35BE543F3",
"a  c #4E855FDA4E85",
"s  c #5569598C5569",
"d  c #585C5F9E585C",
"f  c #5339608B5339",
"g  c #58A6626F58A6",
"h  c #670F695D670F",
"j  c #8EC8373C0F06",
"k  c #8F5637C0248D",
"l  c #A4C6360635FE",
"z  c #A9E43EDE3DC1",
"x  c #8D27445D13C5",
"c  c #9FA54358117C",
"v  c #ACCD41231BE4",
"b  c #98BA501A274C",
"n  c #93724A3D364F",
"m  c #A452426C22D1",
"M  c #AE9A462F236B",
"N  c #A8584F3A26EE",
"B  c #C74D4C393582",
"V  c #C55E4E823A50",
"C  c #EAB1576528FB",
"Z  c #E89059802E58",
"A  c #E8A25D2C347F",
"S  c #E54660EE3AA3",
"D  c #93AC5B7944FE",
"F  c #A1595B6D40F8",
"G  c #B9DB508F47AA",
"H  c #BD4758CC4FF7",
"J  c #89B76C914BB9",
"K  c #A44C62F94895",
"L  c #A68C69C74FE2",
"P  c #A34C783D63D6",
"I  c #C50B537D4304",
"U  c #D0D3648B4F34",
"Y  c #CDDC659D5368",
"T  c #CE596B1F5B81",
"R  c #E472653942FE",
"E  c #E24E6B4A4D31",
"W  c #E3C66E2B50AC",
"Q  c #E1E776995B7E",
"!  c #D28A79296B55",
"~  c #E58C7E8662E7",
"^  c #0D5D82BB0D5D",
"/  c #116D89FF116D",
"(  c #1CB184B81CB1",
")  c #1FE6883F1FE6",
"_  c #2C19869D2BC8",
"`  c #37BB810E3124",
"'  c #392787EC3928",
"]  c #39228813395E",
"[  c #436D83C23F3A",
"{  c #44CB88D644DA",
"}  c #51488B17514B",
"|  c #5D4B8C985CA6",
" . c #67EF88A25FE9",
".. c #6EDA8AC16EDA",
"X. c #73CA8BA069FB",
"o. c #699190DC69B3",
"O. c #7F2880B97F28",
"+. c #757E954875A7",
"@. c #80C794087A36",
"#. c #A6878ED27D3E",
"$. c #E580842B6B94",
"%. c #E432876E722D",
"&. c #E514898E744C",
"*. c #EA6C8DE7765A",
"=. c #E5AC8C6F7951",
"-. c #E8C8915F7D61",
";. c #82F584F582F5",
":. c #82C89BA182E8",
">. c #8A2391698A23",
",. c #9A52975E863B",
"<. c #93B0940693B0",
"1. c #9B7B9C4C9B7B",
"2. c #B1669A7093D5",
"3. c #8F8EA1C28F51",
"4. c #9030A2D0903D",
"5. c #9EA2ABF79EDD",
"6. c #B842A2B7969F",
"7. c #A40DA40DA40D",
"8. c #A80EA8B6A56F",
"9. c #A876AC6CA24F",
"0. c #A984A984A984",
"q. c #AD10B624AD2B",
"w. c #AE89B9A0AEF9",
"e. c #B725B725B725",
"r. c #B4ACBA2DB4AC",
"t. c #B984B9F8B99E",
"y. c #DC0D96708856",
"u. c #DC2399348D9E",
"i. c #E0E7911C8201",
"p. c #E3FF986789C0",
"a. c #EAD39B168863",
"s. c #D676AC9BA5FE",
"d. c #DAB8A91CA024",
"f. c #D757B052AA6D",
"g. c #D78FB5B2B0CB",
"h. c #D966BEEEBBAE",
"j. c #E1A1AC96A1C0",
"k. c #E5EDB211A71F",
"l. c #E839B721AB6D",
"z. c #E0F6BD07B795",
"x. c #BD73C2FCBD84",
"c. c #DE80C266BE83",
"v. c #E72FC1AAB9F2",
"b. c #C44EC50BC44E",
"n. c #CD35CD46CD35",
"m. c #CF9AD135CF9C",
"M. c #DDA8D199D03A",
"N. c #D204D2FAD22D",
"B. c #DDBFDC5ADC3E",
"V. c #E6FCD1A2CE72",
"C. c #E56ADF7BDEEC",
"Z. c #EF58DF7EDDC7",
"A. c #ECBDE127DF49",
"S. c #E3E3E434E40B",
"D. c #EBA3E3D5E2E2",
"F. c #E816E868E816",
"G. c #EA2EEA1FEA20",
"H. c #F05CF0D1F11A",
"J. c #F191F1B2F1B4",
"K. c #FEF1FF02FF07",
/* pixels */
"K.K.K.K.K.K.K.K.S.<.7.1.7.1.7.<.F.K.K.K.K.K.K.K.",
"K.K.K.N.n.n.n.n.8.0.B.S.B.S.B.7.e.n.n.n.n.K.K.K.",
"K.K.G.0.N.n.n.b.b.B.B.S.B.S.S.N.b.n.n.N.7.F.K.K.",
"K.K.F.t.K.J.G.G.F.S.S.B.S.B.S.F.G.G.J.J.e.F.K.K.",
"K.K.F.t.K.G.H.F.S.S.S.S.S.S.S.S.F.G.J.K.t.F.K.K.",
"K.K.F.e.K.J.G.F.S.B.h.f.s.g.M.S.G.G.J.K.e.F.K.K.",
"K.K.F.e.K.J.G.F.c.u.! H G Y ! d.C.G.J.J.e.F.K.K.",
"K.K.F.t.J.J.G.z.i.&.T z l I W E y.D.J.K.e.F.K.K.",
"K.K.F.e.K.J.V.p.=.%.T z l I U R R j.J.J.t.F.K.K.",
"K.K.F.e.K.G.k.-.&.%.T z l I R R S Q A.K.t.F.K.K.",
"K.K.F.e.J.D.p.-.%.~ Y z l V R S A S v.J.t.F.K.K.",
"K.K.F.e.K.Z.a.*.%.~ Y z l B S S Z A k.K.t.F.K.K.",
"K.K.F.t.K.Z.a.*.$.~ Y z l B S Z C C l.K.e.F.K.K.",
"K.K.F.>.w.9.P L K F n # @ k m v v M 2.x.<.F.K.K.",
"K.K.F.2 * 3 1 & 8 %   . X X O j j D 8.t.;.m.K.K.",
"K.K.F.< / ( _ = q q 8 5 o + x c N 6.N.F.1.n.K.K.",
"K.K.S.< / ) _ ` y w 9 7 6 0 x b #.x.m.F.1.m.K.K.",
"K.K.F.< / ( _ ] [ i u r e t J ,.q.x.m.F.<.m.K.K.",
"K.K.F.< / ) _ ] { } |  .X.@.3.5.q.x.N.S.1.n.K.K.",
"K.K.S.< / ) _ ] { } | o.+.:.4.5.q.x.N.S.1.N.K.K.",
"K.K.S.< / ) _ ] { } | o.+.:.4.5.w.x.m.S.1.m.K.K.",
"K.K.S.< / ) _ ] { } | o.+.:.4.5.q.x.N.F.1.n.K.K.",
"K.K.F.< ^ ( _ ' { } | o.+.:.4.5.q.r.b.b.O.N.K.K.",
"K.K.J...4 ; $ - : > , p p a f g d s s h ;.F.K.K."
};
