/* XPM */
static char *___svg[] = {
/* columns rows colors chars-per-pixel */
"24 24 163 2 ",
"   c #53E7274B1B82",
".  c #53A42CF31E42",
"X  c #54E03B451BD9",
"o  c #600F35E61BCD",
"O  c #684332841E0E",
"+  c #68AF3AE81952",
"@  c #756F36F2184B",
"#  c #7C0D3CD4208D",
"$  c #0D1B7F410D1B",
"%  c #3EC565041C67",
"&  c #33876A8A1958",
"*  c #38AD6F861A33",
"=  c #26B570A015C5",
"-  c #2B3B7AD31CC9",
";  c #376E73421F69",
":  c #394E70851B46",
">  c #1FE44EF61FE4",
",  c #271D50EE271D",
"<  c #2EE952A32EE9",
"1  c #3652549A3652",
"2  c #3DA056E13DA0",
"3  c #222663382226",
"4  c #2355682B2355",
"5  c #2DB861162DB8",
"6  c #4DBC43311C06",
"7  c #47844CD61BE7",
"8  c #581048A41926",
"9  c #4E8252A11C87",
"0  c #45A75AE71B74",
"q  c #525356261E56",
"w  c #5B88594C1A16",
"e  c #6D5B41241C66",
"r  c #7D4645F11431",
"t  c #4D2461611E2B",
"y  c #447369471C58",
"u  c #506F61C91B7C",
"i  c #5E1B5CD93777",
"p  c #68224E422E30",
"a  c #6E73524620D8",
"s  c #63FC57F721B6",
"d  c #7D74575F2ACF",
"f  c #637554633181",
"g  c #5A1B64612954",
"h  c #4E1075433685",
"j  c #447A593C447A",
"k  c #4B675BF54B67",
"l  c #54165C995416",
"z  c #596C5C78596C",
"x  c #4BC5763D4BC5",
"c  c #55196C6D5519",
"v  c #5AE0773153C1",
"b  c #700872497008",
"n  c #76E678CF76E6",
"m  c #79417AE77941",
"M  c #83F4397F1C84",
"N  c #8B4138B61BBF",
"B  c #9E3933ED33F8",
"V  c #A47235C535C8",
"C  c #A9973ED83DE4",
"Z  c #8CDB443113B4",
"A  c #895B46B61CB0",
"S  c #88004A711F81",
"D  c #9C1342DC1401",
"F  c #94CE475A1E12",
"G  c #9C31473E1B5D",
"H  c #AD2A427C1277",
"J  c #A34C45801BD0",
"K  c #AF1746DE1BB0",
"L  c #98BA501A274C",
"P  c #A7474ECD26CD",
"I  c #B8DC50412868",
"U  c #BD714C36398E",
"Y  c #DE0D5AF734F8",
"T  c #DB745CBF3881",
"R  c #E93C5FC0396E",
"E  c #B9DB508F47AA",
"W  c #BD4758CC4FF7",
"Q  c #89B76C914BB9",
"!  c #B4606B2B4F25",
"~  c #8DDB70EC6727",
"^  c #C50B537D4304",
"/  c #C67C630B51E2",
"(  c #CCF563EE5340",
")  c #CE8D6B375B95",
"_  c #E4F9655543AB",
"`  c #E43768C54726",
"'  c #E24E6B4A4D31",
"]  c #E3C66E2B50AC",
"[  c #E29776D95BA3",
"{  c #DBB47C816515",
"}  c #D28A79296B55",
"|  c #DA487F006BDB",
" . c #0D2380FF0D47",
".. c #118E8A161192",
"X. c #1E5B85D41DEF",
"o. c #1FC588381FCC",
"O. c #2C1786BD2BC2",
"+. c #37BB810B3124",
"@. c #39228810395E",
"#. c #436D83C23F3A",
"$. c #44CD88DB44DC",
"%. c #514A8B1B514D",
"&. c #5AB482C85B16",
"*. c #5D4E8C9D5CA9",
"=. c #67EF88A25FE9",
"-. c #73CA8BA069FB",
";. c #699690E369B8",
":. c #7583954F75AC",
">. c #A6848ECF7D3B",
",. c #E432876E722D",
"<. c #E3BF8A617640",
"1. c #E5AC8C6F7951",
"2. c #E927929B7F8F",
"3. c #8A7D8C568A7D",
"4. c #83AD965B83AD",
"5. c #82CD9BA782ED",
"6. c #8F2690BA8F26",
"7. c #9A52975E863B",
"8. c #94BB94BB94BB",
"9. c #96F6985D96F6",
"0. c #9E379E379E37",
"q. c #BADC97158B44",
"w. c #8F8EA1C28F51",
"e. c #9034A2D69041",
"r. c #9E3BA13F9FE0",
"t. c #9EA6ABFB9EE1",
"y. c #B76EA27E969E",
"u. c #A40DA40DA40D",
"i. c #A984A984A984",
"p. c #AD0BB61FAD27",
"a. c #B67EB675B67E",
"s. c #B3D4B94AB3D4",
"d. c #DC0D96708856",
"f. c #DD8E995A8D00",
"g. c #E0E7911C8201",
"h. c #E3FF986789C0",
"j. c #D676AC9BA5FE",
"k. c #DAB8A91CA024",
"l. c #C9EAB509AD3B",
"z. c #D757B052AA6D",
"x. c #DD18B9EEB276",
"c. c #D966BEEEBBAE",
"v. c #E1A1AC96A1C0",
"b. c #E682B1E9A840",
"n. c #E0F6BD07B795",
"m. c #BDFEC31CBE0C",
"M. c #DE80C266BE83",
"N. c #C48EC4D8C48E",
"B. c #CDB1CDF8CD79",
"V. c #CFC2D212CFC7",
"C. c #DDA8D199D03A",
"Z. c #CFBAD35FD11D",
"A. c #D287D30CD287",
"S. c #DC81DBF8DBBA",
"D. c #E6FCD1A2CE72",
"F. c #E5D3DDC7DD85",
"G. c #ED6BE1ABDFC9",
"H. c #E3E9E413E419",
"J. c #E8FEE2E1E23F",
"K. c #EA41EA54EA54",
"L. c #F05CF0D1F11A",
"P. c #F1B3F1C4F1E0",
"I. c #FF2DFF2FFF2F",
/* pixels */
"I.I.I.I.I.I.I.I.H.8.r.0.0.9.r.8.K.I.I.I.I.I.I.I.",
"I.I.I.A.B.V.B.B.u.i.F.H.H.H.F.u.s.A.B.B.B.I.I.I.",
"I.I.K.i.A.B.B.N.N.S.H.H.S.H.H.S.N.N.B.Z.u.K.I.I.",
"I.I.K.a.I.P.K.K.H.H.H.S.H.S.H.H.K.K.L.I.a.K.I.I.",
"I.I.K.a.I.K.K.K.H.H.H.H.H.H.H.H.K.K.P.P.a.K.I.I.",
"I.I.K.a.I.P.K.K.H.S.c.z.j.l.C.H.K.K.P.I.a.K.I.I.",
"I.I.K.a.P.P.K.J.M.f.} W E ( | k.F.K.P.P.a.K.I.I.",
"I.I.K.a.I.P.K.n.g.<.) C V ^ ] ' d.J.P.I.a.K.I.I.",
"I.I.K.a.I.P.D.h.1.,.) C V ^ ' ` _ v.L.P.a.K.I.I.",
"I.I.K.a.I.K.b.2.<.,.) C V ^ ` _ R [ G.I.a.K.I.I.",
"I.I.K.s.K.F.d.<.| { / C B U T T Y T x.K.p.K.I.I.",
"I.I.H.c &.v i f f p o .   O # M M N ~ 0.n S.I.I.",
"I.I.H.3  .X.= & % t 9 X X e S F J K q.S.6.V.I.I.",
"I.I.H.4 ..X.- * y t q 6 X e A G K I l.K.9.B.I.I.",
"I.I.H.4 ..X.- : y 0 7 6 X o @ F H ! B.K.9.B.I.I.",
"I.I.H.4 ..X.O.; y t 9 6 X + Z D P y.V.H.9.B.I.I.",
"I.I.H.4 ..o.O.+.: u w 8 e r Z L >.m.Z.H.e.A.I.I.",
"I.I.H.4 ..o.O.@.#.h g s a d Q 7.p.m.Z.H.9.A.I.I.",
"I.I.H.4 ..o.O.@.$.%.*.=.-.:.9.t.p.m.V.H.9.V.I.I.",
"I.I.H.4 ..o.O.@.$.%.*.;.:.5.w.t.p.m.Z.H.9.B.I.I.",
"I.I.H.4 ..o.O.@.$.%.*.;.:.5.w.t.p.m.A.H.9.B.I.I.",
"I.I.H.4 ..o.O.@.$.%.*.;.:.:.w.t.p.m.A.H.9.B.I.I.",
"I.I.H.3 $ X.O.@.$.%.*.;.:.w.9.t.p.s.m.N.m A.I.I.",
"I.I.P.4.x 5 , > , < 1 2 j k l c l l z b 3.K.I.I."
};
