/* XPM */
static char *___svg[] = {
/* columns rows colors chars-per-pixel */
"24 24 169 2 ",
"   c #561E3BD21C2D",
".  c #68E03AF5195F",
"X  c #757D37001858",
"o  c #1E4C53E31E4C",
"O  c #0B096B160B09",
"+  c #09A173CA09A1",
"@  c #17DD75BE17DD",
"#  c #1A1778B31A17",
"$  c #2B6477EB18C8",
"%  c #2B0C7A3C1BF0",
"&  c #36C573411EDA",
"*  c #3840714B1C59",
"=  c #243146152431",
"-  c #26B247D226B2",
";  c #284746B82847",
":  c #2E8948FB2E89",
">  c #213A5CA1213A",
",  c #35654BAF3565",
"<  c #3B0E4DAC3B0E",
"1  c #3525525E3525",
"2  c #2FE659B62FE6",
"3  c #231B753A231B",
"4  c #27207CD32720",
"5  c #2E0075442DFF",
"6  c #373D73E220E6",
"7  c #36387C742BBA",
"8  c #33F77FEB33F7",
"9  c #3944765D3947",
"0  c #4F4B44401CBE",
"q  c #47204CA51BB3",
"w  c #5F624092183E",
"e  c #581148A61927",
"r  c #45885AD61B64",
"t  c #51A455821E3B",
"y  c #5B4B58F319F3",
"u  c #6F4C40F71C43",
"i  c #7DAD45EE142F",
"p  c #4E2261A31D96",
"a  c #4468699D1D0A",
"s  c #505D61AD1B73",
"d  c #58C350A72582",
"f  c #548F5A352379",
"g  c #613649C22597",
"h  c #730C46B421F5",
"j  c #731448B6254D",
"k  c #72B049E327D8",
"l  c #6E71524420D7",
"z  c #63FE57FA21B9",
"x  c #7DBD579C2AE5",
"c  c #770652CA3073",
"v  c #44386DA42367",
"b  c #511466E023AA",
"n  c #567361642BE5",
"m  c #59C363FC28FC",
"M  c #51306A75291C",
"N  c #4E3B72AF3430",
"B  c #42BA7DDA38A0",
"V  c #4305507B4305",
"C  c #4A1551964A15",
"Z  c #529156F75291",
"A  c #446F78A7449F",
"S  c #4F047AB34F92",
"D  c #528F6792528F",
"F  c #5A0A7E425AE4",
"G  c #65A97AAB50A3",
"H  c #71117B2057BC",
"J  c #657D6B73657D",
"K  c #6D106F686D10",
"L  c #6EEB751C6EEB",
"P  c #6FC57A236FC5",
"I  c #708A76BF708A",
"U  c #72547B357254",
"Y  c #7A6F7DF87A6F",
"T  c #8CF2443313B4",
"R  c #88FF467B1C93",
"E  c #9C3142BE1400",
"W  c #9BBE46D91B3C",
"Q  c #AE01428D1285",
"!  c #AEAA46701845",
"~  c #AE8749521DEC",
"^  c #91564F1721F1",
"/  c #9EA64C922261",
"(  c #90CD50C225D8",
")  c #98E250182766",
"_  c #90D153EC2B60",
"`  c #9E9A51512AC7",
"'  c #9D6A5588333E",
"]  c #90F158653323",
"[  c #ACA14DE425D3",
"{  c #BB334C092318",
"}  c #AE9350532AD6",
"|  c #B99D51C62B98",
" . c #AAFF54743382",
".. c #8AF0637244D2",
"X. c #89CD6CA54BBF",
"o. c #B60765BC4A8A",
"O. c #B4AC6BA24F55",
"+. c #A5247A216746",
"@. c #10038697100C",
"#. c #1F27866D1D91",
"$. c #1F8988311F8B",
"%. c #1F9288641FC5",
"&. c #2AD682012598",
"*. c #1FC2891A1FC2",
"=. c #2BEE87102B92",
"-. c #37E686B1375F",
";. c #3843879E384F",
":. c #421F8483421F",
">. c #44EA88F54503",
",. c #507388084DAF",
"<. c #512A8AE3512D",
"1. c #5C948BB95BED",
"2. c #67F288A55FEC",
"3. c #68CF8FC268CF",
"4. c #7E5083BB6800",
"5. c #73C58B9B69F6",
"6. c #695790996985",
"7. c #728B8132728B",
"8. c #713C88B77236",
"9. c #7F9182867F91",
"0. c #7CB68E537D3B",
"q. c #750B94C17534",
"w. c #979182926F72",
"e. c #817894C87AE9",
"r. c #A7858F3A7DFE",
"t. c #818683F58186",
"y. c #89798BF18979",
"u. c #83029BC88322",
"i. c #8E41996685F6",
"p. c #898E95D889A1",
"a. c #8D549FB98D54",
"s. c #9A6F975A8658",
"d. c #90B1924D90B1",
"f. c #9E379E379E37",
"g. c #B60391AB8399",
"h. c #8F4FA1348ED6",
"j. c #905FA2F7906C",
"k. c #9989A6729989",
"l. c #9F1DAC279F2A",
"z. c #B7E4A2EC9707",
"x. c #9F06ACEFA02D",
"c. c #A415A417A415",
"v. c #A44BAB55A44B",
"b. c #AA7CAAC7AA7C",
"n. c #AC2FB094A791",
"m. c #AE56B681AE71",
"M. c #AFFCB8FDB065",
"N. c #B3A2B529B3A2",
"B. c #BBCFBC7FB684",
"V. c #B855BB2FB855",
"C. c #C6659EDD9248",
"Z. c #C77FAA85A18C",
"A. c #C951B49CACD8",
"S. c #BE32C3CDBE53",
"D. c #C52DC4F3C52D",
"F. c #CC52C54AC126",
"G. c #CBB8CC35CB8F",
"H. c #CFB2D258CFC9",
"J. c #CFDCD32ED0C8",
"K. c #D281D341D281",
"L. c #DC0BDC08DC0B",
"P. c #E064E02CE064",
"I. c #E478E439E480",
"U. c #E762E8E0E820",
"Y. c #E8A1E80BE8A1",
"T. c #E6AFE942E8C3",
"R. c #E9F4EA2CE9F4",
"E. c #F832F858F832",
"W. c #FFDEFFDEFFDE",
/* pixels */
"W.W.W.W.W.W.W.W.P.d.f.f.k.f.f.d.R.W.W.W.W.W.W.W.",
"W.W.W.K.J.G.G.H.b.b.P.I.P.I.P.c.N.G.G.G.K.E.W.W.",
"W.W.R.b.K.G.G.D.D.L.I.P.P.P.P.L.D.D.G.H.c.R.W.W.",
"W.W.I.J 7.P P U L L L L I I U Y 9.9.t.y.K L.W.W.",
"W.W.I.o + @ 3 5 9 A S F P 8.0.p.k.v.N.G.9.G.W.W.",
"W.W.I.> @.*.=.;.>.,.,.G H 4.i.l.N.S.J.U.d.G.W.W.",
"W.W.I.> @.$.=.-.B N n d g c ..w.n.S.K.I.y.G.W.W.",
"W.W.I.> @.*.=.7 v M f 0   k ] ' +.B.J.Y.d.G.W.W.",
"W.W.I.> @.%.&.6 v M f 0   j ]  . .g.J.T.d.G.W.W.",
"W.W.I.> @.%.% 6 v M f 0   j _ ` } o.F.I.d.G.W.W.",
"W.W.I.> @.$.$ * v b d 0   h _ ` [ | Z.U.d.G.W.W.",
"W.W.P.> @.#.$ * v b f 0   h ( / [ { C.T.p.G.W.W.",
"W.W.I.> @.#.$ * a b t 0   u ^ / ~ { C.T.p.G.W.W.",
"W.W.I.> @.$.$ * a p t 0   u R W ! | A.I.d.G.W.W.",
"W.W.P.> @.%.% * a r q 0     X E Q O.G.Y.d.G.W.W.",
"W.W.I.> @.*.&.& a s t 0   . T E [ z.K.I.d.G.W.W.",
"W.W.I.> @.*.=.8 v s y e w i T ) r.S.H.I.d.G.W.W.",
"W.W.I.> @.#.=.;.:.N m z l x X.s.m.S.H.U.d.G.W.W.",
"W.W.I.> @.#.=.;.>.<.1.2.5.e.h.x.M.S.H.U.p.G.W.W.",
"W.W.I.> @.*.=.;.>.<.1.6.q.u.j.l.m.S.H.I.d.G.W.W.",
"W.W.I.> @.*.=.;.:.<.1.6.q.u.j.l.m.S.K.I.d.G.W.W.",
"W.W.I.> @.*.=.;.>.<.1.6.q.u.j.l.M.S.K.R.d.G.W.W.",
"W.W.Y.2 O # 4 8 :.,.1.3.q.u.a.k.v.n.V.N.K K.W.W.",
"W.W.W.V.7.D 1 ; = - : , < V V C C Z J t.b.E.W.W."
};
