/* XPM */
static char *__svg[] = {
/* columns rows colors chars-per-pixel */
"24 24 116 2 ",
"   c #39033AEA3CA5",
".  c #5C8B5EFD308E",
"X  c #60FE626C3E0D",
"o  c #4C124C6047DD",
"O  c #5E695FAA4938",
"+  c #4F0E512C5329",
"@  c #54B854EA5319",
"#  c #5C3A5C6A5C96",
"$  c #722872B554A1",
"%  c #7D6E7F54507D",
"&  c #5C5E60B86480",
"*  c #66446637662A",
"=  c #6BEA6C116AFA",
"-  c #74A075636385",
";  c #75AA75B46B78",
":  c #7A057A3C6EFB",
">  c #64B86CA57354",
",  c #73AF73B573E1",
"<  c #7C5B7CAF7D58",
"1  c #AB4826F32616",
"2  c #AC102A5D297F",
"3  c #A3BB366E3590",
"4  c #AAF23120304A",
"5  c #A05F3D1B3C3E",
"6  c #AA893DED3CCF",
"7  c #CA4410911012",
"8  c #D215178A1738",
"9  c #D6601FA31F68",
"0  c #D5C027A9276D",
"q  c #D5332F6A2F2F",
"w  c #D4123668362D",
"e  c #D2EC3D843D49",
"r  c #9EF544C943EC",
"t  c #9E5450124F34",
"y  c #B19D4C374B86",
"u  c #80C67E387CF3",
"i  c #A19A62A361F2",
"p  c #A1FD759274A2",
"a  c #B74C72CF71EF",
"s  c #BDFD786477F7",
"d  c #D22244AB446F",
"f  c #D2324C0D4BD1",
"g  c #D1DA532A52EF",
"h  c #D1705A3759FC",
"j  c #CDA9667E663E",
"k  c #8FEB93F431DE",
"l  c #96959AC635D2",
"z  c #98839C863BBC",
"x  c #8194837153E1",
"c  c #821F838E5D10",
"v  c #87F888EA6A29",
"b  c #9579972E6F48",
"n  c #CB46CD157B25",
"m  c #D0EED3787FBF",
"M  c #73867AEA8185",
"N  c #8336842284FD",
"B  c #84A086CD88F2",
"V  c #863389958CDD",
"C  c #8FC78FD08FD2",
"Z  c #829389799116",
"A  c #8D888F74915D",
"S  c #8D2691D496C1",
"D  c #949E94B894AE",
"F  c #9CE39D4E9564",
"G  c #930C96689965",
"H  c #95BD9B009F06",
"J  c #9DE19DE49D1E",
"K  c #A5FF879086C1",
"L  c #BC5F8EA58DD7",
"P  c #AEB2948393FB",
"I  c #BC3B93329269",
"U  c #BD2598AB97E2",
"Y  c #BED09C939BCA",
"T  c #A0DBA1708725",
"R  c #A612A6988BD6",
"E  c #A791A0789FA0",
"W  c #9A919F64A444",
"Q  c #9718A05FA7EB",
"!  c #A366A38AA3B0",
"~  c #A1A2A620A9E0",
"^  c #AB2BAB37AA99",
"/  c #AAC8B383BB23",
"(  c #B6B0B6BAB6C3",
")  c #B83CB836B8C5",
"_  c #B908B906B92F",
"`  c #C2C38DBD8CF4",
"'  c #CB708EDC8E17",
"]  c #C2B3A3C8A2FF",
"[  c #C563B082AFBC",
"{  c #D429D616819E",
"}  c #D7C2DA38858E",
"|  c #DAB8DD428A48",
" . c #B16BBD49C762",
".. c #BF3EC70FCDC0",
"X. c #C4DCC4DBC4E6",
"o. c #CA16C21AC156",
"O. c #C538C999CD5F",
"+. c #CC76CC86CD06",
"@. c #C6B2CE21D49E",
"#. c #C991CFABD552",
"$. c #CCBAD280D771",
"%. c #C7F1D29DDBE7",
"&. c #CCA5D3D5DA0A",
"*. c #D372D369D39C",
"=. c #DFCED18ED126",
"-. c #D1E7D731DC16",
";. c #D714D9B7DC43",
":. c #DCB7DD05DD50",
">. c #E39CE408E405",
",. c #EA63E78FE764",
"<. c #E69CE8E0E8E6",
"1. c #EAC0EAC1EAC1",
"2. c #EE22F09CF0A2",
"3. c #F27DF2A7F2BF",
"4. c #F86FF861F8EB",
"5. c #FEB0FEB5FEB5",
/* pixels */
"5.5.5.5.5.5.5.5.>.D P H W F J D ,.5.5.5.5.5.5.5.",
"5.5.4.;.+.+.+.*.! ^ >.>.>.>.>.Q ( +.+.+.*.4.5.5.",
"5.5.1.^ *.+.O.o.o.:.>.:.:.>.>.:.X.+.+.*.! 1.5.5.",
"5.5.,.) 5.3.1.,.;.$.*.:.>.:.*.+.*.,.2.4.) 1.5.5.",
"5.5.1.( 4.3.2.o.u v - *.>.*.= $ X ^ 3.5.( 1.5.5.",
"5.5.1.) 4.2.1._ T m % X.>.+.- n k F 3.4.( 1.5.5.",
"5.5.1.( 4.2.2._ R m x +.>.+.- { l F 3.4.( 1.5.5.",
"5.5.1.( 4.3.2._ R } x +.>.+.; { z F 3.4.( ,.5.5.",
"5.5.1.( 4.3.2.) R | x +.,.$.: } z F 4.5.( <.5.5.",
"5.5.,.) 1.( ! N : b O < N , o c . @ u G ^ 1.5.5.",
"5.5.<.) ,.N W H Q J G V B N V A Z M >   J 1.5.5.",
"5.5.1.) ,.S &.&.;.-.;.;.:.;.-.&.&.%. .+ J 1.5.5.",
"5.5.1._ 2.D O.-.&.-.-.;.;.-.-.&.$.%.W , ( 1.5.5.",
"5.5.1.( 4.^ ~ -.&.&.*.$.&.&.$.$.%.%.> G ( 1.5.5.",
"5.5.1.( 4.;.B O.-.#.@.@.@.@.@.@.&./ + ;.( 1.5.5.",
"5.5.1.( 4.3.J S $.$.@.@.@.@.@.@...& C 4.( ,.5.5.",
"5.5.1.( 4.3.:.B D $.-.$.$.$.-.O.= = ,.4.) 1.5.5.",
"5.5.1.) 4.3.1.;.N < ( +.+.O.Q # ; ;.3.4.( <.5.5.",
"5.5.1.( 4.3.1.1.:.! , # # @ * E :.1.3.4.( 1.5.5.",
"5.5.1.( 4.3.1.1.>.>.:.+.X.+.:.,.1.1.3.4.( 1.5.5.",
"5.5.1.) 5.3.2.1.<.>.>.>.>.>.,.<.1.2.2.5._ ,.5.5.",
"5.5.1.p ' ' ` ` L L I I I I U Y Y ] [ X.D >.5.5.",
"5.5.1.6 7 7 8 9 0 q w e d f g h j j s P < ,.5.5.",
"5.5.5.=.L a y 4 2 1 2 2 4 3 5 r t i K P *.5.5.5."
};
