/* XPM */
static char *___svg[] = {
/* columns rows colors chars-per-pixel */
"24 24 128 2 ",
"   c #38E93AD13C7A",
".  c #5C8B5EFD308E",
"X  c #60FE626C3E0D",
"o  c #4C124C6047DD",
"O  c #5E695FAA4938",
"+  c #4EF85111530F",
"@  c #550C553E537C",
"#  c #5CA85CDB5D19",
"$  c #722872B554A1",
"%  c #7D6E7F54507D",
"&  c #5C6160BB6483",
"*  c #66EB66DD66EE",
"=  c #6BEB6C126AFB",
"-  c #74A075636385",
";  c #75AA75B46B78",
":  c #79D37A106EC7",
">  c #646D6C5B72D4",
",  c #69CF6E767283",
"<  c #6FAA70997173",
"1  c #7402740D7445",
"2  c #7C4B7CA07D44",
"3  c #BD584EE74860",
"4  c #AC6155E05010",
"5  c #A6956C5B43EE",
"6  c #A7B377B941CA",
"7  c #A7526F4A583C",
"8  c #A4BA68586437",
"9  c #E39F547A4196",
"0  c #FFFF5F6B4A84",
"q  c #E9D167D947C9",
"w  c #FDDD70CD4E74",
"e  c #F1677B1F4D84",
"r  c #8FEB93F431DE",
"t  c #96959AC635D2",
"y  c #98839C863BBC",
"u  c #8194837153E1",
"i  c #821F838E5D10",
"p  c #A81B811D4332",
"a  c #A8E48A1344C0",
"s  c #A87292724781",
"d  c #A5D79CC24D0E",
"f  c #A259A2B2557A",
"g  c #87FB88ED6A2C",
"h  c #957C97316F4B",
"j  c #817281B277D4",
"k  c #964F976B7016",
"l  c #AF6F83BA77AB",
"z  c #F8F78F9654D2",
"x  c #F7699EC45930",
"c  c #F5C6AC8E5CB2",
"v  c #F3E9B90F5F41",
"b  c #CEA08DCD73CB",
"n  c #D110866A7362",
"m  c #CC659491745B",
"M  c #CA879B78755E",
"N  c #C83DA96C7854",
"B  c #C7E3B3CA7C33",
"V  c #CB46CD157B25",
"C  c #F30CC5CC6455",
"Z  c #F28DD26B6954",
"A  c #F295DE636E69",
"S  c #F29DE9F8734D",
"D  c #F288F1967C8E",
"F  c #73887AEC8188",
"G  c #8324840F84EB",
"H  c #84A086CD88F2",
"J  c #863389958CDD",
"K  c #8DD98DDC8DDD",
"L  c #958196A78BC5",
"P  c #9BF89D05895A",
"I  c #829389799116",
"U  c #8D828F6E9157",
"Y  c #8D2691D396C4",
"T  c #944D94CD9533",
"R  c #9BCD9C5A9481",
"E  c #92F2963A994A",
"W  c #95B59AF89EFF",
"Q  c #9D359D3C9C63",
"!  c #B0228F4789DF",
"~  c #A02DA00F9FF4",
"^  c #A076A10B86C0",
"/  c #A5ADA6338B72",
"(  c #A384A45E9C17",
")  c #AB27ABDB9EDB",
"_  c #9A799F4CA42C",
"`  c #96E5A02DA7C6",
"'  c #A43AA460A48C",
"]  c #AC3DAC51ABC6",
"[  c #AAC8B383BB24",
"{  c #B685B691B699",
"}  c #B81DB816B8A7",
"|  c #BA1CBA28BA45",
" . c #C796C5D6855C",
".. c #D429D616819E",
"X. c #D7C4DA3A8590",
"o. c #DABBDD458A4B",
"O. c #C8EDC9BD93EE",
"+. c #F2BAF2C39008",
"@. c #E857E8739D81",
"#. c #CA44CB0DA0AF",
"$. c #CCEACDB3AED0",
"%. c #DB28DB6CBC20",
"&. c #E027E063ABFC",
"*. c #F373F36BA63A",
"=. c #F661F657BE1A",
"-. c #B12BBCFBC715",
";. c #BF3EC70FCDC0",
":. c #C462C47CC45B",
">. c #C538C995CD63",
",. c #CCCDCCF0CDAF",
"<. c #D168C4CDC37A",
"1. c #C6B2CE21D49E",
"2. c #C991CFABD552",
"3. c #CCBBD280D772",
"4. c #C7F2D29EDBE8",
"5. c #CCA5D3CDDA05",
"6. c #D390D396D3C0",
"7. c #D1E7D72FDC13",
"8. c #D714D9B7DC43",
"9. c #DD09DD5EDD85",
"0. c #FDD4FDC4DADE",
"q. c #E3B1E3C3E3C2",
"w. c #E9FDE611E605",
"e. c #E864E869E863",
"r. c #EA65EA5DEA5D",
"t. c #F295F293F2AD",
"y. c #F808F7FBF886",
"u. c #FEE2FEE3FEE3",
/* pixels */
"u.u.u.u.u.u.u.u.9.K Q Q Q Q Q K q.u.u.u.u.u.u.u.",
"u.u.u.,.:.:.:.:.Q { q.q.q.q.q.' ] :.:.:.:.u.u.u.",
"u.u.r.] 8.6.6.,.,.9.q.q.9.q.q.9.,.6.6.8.' r.u.u.",
"u.u.r.{ u.t.r.q.6.6.6.9.q.9.6.,.6.w.t.y.| e.u.u.",
"u.u.r.{ u.r.t.:.j g - 5.q.6.= $ X ] t.u.{ r.u.u.",
"u.u.r.{ u.t.r.| ^ ..% ;.9.,.; V r R t.y.{ r.u.u.",
"u.u.r.{ y.t.r.| / X.% ;.q.,.; ..t R t.u.{ r.u.u.",
"u.u.r.{ y.t.r.| / X.6 ,.q.,.; ..t R t.y.{ r.u.u.",
"u.u.e.} y.t.t.| / o.u ,.e.,.: X.y Q y.u.} e.u.u.",
"u.u.e.} t.{ ' H : h O 2 G 1 o i . @ 2 T ] e.u.u.",
"u.u.e.} q.G W W ` ` E J H H J Y I F >   Q r.u.u.",
"u.u.e.} e.U 2.7.5.7.8.8.8.8.7.5.5.4.-.+ ( r.u.u.",
"u.u.r.| t.T ;.7.6.7.7.8.8.8.7.5.2.4._ , { r.u.u.",
"u.u.r.{ u.] ` 8.5.5.5.5.5.5.3.3.4.4.> Q { r.u.u.",
"u.u.q.| y.6.H >.7.3.2.1.1.1.1.1.4.[ o 8.| q.u.u.",
"u.u.r.{ y.t.~ Y 5.2.1.1.>.1.1.1.>.& U u.} r.u.u.",
"u.u.r.{ u.t.q.G Y ;.7.7.5.5.7.>., * q.u.{ e.u.u.",
"u.u.r.} y.r.t.6.I 8 [ 3.,.>.~ # < 8.t.y.{ w.u.u.",
"u.u.r.| u.t.r.r.9.' < # # + > ' q.t.t.y.{ r.u.u.",
"u.u.r.] r.q.q.9.8.8.2.$.| $.2.9.9.9.q.r.] r.u.u.",
"u.u.w.8 n n b m m M N B B B  . .O.#.$.,.R 9.u.u.",
"u.u.w.3 0 w e z x c v C Z A S D +.*.=.0.) 6.u.u.",
"u.u.r.4 9 q e z c c v C Z S S D +.@.&.%.L 9.u.u.",
"u.u.u.<.! l 7 5 5 6 p a s d f f f k P ( :.u.u.u."
};
