/* XPM */
static char *___svg[] = {
/* columns rows colors chars-per-pixel */
"24 24 127 2 ",
"   c #38E93AD13C7A",
".  c #2FA74F512FA8",
"X  c #24A05C3D24AB",
"o  c #2C17534D2C0F",
"O  c #2D845C942D82",
"+  c #30D9499830F6",
"@  c #37FB452A3866",
"#  c #33CC5C9733CC",
"$  c #3C7C5B4A3CD9",
"%  c #22F7647222F0",
"&  c #237E6CF4237E",
"*  c #2602714C2602",
"=  c #345B74E9345B",
"-  c #31BE7DC831B1",
";  c #3A9B74163A98",
":  c #5C8B5EFD308E",
">  c #60FE626C3E0D",
",  c #454F48D14631",
"<  c #4C124C6047DD",
"1  c #418454134177",
"2  c #5E695FAA4938",
"3  c #4EF752AA5359",
"4  c #554855B951FB",
"5  c #510C59ED50F9",
"6  c #43DA721F4432",
"7  c #513763165137",
"8  c #583765945837",
"9  c #5E7A68455E7A",
"0  c #5C9272C85F19",
"q  c #722872B554A1",
"w  c #7D6E7F54507D",
"e  c #5BF760546417",
"r  c #63FB698E63FB",
"t  c #6C2F6C2D686E",
"y  c #63FF7E8C63FF",
"u  c #74A075636385",
"i  c #75AA75B46B78",
"p  c #79D37A106EC7",
"a  c #646D6C5B72D4",
"s  c #68DF6E6F7358",
"d  c #752B754575A5",
"f  c #740F7BD9740A",
"g  c #7CC37CE07D98",
"h  c #0DAB82CE0DAB",
"j  c #1177894F1177",
"k  c #1D05830A1D05",
"l  c #209E8824209E",
"z  c #2BD285EB2BD2",
"x  c #373E86B7373E",
"c  c #399288963992",
"v  c #422186354220",
"b  c #44C988CF44C9",
"n  c #51878AF45187",
"m  c #5FC186DE5FC1",
"M  c #5CB48C6F5CB4",
"N  c #6433833D652D",
"B  c #6CD0853A6D9B",
"V  c #69D788F969D2",
"C  c #69D2910769D2",
"Z  c #73ED8BE576A2",
"A  c #76E28A617C30",
"S  c #75D1957D75D0",
"D  c #73E1999773E1",
"F  c #8FEB93F431DE",
"G  c #96959AC635D2",
"H  c #98839C863BBC",
"J  c #8194837153E1",
"K  c #821F838E5D10",
"L  c #87FB88ED6A2C",
"P  c #957C97316F4B",
"I  c #817281B277D4",
"U  c #CB46CD157B25",
"Y  c #D0F1D37B7FC2",
"T  c #73887AEC8188",
"R  c #7C408B91831A",
"E  c #827683B78466",
"W  c #80848D3C874F",
"Q  c #84C986F5891A",
"!  c #8A708B2C8A75",
"~  c #82589C7A8257",
"^  c #85BE90D58CCE",
"/  c #8B619DEB8B61",
"(  c #829389799116",
")  c #8D828F6E9157",
"_  c #8D21914D96BB",
"`  c #943194D5947E",
"'  c #9CE69D519567",
"]  c #921695409910",
"[  c #9D829DC09CF1",
"{  c #A02DA00F9FF4",
"}  c #8FDDA2738FDD",
"|  c #9E79ABA39E79",
" . c #A076A10B86C0",
".. c #A5ADA6338B72",
"X. c #9A799F4CA42C",
"o. c #A399A407A3A2",
"O. c #A08CADAEA08C",
"+. c #A1A2A620A9E1",
"@. c #AAFBAB3FAA82",
"#. c #ABC6B437ABC3",
"$. c #AADFB397BB3A",
"%. c #B672B6A5B678",
"&. c #B81DB816B8A7",
"*. c #B9B4BA44B9C6",
"=. c #BDD8C356BDD8",
"-. c #D429D616819E",
";. c #D7C4DA3A8590",
":. c #DABBDD458A4B",
">. c #B12BBCFBC715",
",. c #BDA5C566CC0A",
"<. c #C448C4F0C44F",
"1. c #C277C995D012",
"2. c #CCBACCB6CD3C",
"3. c #CF08D19FCF08",
"4. c #C68ECD98D42F",
"5. c #C8DCCEDED4B5",
"6. c #C7F2D29EDBE8",
"7. c #CC33D3B2DA3E",
"8. c #D306D339D32F",
"9. c #D1ECD739DC37",
"0. c #D714D9B7DC43",
"q. c #DCC7DD4EDD8D",
"w. c #E413E48CE412",
"e. c #EA24EA1AEA24",
"r. c #F30CF2FCF325",
"t. c #F808F7FBF886",
"y. c #FF39FF39FF39",
/* pixels */
"y.y.y.y.y.y.y.y.w.` { [ { [ { ` e.y.y.y.y.y.y.y.",
"y.y.t.0.2.2.2.3.o.@.w.w.q.w.w.{ %.3.2.2.8.t.y.y.",
"y.y.e.@.8.2.2.<.<.q.w.q.q.w.w.0.<.<.2.8.o.e.y.y.",
"y.y.e.&.y.r.e.w.0.3.8.q.w.q.8.2.0.w.r.y.&.e.y.y.",
"y.y.e.%.t.r.r.<.I L u 2.w.8.t q > @.r.t.%.e.y.y.",
"y.y.e.%.t.r.e.&. .Y w 2.q.2.i U F ' r.t.%.e.y.y.",
"y.y.e.%.t.r.e.&...;.J 2.w.2.i -.G ' r.t.%.e.y.y.",
"y.y.e.%.t.r.r.&...;.w 2.w.2.i -.G ' r.t.%.e.y.y.",
"y.y.e.&.t.r.r.&...:.J 2.w.8.d ;.H ' t.y.%.e.y.y.",
"y.y.e.%.r.%.o.T p P 2 g E d < K : 4 T ' @.e.y.y.",
"y.y.e.&.w.E X.X.X.X.] ! Q Q Q _ ( T a   [ e.y.y.",
"y.y.e.&.e.) 5.9.8.9.9.q.0.0.9.7.6.6.>.3 { e.y.y.",
"y.y.e.&.r.` ,.9.9.9.9.0.0.0.8.7.7.6.X.d %.e.y.y.",
"y.y.e.%.y.@.+.9.7.8.7.7.7.7.7.7.7.6.s ] %.e.y.y.",
"y.y.e.%.y.8.Q 1.7.7.7.5.5.5.4.4.6.$.< 0.&.e.y.y.",
"y.y.e.%.t.e.{ _ 2.4.1.1.1.1.1.1.,.e ! r.%.e.y.y.",
"y.y.e.y D D C # 0 Z A A R R ^ W 3 , o.*.! q.y.y.",
"y.y.e.& h * z - % X 6 m N B 0 @ 5 #.<.0.` 8.y.y.",
"y.y.w.* j l z x v ; O o . + 1 f #.=.3.w.[ 8.y.y.",
"y.y.w.* j l z x v n M m V Z / O.#.=.3.w.[ 8.y.y.",
"y.y.e.* j l z c b n C C S ~ } | #.=.3.w.[ 8.y.y.",
"y.y.e.* j l z c b n M C S ~ } | #.=.8.w.| 8.y.y.",
"y.y.e.* h k z x b n M C S ~ } | #.%.*.<.E 8.y.y.",
"y.y.t.S = % X X % # $ $ 5 7 8 9 9 r d ` @.r.y.y."
};
