/* XPM */
static char *___svg[] = {
/* columns rows colors chars-per-pixel */
"24 24 150 2 ",
"   c #36CC3AEC389E",
".  c #38E93AD13C7A",
"X  c #1C0553B61C05",
"o  c #19215FDB19E8",
"O  c #1DCA6E821DC0",
"+  c #18AC75B418AC",
"@  c #1CB178361CB3",
"#  c #2F5A4EEC2F5A",
"$  c #215252B82152",
"%  c #210D5C6E210D",
"&  c #2A5F53682A5A",
"*  c #2EF95EB82EF0",
"=  c #3087493330A1",
"-  c #38E0584038E0",
";  c #23DE6B9023E4",
":  c #2B0064062B51",
">  c #24007489259C",
",  c #2D2A72152ED0",
"<  c #2DE56CB230C6",
"1  c #32BD6B5132BD",
"2  c #38506F3E3BFA",
"3  c #3A7074213A68",
"4  c #5C8B5EFD308E",
"5  c #60FE626C3E0D",
"6  c #4C124C6047DD",
"7  c #412D53AF411C",
"8  c #43F35BE543F3",
"9  c #5E695FAA4938",
"0  c #4C7A520451C7",
"q  c #4E785A5F539C",
"w  c #554855B951FB",
"e  c #54F65AC15527",
"r  c #52DD589D5B4A",
"t  c #40446FC34439",
"y  c #489570824CE9",
"u  c #496F799C4A20",
"i  c #5339608B5339",
"p  c #58A6626F58A6",
"a  c #50FE725655DE",
"s  c #58E074DC5E5D",
"d  c #722872B554A1",
"f  c #7D6E7F54507D",
"g  c #670F695D670F",
"h  c #6C2F6C2D686E",
"j  c #63C178FC677F",
"k  c #74A075636385",
"l  c #75AA75B46B78",
"z  c #79D37A106EC7",
"x  c #646D6C5B72D4",
"c  c #6B5B7A6A7446",
"v  c #724572FB731E",
"b  c #70887DA3707C",
"n  c #7CC37CE07D98",
"m  c #0D5D82BB0D5D",
"M  c #116E8A01116E",
"N  c #1CB184B81CB1",
"B  c #1F2C888E1F2B",
"V  c #1FBD88021FBD",
"C  c #1FED883C1FED",
"Z  c #2BDF868B2BDF",
"A  c #35E0850635DE",
"S  c #392987ED3929",
"D  c #398488483984",
"F  c #420A85E64209",
"G  c #44CE88D644CE",
"H  c #484F84AF4C3E",
"J  c #51898B625189",
"K  c #52B085E557ED",
"L  c #571E88E85AA6",
"P  c #5CB88C985CB8",
"I  c #5D8D886263AC",
"U  c #61DC8B4E65E5",
"Y  c #67C28B776EE5",
"T  c #6B8F8A1A6BF4",
"R  c #69D6910E69D6",
"E  c #6C3E8E867105",
"W  c #750B8E05759E",
"Q  c #7425823D7BEB",
"!  c #7E7280887E7A",
"~  c #727C8FEF7AC1",
"^  c #75D3958275D3",
"/  c #77F093987D8F",
"(  c #8FEB93F431DE",
")  c #96959AC635D2",
"_  c #98839C863BBC",
"`  c #8194837153E1",
"'  c #821F838E5D10",
"]  c #87FB88ED6A2C",
"[  c #957C97316F4B",
"{  c #817281B277D4",
"}  c #CB46CD157B25",
"|  c #D0F1D37B7FC2",
" . c #73887AEC8188",
".. c #7B68899F867C",
"X. c #7DC995AB874D",
"o. c #82DA84558478",
"O. c #83AD865288F0",
"+. c #863389958CDD",
"@. c #83199BDD8319",
"#. c #8A37917E8A37",
"$. c #864299D28D50",
"%. c #8BBB9E458BBA",
"&. c #8D828F6E9157",
"*. c #8A53903396C6",
"=. c #8A2A9DB49593",
"-. c #8F639F889C5F",
";. c #95019549955B",
":. c #9CE69D519567",
">. c #959D9D899DD3",
",. c #9B769CF69BBF",
"<. c #A02DA00F9FF4",
"1. c #904AA2DF904A",
"2. c #95C0A2089F2A",
"3. c #9E82ABAC9E82",
"4. c #A076A10B86C0",
"5. c #A5ADA6338B72",
"6. c #97B49F9CA2BF",
"7. c #99BB9F8CA258",
"8. c #9827A1B6A6AD",
"9. c #97ACA0EFA89F",
"0. c #A423A42DA430",
"q. c #A44AAB9DA43A",
"w. c #AAB4AABCA9ED",
"e. c #AEBEB971AEB6",
"r. c #B64CB699B651",
"t. c #B4ACBA2DB4AC",
"y. c #B81DB816B8A7",
"u. c #B945B927B966",
"i. c #BDD9C357BDD9",
"p. c #D7C4DA3A8590",
"a. c #DABBDD458A4B",
"s. c #B12BBCFBC715",
"d. c #C48CC571C492",
"f. c #C109C729CD45",
"g. c #CCDCCCE2CD58",
"h. c #CF9CD0FDCF9C",
"j. c #C80ACFC3D681",
"k. c #C82ED33EDD31",
"l. c #CCBBD4A3DBA2",
"z. c #D287D2F7D2BB",
"x. c #D282D79EDCB0",
"c. c #D729DA36DD98",
"v. c #DC91DD6ADE56",
"b. c #D38DDA22E077",
"n. c #E441E480E440",
"m. c #E816E868E816",
"M. c #EA42EA41EA41",
"N. c #F292F286F2B0",
"B. c #F808F7FBF886",
"V. c #FF4BFF4BFF4B",
/* pixels */
"V.V.V.V.V.V.V.V.v.;.<.<.<.<.<.;.m.V.V.V.V.V.V.V.",
"V.V.B.x.g.g.g.h.w.w.n.n.v.v.v.<.r.g.g.g.z.B.V.V.",
"V.V.M.w.x.g.g.d.d.v.n.v.v.n.m.v.d.g.g.z.0.M.V.V.",
"V.V.M.u.B.N.M.n.x.h.z.v.n.v.z.g.z.M.N.B.y.M.V.V.",
"V.V.M.r.B.N.N.d.{ ] k h.n.h.h d 5 w.N.B.r.M.V.V.",
"V.V.M.r.B.N.M.y.4.| f d.n.g.k } ( :.N.B.r.M.V.V.",
"V.V.M.r.B.N.N.u.5.p.` g.n.g.l | ) :.N.B.r.M.V.V.",
"V.V.M.r.B.N.M.u.5.p.f g.n.g.z | ) :.B.B.r.M.V.V.",
"V.V.m.y.B.N.N.y.5.a.` g.n.z.z p._ ,.B.V.r.m.V.V.",
"V.V.m.y.N.r.0.o.z [ 9 n o.v 6 ' 4 w n ;.w.M.V.V.",
"V.V.m.u.n.o.>.6.<.7.;.+.O.o.+.*.+. .x . ,.M.V.V.",
"V.V.m.y.m.&.j.x.x.x.x.v.b.b.x.l.l.k.s.0 8.M.V.V.",
"V.V.M.u.N.;.f.b.x.x.x.c.v.c.x.z.l.k.9.v r.M.V.V.",
"V.V.M.#.e.n Q 2.2.>.>.>.7.7.7.7.6.8.r v ;.n.V.V.",
"V.V.n.: + O o < 2 t y a s j c n ..c   w.o.h.V.V.",
"V.V.n.; M V @ > D H K I Y ~ X.=.-.0 ! n.,.g.V.V.",
"V.V.n.; M C Z ; , H L U E / $.$.q e d.m.>.h.V.V.",
"V.V.n.; M C Z A : : u P T W j 7 w r.h.m.>.h.V.V.",
"V.V.n.; M C Z D F 3 * & # = 7 b q.i.h.n.:.h.V.V.",
"V.V.n.; M B Z D G J P P T W %.3.e.i.h.m.:.h.V.V.",
"V.V.n.; M C Z D G J P R ^ @.1.3.e.i.z.n.;.h.V.V.",
"V.V.n.; M C Z D G J P T ^ @.1.3.e.i.h.M.,.h.V.V.",
"V.V.n.; m N Z S F J P R ^ @.1.3.w.t.i.d.! z.V.V.",
"V.V.N.T 1 % X $ & * - 8 8 i i p p e e g o.m.V.V."
};
