/* XPM */
static char *___svg[] = {
/* columns rows colors chars-per-pixel */
"24 24 144 2 ",
"   c #32EE360E358B",
".  c #357E378338D6",
"X  c #1F8B530C1F8B",
"o  c #0D1B7F410D1B",
"O  c #103874A41060",
"+  c #158E7E481594",
"@  c #1B0F762E1B6D",
"#  c #1FE44EF61FE4",
"$  c #271D50EE271D",
"%  c #2D5F52C72D5A",
"&  c #2EF95EB82EF0",
"*  c #3087493330A1",
"=  c #3652549A3652",
"-  c #3DA056E13DA0",
";  c #38015BB439DE",
":  c #1F9C7BDC2152",
">  c #222D633F222D",
",  c #23596903235F",
"<  c #2CFE63B12D4E",
"1  c #243873EB25D6",
"2  c #2D2A72152ED0",
"3  c #2E287B6C30F5",
"4  c #3A7074213A68",
"5  c #389F7BC43B84",
"6  c #5D215F963132",
"7  c #60FE626C3E0D",
"8  c #438A47A1465C",
"9  c #4CAE4CFD4880",
"0  c #412D53AF411C",
"q  c #447A593C447A",
"w  c #491851F44F7F",
"e  c #4B675BF54B67",
"r  c #55DC565152A0",
"t  c #54425C6B5463",
"y  c #596C5C78596C",
"u  c #5F07604749DC",
"i  c #443A7DB64752",
"p  c #4BC5763D4BC5",
"a  c #496F799C4A20",
"s  c #557E6CD2557E",
"d  c #54567C0A5441",
"f  c #527173E75878",
"g  c #722872B554A1",
"h  c #7D6E7F54507D",
"j  c #595460786241",
"k  c #5CC364666A33",
"l  c #5B9375AF614A",
"z  c #64B46695662A",
"x  c #6A1E6B08682C",
"c  c #6014769764FC",
"v  c #664C796B6793",
"b  c #65DD787169AD",
"n  c #6BD07B266E67",
"m  c #74A075636385",
"M  c #75AA75B46B78",
"N  c #7A1F7A5E6F1A",
"B  c #6C9D750679FD",
"V  c #72E974167329",
"C  c #711F7D867324",
"Z  c #74337E417AC1",
"A  c #7B077C7D7CEB",
"S  c #0C6D80290C69",
"D  c #119A8A1F1199",
"F  c #1CFA84AE1CF7",
"G  c #1FCD883C1FCD",
"H  c #2BD086BA2BCF",
"J  c #33D5839A3566",
"K  c #392987EC3929",
"L  c #398488453984",
"P  c #3D68835C4132",
"I  c #420A85E64209",
"U  c #44D288DC44D2",
"Y  c #489984A94C97",
"T  c #518C8B67518C",
"R  c #547186A458F4",
"E  c #571E88E85AA6",
"W  c #5CBC8C9E5CBC",
"Q  c #5E3E873E61A8",
"!  c #5E1F880A63C2",
"~  c #61958AF565BE",
"^  c #67568AB86E74",
"/  c #697D89F46BC4",
"(  c #69DD911769DD",
")  c #6C6E8E9C711C",
"_  c #74928DA675F9",
"`  c #71F08F247A2D",
"'  c #75DA958B75D9",
"]  c #766D92607C96",
"[  c #8FEB93F431DE",
"{  c #96959AC635D2",
"}  c #98839C863BBC",
"|  c #8194837153E1",
" . c #87FB88ED6A2C",
".. c #961997CE6FF0",
"X. c #CB46CD157B25",
"o. c #7D617EA8803F",
"O. c #762580108072",
"+. c #7AFC8197858B",
"@. c #7D8993F58555",
"#. c #8450847D84CC",
"$. c #81F287908DCD",
"%. c #8C038D758C0D",
"&. c #83AD965B83AD",
"*. c #83209BE58320",
"=. c #853796628CF0",
"-. c #8BBB9E458BBA",
";. c #8A438CCE90E5",
":. c #8C88936D96CF",
">. c #8A5A9D5694EE",
",. c #8E0B9D7E99F9",
"<. c #955895619555",
"1. c #96F8986096F8",
"2. c #9CE69D519567",
"3. c #92F996F09C37",
"4. c #9D319D959C40",
"5. c #904EA2E5904E",
"6. c #9E89ABB39E89",
"7. c #A076A10B86C0",
"8. c #A5ADA6338B72",
"9. c #9641A634A2FF",
"0. c #9852A59AA6F6",
"q. c #A448A454A459",
"w. c #A08AADACA08A",
"e. c #AACDAAD4AA06",
"r. c #AC06B50AAC05",
"t. c #A11DAEF4B0A8",
"y. c #B64EB695B656",
"u. c #B3D4B94AB3D4",
"i. c #B81DB816B8A7",
"p. c #B932B92BB974",
"a. c #BE5FC34ABE5F",
"s. c #D429D616819E",
"d. c #D7C4DA3A8590",
"f. c #DABBDD458A4B",
"g. c #C4C4C563C4CB",
"h. c #CD3ECD82CD90",
"j. c #CFCBD1F0CFCB",
"k. c #D2BCD31FD2F9",
"l. c #DE1CDDFDDE17",
"z. c #E41CE412E41B",
"x. c #EA65EA6AEA66",
"c. c #F2A9F2ACF2CB",
"v. c #F808F7FBF886",
"b. c #FF4BFF4BFF4B",
/* pixels */
"b.b.b.b.b.b.b.b.z.<.4.4.4.4.4.<.x.b.b.b.b.b.b.b.",
"b.b.b.k.h.j.h.h.q.e.l.z.z.z.z.q.u.h.h.h.k.v.b.b.",
"b.b.x.e.k.h.h.g.g.l.z.z.l.z.z.l.h.g.h.k.q.x.b.b.",
"b.b.x.i.v.c.x.z.k.k.k.l.l.l.j.h.k.z.c.b.i.x.b.b.",
"b.b.x.i.v.c.c.g.A  .m k.z.k.x g 7 e.c.v.i.x.b.b.",
"b.b.z.i.v.c.x.i.7.s.h g.z.h.M X.[ 2.c.v.i.x.b.b.",
"b.b.x.i.v.c.x.i.8.d.| h.z.h.M s.{ 2.c.v.i.z.b.b.",
"b.b.x.i.v.c.c.i.8.d.h h.l.h.M s.{ 2.c.v.i.x.b.b.",
"b.b.x.y.v.c.c.p.8.f.| h.x.k.M d.} 6.v.v.p.x.b.b.",
"b.b.x.y.c.y.q.#.N ..u A #.V 9  .6 r A <.e.x.b.b.",
"b.b.x.y.l.o.:.:.3.3.;.o.o.A o.$.+.B k . 1.x.v.b.",
"b.b.z.s d ; f l l c b n V C Z Z O.+.B   x l.b.b.",
"b.b.z.> S O : 3 5 i d Q ^ _ @.=.,.0.+.z %.j.b.b.",
"b.b.z., D + : J P Y R ! ) ] &.>.9.t.j %.4.h.b.b.",
"b.b.z., D F @ J P Y R ! ^ ` @.>.0.:.8 h.1.h.b.b.",
"b.b.z., D F @ 1 P Y R ! ^ ` @.>.3.w _ z.1.h.b.b.",
"b.b.z., D G H , 2 Y E ~ / ] -.=.t r g.x.1.j.b.b.",
"b.b.z., D G H J , < a ~ / ' v 8 t u.k.z.1.j.b.b.",
"b.b.z., D G H L I 4 & $ * * 0 / e.a.j.z.1.j.b.b.",
"b.b.z., D G H L U T W ~ / _ -.w.r.a.j.z.1.h.b.b.",
"b.b.z., D G H L U T W ( ' *.5.6.r.a.j.z.1.j.b.b.",
"b.b.z., D G H L U T W ( ' *.5.6.r.a.j.x.1.h.b.b.",
"b.b.z.> o F H K U T W / ' *.5.6.r.u.a.g.A k.b.b.",
"b.b.c.&.p < X # $ % = - q e r s t r y x %.x.b.b."
};
