/* XPM */
static char *___svg[] = {
/* columns rows colors chars-per-pixel */
"24 24 147 2 ",
"   c #314B3ABB1759",
".  c #35E738893937",
"X  c #1E4C53E31E4C",
"o  c #1B7258BF187A",
"O  c #22164D861B5F",
"+  c #24D957331B78",
"@  c #0B096B160B09",
"#  c #09A173CA09A1",
"$  c #13AC7C8213EE",
"%  c #19CB76311A09",
"&  c #243146152431",
"*  c #26B247D226B2",
"=  c #284746B82847",
"-  c #2EF14BF32EF1",
";  c #39D4467B2546",
":  c #30CB42B82E44",
">  c #21405CA82140",
",  c #2BD652EB2BCC",
"<  c #331A4A953327",
"1  c #3B0E4DAC3B0E",
"2  c #3525525E3525",
"3  c #2FE659B62FE6",
"4  c #1ECA7B31207F",
"5  c #23DF6B8422FE",
"6  c #2C34664A2CD6",
"7  c #342A64D62282",
"8  c #34BC6EE22725",
"9  c #23B274B42520",
"0  c #27207CD32720",
"q  c #2D1B72062EC5",
"w  c #2B757ADD2BAB",
"e  c #3287768E2A51",
"r  c #39F361143A61",
"t  c #3BCF6D273EF1",
"y  c #2E1A738730FD",
"u  c #33F77FEB33F7",
"i  c #36D7724A3AB5",
"p  c #3A6274133A5A",
"a  c #447A4EE723F6",
"s  c #6BE5775B2635",
"d  c #6F5A7AE7284B",
"f  c #70B87C432BF7",
"g  c #439047A84665",
"h  c #4A284CDD4DCA",
"j  c #426F51944269",
"k  c #43C05C814412",
"l  c #4C185EB54569",
"z  c #4A1551964A15",
"x  c #495052254FD4",
"c  c #529156F75291",
"v  c #54E55C23554D",
"b  c #44DA64784506",
"n  c #44FD65FD47E3",
"m  c #4AB465164E0E",
"M  c #5A4D68714011",
"N  c #493E799349F0",
"B  c #528F6792528F",
"V  c #55356A485A27",
"C  c #52C1763952F3",
"Z  c #55F75F21626A",
"A  c #58C75FE461A5",
"S  c #657D6B73657D",
"D  c #61CC6F9F6CC2",
"F  c #6B3A6E456BD1",
"G  c #6668798967AE",
"H  c #5FE970C96859",
"J  c #6BBE72B96BD7",
"K  c #6B787C496B87",
"L  c #71CB773671CA",
"P  c #724C7B9671C0",
"I  c #7B727DDC7B61",
"U  c #0E7B84E80E77",
"Y  c #100C86A1100C",
"T  c #1D4085E31D3A",
"R  c #1F89882F1F89",
"E  c #1FC788C61FC7",
"W  c #258F82892853",
"Q  c #2BDC874F2BDC",
"!  c #2CC4888F2CC5",
"~  c #321D82B93497",
"^  c #385E87B3385E",
"/  c #4BA0866E2E1B",
"(  c #3D96836E4138",
")  c #420785254206",
"_  c #44E888CC44E8",
"`  c #490B84FF4CE2",
"'  c #4F59884D4F59",
"]  c #526A8521577D",
"[  c #51828B3F5182",
"{  c #542686375887",
"}  c #5FC486DF5FC4",
"|  c #572D88A55A5A",
" . c #5BED8B995BED",
".. c #5E20880D63C4",
"X. c #623E85F962AD",
"o. c #62898B6F65FC",
"O. c #66A18C5A6B34",
"+. c #69528BB16B2A",
"@. c #69A290C169A2",
"#. c #6C378E5B70E7",
"$. c #728B8132728B",
"%. c #75F58ECB7672",
"&. c #72548F627A86",
"*. c #754B945975BA",
"=. c #793C94C57B76",
"-. c #8E719CBA5658",
";. c #941EA2925B16",
":. c #810A86D77B13",
">. c #7DD796458500",
",. c #828F84D5828E",
"<. c #80868B178F28",
"1. c #8A2F8BE78A2C",
"2. c #83249BCE8323",
"3. c #8F8E90828FC2",
"4. c #85839B558BB3",
"5. c #8CA69F1E8CA6",
"6. c #88DB954A95F3",
"7. c #8B339DB3952E",
"8. c #8F7A9EBB9C37",
"9. c #913592C49135",
"0. c #9E379E379E37",
"q. c #8E64A0419787",
"w. c #9094A3229094",
"e. c #9989A6729989",
"r. c #9F0AAC0C9F0A",
"t. c #971EA65EA36A",
"y. c #97DFA48AAA99",
"u. c #A415A417A415",
"i. c #A212ACD8A212",
"p. c #AA7CAAC7AA7C",
"a. c #AD6BB56CAD6B",
"s. c #A18AAF88B171",
"d. c #B254B4B4B24F",
"f. c #B855BB2FB855",
"g. c #BE76C3F8BE76",
"h. c #C58FC5E4C591",
"j. c #CBCBCC5ECBCA",
"k. c #CFBDD255CFBD",
"l. c #D2C8D432D2EF",
"z. c #DC63DC60DC64",
"x. c #E070E037E070",
"c. c #E45CE3FCE45C",
"v. c #E820E903E820",
"b. c #E8A1E80BE8A1",
"n. c #E9F2EA4EE9F2",
"m. c #F832F858F832",
"M. c #FFDEFFDEFFDE",
/* pixels */
"M.M.M.M.M.M.M.M.z.9.0.0.0.0.0.9.b.M.M.M.M.M.M.M.",
"M.M.M.l.j.j.j.l.p.p.c.c.z.c.c.u.d.j.j.k.k.m.M.M.",
"M.M.n.p.l.j.j.h.h.z.z.c.z.c.c.l.h.j.j.k.u.b.M.M.",
"M.M.c.S $.P L K J J J J L L F F F I ,.1.F z.M.M.",
"M.M.c.X # % 9 5 o + O C X.K : ;   L d.j.$.j.M.M.",
"M.M.c.> Y R ! w e / 7 } =.%.l -.s :.l.n.9.j.M.M.",
"M.M.c.> U R ! w e / 7 } *.%.l ;.d :.l.b.9.j.M.M.",
"M.M.c.> Y E ! w e / 7 } *.%.l ;.d :.l.b.9.j.M.M.",
"M.M.c.> Y E Q w e / 7 o.*.*.l ;.f :.l.n.9.j.M.M.",
"M.M.x.> Y $ 4 5 5 8 + r b b : M a g J 1.1.j.M.M.",
"M.M.c.> U $ 4 4 q i t b n m V H D S Z . L j.M.M.",
"M.M.x.> U $ W ~ ( ' | o.*.>.4.q.t.s.y.h I j.M.M.",
"M.M.c.> U $ 0 ~ ( ` { O.*.>.4.7.t.s.<.F 1.j.M.M.",
"M.M.c.> Y $ 4 ~ ( ` { ..+.=.2.7.t.s.A 9.9.j.M.M.",
"M.M.c.> Y T % u ( ` ] ..#.&.>.7.y.6.g j.9.j.M.M.",
"M.M.c.> Y R % 9 ( ` ] ..O.&.>.7.8.x $.v.3.j.M.M.",
"M.M.c.> Y E W 5 y ` | X.#.=.4.6.v v h.v.3.j.M.M.",
"M.M.c.> Y E Q ~ 5 6 N X.+.%.G 1 v a.k.v.3.j.M.M.",
"M.M.c.> Y R Q ^ ) p 6 , < - j P a.g.k.v.3.j.M.M.",
"M.M.c.> Y R Q ^ _ [  .} +.%.5.r.a.g.k.c.3.j.M.M.",
"M.M.c.> Y R Q ^ _ [  .@.*.2.w.i.a.g.l.c.3.j.M.M.",
"M.M.c.+ Y R ! ^ _ [  .@.*.2.w.t.a.g.l.n.3.j.M.M.",
"M.M.b.3 @ % 0 ~ ) '  .@.*.:.5.e.i.a.f.d.J k.M.M.",
"M.M.M.f.$.B 2 * & = - 2 1 k j z z c S ,.p.m.M.M."
};
