/* XPM */
static char *___svg[] = {
/* columns rows colors chars-per-pixel */
"24 24 144 2 ",
"   c #360F38B73952",
".  c #138B5716138B",
"X  c #1C8F59071C8F",
"o  c #265C56A41E14",
"O  c #0B9066640B90",
"+  c #13357C791376",
"@  c #1A1E764D1A5D",
"#  c #24AA431024AA",
"$  c #2A9846B32A98",
"%  c #2D1E4DC92D1E",
"&  c #30EC43A02E21",
"*  c #21575A312157",
"=  c #2BD652EB2BCC",
"-  c #2C895B6B2C84",
";  c #32EA4A5932F7",
":  c #3D334DBF3D33",
">  c #322B589D322B",
",  c #3A61545D3A61",
"<  c #1ECF7B332084",
"1  c #24A46B7B2304",
"2  c #2C34664A2CD6",
"3  c #33FE64962256",
"4  c #32746C91266B",
"5  c #302A602D2974",
"6  c #26F57BD226F5",
"7  c #2BE77B2B2C12",
"8  c #326776502A31",
"9  c #3C5860F23C90",
"0  c #2E1A738730FD",
"q  c #338C7EE6338C",
"w  c #36D7724A3AB5",
"e  c #3A6274133A5A",
"r  c #447A4EE723F6",
"t  c #486252212E70",
"y  c #4F265C953A97",
"u  c #6A9B760A24EB",
"i  c #6FB67B322768",
"p  c #70B87C432BF7",
"a  c #3F04679D41CC",
"s  c #439A47B24670",
"d  c #44794CEA43AA",
"f  c #49894DDB4B55",
"g  c #42CE555541A4",
"h  c #43C05C814412",
"j  c #4BD45E6B4525",
"k  c #494D52224FD1",
"l  c #4F0F5A455439",
"z  c #53B5579853B5",
"x  c #54E35C22554C",
"c  c #44DA64784506",
"v  c #44FD65FD47E3",
"b  c #4B13653F4C32",
"n  c #5A4D68714011",
"m  c #493E799349F0",
"M  c #54FB686C54FB",
"N  c #55356A485A27",
"B  c #5B8A6C8D5B8A",
"V  c #56515F93629C",
"C  c #5D53689968AF",
"Z  c #61C564B261C5",
"A  c #61CC6F9F6CC2",
"S  c #6B3C6DC06BC0",
"D  c #6668798967AE",
"F  c #5FE970C96859",
"G  c #6B2F71546B5E",
"H  c #74C7777574BA",
"J  c #7B817DB97B70",
"K  c #0E8284B00E7E",
"L  c #0FC685A80FC6",
"P  c #1E4B87601E4A",
"I  c #1EDB88901EDB",
"U  c #241780BA2681",
"Y  c #259282892856",
"T  c #2BC087302BBF",
"R  c #2C8D88512C8E",
"E  c #3300839B350F",
"W  c #3856879C3856",
"Q  c #387A8808387A",
"!  c #4B6D861A2DE7",
"~  c #4D5087C13046",
"^  c #3D96836E4138",
"/  c #415B84E44161",
"(  c #44EB88D144EB",
")  c #4A01855E4CEE",
"_  c #54F58694578A",
"`  c #51848B435184",
"'  c #542686375887",
"]  c #5FC486DF5FC4",
"[  c #572D88A55A5A",
"{  c #5BD58B7A5BD5",
"}  c #5E20880D63C4",
"|  c #60EA87FC618E",
" . c #62718AE46514",
".. c #66A18C5A6B34",
"X. c #694B8BA96B23",
"o. c #698290D46980",
"O. c #6C378E5B70E7",
"+. c #76058ED3767C",
"@. c #7D51844F7B5A",
"#. c #72548F627A86",
"$. c #752C94FC7586",
"%. c #75D991C97C27",
"&. c #7972946A7B41",
"*. c #8D459B7F552C",
"=. c #941EA2925B16",
"-. c #810D86D77B11",
";. c #7DD796458500",
":. c #84C686B584C6",
">. c #80D18B578F27",
",. c #8A958C3F8A94",
"<. c #84099B95840D",
"1. c #849D980B8BBB",
"2. c #8EBF91198E94",
"3. c #85839B558BB3",
"4. c #8C4D9EAB8C4C",
"5. c #88DB954A95F2",
"6. c #8B339DB3952E",
"7. c #8F7A9EBB9C37",
"8. c #9358949C9357",
"9. c #908A9DB1912F",
"0. c #9EEA9ED09EEA",
"q. c #8E64A0419787",
"w. c #9099A3299099",
"e. c #9865A5299865",
"r. c #9F12AC169F12",
"t. c #971EA65EA36A",
"y. c #982CA4D6AACD",
"u. c #A21BA201A21B",
"i. c #A2DBAAB6A304",
"p. c #AB53ACA7AB53",
"a. c #AD89B467AD89",
"s. c #A188AF87B171",
"d. c #B227B4D0B222",
"f. c #BA84BBA2BA84",
"g. c #BE3BC34FBE3B",
"h. c #C5BDC84CC5BB",
"j. c #CA3ACB3ECA37",
"k. c #D01BD247D01B",
"l. c #D2A2D500D2D0",
"z. c #D611D89ED670",
"x. c #E51CE4BAE51C",
"c. c #E9D7EA45E9D6",
"v. c #F4C4F4F4F4C4",
"b. c #FFDCFFDCFFDC",
/* pixels */
"b.b.b.b.b.b.b.b.z.0.u.0.u.0.u.8.c.b.b.b.b.b.b.b.",
"b.b.v.f.i.p.p.p.:.J p.d.p.d.p.H ,.p.p.i.d.v.b.b.",
"b.b.c.% . X * - > 9 b b M B G G G H @.,.Z k.b.b.",
"b.b.x.* L I T Q / ) _ o.$.<.<.9.r.g.l.c.2.j.b.b.",
"b.b.x.X L P T 7 1 3 5 | $.&.g y t ,.l.x.,.j.b.b.",
"b.b.x.* L P T 7 8 ! 3 ] $.&.j *.u @.l.x.8.j.b.b.",
"b.b.x.* L U T 7 8 ! 3 ] $.+.j =.i -.l.x.2.j.b.b.",
"b.b.x.* L P T 7 8 ~ 3 ] $.+.j =.i @.l.c.2.j.b.b.",
"b.b.x.* K I E 7 8 ~ 3 } $.&.c =.p -.z.c.2.j.b.b.",
"b.b.x.* K + < 1 1 4 o 9 v h & n r s S ,.:.j.b.b.",
"b.b.x.* K + < < 8 w a a v b B F A C V   H j.b.b.",
"b.b.x.X K + Y E / ) [ o.$.<.3.6.y.s.y.f J j.b.b.",
"b.b.x.X K + < E ^ ) ' ..+.;.3.6.t.s.>.S ,.j.b.b.",
"b.b.x.* K + < E ^ ) ' } X.%.<.6.t.s.N 2.8.j.b.b.",
"b.b.x.* L P + E ^ ) ' } ..#.;.6.t.5.s j.2.j.b.b.",
"b.b.x.* K P < 6 a ) ' } ..#.;.6.7.k J c.2.j.b.b.",
"b.b.x.X K P Y 1 0 ) '  .O.;.<.1.l x h.c.2.j.b.b.",
"b.b.x.* K P T E 1 2 m } X.+.D : x d.l.x.2.j.b.b.",
"b.b.x.* L P T W / e 5 = % & g @.a.g.k.x.2.j.b.b.",
"b.b.x.* L P T W ( ` { | X.+.4.t.a.g.k.x.2.j.b.b.",
"b.b.x.* L I T Q ( ` { o.$.<.q.r.a.g.k.c.2.j.b.b.",
"b.b.x.* L I R Q ( ` { o.$.<.w.r.a.g.l.c.2.j.b.b.",
"b.b.x.> O @ 6 q ^ ) [ ..$.&.4.e.i.a.f.p.G z.b.b.",
"b.b.b.g.@.B , $ # $ $ ; : y d d f z S :.d.v.b.b."
};
