/* XPM */
static char *_[] = {
/* columns rows colors chars-per-pixel */
"36 36 243 2 ",
"   c #AB1E2719263A",
".  c #AB5627DF2701",
"X  c #AB4D2B582A7A",
"o  c #BFE22CA12C18",
"O  c #AAE02FD32EFA",
"+  c #AFEA3A3C2F8C",
"@  c #B137369F2E0D",
"#  c #BA233B5028F1",
"$  c #A54636693606",
"%  c #A8BA347B32F3",
"&  c #A72F37DC3530",
"*  c #AF073AEA32F0",
"=  c #A5F53B733B06",
"-  c #A98D3D3E3C24",
";  c #BF1D345033C7",
":  c #B2A13DAA31CF",
">  c #BD0E3AB83A53",
",  c #C11025F52559",
"<  c #CA69237922F0",
"1  c #C05927CB2741",
"2  c #C0B929E92964",
"3  c #CE93294328D7",
"4  c #C196317830F1",
"5  c #C0AA3C533BAC",
"6  c #D13331603104",
"7  c #D1973A4239EE",
"8  c #C00A41842957",
"9  c #AF3241313B0B",
"0  c #B578424D359C",
"q  c #BF1343752FDF",
"w  c #B3AB42C53A34",
"e  c #BAC63FED3F9C",
"r  c #B48748A43EC5",
"t  c #D4BD47A71F86",
"y  c #DF834E441E63",
"u  c #E35E4DE61C26",
"i  c #C26C3FEA25F5",
"p  c #CD9345DE24A5",
"a  c #C18D423628F3",
"s  c #CDF24B6A2CD9",
"d  c #D43F4A852305",
"f  c #DD5F4D5A209D",
"g  c #CDA150412F29",
"h  c #DDE65361276D",
"j  c #D974504D2965",
"k  c #C6344BEE321C",
"l  c #CAF54FD23668",
"z  c #C7FB52CF3975",
"x  c #CA2953F93CD8",
"c  c #DA8655F030E8",
"v  c #DC2A5B08347F",
"b  c #E02A5DEE3A2A",
"n  c #E5FC53732417",
"m  c #E5D356C72A03",
"M  c #E504592F2E51",
"N  c #E64C5DA33442",
"B  c #E81A5F39388D",
"V  c #DC9560E43F4D",
"C  c #E5D462D13CAD",
"Z  c #9F644230416C",
"A  c #9EEE585657A0",
"S  c #A5FB457C4382",
"D  c #ACA5452641E6",
"F  c #A0844E284CED",
"G  c #B8B447824706",
"H  c #B5D94D54453D",
"J  c #BAC84DBE4287",
"K  c #BCF94D5C4C18",
"L  c #BA655045458A",
"P  c #BB3B53664B3B",
"I  c #B256531E5265",
"U  c #B8D652DE51FF",
"Y  c #BF6C5991542C",
"T  c #B7205B7F5B09",
"R  c #A1FA68D96822",
"E  c #A8EA6C2E6B41",
"W  c #B64B670D6690",
"Q  c #B6326D0F6C37",
"!  c #B25B79A1790B",
"~  c #C0A3441F4382",
"^  c #CFE945984544",
"/  c #CF024BE64B91",
"(  c #CA4C5670426D",
")  c #C62658BF4610",
"_  c #CA5458014540",
"`  c #C5505C9F4BB6",
"'  c #CCF15E214B06",
"]  c #C15D55385433",
"[  c #CEA9534452EF",
"{  c #CE905B6D5B19",
"}  c #CCC263A44F2F",
"|  c #D68762E943F0",
" . c #DD82649943D6",
".. c #DE8869A74460",
"X. c #DDFB67074A56",
"o. c #DF4169BA4CA6",
"O. c #C08A612D5641",
"+. c #C15065CB5CE7",
"@. c #C794686C5A90",
"#. c #D4776ADE5367",
"$. c #DB756F6A5792",
"%. c #D23D6D565AEB",
"&. c #D4F2739C56B7",
"*. c #DBDA729056ED",
"=. c #D41472D25BE6",
"-. c #DF3D76D45ACB",
";. c #D69278805C5F",
":. c #E037797A5E35",
">. c #E521666142DF",
",. c #E6B76A99457B",
"<. c #E4006AAE4AF4",
"1. c #E1C46F54528C",
"2. c #E4D974BB53BA",
"3. c #E1B974655862",
"4. c #E3AF7BD25E1E",
"5. c #CE10634262F1",
"6. c #CD536ADD6A8A",
"7. c #D20E6E38640C",
"8. c #CAE675756B1E",
"9. c #D17A771B66FA",
"0. c #DD717CC86341",
"q. c #D2BC72D96A42",
"w. c #C32F747E73B8",
"e. c #C9BD72EA728B",
"r. c #CB44786277A8",
"t. c #C27F7D237C4B",
"y. c #E2AF7ED764DB",
"u. c #D79F8035664E",
"i. c #DEC984C46C30",
"p. c #DE33873D735C",
"a. c #D5E98A727E90",
"s. c #DC9D8AD979F5",
"d. c #DEEF90A67EF5",
"f. c #E4E282126622",
"g. c #E4E084566BD0",
"h. c #E53588F36D67",
"j. c #E46A867B70B3",
"k. c #E6168AB87520",
"l. c #E8768B2972DB",
"z. c #E6148ED07AED",
"x. c #E4D091EE7DA2",
"c. c #E94B91F67C2C",
"v. c #8A69853E843A",
"b. c #96AD964195F6",
"n. c #9D739D709D6F",
"m. c #A504818580BA",
"M. c #AC5A8B038A5F",
"N. c #B8C580BF8002",
"B. c #B9B2903A8FC7",
"V. c #AB1096A0960E",
"C. c #B4969ED19E5D",
"Z. c #A1CAA1EFA1C7",
"A. c #AA91A515A46A",
"S. c #AC24ABF4ABE7",
"D. c #B5F5A0D4A066",
"F. c #B4D3B456B439",
"G. c #BC03B6C5B5B0",
"H. c #BD66BD7EBD7E",
"J. c #C048823F818A",
"K. c #C0A488A687F4",
"L. c #C0BE8C9A8BE9",
"P. c #DC5696CA8238",
"I. c #DE629B768B10",
"U. c #C276934D929B",
"Y. c #C3199AAB99A0",
"T. c #CA499B0E9A7A",
"R. c #D2379DAA9627",
"E. c #DC829F2D9330",
"W. c #E76C9617839D",
"Q. c #E8C4941D8067",
"!. c #E46C99568581",
"~. c #E41D9E2E8EF0",
"^. c #D349A10299DD",
"/. c #DDECAC7E9F9C",
"(. c #E695A4A9947D",
"). c #E9B4A4A6947A",
"_. c #E916A7F199CE",
"`. c #E6A6AACB9CA8",
"'. c #C500A612A54E",
"]. c #D783AC0DA5A1",
"[. c #DC74B25BA7C9",
"{. c #DEA4B44BAB70",
"}. c #C403B36EB30A",
"|. c #CE24BDB8BD5C",
" X c #DD67B82BB101",
".X c #DC9CBC38B4B7",
"XX c #D457BF99BF37",
"oX c #DFA2BE35B843",
"OX c #E797AED9A17F",
"+X c #E34BB349A956",
"@X c #E3EAB95FAF77",
"#X c #E653BC16B318",
"$X c #E8C8BFB5B4C2",
"%X c #CF5BC072C010",
"&X c #DDC8C3E2BEEC",
"*X c #EAB7C046B755",
"=X c #E3DDC65CBE83",
"-X c #C007C05FC075",
";X c #C2CEC2DAC2DD",
":X c #CD3EC368C2EC",
">X c #C7B7C882C89C",
",X c #CD3CCD49CD4B",
"<X c #D611C354C1E3",
"1X c #DB5EC2C0C25C",
"2X c #DC4ACA40C74E",
"3X c #D63EC90FC8A7",
"4X c #DC84CD05CA96",
"5X c #D832D122D048",
"6X c #DF1CD0A8CDBE",
"7X c #D5C3D5AED5AF",
"8X c #DCC7D3C9D2B6",
"9X c #D7EBD8D1D8D4",
"0X c #DDC0DD15DD07",
"qX c #E78CC95DC394",
"wX c #EA3BCA74C342",
"eX c #E3C9CD3ECAB4",
"rX c #EB39CEA1C957",
"tX c #E307D1ECCE5C",
"yX c #EA15D2F6CDF6",
"uX c #E1BBD675D474",
"iX c #E7AFD897D5D9",
"pX c #EC3EDA01D691",
"aX c #E317DDCCDCDC",
"sX c #EA03DD2BDB00",
"dX c #F21BDE30DA27",
"fX c #E7A1E092DED7",
"gX c #EC80E234DF5C",
"hX c #E03AE1A1E206",
"jX c #E3A7E427E442",
"kX c #EB35E621E54C",
"lX c #ED1EE8DBE7A0",
"zX c #E7B9E8E0E901",
"xX c #EC55EC6FEC71",
"cX c #F5D2E635E2FF",
"vX c #F52AE8E7E686",
"bX c #F56CEF99EEC8",
"nX c #F790F08CEFD8",
"mX c #F046F068F076",
"MX c #F022F0B8F0C5",
"NX c #F3B9F3DBF3EA",
"BX c #F700F86EF90E",
"VX c #F6A5F8D5F941",
"CX c #FD5CFD80FD86",
/* pixels */
"CXCXCXCXCXCXCXCXCXCXCXBXzXH.b.n.n.n.n.n.n.n.b.Z.0XBXBXCXCXCXCXCXCXCXCXCX",
"CXCXCXCXBXbXzXzXkXhXlXjX,XS.Z.G.-XH.-X-X-X-XA.Z.;X0XzXzXlXzXzXNXCXCXCXCX",
"CXCXCXCXzX7X,X,X,X,X,X,XF.S.H.0XjXhXjXjXjXhX;XS.F.;X,X,X,X,X,XhXBXCXCXCX",
"CXCXCXMX,XF.,X3X,X,X,X;X-X:X5X0XhXhX0XhXjXjX0X,X;X>X,X,X,X>XF.,XNXCXCXCX",
"CXCXCXxX>XH.0XjX0X0X9X9X7X0XaXhXhXhX0XhXhXhXjXhX9X0X0XhXjX0XF.>XxXBXCXCX",
"CXCXBXxX,X-XNXVXmXxXxXzXzXjXjXhXhXhXhXhXaXjXjXjXlXzXlXmXCXmX;X,XxXCXCXCX",
"CXCXBXxX,X;XMXVXxXzXxXzXjXgXgXjXhXhXhXhXhXhXjXjXzXzXxXmXBXlX;X,XxXCXCXCX",
"CXCXCXmX,X;XNXVXxXxXzXzXjXhXhX8X6X4X2X4X6XaXhXzXzXxXzXmXBXzX;X,XxXCXCXCX",
"CXCXCXxX,X;XnXBXNXxXxXzXaX8X4X X].R.R.R.].oX6XaXlXlXxXmXBXmX-X,XMXCXCXCX",
"CXCXCXbX,X;XzXNXxXxXxXfX4X XE.P.8.+.O.@.6.P.E. XiXzXzXmXCXNX;X,XxXBXCXCX",
"CXCXBXxX,X;XxXBXxXxXsXeX{.E.s.q.] D - J ' $.0.P.+XtXzXmXBXmX;X,XbXCXCXCX",
"CXCXCXMX,X;XNXBXNXlXeX+XI.z.j.7.U - $ e _ o.<.1.p.{.hXbXNXlX-X,XxXCXCXCX",
"CXCXCXxX,X;XNXBXxXsX#X~.Q.k.p.7.P - $ r ( X.<.>.<.s.oXvXBXzX;X,XMXCXCXCX",
"CXCXCXxX,X;XNXVXkXqX`.Q.z.j.g.%.P - $ w (  .>.C B -.~.pXBXzX-X,XxXBXCXCX",
"CXCXCXxX,X-XMXVXsX@X~.c.j.j.y.7.P - $ w (  .>.B B >.g.wXnXNX;X,XbXCXCXCX",
"CXCXBXxX,X-XzXNXsXOXW.c.z.j.y.%.P = $ w x  .>.B B B 2.@XvXNX;X,XxXCXCXCX",
"CXCXCXxX,X-XxXmXyX_.Q.l.h.h.u.#.H - $ w ( b C N N M ,.`.dXxX;X,XMXCXCXCX",
"CXCXVXxX,X;XnXnXrX).c.l.h.f.y.#.L = $ w x B B N M m >.(.pXlX;X,XxXBXCXCX",
"CXCXCXxX,X;XNXnXrX).c.l.h.y.-.#.L = $ w l v N N m n C (.dXmX;X,XbXCXCXCX",
"CXCXCXmX,X;XNXNXyX_.c.l.f.y.&.} L = $ * k c h m n n ,.OXcXNX;X,XxXCXCXCX",
"CXCXCXxX,X;XmXNXdX`.c.h.f.*.#.} H - $ * 8 s j n n n 2.*XnXMX-X,XxXCXCXCX",
"CXCXCXbX,X;XlXBXkX#XW.y.f.o.) H D - $ % * # p f u N h.yXVXnX;X,XxXCXCXCX",
"CXCXBXxX,X;XxXBXxXrX`.l.f.&.} L 9 = $ % + i t u u 2.`.fXVXxX;X,XxXCXCXCX",
"CXCXCXMX,X;XNXBXmXvX$XW.f.;.&.x H = & + # d u n C !.yXxXVXzX;X,XxXCXCXCX",
"CXCXBXxX,X;XNXCXMXzXpX*Xd.u...V z 0 0 8 d y h ..P.=XjXmXVXnX;X,XxXCXCXCX",
"CXCXCXbX,X;XxXVXMXxXlXiX*Xx.f.u.V z q g V V u.I.=XgXxXMXVXNX;X,XxXBXCXCX",
"CXCXCXxX,X;XzXNXMXxXxXzX0X&X/.x.i.u...&.u.d.[.tXzXxXzXMXVXMX;X,XxXCXCXCX",
"CXCXCXxX,X;XNXBXMXxXzXzXfXaXuX6X&X&X%X&X&X4X0XjXlXxXxXMXNXzX;X,XxXCXCXCX",
"CXCXCXxX,X;XNXBXMXxXzXxXzXjXjXhX9X0X9XaXhXhXhXzXzXzXzXmXVXxX%X,XxXCXCXCX",
"CXCXBXbX,X;XNXCXMXxXzXzXjXjXjXhXfXjXhXhXhXhXhXzXzXzXMXmXVXNX-X,XxXBXCXCX",
"CXCXBXxX,X;XNXBXMXxXlXlXzXzXfXaXjXhXhXhXjXfXjXjXzXMXMXMXVXNX-X,XxXCXCXCX",
"CXCXCXxX|.C.1XeX&X%X&X%X%X%X%X%X%X%X%X%X%X%X%X%X%X3X5X5XhX9XS.>XlXCXCXCX",
"CXCXCXbX'.E w.r.r.r.r.t.t.! J.t.J.J.K.K.L.L.L.U.U.U.Y.'.}.G.b.G.kXBXCXCX",
"CXCXBXNXT.9 1 < < 3 6 7 7 7 ^ ^ / / [ [ { { 5.5.6.6.e.t.B.V.v.F.lXCXCXCX",
"CXCXCXBX1Xt.] ~ 5 4 2 1 , 1 2 2 2 4 4 > e G K K U T W ! M.V.A.,XVXCXCXCX",
"CXCXCXCXlX1XY.N.Q I 9 % X . . X X X O % $ Z S S F A R m.M.D.>XxXCXCXCXCX"
};
