/* XPM */
static char *__[] = {
/* columns rows colors chars-per-pixel */
"36 36 256 2 ",
"   c #AF9339F62F8B",
".  c #A51536A0364A",
"X  c #A6C8380C3673",
"o  c #AD4B3A1A32F5",
"O  c #A7253BB03B7E",
"+  c #A8EE3D8C3C37",
"@  c #B2C93DA131C2",
"#  c #B9393BFB29AA",
"$  c #C012417D294F",
"%  c #AED941773D3E",
"&  c #B4C6419A3650",
"*  c #B410434F3A5D",
"=  c #B7984B093F73",
"-  c #BE2A442430A0",
";  c #DA2E4AEB1EE8",
":  c #E36A4DF11C2B",
">  c #C7BB44F32834",
",  c #DD684D61209F",
"<  c #D4444A802300",
"1  c #CDA550442F2A",
"2  c #D97E50432957",
"3  c #DDE65361276D",
"4  c #C6434C003253",
"5  c #C764531139DA",
"6  c #CA3952223A79",
"7  c #CB104FF436D2",
"8  c #E01F5E893B8A",
"9  c #D99D591533E3",
"0  c #E590532C23BD",
"q  c #E65656A429E9",
"w  c #E6EA59762E55",
"e  c #E88253B624CC",
"r  c #E5615CF73419",
"t  c #D96461073D63",
"y  c #E59463113CA2",
"u  c #AC7F449041C9",
"i  c #BA664CE042B7",
"p  c #B39B4A5643D0",
"a  c #BA80505A4691",
"s  c #BA84538F4B8B",
"d  c #BA5D5AE35384",
"f  c #A5FD6C4346C2",
"g  c #A74F7C044241",
"h  c #A6837150429F",
"j  c #A821729C5DA2",
"k  c #AF71798D7510",
"l  c #C50F504D4783",
"z  c #CA5656FB43A8",
"x  c #C87B5BD949F1",
"c  c #DEDA5424430C",
"v  c #C1685F8358A9",
"b  c #C06F5B075127",
"n  c #ED075EC244BA",
"m  c #F08D59604715",
"M  c #CCCF63204E68",
"N  c #DDED63F743DC",
"B  c #DF226BA44C83",
"V  c #DB8E66D246DC",
"C  c #CCA37B4D4D85",
"Z  c #C4D366655CBD",
"A  c #D4AE6AF45315",
"S  c #D2446EA05CEA",
"D  c #DBBE6F675783",
"F  c #CAE2755C599F",
"G  c #D37F71F55D57",
"H  c #DE6E760E59F1",
"J  c #D82879375D43",
"K  c #DACD75EB5961",
"L  c #E4E865A74265",
"P  c #E4476AF24A33",
"I  c #EB166BFA47F8",
"U  c #FCBD65D94A55",
"Y  c #F702754D4D27",
"T  c #E0CF679D58A4",
"R  c #E1C56F4C5284",
"E  c #E33874AB54B1",
"W  c #E3C07B0D5DEB",
"Q  c #E6BE742C5ABC",
"!  c #FAA87CE04FE1",
"~  c #C8CD75036889",
"^  c #D232761C664F",
"/  c #D7AA7FDE65CC",
"(  c #DDA77C8F6254",
")  c #E2487D886337",
"_  c #9CF79DD75E9A",
"`  c #A81C88164451",
"'  c #A7F8908E46C3",
"]  c #A5A89A3F4C09",
"[  c #A1A3A1AB5552",
"{  c #977B98926DD2",
"}  c #AD9A806972C0",
"|  c #CD94871F4E21",
" . c #CD4F93144F1A",
".. c #CCD99A585068",
"X. c #E3D185FD5F1C",
"o. c #F758864151AF",
"O. c #F7899161550B",
"+. c #F8249C675854",
"@. c #CC80AC2555EB",
"#. c #CCB9A18E5251",
"$. c #CB21BA795C5B",
"%. c #F78EA6345B02",
"&. c #F64FAF195D1F",
"*. c #F50EB77A5ED7",
"=. c #DEF784DB6BC7",
"-. c #D65889657B8A",
";. c #DE4388A87661",
":. c #DEB790587CBA",
">. c #E50D81BD65F1",
",. c #E4CB84986C4E",
"<. c #E09E90C96107",
"1. c #E08598F56345",
"2. c #E6198AA27510",
"3. c #E8778B1972C7",
"4. c #E53D8EE57B0C",
"5. c #E4D891C47D73",
"6. c #E8CB92477CEF",
"7. c #DF1DA3B965B6",
"8. c #DD8BADBC67DA",
"9. c #DC93B78B6B2F",
"0. c #F442BFF561C1",
"q. c #C950C5916450",
"w. c #C872C8556AB8",
"e. c #DBFEC14E6EF3",
"r. c #C369C3EC7949",
"t. c #DC1FCB11732F",
"y. c #DC6AD76679D8",
"u. c #F3C8C87E653E",
"i. c #F373D0F46899",
"p. c #F360D91B6BFC",
"a. c #F36FE10C6F4E",
"s. c #F377EBE57512",
"d. c #F33DF2827FD7",
"f. c #8EE98EE98EE9",
"g. c #9A619B7384D3",
"h. c #9CA49CA49CA4",
"j. c #97F3987191C4",
"k. c #AE7788AF8052",
"l. c #C01B89E78514",
"z. c #B51A986D93D4",
"x. c #BD49BDEC8905",
"c. c #A4F3A5C89B5E",
"v. c #BC59BD01962B",
"b. c #AB43ABDDA4AD",
"n. c #ABC9ABCAABC9",
"m. c #A520A527A529",
"M. c #AFAFB052A866",
"N. c #B999BA15A901",
"B. c #B463B46EB413",
"V. c #BA5AB972B5FE",
"C. c #BD24BD4DBD2A",
"Z. c #BBFBB172B08F",
"A. c #CFCA8BB982ED",
"S. c #D5A395C386FF",
"D. c #DC9B96F7825D",
"F. c #D1829D2C86DB",
"G. c #DE299BFC8C07",
"H. c #CFE399529653",
"J. c #CA6D9DF99B6C",
"K. c #DA859EE692EA",
"L. c #D2689D5396AA",
"P. c #E661968183C7",
"I. c #E51A99AC858E",
"U. c #E51F9E8C8F05",
"Y. c #CE22A3B0869F",
"T. c #CAA9ABD986EA",
"R. c #C8DFB4A388FD",
"E. c #C881BBCD8BB0",
"W. c #D37FA0D89A0B",
"Q. c #E66BA4AF948B",
"!. c #E932A418938A",
"~. c #E874A74A98C3",
"^. c #E69BA9A99B89",
"/. c #E1D4A7DC9A0D",
"(. c #C5B7AD81AC02",
"). c #D5BCAB64A535",
"_. c #DE1AAD04A029",
"`. c #DD9BB367AB61",
"'. c #DCFDB2B0A81A",
"]. c #CBB7BC56BA6B",
"[. c #D82AB78AB30B",
"{. c #DD64BD3AB4E5",
"}. c #E6F8AE2AA147",
"|. c #E385B3BDA998",
" X c #E3D6B943AF63",
".X c #E60EBD96B480",
"XX c #EA75C00DB71A",
"oX c #C8D8C1D08EAB",
"OX c #DCC6DC50869E",
"+X c #C93EC7729226",
"@X c #CAC9CA6C9972",
"#X c #DDB5DE339863",
"$X c #F28AF2778C5C",
"%X c #EE6BEE81973D",
"&X c #F2CAF2D39A83",
"*X c #CDCBCE83A9E4",
"=X c #DEDFDF42A4B0",
"-X c #CBEFCC9CBE48",
";X c #D994C2B5BD6F",
":X c #CFF4D0A7B589",
">X c #D4EED54DB915",
",X c #E3ACC479BD07",
"<X c #E7CFE7EFA751",
"1X c #F295F290A8D0",
"2X c #E33EE384B656",
"3X c #F33AF338B7AB",
"4X c #C31DC33AC333",
"5X c #CD04CD00CCF5",
"6X c #CC68C7A8C75C",
"7X c #DC37C4B5C0E8",
"8X c #D3C2CE04C6E2",
"9X c #D6C0CF6DC97A",
"0X c #DE18CDADCB38",
"qX c #D2FAD295C5F5",
"wX c #D440D482CA3A",
"eX c #DC94D31ECF33",
"rX c #D882D879CF6E",
"tX c #DC8BDCF1C531",
"yX c #D332D38CD386",
"uX c #DF13D4C9D1F0",
"iX c #DD85DA6AD612",
"pX c #DCFCDCB6DC88",
"aX c #DA13D7EDD9E3",
"sX c #E2B9CE3FCAC4",
"dX c #EB1BCE78C91A",
"fX c #E8AFC9C2C344",
"gX c #E592D168CC7B",
"hX c #EAD8D383CED3",
"jX c #E359D67FD3F5",
"kX c #E5DAD94CD6D5",
"lX c #EBC7DA09D6BF",
"zX c #E42ADE3DDD08",
"xX c #E9B9DDE5DBC1",
"cX c #E9EED577D182",
"vX c #F21FDE22DA19",
"bX c #E7B1E811C37B",
"nX c #EAE7EAEFCDF9",
"mX c #E5DBE09EDFF1",
"MX c #EB86E11DDEB7",
"NX c #F8E5F8E0CB32",
"BX c #DC96DED4E1BE",
"VX c #DEE8E20AE3E7",
"CX c #E3D8E39BE3A7",
"ZX c #EB5DE65AE58E",
"AX c #EB0DE877E81F",
"SX c #E813E848E923",
"DX c #E77BE9B0EABC",
"FX c #EC45EC37EC3F",
"GX c #F28BEFC5EF44",
"HX c #F57DE774E4A0",
"JX c #F7A6F09AEFEB",
"KX c #F057F093F0A3",
"LX c #F37CF390F3A3",
"PX c #F701F846F89C",
"IX c #F6F3F8B7F929",
"UX c #FDA5FDBCFDC2",
/* pixels */
"UXUXUXUXUXUXUXUXUXUXUXUXCXB.f.h.h.h.h.h.h.h.f.h.aXIXUXUXUXUXUXUXUXUXUXUX",
"UXUXUXUXLXSXCXCXCXBXCXpX4Xn.m.C.C.C.C.4X4XC.n.h.C.yXCXVXCXCXCXLXUXUXUXUX",
"UXUXUXUXVX4X6X6X6X4X6X4Xn.n.4XpXSXCXCXCXCXCX6Xn.n.V.6X4X5X4X4XpXUXUXUXUX",
"UXUXUXLX5XV.yXyXyXyX5X6X4X5XaXCXCXmXzXCXCXCXpX5X6X5XyXyXyX5Xn.6XLXUXUXUX",
"UXUXUXFX5XC.CXDXmXBXzXpXaXBXVXBXzXmXzXzXCXCXVXBXpXmXVXCXDXVXV.6XFXUXUXUX",
"UXUXUXFX5X4XKXUXFXFXDXDXSXCXCXzXBXCXpXVXCXCXCXSXDXSXSXKXIXLX4X5XFXUXUXUX",
"UXUXUXFX5X4XLXLXFXFXFXDXSXCXCXCXCXSXCXzXCXVXCXCXSXFXFXKXPXDX4X5XFXUXUXUX",
"UXUXUXFX5X4XKXUXFXDXFXFXDXCXzXjX0X0X0X0XuXpXVXCXSXSXFXKXLXDX4X5XFXUXUXUX",
"UXUXUXFX5X4XKXIXLXDXFXSXmXaX7X[.).L.L.K.).;X0XxXSXSXFXKXIXLX4X5XFXUXUXUX",
"UXUXUXFX5X4XSXLXKXFXAXCX0X`.L.A.~ Z v Z ^ -.K.[.kXSXFXKXIXLX4X5XFXUXUXUX",
"UXUXUXFX5X4XDXIXKXFXMXsX`.K.A.^ v p + i x K ) D.|.gXFXKXIXDX-X5XFXUXUXUX",
"UXUXUXFX5X4XLXIXKXSXsX|.P.P.) S s O . * z B P R ;.'.mXKXPXSXC.5XFXUXUXUX",
"UXUXUXSX5X4XLXUXGXlX XU.P.2.2.^ s O . + z B P L P 4..XHXLXDX4X5XFXUXUXUX",
"UXUXUXFX5X4XFXIXCXfX~.P.2.2.) S s O X * z V L L y H Q.lXLXFX4X5XFXUXUXUX",
"UXUXUXFX5X-XCXKXMX XU.6.2.2.) S s O X @ z N P L r P ,.fXLXLX4X5XFXUXUXUX",
"UXUXUXSX5X4XKXLXlX}.P.P.2.) ) S l O X p 6 c L r r r E |.HXLX4X5XFXUXUXUX",
"UXUXUXFX5X4XLXPXhX~.P.3.,.,.( S s O . @ 6 c y r r q P ^.MXFX-X6XFXUXUXUX",
"UXUXUXFX5X4XLXJXdX!.6.3.,.,.H A s O O @ 6 8 y r w q y !.lXAX4X5XFXUXUXUX",
"UXUXIXFX5X-XLXJXdX!.6.3.,.>.H A a O . @ 7 r r w q e y ~.vXKX4X5XFXUXUXUX",
"UXUXUXFX5XC.LXLXcX!.6.3.>.) K M i + X + 4 9 w q e e I }.HXLX4X5XFXUXUXUX",
"UXUXUXFX5X4XLXIXxX}.6.,.W W A x p + . @ # 1 2 0 0 0 E XXGXLX4X5XFXUXUXUX",
"UXUXUXFX5XC.SXLXHX.XI.,.X.A x p u u X . o # > , : r =.gXLXLX4X5XFXUXUXUX",
"UXUXUXFX5X4XFXUXHXhX~.,.W K M = u % . . o $ < : : E /.MXIXFX4X5XFXUXUXUX",
"UXUXUXFX5X4XLXIXFXHX,XP.X.H A 5 & + X   $ < : 0 y I.gXGXLXSX4X5XFXUXUXUX",
"UXUXUXFX5X4XLXUXKXFXkX.X:.W P t 1 & & $ < ; 3 V D.,XSXJXIXKX4X5XFXUXUXUX",
"UXUXUXFX6X4XSXPXKXDXZXkX{.G.=.H V 5 4 1 9 V ( G.,XMXFXKXIXFX-X5XFXUXUXUX",
"UXUXUXSX6X4XSXLXKXFXSXSXkX;X_.I.=.J A K =.:.'.sXSXFXFXKXLXSXC.5XFXUXUXUX",
"UXUXUXSX5X4XLXIXJXFXFXSXSXmXkXsX,X;X;X{.;XrXzXCXSXFXSXKXIXKX4X5XFXUXUXUX",
"UXUXUXFX5X4XKXKXFXDXDXDXCXVXBXaXiXaXaXaXaXVXVXVXCXSXDXDXLXSXC.5XFXUXUXUX",
"UXUXUXFX6XZ.eXzXeXjXuXuXwX8X8XqXqXqXqX8XqXqXwXwXrXiXpXpXCXaXB.4XSXUXUXUX",
"UXUXUXFX(.k A.S.S.F.F.F.Y.T.T.R.R.R.R.E.+X+X+X+X@X*X*X:X>XqXc.C.SXPXUXUX",
"UXUXUXFXJ.d T Q W W <.<.1.7.7.8.9.9.e.t.t.y.y.OXOX#X=X2XbXtXb.V.pXUXUXUX",
"UXUXUXFXH.l m U Y ! o.O.+.%.&.0.0.u.u.p.a.s.d.d.$X&X1X3XNXnXN.C.pXIXUXUX",
"UXUXUXGXJ.s c n I Y o.O.+.%.&.*.0.u.i.p.a.s.s.d.$X%X<X<X2X>Xc.V.ZXIXUXUX",
"UXUXUXLX7Xl.~ ~ F F C C | |  . ...@.@.$.$.q.q.w.r.r.x.v.N.N.M.wXLXUXUXUX",
"UXUXUXUXZX].z.k.} j f f f h g g ` ` ' ] ] [ [ [ _ { { g.j.b.C.mXUXUXUXUX"
};
