/* XPM */
static char *___[] = {
/* columns rows colors chars-per-pixel */
"36 36 256 2 ",
"   c #54D53D9A0E70",
".  c #56C8365210DD",
"X  c #5BC431AC10DE",
"o  c #57513C641219",
"O  c #65E036680D60",
"+  c #7BEA37C80CA6",
"@  c #64782EC511C7",
"#  c #70E72F5312AD",
"$  c #6D7A35F91351",
"%  c #6E5439971892",
"&  c #68A2386E15C4",
"*  c #76DE381D159B",
"=  c #19D2555319D3",
"-  c #0F2269B80F28",
";  c #1ABA62F31ABE",
":  c #102969FF102B",
">  c #174576AE1748",
",  c #36EA6DC311E7",
"<  c #3B266C4C1322",
"1  c #3F796ECE1C4D",
"2  c #2C75754D1322",
"3  c #2BFF7A6A1A43",
"4  c #365C72B818AC",
"5  c #25E5452925E6",
"6  c #297945E82980",
"7  c #33254C2E3326",
"8  c #38684906386B",
"9  c #3CE454F13CE5",
"0  c #3ABC5F303ABC",
"q  c #24415A732442",
"w  c #2ED865E72ED8",
"e  c #2A347635263A",
"r  c #3A80780E23A1",
"t  c #32A165DF32A3",
"y  c #339869913398",
"u  c #3C7666573C2F",
"i  c #3C4D73F63C50",
"p  c #348873F93486",
"a  c #4EA846CA0D66",
"s  c #55264C9F0CB9",
"d  c #4DA4584F0DFE",
"f  c #51C95B370E58",
"g  c #598955160D86",
"h  c #5A5B439214D1",
"j  c #5D114E371466",
"k  c #5B0145A514C3",
"l  c #5DB256361B09",
"z  c #5D1F5D851A1B",
"x  c #58595AB71420",
"c  c #6591487D0C0F",
"v  c #722340790E2F",
"b  c #64794D3315D5",
"n  c #61F5595F1A89",
"m  c #4A91615A0EFF",
"M  c #435065880F1C",
"N  c #440E668D1167",
"B  c #4B1262FE11DF",
"V  c #40A66A5714B7",
"C  c #4B72671218AA",
"Z  c #49F8699D1C1A",
"A  c #53DF64FF1C26",
"S  c #57DC619D1972",
"D  c #6E1A4DB427BA",
"F  c #65B0554526DD",
"G  c #79EF590B296F",
"H  c #5D0D61BE1FEA",
"J  c #54646DB8284F",
"K  c #5B0C6860276E",
"L  c #4EDC71CA2A79",
"P  c #5A0D76D938D9",
"I  c #54B07B933A58",
"U  c #49B07A61306D",
"Y  c #66D264EF2B5A",
"T  c #62616A1E2FF3",
"R  c #436C4CEB436F",
"E  c #494F4EB6494E",
"W  c #443951354439",
"Q  c #42E45B4442E7",
"!  c #4DB5540E4DB4",
"~  c #57885D265788",
"^  c #41B46ABF4143",
"/  c #4D4D6D7D4D19",
"(  c #483365484837",
")  c #59F3667458B8",
"_  c #5B8379E95B8B",
"`  c #577473A25779",
"'  c #4B4379744B43",
"]  c #72B477E24E75",
"[  c #66EB6CF56611",
"{  c #691076026881",
"}  c #6BC47D016BC3",
"|  c #64F778E464FB",
" . c #7AAD7DE67AB5",
".. c #74F07C0E74F0",
"X. c #8BED3A6D0CA9",
"o. c #83E7395913ED",
"O. c #99193DB80FD8",
"+. c #A03B3DDB0E8D",
"@. c #9EAA414F0966",
"#. c #878F43471A3A",
"$. c #81CA43BB104C",
"%. c #9DB54A6F1ABE",
"&. c #928245CD1629",
"*. c #B2C343990F10",
"=. c #AAFA4C921B79",
"-. c #A55A45081320",
";. c #BD2E45E41293",
":. c #B61948F1179D",
">. c #A88B42000BC6",
",. c #877948AC23B1",
"<. c #88344A2924FD",
"1. c #9F394EF4211E",
"2. c #878A5E282DF6",
"3. c #9F3555122BB1",
"4. c #9E3E53122472",
"5. c #8BE65EB63C9E",
"6. c #9C8E5B303651",
"7. c #BEDB4EE820B5",
"8. c #AD7B58D42E44",
"9. c #AC685439276B",
"0. c #B4DD512323ED",
"q. c #BEE2517E2527",
"w. c #B94955AB2C47",
"e. c #B4FB5BE23791",
"r. c #AB57595431C3",
"t. c #924068083D1E",
"y. c #C4464AB11B3B",
"u. c #C6AD4E63218B",
"i. c #C45253662848",
"p. c #C75E5CC6354F",
"a. c #CCF461333BA8",
"s. c #9A866E984F89",
"d. c #902E7B1D59BF",
"f. c #A67F688843FF",
"g. c #B650757C5C14",
"h. c #AE4A7AE760CB",
"j. c #C698698D479E",
"k. c #C9CE78845D9D",
"l. c #C91D7E1E62A4",
"z. c #1268810A1275",
"x. c #17728BDF183F",
"c. c #19548B42194F",
"v. c #166888E014BF",
"b. c #220685431CCF",
"n. c #24CE864D2193",
"m. c #2D178207243A",
"M. c #248D8A1F2448",
"N. c #2B5283F729BC",
"B. c #2E358AF62E28",
"V. c #361B822F2C40",
"C. c #36D589BD3500",
"Z. c #379B8CFE3840",
"A. c #37D18C9A37D7",
"S. c #39F086DF372E",
"D. c #41C785E4389D",
"F. c #41558E434133",
"G. c #4AA28DB248E8",
"H. c #4AFB87CB48E2",
"J. c #522D835841F6",
"K. c #4B5491014B8F",
"L. c #541F8F1C50E0",
"P. c #5A1C89DA5626",
"I. c #54AE93125504",
"U. c #5DA7947D5D76",
"Y. c #639381484D4E",
"T. c #6A7A8AD359F7",
"R. c #78AC8A355F96",
"E. c #6DF0886A6DF0",
"W. c #65DF945663D6",
"Q. c #69A5992269D2",
"!. c #6B7F94BB6686",
"~. c #751996BE6DF9",
"^. c #7C4183177B5D",
"/. c #7881844E76D1",
"(. c #71FC9D177275",
"). c #7C67994C7C6C",
"_. c #7C52999B7AEE",
"`. c #7B84A12A7C3E",
"'. c #80EE8770690D",
"]. c #9043874A6BC8",
"[. c #8837962375F1",
"{. c #95709A8C7EDA",
"}. c #A99E846369F0",
"|. c #AE6D8C8072E3",
" X c #C11B849D6C3D",
".X c #C98091E07F39",
"XX c #80C0857280D4",
"oX c #85408CBD8509",
"OX c #8AFF8DEF89EB",
"+X c #8AB295B08AB3",
"@X c #9A0998EE86B5",
"#X c #91E294A691E0",
"$X c #94559CCE945A",
"%X c #9D5D9F659D76",
"&X c #AEBD9E178D60",
"*X c #B7DB9B658AFE",
"=X c #84BAA533850C",
"-X c #8C72A7038BD0",
";X c #8E30A9FA8EC5",
":X c #959FAB4B95AC",
">X c #9E16A0AB9E61",
",X c #97E2AED09834",
"<X c #9C79ACBA9B79",
"1X c #93BEA26993D3",
"2X c #9DC8B03E9DCA",
"3X c #94D3A2438A5F",
"4X c #A64EA93C9866",
"5X c #B907A7FE983C",
"6X c #A440A657A412",
"7X c #AE01AF82ADFC",
"8X c #B103AFD4A096",
"9X c #A2CCB448A314",
"0X c #AE98B26BAEA5",
"qX c #ABE8BA3EAC48",
"wX c #AA93B44FA37D",
"eX c #B08DB349B0CA",
"rX c #B5AFBF36B560",
"tX c #BC42BE04B84E",
"yX c #B4A6B8F7AE77",
"uX c #D1C498BF85E1",
"iX c #D2EA9DA18CAC",
"pX c #C9C59D818B97",
"aX c #C148A04791A2",
"sX c #D345A62996FD",
"dX c #CB0BAF0FA3DB",
"fX c #C383B039A29C",
"gX c #C881BCD6B3A7",
"hX c #D5C4B751AC48",
"jX c #B611C14BB6D8",
"kX c #BE88C627BE3E",
"lX c #CE7AC449BBFC",
"zX c #C01FC86DC067",
"xX c #C008C834C09E",
"cX c #C15DC6DDC176",
"vX c #C76ECC22C6FB",
"bX c #C9F2CF32CA0D",
"nX c #CDE7CB3AC454",
"mX c #D4AACE05CB0C",
"MX c #CA30D05DCA3E",
"NX c #D0CBD30ACE56",
"BX c #D93DD160CBF8",
"VX c #D334D6E8D320",
"CX c #D7EFD8BAD80A",
"ZX c #DD86DE95DDB5",
"AX c #DAA4D8B5D4F9",
"SX c #E4A1D2C5CD15",
"DX c #E6A4DABDD6B9",
"FX c #DE71E07ADFA1",
"GX c #E09DE03EE0A0",
"HX c #DFAEE146E083",
"JX c #E3DFE2DDE3D1",
"KX c #EA6EEBEDEB0E",
"LX c #E97FE6ACE4AE",
"PX c #F4D9F51DF4DE",
"IX c #FE82FE6FFE82",
"UX c #F901F8D7F7EF",
/* pixels */
"IXIXIXIXIXIXIXIXIXIXIXUXVXOXR 8 8 8 8 8 R R ! ..NXPXIXIXIXIXIXIXIXIXIXIX",
"IXIXIXIXKXJXZXZXCXCXZXNX6X{ W ( / ` _ | { { ) [ 6XnXCXCXCXCXGXKXIXIXIXIX",
"IXIXIXPXvX1X$X$X$X$X$X+X[ Q ^ P.(.).=X-X1X:X/.) '.@X6X6X6X6X6XbXPXIXIXIX",
"IXIXIXKX1X0 w w y u ^ ^ 0 ^ P.W.(.`.=X;X,X9X1XoX^.^.oXOX#XOX .6XLXIXIXIX",
"IXIXIXLX).= : : > e p p i H.U.Q.(.`.=X;X,X9XwX9X<X6X6XeXtXeXXX6XHXUXIXIX",
"IXIXUXJX).; z.c.M.B.C.F.K.I.U.W.(.`.=X;X,X9XqXjXxXMXVXZXKXGX%X7XJXUXIXIX",
"IXIXUXJX).; z.c.M.B.Z.F.K.I.U.Q.(.).=X:X,X9XqXjXxXbXVXZXKXZX%XeXZXUXIXIX",
"IXIXIXJX).; z.c.M.B.Z.F.K.I.U.W.!.~.[.[.;X<XqXjXxXbXVXZXKXZX%X7XJXUXIXIX",
"IXIXIXJX).; z.x.M.B.Z.F.G.I.P.Y.] ] { d.].@X6XeXkXbXVXZXKXZX%X7XZXUXIXIX",
"IXIXUXJX).; z.c.M.B.Z.D.I P P Y F D D G 5.s.}.&XrXvXVXCXKXZX%X7XJXUXIXIX",
"IXIXIXGX).; z.x.M.B.Z.D.L J K F j o & v <.6.f.h.*XgXNXCXKXZX%X7XFXUXIXIX",
"IXIXIXJX).; z.x.M.B.V.r Z J S l k . X % <.3.r.e.g.aXnXCXKXZX%X0XJXUXIXIX",
"IXIXUXJX).; z.x.n.N.r V Z J S n k . X % ,.3.r.r.e.l.dXAXKXZX%XeXJXUXIXIX",
"IXIXIXJX).; z.x.b.e 4 V Z C S l k . X % ,.3.9.w.w.j..XBXKXZX%X7XJXUXIXIX",
"IXIXIXJX).; > x.b.3 4 V C C A l h . X % ,.4.9.w.w.p.l.hXJXGX%X7XZXUXIXIX",
"IXIXUXJX).; z.v.c.2 , V C A S n k . X % ,.1.9.0.i.i.j.sXDXZX%XeXJXUXIXIX",
"IXIXIXJX_.; z.x.b.2 , V C S z l h . X $ #.1.9.0.7.u.a.iXSXZX>X0XFXUXIXIX",
"IXIXUXJX_.; z.c.3 2 , V B x z l h . X $ #.1.9.0.7.y.p.uXSXZX%XeXJXUXIXIX",
"IXIXIXGX).; z.x.m.2 , V m B z b o . X $ #.=.=.0.:.y.p.uXSXZX%XeXZXUXIXIX",
"IXIXUXJX).; z.x.c.2 < N B x x j h . X $ o.&.=.:.y.y.p.iXDXGX%X7XJXUXIXIX",
"IXIXIXJX).; z.v.v.2 V m m f g s o . X $ * O.-.:.y.y.j.hXJXJX6X7XFXUXIXIX",
"IXIXUXJX).; z.c.b.3 , M m d s a o . X @ # o.O.*.y.i.l.lXLXZX%X7XJXUXIXIX",
"IXIXIXGX_.; z.c.n.m.4 V m f s s   . X @ # X.+.*.;.a.pXBXKXZX%X7XZXUXIXIX",
"IXIXIXJX_.; z.x.M.N.r V m f g g   . X $ + O.+.*.q.|.gXCXKXZX%X7XJXUXIXIX",
"IXIXUXJX).; > x.M.B.A.V Z C g c c c O v @.@.-.w.}.dXMXFXKXFX1X0XFXUXIXIX",
"IXIXIXJX).; z.c.M.B.A.D.D.J H n c v v v &.4.f.}.5XlXMXFXKXFX$X7XJXUXIXIX",
"IXIXIXJX).; z.x.M.B.Z.Z.D.D.P T Y G 2.2.t.].{.8XjXvXVXFXKXCX%X7XZXUXIXIX",
"IXIXUXJX).; z.c.M.B.Z.F.L.L.T.T.T.R.'.].{.3X9XjXlXvXVXFXKXZX%X7XJXUXIXIX",
"IXIXUXJX).; z.c.M.B.Z.F.K.I.I.Q.~.(.[.;X,X9XjXjXlXbXVXZXKXFX>X7XHXUXIXIX",
"IXIXIXJX).; z.c.M.B.Z.F.K.I.U.Q.(.`.{.;X,X9X9XjXxXMXVXZXKXZX>X7XHXUXIXIX",
"IXIXIXJX_.; z.x.M.B.Z.F.K.I.U.Q.(.`.=X;X,X9XqXjXxXMXVXCXKXZX%X7XZXUXIXIX",
"IXIXUXJX).; z.c.M.B.Z.F.K.I.U.Q.(.`.=X;X,X2XqXjXxXMXVXZXKXZX6X7XJXUXIXIX",
"IXIXIXJX_.; z.v.M.B.Z.F.G.L.U.Q.(.`.=X-X,X2XqXrXxXvXNXZXJXCX$X7XGXUXIXIX",
"IXIXIXLX+Xq - > c.e S.S.G.L.U.W.Q.`.=X-X:X2X9XeXrXkXxXvXxX7X .6XKXUXIXIX",
"IXIXIXPXjXE.' i i y w w y u ^ / ` _ _ | } } /. .XXXXoX#X$X$X#XtXPXIXIXIX",
"IXIXIXIXHXeXoX{ ) 9 7 5 5 5 6 6 8 9 9 9 9 W W E E ! ~ [  .#X7XCXPXIXIXIX"
};
