/* XPM */
static char *__[] = {
/* columns rows colors chars-per-pixel */
"36 36 256 2 ",
"   c #7D777E96678A",
".  c #AF42399E2F76",
"X  c #A52536B6365A",
"o  c #AB7D3A7834E1",
"O  c #A73A3BC03B8E",
"+  c #A88A3CDB3BD1",
"@  c #B17B3D33328C",
"#  c #B92B3C1F29DE",
"$  c #AF78411D3B0F",
"%  c #B3C940E336F4",
"&  c #BA7844EC3425",
"*  c #B3A742F83ABB",
"=  c #B56048AE3F0A",
"-  c #DF944DCA1E86",
";  c #E26B4D941C22",
":  c #E68250D61F79",
">  c #C30343AC29E8",
",  c #C98545DA2810",
"<  c #D4C647AB1FAF",
"1  c #D6364B862362",
"2  c #DF424DD72048",
"3  c #C90D4E433517",
"4  c #CB0153613BFE",
"5  c #C96E521837F0",
"6  c #D7D157C0337C",
"7  c #E597538F2401",
"8  c #E3D456572A14",
"9  c #E6E858FD2D6B",
"0  c #E6205CC63424",
"q  c #E8F05E563629",
"w  c #E1E55DDF3B1D",
"e  c #D9A2623A3F70",
"r  c #E5FE62F43C98",
"t  c #E703607B3846",
"y  c #ABDE42F24091",
"u  c #B6104D2E4505",
"i  c #BAB74DBF4280",
"p  c #B0E545FE4125",
"a  c #BB3E53A24B39",
"s  c #BB8950F7462F",
"d  c #CA5C56C742F9",
"f  c #C84D5B2748F0",
"g  c #C06E5ADB5116",
"h  c #CEDD62BC4D93",
"j  c #DEDE64554538",
"k  c #DF29697743B3",
"l  c #DE8769844D36",
"z  c #D4BC631344D4",
"x  c #CFCB6EA65069",
"c  c #C328656E5A43",
"v  c #D3E46AE153D6",
"b  c #D1876E405CEE",
"n  c #DBBA6F7F57BC",
"m  c #D0E071EA5469",
"M  c #DE1772885439",
"N  c #D25670325F7E",
"B  c #DD78752059C5",
"V  c #E4BD65814245",
"C  c #E630699D4582",
"Z  c #E2DF6BFC4B49",
"A  c #E1C66F4C527F",
"S  c #E52A752A54BD",
"D  c #E2657B4A5E01",
"F  c #E0AD745F57FC",
"G  c #D22876136647",
"H  c #D28C7C1C61AA",
"J  c #DF827D116344",
"K  c #DB137D9B6A09",
"L  c #CA6E759D6B79",
"P  c #E3137D3F61CC",
"I  c #AD36AD3D2D15",
"U  c #C029BFA32968",
"Y  c #BD5DBCE7271A",
"T  c #AA68AA8B32C6",
"R  c #A9C5A9813B04",
"E  c #B41FB40D3628",
"W  c #E6B4E4C01628",
"Q  c #F11AEF6D18E1",
"!  c #F54DF3CF1304",
"~  c #FF66FF0316FB",
"^  c #FD14FC5A180B",
"/  c #C615C5BB2226",
"(  c #C8ABC86020DD",
")  c #D5ADD4812E59",
"_  c #CFE7CF013E7C",
"`  c #D0C3CFD73A22",
"'  c #D3A6D2793439",
"]  c #ED46EAF627F7",
"[  c #FB04F8472164",
"{  c #FEA7FBD2222A",
"}  c #FD3CFAEE2A9D",
"|  c #F9BEF78B2B24",
" . c #EB7AE9D33377",
".. c #E95EE7C53E22",
"X. c #FC03F9EE3300",
"o. c #FA4FF8423B06",
"O. c #F902F7023882",
"+. c #9ACB9B514F64",
"@. c #86F387DA5EDF",
"#. c #8BD18C7E5981",
"$. c #92719329548B",
"%. c #A800A7B3450A",
"&. c #A633A60F4544",
"*. c #B3BFB3D957CF",
"=. c #819182B76917",
"-. c #BAEBBABB6943",
";. c #ABBDABEB7A8B",
":. c #B046B02A7341",
">. c #BBB5BC187798",
",. c #DF6D84046B3C",
"<. c #D54D8C347AF8",
"1. c #DE2888997655",
"2. c #DF5792837F4F",
"3. c #E44682106644",
"4. c #E4B584D46CA1",
"5. c #E31186E671C1",
"6. c #E56D8A47747F",
"7. c #E5DF8E707A0C",
"8. c #E71190A77CE2",
"9. c #E92C91B77C31",
"0. c #CF3ECE5044E9",
"q. c #CE3ECD1D4AD0",
"w. c #CAD8C9EB5846",
"e. c #E723E5844897",
"r. c #F984F775431A",
"t. c #F715F50C4B20",
"y. c #F5D0F3D542E4",
"u. c #E488E3335736",
"i. c #F184EFB05AEA",
"p. c #F58CF3865344",
"a. c #F539F32A5B98",
"s. c #C4E2C4E36C5A",
"d. c #D923D809697F",
"f. c #D742D66767A5",
"g. c #CFEFD0F57FDD",
"h. c #D2D8D2BA73CE",
"j. c #D396D41E7ADF",
"k. c #DBBCDBAD71AB",
"l. c #E063DFCB69F7",
"z. c #EAD4E975656B",
"x. c #F179EFAA6BFB",
"c. c #F40DF20763BE",
"v. c #E45FE3607D3F",
"b. c #EB4BEA19743F",
"n. c #8C758DBE85DC",
"m. c #95E3965F953F",
"M. c #9CE29D059CE0",
"N. c #BE589FCB8963",
"B. c #A33AA3ED8A31",
"V. c #A852A8C981E1",
"C. c #BE55A1218BF0",
"Z. c #A9D0AA8A9D16",
"A. c #BDD8A5069458",
"S. c #BFBDABFA9B33",
"D. c #BD11BF029FA7",
"F. c #A2A4A2FCA27D",
"G. c #A7AAA884A67C",
"H. c #AC15AC52AB17",
"J. c #BCEFAE94A933",
"K. c #BC86BEBCA5BC",
"L. c #BD98BE87AD60",
"P. c #B566B5CEB4FF",
"I. c #BD78BD57BCBB",
"U. c #BF64B887B492",
"Y. c #E00C9E908CCE",
"T. c #DF7497E482F4",
"R. c #DAC89F659467",
"E. c #D2419E779718",
"W. c #E75495DC83F2",
"Q. c #E3B399048676",
"!. c #E32A9D738E56",
"~. c #E8DB941C8049",
"^. c #D4C9A4509AC0",
"/. c #E66BA3779340",
"(. c #E622AB589D5D",
"). c #E982A5B89638",
"_. c #D5C3AC3DA4C5",
"`. c #DF00B4C5ACA9",
"'. c #DB6DB9AFB45E",
"]. c #C5D5BBFDA747",
"[. c #E79EAE02A228",
"{. c #E10FB113A7B1",
"}. c #E69FB754AC9E",
"|. c #E518BC6FB3BF",
" X c #E87DBF88B4B1",
".X c #C00DC044BFCB",
"XX c #CA03C6A28294",
"oX c #CE63CE0683F2",
"OX c #CB6ECB578A1B",
"+X c #C5DCC3288A4D",
"@X c #DCFBDC038616",
"#X c #D664D57A8E3B",
"$X c #D091D09D859C",
"%X c #C2D8C29792FC",
"&X c #CFD5CF5195F5",
"*X c #C825C8079C61",
"=X c #D2FCD2659801",
"-X c #D306D26F9819",
";X c #C48DC49DA180",
":X c #D049D00AA1BD",
">X c #C64BC474ADDB",
",X c #CCD7CCD4AAD7",
"<X c #D053D015A1CD",
"1X c #C4F9C4FCB65F",
"2X c #CC0ECC2FB519",
"3X c #C40EC436BDF5",
"4X c #CDA8CE01BB80",
"5X c #D7E8C185BB3D",
"6X c #D137D130B80A",
"7X c #D354D335BE73",
"8X c #DAC4DAECB75D",
"9X c #E46FC4CCBCA6",
"0X c #C2FBC314C32B",
"qX c #CAAFCAFEC5F7",
"wX c #C847C836C898",
"eX c #CCFBCCFCCC6E",
"rX c #C761C8BCC301",
"tX c #DD96CCE6CA43",
"yX c #DA54C812C434",
"uX c #D475D47CCCF0",
"iX c #DCEDD15ECF6C",
"pX c #D7B5D765C7CC",
"aX c #D50DD51DD461",
"sX c #DEE7D726D544",
"dX c #D92DD96CD6DD",
"fX c #DD76DD6FDCD1",
"gX c #E5D9CB6DC5C4",
"hX c #E331CEE8CB9F",
"jX c #EB3ACE9BC954",
"kX c #E8DAC970C260",
"lX c #E81CD05DCB42",
"zX c #E9EBD360CE1C",
"xX c #E823D980D72E",
"cX c #EABBDAAAD7E5",
"vX c #E327DDC0DC4D",
"bX c #E93FDD6ADA58",
"nX c #E90BD5F7D27D",
"mX c #F210DD32D93B",
"MX c #E4D8E34BDE1C",
"NX c #EACEE19BDF27",
"BX c #DF2AE286E2EE",
"VX c #E45EE457E415",
"CX c #EB7EE599E46B",
"ZX c #EA68E949E770",
"AX c #EC8AEC80EBF7",
"SX c #F2F1EE71EDBB",
"DX c #F59FE70EE44A",
"FX c #F7A3F098EFE4",
"GX c #EEA4EF42F07A",
"HX c #F048F091F0BA",
"JX c #F3F6F3F7F407",
"KX c #F6C0F952F819",
"LX c #F878F894F865",
"PX c #F55AF85DF931",
"IX c #FDB3FDCCFDD2",
"UX c #F6EDF8D4F8E8",
/* pixels */
"IXIXIXIXIXIXIXIXIXIXIXLXCXI.m.M.M.M.M.M.M.M.m.F.aXGXIXIXIXIXIXIXIXIXIXIX",
"IXIXIXIXLXAXZXZXVXVXZXVXwXH.F.I.I.I.I..X.X.XH.F.0XBXZXVXVXCXCXJXIXIXIXIX",
"IXIXIXIXVXeXeXeXeXeXaXwXH.H.I.fXVXVXVXVXVXVXwXH.P.0XwXeXeXeXwXfXIXIXIXIX",
"IXIXIXJXeXP.eXeXeXeXwX0X0XwXaXvXVXVXfXBXVXVXaXwX0XwXeXeXaXwXP.wXJXIXIXIX",
"IXIXIXGXeXI.fXVXBXfXaXaXsXfXVXvXBXfXfXvXVXVXBXfXdXdXfXBXVXBXP.wXAXIXIXIX",
"IXIXIXAXeX0XHXIXGXAXAXAXZXVXVXvXvXfXBXVXVXVXVXVXAXZXZXGXUXGX0XeXAXIXIXIX",
"IXIXIXGXeX0XHXPXAXVXAXZXVXVXBXBXVXVXVXVXVXVXBXVXZXAXZXGXJXZX0XeXAXIXIXIX",
"IXIXUXGXeX0XJXUXAXAXAXAXVXVXfXiXiXhXtXtXiXfXBXVXVXAXGXGXLXGX0XeXAXIXIXIX",
"IXIXIXAXeX0XGXUXGXAXAXZXBXsXtX'._._.E.^._.yXiXvXCXAXAXGXLXGX0XeXAXIXIXIX",
"IXIXIXAXeX0XAXJXHXAXZXVXtX`.R.T.L c g g L K R.'.vXVXAXGXJXAX0XeXAXIXIXIX",
"IXIXIXAXeX.XAXIXHXAXvXhX{.!.7.G a p + d f n P T.`.nXAXGXJXGX0XeXAXIXIXIX",
"IXIXIXAXeX0XJXUXHXZXhX{.Q.~.K N a O X p d A Z A K '.vXGXIXGX0XeXAXIXIXIX",
"IXIXIXAXeX3XJXUXSXcX|.!.7.6.K G a O X p d j V V Z ~. XCXJXZX0XeXAXIXIXIX",
"IXIXLXAXeX3XAXJXZXkX[.~.7.5.K N a y X p d j V V w B !.mXJXGX0XeXAXIXIXIX",
"IXIXIXAXeX3XAXJXbX}./.9.7.6.K b a + X @ d j V V w j K jXFXJX0XeXAXIXIXIX",
"IXIXIXAXeX0XAXLXcX[.W.9.6.K P b a + O @ 4 j V q q q A }.DXJX0XeXAXIXIXIX",
"IXIXIXZXeX0XJXJXzX).9.9.6.4.D b a + X @ 3 w r q 0 9 C ).mXAX0XeXAXIXIXIX",
"IXIXIXAXeX0XHXFXjX).9.6.5.4.B v a + X * 3 w q q 9 8 r /.mXZX0XeXAXIXIXIX",
"IXIXIXAXeX0XFXFXjX).7.6.4.3.B x a + X @ 3 w q 0 9 7 V /.mXHX0XeXAXIXIXIX",
"IXIXIXHXeX0XJXJXzX).7.6.3.P B h s + + @ 3 6 8 8 7 : C [.DXJX0XeXAXIXIXIX",
"IXIXIXAXeX0XJXLXcX(.9.4.3.S x f u O X o > 3 1 ; 7 8 S  XFXGX0XeXAXIXIXIX",
"IXIXIXAXeX0XJXLXNX XW.4.3.x f u y O X X o # , 2 ; 0 6.jXSXZX0XeXAXIXIXIX",
"IXIXIXAXeX0XAXIXZXjX(.4.3.M h u y + X X . > < ; 7 S [.NXPXGX0XeXAXIXIXIX",
"IXIXIXAXeX0XJXIXSXNX9XQ.,.B k f p + o . > < ; 7 r W.jXAXIXHX0XeXAXIXIXIX",
"IXIXIXAXeX0XJXIXHXZXbX|.2.B Z e 5 & & > - ; 2 k T.9XZXHXKXJX0XeXAXLXIXIX",
"IXIXIXAXeXwXJXUXGXGXZXbX9XY.,.B z 5 5 5 6 e 3.Y.9XCXHXHXIXJX0XeXAXLXIXIX",
"IXIXIXAXqX3XAXAXVXZXVXBXsX5X^.<.,.m x x H <.^.4XfXVXZXZXHXZX.XqXAXIXIXIX",
"IXIXIXAX3XZ.4X7X6X4X2X2X>X>X;X^.C.C.C.C.S.J.K..X3XrXqXeXaXeXH..XAXIXIXIX",
"IXIXIXAX*X*.f.d.f.d.h.h.h.g.oXXXg.g.+X+X%XD..X.X.X.X.X3XeX0XF.P.VXUXIXIX",
"IXIXIXAXOXY W Q ]  . ...e.e.u.u.l.d.k.h.oXOXXX%X%X>X,XqXuXeXF.P.dXLXIXIX",
"IXIXIXAXoX/ Q ^ [ | X.O.y.t.p.i.i.b.b.v.@X$X&X:X*X,X7XpXMXdXH.P.fXLXIXIX",
"IXIXIXAX$X( ! ^ { } X.o.r.t.p.a.c.z.b.v.@X#X=X<X,X2XpXpXMXfXH.P.dXIXIXIX",
"IXIXIXAX$X/ ! ~ { } X.o.y.t.p.a.c.x.b.b.@X#X-X<X,X6X7XuXfXdXG.P.fXLXIXIX",
"IXIXIXAX&X/ W ! ^ } X.O.r.t.p.a.c.x.b.@X@X#X-X<X,X,X2X3XrX.Xm.P.ZXLXIXIX",
"IXIXIXUX8Xs.0.) ' ) ) ' ` 0.0.q.q.w.w.-.>.:.;.;.B.B.B.Z.H.H.H.eXLXIXIXIX",
"IXIXIXIXNX,X>.*.E E I I T T T R %.%.&.+.$.#.@.=.    =.n.m.F.wXZXIXIXIXIX"
};
