/* XPM */
static char *__[] = {
/* columns rows colors chars-per-pixel */
"36 36 256 2 ",
"   c #755936BC2418",
".  c #7DCF38181FC8",
"X  c #1F336FB91F34",
"o  c #12D87FF112DA",
"O  c #190B7D64190B",
"+  c #23795AEF2379",
"@  c #2CE85A752CE7",
"#  c #3C325D713C3E",
"$  c #34D35C6C34D6",
"%  c #2AF36DD62B11",
"&  c #225967CC225F",
"*  c #21BF73DD21C1",
"=  c #1FA878391FA8",
"-  c #2A667DF72A6F",
";  c #382C74613858",
":  c #654542541CC9",
">  c #678347DA1D93",
",  c #6CAC41431F3E",
"<  c #5F625D2D29E4",
"1  c #7A3242A82589",
"2  c #658658F828C1",
"3  c #74C95AF9310B",
"4  c #5ACA61CC2CC9",
"5  c #59F269313207",
"6  c #4804753B3B0D",
"7  c #540172C439B9",
"8  c #7F7861573D0F",
"9  c #47CB5F8F47CB",
"0  c #43315E7E4331",
"q  c #4CE461374CE4",
"w  c #432E7C6042CD",
"e  c #49C772A047A3",
"r  c #514B773845B7",
"t  c #545363E25453",
"y  c #5EEF67F95EEF",
"u  c #5AF066795AF0",
"i  c #552F75F8541F",
"p  c #5D0B798E5D2E",
"a  c #63F1698D63F1",
"s  c #67297DD76737",
"d  c #7338762C7338",
"f  c #96F43C371700",
"g  c #9EF2369A2DD3",
"h  c #9B7A3816346D",
"j  c #B0AF38D92EC9",
"k  c #B9763C1429BA",
"l  c #A51036A33671",
"z  c #AD3C3A1332EA",
"x  c #A7793BFA3B87",
"c  c #A83A3CB33C04",
"v  c #A87235DA33C2",
"b  c #B2A33F283542",
"n  c #AB683B61277F",
"m  c #A09E3FD017E6",
"M  c #86384D1D2A8B",
"N  c #8C9D59E7367A",
"B  c #A1A04C482A7A",
"V  c #AA13426F3AD3",
"C  c #B3A84124377D",
"Z  c #B3A042B73A4F",
"A  c #BE2F4424309C",
"S  c #D4254B8E1CC4",
"D  c #E45C4DE61C18",
"F  c #C32B428B2344",
"G  c #CDF348BA28CA",
"H  c #D6C647AF1FB0",
"J  c #DFB34E1F203D",
"K  c #D991504F2962",
"L  c #C7D04CBD3496",
"P  c #CB1351FD3ADD",
"I  c #D99659B733E2",
"U  c #E5A152B52343",
"Y  c #E63A56C5298B",
"T  c #E56459062E66",
"R  c #E8D556812986",
"E  c #E6BC5E013540",
"W  c #E1E15DF13B34",
"Q  c #E9045F3B3819",
"!  c #E8C25BFA32AF",
"~  c #E6AF62613C9D",
"^  c #E8E061CD3C3E",
"/  c #AD824390406F",
"(  c #BA7D4E2243B2",
")  c #B5184C7144B5",
"_  c #BB0753744B19",
"`  c #B8885248436F",
"'  c #BFD95A8E50C0",
"]  c #82ED6F595146",
"[  c #87CA7C3F5F01",
"{  c #919971665BB6",
"}  c #8A1F674C4438",
"|  c #A2B46A7554DC",
" . c #BF91608855ED",
".. c #CA5656FB43A8",
"X. c #C8935BE749FA",
"o. c #CEED63334DB4",
"O. c #C87B65244705",
"+. c #DF1C63064405",
"@. c #D0896F984E57",
"#. c #DE4868AA4CF7",
"$. c #C40766D75B9A",
"%. c #D3AF6ABC53CC",
"&. c #D1AB6EA95D73",
"*. c #DB806F8257AA",
"=. c #DE0A75CE5A09",
"-. c #E00E79EF5F02",
";. c #D7E47538587D",
":. c #E4E465B342B2",
">. c #E45B6AD94A37",
",. c #E6C2698B42FC",
"<. c #E1C56F4A527D",
"1. c #E465758054AC",
"2. c #E2DD75B95915",
"3. c #D24E744A645C",
"4. c #DFD27C3A636F",
"5. c #DB377E7E6B77",
"6. c #CA7575236AE5",
"7. c #E4C17D8660B6",
"8. c #139D84D6139D",
"9. c #1685891D1685",
"0. c #179A86F01799",
"q. c #1A6689331A66",
"w. c #23B387CA23B3",
"e. c #2291881F2291",
"r. c #2A7F87452A7F",
"t. c #325587203261",
"y. c #397185A239CD",
"u. c #3BAA899A3BB5",
"i. c #41C280033B23",
"p. c #42AE899042DD",
"a. c #4ACC89B54AC9",
"s. c #48448588475F",
"d. c #51D185FA4DA0",
"f. c #53BF8B325390",
"g. c #5BA48C875B46",
"h. c #5B0483C55188",
"j. c #68598073567B",
"k. c #628E85BE5887",
"l. c #702481795BFD",
"z. c #639F8E936338",
"x. c #69DE8E4566E4",
"c. c #6BA391CF6BD4",
"v. c #783885C4782E",
"b. c #783685F57830",
"n. c #73C694B17397",
"m. c #7BEF99137C23",
"M. c #79C6956C75FB",
"N. c #795B851964A7",
"B. c #872D88BD705B",
"V. c #872494B17643",
"C. c #CF9B89A975D6",
"Z. c #DBCF89F179FA",
"A. c #D75589B7780E",
"S. c #DE7D90957F0A",
"D. c #E4CB80C8651E",
"F. c #E47284096B6C",
"G. c #E86B87306C77",
"H. c #E24686847240",
"J. c #E6268A6B73D8",
"K. c #E87F8B4E7404",
"L. c #E5418E5B7B20",
"P. c #E84091AD7D75",
"I. c #E96592897DA4",
"U. c #869C8BA6869E",
"Y. c #99608CCE8049",
"T. c #847E9D0F8481",
"R. c #8C2C93FA86DE",
"E. c #97589C738E93",
"W. c #94EB95B294EB",
"Q. c #9C2E9CCE9C30",
"!. c #95499BDB9536",
"~. c #A8438EC08579",
"^. c #84DBA66883B0",
"/. c #85F9A9E085FC",
"(. c #8D8BA1648DB0",
"). c #88DEAA6B894F",
"_. c #96D9A5F29607",
"`. c #97C5A8B0993F",
"'. c #9F1CAB7F9EAC",
"]. c #9402AF1391AC",
"[. c #A315A1BE9C6D",
"{. c #A3C2A4BAA3CA",
"}. c #A22DAD30A247",
"|. c #ABAAAC43AB5A",
" X c #AB9EB49EABCF",
".X c #A90CBB5EA72D",
"XX c #B444B53CB420",
"oX c #B45EBAB3B484",
"OX c #BB9FBC83B585",
"+X c #BBCFBCDDBBBE",
"@X c #DB2C9F509443",
"#X c #D2069D8A9618",
"$X c #E70795328256",
"%X c #E4BD9D818D7C",
"&X c #E5C09A3F8A4A",
"*X c #D336A0FE99E2",
"=X c #DFCFA8219B86",
"-X c #DBFFA1359433",
";X c #E603A42994DE",
":X c #EA53A59595D2",
">X c #E7FBA6B9984E",
",X c #E69CAC1D9E49",
"<X c #EACBAB979EDF",
"1X c #D556AC58A400",
"2X c #DF2AB478AC36",
"3X c #C403BC3DB5AB",
"4X c #DB91BB5EB632",
"5X c #E5F4ACB4A077",
"6X c #E0E0B08AA813",
"7X c #E707B4CFA99B",
"8X c #E64EB844AE8D",
"9X c #E7BEBBB6B213",
"0X c #E8DCBED9B3DD",
"qX c #BEC1C391BEC9",
"wX c #BD0CC87FBD28",
"eX c #D747C116BB7E",
"rX c #E47EC085B939",
"tX c #BFE1C5E8C0CE",
"yX c #C2E8C321C2E1",
"uX c #C78FC9D7C75C",
"iX c #C87DC895C802",
"pX c #CCF0CCF2CC8F",
"aX c #CF31C4AEC0D7",
"sX c #DE0ECD39CA4C",
"dX c #D754C450C0D2",
"fX c #D00BD06ED009",
"gX c #DBA7D189CC8D",
"hX c #D4D4D55ED4A9",
"jX c #DED4D45ED2E3",
"kX c #D642D9ABD644",
"lX c #DFB1D89ED736",
"zX c #DCA1DCC2DC43",
"xX c #E419CEE2CB56",
"cX c #EB06CF9EC9D1",
"vX c #E8DEC9C9C34D",
"bX c #EB8ED1A4CD10",
"nX c #E445D5B2D370",
"mX c #E9C6D6D7D394",
"MX c #E4A4DE63DCF8",
"NX c #EA7BDDD6DB96",
"BX c #ECADDB13D77E",
"VX c #F234DCA1D8D4",
"CX c #DE57E502DF6E",
"ZX c #E1D7E0ABE03E",
"AX c #E446E49DE45A",
"SX c #EBC8E57EE490",
"DX c #E7ECE897E7FC",
"FX c #EB13E877E823",
"GX c #EC4FEC1CEC1D",
"HX c #F402EDE9EDA7",
"JX c #F628E70BE443",
"KX c #EFF7F060F090",
"LX c #F177F02FF19A",
"PX c #F433F434F442",
"IX c #FE0BFE18FE27",
"UX c #F7B2FA12FABE",
/* pixels */
"IXIXIXIXIXIXIXIXUXIXIXUXFX+XW.Q.Q.Q.Q.Q.Q.Q.W.Q.hXPXIXIXIXIXIXIXIXIXIXIX",
"IXIXIXIXUXFXDXFXDXAXDXAXpX|.{.+X+XyX+X+XyX+X|.{.yXZXDXDXAXFXDXPXIXIXIXIX",
"IXIXIXUXAXpXpXpXfXpXfXiX|.|.+XzXAXAXZXZXAXzXiX|.+XiXfXpXpXpXiXZXUXIXIXIX",
"IXIXIXPXpXXXpXfXpXpXiXyXyXiXhXAXAXAXzXZXAXAXzXfXiXyXiXiXfXiXXXiXPXIXIXIX",
"IXIXIXGXuX+XzXDXzXzXzXhXhXzXZXZXAXzXzXAXzXAXAXAXzXkXhXzXAXzXXXpXGXIXIXIX",
"IXIXUXGXpXyXPXUXLXGXDXDXAXAXAXAXAXZXAXzXzXAXAXAXFXGXFXFXPXLXyXpXGXIXIXIX",
"IXIXUXHXpXyXPXUXGXDXDXGXAXAXAXAXAXAXAXAXAXAXAXAXGXGXGXKXPXFXyXpXGXIXIXIX",
"IXIXIXGXpXyXLXUXGXGXGXDXAXAXzXfXsXsXsXsXjXzXZXAXDXGXGXLXUXGXyXpXGXIXIXIX",
"IXIXIXGXpXyXKXUXGXGXGXDXZXlXsX4X1X#X#X#X1X4XsXZXAXGXGXLXUXLXiXpXGXIXIXIX",
"IXIXIXGXpXyXDXPXGXFXGXSXxX2X@X$X6.$.$.$.6.A.@X9XnXAXFXKXUXPXyXpXGXIXIXIX",
"IXIXIXGXpXtXGXPXKXGXZXcX1X%XL.6.' / b ( o.*.5.Z.2XnXDXKXUXGXyXpXGXIXIXIX",
"IXIXIXGXpXyXPXIXKXDXcX7X&X$X5.&._ x l Z ..<.>.<.Z.6XMXLXPXSXyXpXGXIXIXIX",
"IXIXIXGXpXyXPXUXGXNX9X&X$XH.5.&._ x l b ..#.>.:.>.L.0XSXPXDX+XfXGXIXIXIX",
"IXIXIXGXpXyXLXUXSXvX>X$XL.J.5.&._ x l / ..+.:.:.W 2.;XVXPXKX+XfXGXIXIXIX",
"IXIXIXGXpXyXKXUXMX8X%XP.L.K.7.3.' c l / ..+.:.^ ~ :.F.vXPXLXyXfXGXUXIXIX",
"IXIXUXFXpXyXFXPXNX5X$XP.H.F.7.3._ c v b P :.:.W Q W 1.8XJXLXyXpXHXIXIXIX",
"IXIXIXFXuXeXGXPXmX>XI.L.H.D.-.&._ x l b P W ^ Q ! R >.,XBXKXqXpXGXIXIXIX",
"IXIXUXGXpXyXLXHXcX:XI.K.G.D.-.%._ x v b P W ^ Q ! R ~ -XmXDXyXpXGXIXIXIX",
"IXIXUXGXpXtXFXHXbX:XI.K.G.7.=.%._ c x b P I ! ! R R ^ ;XBXLXyXpXGXIXIXIX",
"IXIXUXKXpXtXGXPXmX:XP.J.F.7.;.o.( c l b L K I Y U U ,.<XJXPXyXpXGXIXIXIX",
"IXIXIXGXpXyXPXUXNX,XP.J.D.=.%.X.) x l z A G K U D U 1.0XHXPXyXpXHXIXIXIX",
"IXIXIXGXpXyXPXUXSX0X&XG.D.@.X.` / x l l z k G J D ~ H.bXUXHXyXpXGXUXIXIX",
"IXIXIXGXpXyXGXUXHXbX<XK.D.*.o.X.c c l v z F H D U 1.,XNXUXKXyXfXGXIXIXIX",
"IXIXIXGXuXoXkXCXCXgX1XC.;.@.O.Z V h h g n F S H I C.eXlXDXzXOXiXGXIXIXIX",
"IXIXIXGX.XM.^.)././.V.[ } N N M 1       . f m B { C.|.oXqXoX!.XXAXUXIXIX",
"IXIXIXGX].w w p.p.p.s.r 7 5 < > > : :   1 M N { R.`.|.oXqXqX!. XlXUXIXIX",
"IXIXIXFX^.* X O 9.q.- ; u.i.6 4 4 < 2 3 8 8 B.E.}. X+XqXhXhX}. XzXUXIXIX",
"IXIXUXFX^.X O 0.e.w.t.y.p.s.d.h.h.j.N.N.V.T._.'.|.oXqXuXkXkX{.XXzXUXIXIX",
"IXIXIXGX/.* 8.9.w.r.t.u.p.a.f.g.z.x.n.M.T.(.`.}. XOXaXpXzXkX|.XXkXUXIXIX",
"IXIXIXGX/.* 8.9.e.r.t.u.p.a.f.g.z.c.n.m.T.(._.}. X3XdXpXzXhX|.XXzXPXIXIX",
"IXIXIXFX/.* 8.9.w.r.t.u.p.a.f.g.z.c.n.m.T.(._.}. XOXyXpXzXhX|.XXzXUXIXIX",
"IXIXUXFX/.* 8.9.w.r.t.u.p.a.f.g.z.c.n.m.T.(._.'. XoXtXfXzXhX|.XXzXUXIXIX",
"IXIXIXFX/.* 8.9.e.r.t.u.p.a.f.g.z.c.n.m.T.(.`.}. XoXqXpXkXfX{.|.zXPXIXIX",
"IXIXIXGX/.= o 8.e.r.t.y.p.a.h.z.x.c.n.m.T.(.`.}. XoX+XqXiX+XW.|.zXUXIXIX",
"IXIXIXPX.Xs.- = * * % % ; ; e e i i p s s d v.b.U.U.R.!.{.|.Q.+XFXUXIXIX",
"IXIXIXPXqXn.w % & + + + @ @ $ # # 0 9 9 t u u y a a a d U.!.{.fXUXIXIXIX"
};
