/* XPM */
static char *__[] = {
/* columns rows colors chars-per-pixel */
"36 36 256 2 ",
"   c #4B283AB21AD1",
".  c #4D8035541BB2",
"X  c #515532CD1A5C",
"o  c #59EE341F18B8",
"O  c #56AC3E441BC5",
"+  c #653336E718AD",
"@  c #714B3B1C15EF",
"#  c #70EF2D1C25AA",
"$  c #7763350F285F",
"%  c #1D5653941D56",
"&  c #3EAA5707186A",
"*  c #1F576EEA1F57",
"=  c #11DF7BF711F4",
"-  c #1DA076591D72",
";  c #2CB86F6C1EC9",
":  c #36056587197A",
">  c #24E652E224E6",
",  c #263357572633",
"<  c #344A5659344B",
"1  c #3E6D59C53E6E",
"2  c #2B4A6C662B3F",
"3  c #258367D62572",
"4  c #3DD46DA82D24",
"5  c #25EB76FE244E",
"6  c #36EA7A5E2704",
"7  c #3BCB6F143BCF",
"8  c #35E06CDB35E6",
"9  c #32C17DA732E9",
"0  c #39E679BC35DF",
"q  c #488446F01BA0",
"w  c #549844E61AA3",
"e  c #599A48A61A75",
"r  c #43225D0A190B",
"t  c #4F2F56AB1B0A",
"y  c #5A7552F61B9B",
"u  c #57C259FC1A5C",
"i  c #6886452B187E",
"p  c #77E746E1178F",
"a  c #487C663C1C67",
"s  c #43CB6A9B1C21",
"d  c #507361561B07",
"f  c #4BAB5CB421EE",
"g  c #5855579C2196",
"h  c #6A0A5DEF2C7B",
"j  c #76A65DEC3197",
"k  c #42F0643925D5",
"l  c #58A366DD2AB6",
"z  c #44F470E02838",
"x  c #58A16D813391",
"c  c #450E7D16383B",
"v  c #509A76BB39A9",
"b  c #4BCD5E744BCD",
"n  c #439E5B77439E",
"m  c #55BD5B1F55BD",
"M  c #5C725FB35C72",
"N  c #41ED6FA641E0",
"B  c #45AA75924589",
"V  c #53D0608253D0",
"C  c #5819616F5818",
"Z  c #53C574AD53BC",
"A  c #5AEF77435B03",
"S  c #6C3E7EA76C49",
"D  c #61B97A1F61CB",
"F  c #7DAA7FB87DAA",
"G  c #6A816CC46A81",
"H  c #841437A61230",
"J  c #94B939E3105A",
"K  c #9A103F9C1586",
"L  c #A51A3F281A88",
"P  c #99A23AF1275C",
"I  c #926E33F93291",
"U  c #86AC37EB220D",
"Y  c #A5303700370D",
"T  c #A8993CE63C3B",
"R  c #863347311799",
"E  c #956545991592",
"W  c #A02C47EC192C",
"Q  c #A81A413E1D1E",
"!  c #9C19565C2F48",
"~  c #86BE4ADE3294",
"^  c #8E7D55AF387D",
"/  c #93725C4D3D7C",
"(  c #8EEA4D092760",
")  c #B22345122DD1",
"_  c #A69155C62F0B",
"`  c #A936446D3D28",
"'  c #B4E3404F35B0",
"]  c #B3D743353B13",
"[  c #AA4F56DC3AA6",
"{  c #801764BC3D20",
"}  c #CD4F4A041F53",
"|  c #CC614CED23D5",
" . c #C6A650292CA9",
".. c #CCF350013680",
"X. c #CB3752203AFA",
"o. c #CD755CA138B9",
"O. c #DFFE5F983DA5",
"+. c #E95859AE2DE0",
"@. c #E980574D2AF9",
"#. c #E75F5DE9359F",
"$. c #E0F15DD239EB",
"%. c #E5D8615B3B44",
"&. c #EA2767A73FB5",
"*. c #9F085DA14022",
"=. c #B63E495C4174",
"-. c #BB7352FE4A37",
";. c #B7055C074831",
":. c #93A6637C4273",
">. c #958A68AF4E95",
",. c #888C722951EE",
"<. c #BEF260AB5828",
"1. c #8F247CBC60F5",
"2. c #9BDC7BAB61A2",
"3. c #A4C27AA4619C",
"4. c #C9AE56D143DE",
"5. c #C9F65A2A480F",
"6. c #C1075B78516D",
"7. c #DFAF633E43B2",
"8. c #D422628B4AD2",
"9. c #DC67676B4C02",
"0. c #C3DD680A58C0",
"q. c #D2496A495676",
"w. c #D5606E185AA0",
"e. c #C84D734F5A39",
"r. c #D24A703C5F94",
"t. c #E4D064FF41F2",
"y. c #E5666B634A0B",
"u. c #E1BD6F4C527C",
"i. c #E33F76D059F3",
"p. c #CCD0776166F9",
"a. c #D83F785865C5",
"s. c #E2197B376154",
"d. c #1309840F130A",
"f. c #16BB896216BE",
"g. c #17A58A5017A8",
"h. c #20E486ED20DD",
"j. c #2209880D21FA",
"k. c #29EC86CA29B0",
"l. c #31EF83802DE2",
"z. c #32AB87453289",
"x. c #3B2088473B50",
"c. c #3A89855B37F8",
"v. c #41ED85673F53",
"b. c #42E488BF42EF",
"n. c #4B1C8A234B3E",
"m. c #4AA087EB48B0",
"M. c #52BD87564E41",
"N. c #53628B995371",
"B. c #5B658CAC5B1D",
"V. c #5AC1863D5304",
"C. c #65AB81EA55C5",
"Z. c #710981BA5C3D",
"A. c #63798EAD632D",
"S. c #67BC8A1566B5",
"D. c #6BA991C16BD3",
"F. c #7A4C882F7A63",
"G. c #738194387342",
"H. c #7C3C988C7C67",
"J. c #7B4995FA79A5",
"K. c #7983858964D4",
"L. c #82958C6C70DB",
"P. c #92AD88447113",
"I. c #B03D806B68C1",
"U. c #A8C989A77B41",
"Y. c #CBCA81666C72",
"T. c #D93F87D878A9",
"R. c #DE6B90E37F59",
"E. c #E3D083AC6C88",
"W. c #E56E8961741D",
"Q. c #E58F8E807AEE",
"!. c #E9888D417668",
"~. c #EA44926E7D51",
"^. c #E65A91E27FBA",
"/. c #823F88C18246",
"(. c #8B798DC18B81",
"). c #82C7848D82C7",
"_. c #85029CC48518",
"`. c #8F5D90FC8F5D",
"'. c #8C24968A8070",
"]. c #91209AE383E5",
"[. c #9C559CF09C57",
"{. c #990E9A4794C1",
"}. c #AE248E3783BD",
"|. c #A6ED9C728D45",
" X c #A5F298C39192",
".X c #84B2A69884BC",
"XX c #8E41A2998E96",
"oX c #9653A687958C",
"OX c #95E1A9A69661",
"+X c #9CBEB4019CC7",
"@X c #A072AB4C9E80",
"#X c #B1B0A24D94E2",
"$X c #A3CAA43EA3CB",
"%X c #A231AD41A279",
"&X c #AC02ACB3ABDF",
"*X c #BD6BB008A6F5",
"=X c #AC30B464AC55",
"-X c #AA18B20BA7F9",
";X c #B414B38AAE67",
":X c #B8BAB410AFCA",
">X c #B02EB1A0B04E",
",X c #B2CEB384B2C6",
"<X c #B4D7BBF7B508",
"1X c #BCADBD1DBC71",
"2X c #CC9C96B387B3",
"3X c #E05C9B858E11",
"4X c #D4F79D2E94E1",
"5X c #DAF79F289513",
"6X c #E4039575858C",
"7X c #E4C79D7A8E26",
"8X c #D32BA1049A13",
"9X c #E7A7A4789536",
"0X c #EAD4A67F9624",
"qX c #E5F5A90F9C17",
"wX c #D62CAAEFA4BD",
"eX c #E025AFFDA7B0",
"rX c #DEDBB4F4AD51",
"tX c #CF90BD89B7B6",
"yX c #DB37BB3FB65A",
"uX c #E15EAFEEA776",
"iX c #E59DB628ABD3",
"pX c #E511B9BEB1FC",
"aX c #BFEFC245BE7D",
"sX c #C061C058C00E",
"dX c #E5B3C09BB932",
"fX c #C35FC457C376",
"gX c #CC90CD0BCC86",
"hX c #DE15CD1FCA5A",
"jX c #D7B8CA17C501",
"kX c #CF54D066CF71",
"lX c #DEC2D057CE2B",
"zX c #D697D701D658",
"xX c #DEF7D463D2F9",
"cX c #D7E6D8FDD7F1",
"vX c #E02BD8BBD77E",
"bX c #DCC6DCFCDCA5",
"nX c #E334CE11CACD",
"mX c #E8CDC9D1C355",
"MX c #EF03D43BCFBC",
"NX c #EB79DA30D6E1",
"BX c #E161DE94DE22",
"VX c #E9F0DDBDDBB7",
"CX c #E905D4A5D136",
"ZX c #F350DE1FDA0C",
"AX c #DFB7E09EDFEE",
"SX c #E590E0B0DFE3",
"DX c #F638E0ABDC0F",
"FX c #E48CE4ADE486",
"GX c #EE95E60CE479",
"HX c #EC07EC1DEC09",
"JX c #E9B3E8C3E88A",
"KX c #F058F097F09F",
"LX c #F475F476F472",
"PX c #F847F891F85A",
"IX c #FE3DFE4AFE55",
"UX c #FA59F489F45A",
/* pixels */
"IXIXIXIXIXIXIXIXIXIXIXPXHX1X`.$X$X[.$X X[.$X[.$XcXLXPXIXIXIXIXIXIXIXIXIX",
"IXIXIXIXLXHXJXJXFXFXJXAXgX&X$X1X1X1XsXsXsXsX$X$XfXBXJXJXFXJXJXLXIXIXIXIX",
"IXIXIXIXFXgXgXgXgXgXkXfX>X&X,XzXBXFXbXAXFXBXfX&X,XsXgXgXgXgXfXAXIXIXIXIX",
"IXIXIXLXgX,XgXgXgXgXgXfXsXgXzXbXAXFXAXAXFXFXzXgXfXgXgXgXgXgX>XgXHXIXIXIX",
"IXIXIXHXgX1XbXJXbXbXcXzXzXbXBXAXBXAXBXAXAXFXAXBXcXcXbXbXSXzX,XfXJXIXIXIX",
"IXIXPXHXgXfXLXPXKXHXHXJXJXJXFXFXAXAXFXBXBXFXFXJXJXJXHXKXLXHXsXkXHXIXIXIX",
"IXIXIXHXgXfXKXPXHXKXHXJXFXFXFXFXFXAXFXFXFXAXFXFXJXJXHXKXPXKXfXkXHXIXIXIX",
"IXIXIXHXgXfXLXPXHXHXHXJXFXFXBXzXxXhXhXhXxXbXFXFXJXHXHXKXIXLXfXkXHXIXIXIX",
"IXIXIXHXgXsXLXPXKXHXJXJXBXBXhXwXwX8X4X4XwXjXnXBXFXHXHXKXPXKXsXkXHXIXIXIX",
"IXIXIXHXgXfXKXIXKXHXJXFXlXrX4X6Xp.<.<.r.p.a.4XyXBXJXHXKXLXHXsXgXJXIXIXIX",
"IXIXIXHXgXfXHXLXKXHXSXnXeX3XT.a.<.=.T =.5.w.a.6XeXCXHXKXPXHXsXgXHXIXIXIX",
"IXIXIXHXgXfXJXLXKXJXnXuX6XQ.W.r.-.T Y ] 5.y.y.u.a.pXVXKXPXKXfXgXHXIXIXIX",
"IXIXIXJXgXfXKXIXHXNXpX7XQ.W.W.r.-.T Y T 4.8.9.t.y.Q.pXGXPXJXfXgXHXIXIXIX",
"IXIXIXHXgXfXKXIXGXmXqX6X!.W.a.r.-.T Y =.4.8.t.7.O.s.9XNXPXHXfXkXHXIXIXIX",
"IXIXIXHXgXfXHXPXVXiX7X!.W.W.s.r.-.T Y ] 4.7.t.t.$.t.s.MXUXKXfXgXHXIXIXIX",
"IXIXIXHXgX1XHXKXNXuX6X!.W.E.s.r.-.T Y ] X.7.t.%.#.#.u.iXGXJXfXkXHXIXIXIX",
"IXIXIXHXgXsXHXKXMX0X~.!.W.E.i.q.-.T Y T X.O.%.%.#.+.y.qXDXHXfXgXHXIXIXIX",
"IXIXIXHXgXfXLXUXMX0X~.!.W.E.s.q.-.T Y T ..$.%.#.+.@.t.9XDXLXfXgXHXIXIXIX",
"IXIXIXHXgXfXLXUXMX0X~.~.E.E.s.q.4.T Y ' ..$.#.@.@.@.&.9XZXLXfXkXHXIXIXIX",
"IXIXIXHXfX&XzXzXdX2XY.e.e.e.0.;.T P I Y )  . .| | } o.2XjXzX;XfXHXIXIXIX",
"IXIXIXHX=XF.XXOX_.,.,.>./ / ^ ~ $ # # $ U P L L L L [ }.:X<X{.,XHXIXIXIX",
"IXIXIXHXXX8 9 z.0 4 z t y t q w   . X X o + H J J ( >. X,X;X(.&XbXLXIXIX",
"IXIXIXHX.X* = = - 5 ; : a & & q q     . o @ H J L [ U.,XgXfX[.&XzXLXIXIX",
"IXIXIXHX.X; d.f.h.k.6 6 s s s t q w w + @ R K W _ 3.*XgXAXbX$X>XzXIXIXIX",
"IXIXIXJX.X* d.f.h.k.9 6 z a t u y e e i p R E ! 3.#XaXgXAXAX%X;XcXIXIXIX",
"IXIXIXHX.X* d.f.h.k.z.c.c z l l y e i p R ( :.2.|.,XaXkXAXcX$X=XcXLXIXIX",
"IXIXIXHX.X* d.f.h.k.z.x.v.c v x l h h j j ,.P.oX=X<XsXkXAXcX$X&XzXLXIXIX",
"IXIXIXHX.X* d.f.j.k.z.x.v.m.M.V.V.Z.K.K.L.].{.%X=X<XfXkXAXcX$X>XzXIXIXIX",
"IXIXIXHX.X* d.g.j.k.z.x.b.n.N.B.A.D.G.J._.XXOX%X=X<XaXkXBXcX&X>XcXLXIXIX",
"IXIXIXJX.X* d.g.j.k.z.x.b.n.N.B.A.D.G.J._.XXOX%X=X<XfXkXbXcX$X>XcXLXIXIX",
"IXIXPXJX.X* d.g.h.k.z.x.b.n.N.B.A.D.G.H._._.oX@X=XaXfXgXbXcX&X>XcXIXIXIX",
"IXIXIXHX.X* d.g.j.k.z.x.b.n.N.B.A.D.G.H._.XXOX+X+XaXfXgXAXcX&X>XcXLXIXIX",
"IXIXIXHX.X* d.f.g.k.z.x.b.n.N.B.A.D.G.H._.XXOX%X=X<XaXgXbXzX$X>XcXLXIXIX",
"IXIXIXHX.X* = d.h.k.z.x.b.n.N.B.A.D.G.H._.XXOX%X=X<X1XfXgXsX(.$XcXPXIXIX",
"IXIXIXHX+XN 5 5 * * 2 2 8 8 B B Z Z A D S S.F F.F././.(.`.`.).>XFXIXIXIX",
"IXIXIXLX<XS.7 3 , % % % > < < < 1 n n b b m m C m m m m M G F <XHXIXIXIX"
};
