/* XPM */
static char *__[] = {
/* columns rows colors chars-per-pixel */
"36 36 256 2 ",
"   c #56A12D891C76",
".  c #53E23BC31BD9",
"X  c #5D2D3B2F1C50",
"o  c #57A834281C25",
"O  c #62BF3B771B3E",
"+  c #6A1437871BFB",
"@  c #76013BAB17D7",
"#  c #7BA838832669",
"$  c #79752E0228AB",
"%  c #0EE67D2D0EEE",
"&  c #1EBF6CC81EC0",
"*  c #1CF267CA1CF2",
"=  c #1A687AC01A91",
"-  c #3C216CDA1B09",
";  c #37C2691F1B57",
":  c #2DBE71231A7F",
">  c #27D37B831BA6",
",  c #3A8070EB1D88",
"<  c #323375471BA0",
"1  c #21D94EDB21D9",
"2  c #296452392965",
"3  c #2911570B2911",
"4  c #3C0D560E3C0D",
"5  c #3256532E3257",
"6  c #2B086B212B00",
"7  c #25D6681125E1",
"8  c #27EE77B12649",
"9  c #36DF7A572712",
"0  c #388D6BDA3893",
"q  c #32D47A0232D4",
"w  c #4EA441C01C05",
"e  c #4CA449C11C72",
"r  c #504D4B081C2F",
"t  c #542943C51B2B",
"y  c #4B8E52F21CD4",
"u  c #4CF85C361D57",
"i  c #474159AC1BF7",
"p  c #52DE520D1BA0",
"a  c #5A4657E31BEB",
"s  c #688745E81BD5",
"d  c #717B41C21B79",
"f  c #79DB46E6182A",
"g  c #459A63981D27",
"h  c #49FD63BA1D1C",
"j  c #42D16A521C0E",
"k  c #51B260161B8F",
"l  c #5B8857472D49",
"z  c #55D15CA5250D",
"x  c #61E54D652881",
"c  c #66A95AE12CA0",
"v  c #75805E19311A",
"b  c #4ABC60452039",
"n  c #588866F92AAC",
"m  c #55F268B93478",
"M  c #491B7F423E5B",
"N  c #509B76BC39A9",
"B  c #465E72932A79",
"V  c #7EAA64A33CB2",
"C  c #453259444532",
"Z  c #4C5E5B704C5F",
"A  c #541E5C40541E",
"S  c #44586ECA4430",
"D  c #4B126D8F4B2D",
"F  c #4D2B7A634CC3",
"G  c #508074C045BA",
"H  c #545E66FC545E",
"J  c #56AA76BC56B6",
"K  c #69A57BD56994",
"L  c #737177C3736F",
"P  c #634065B96340",
"I  c #8A5A3A211AA7",
"U  c #847F3C931D89",
"Y  c #88C43FB831E1",
"T  c #848E34F8295B",
"R  c #A3FD36743697",
"E  c #A80F3CAC3C2C",
"W  c #A87F3CDE3C58",
"Q  c #834443681CE2",
"!  c #82D34B621E8A",
"~  c #8A7E439D174A",
"^  c #927145B61B51",
"/  c #9C2346111B12",
"(  c #937C46621894",
")  c #A5EA44831987",
"_  c #ADCC45F61A1D",
"`  c #A9D543BC1537",
"'  c #B39149AF1F8F",
"]  c #93F942B42A21",
"[  c #9B7756292F8B",
"{  c #96444F8439B9",
"}  c #88C2550A2A18",
"|  c #AEB14A8729ED",
" . c #A71249CF2C02",
".. c #B0AB46EB2556",
"X. c #A78D52DC2DDE",
"o. c #B1615127294C",
"O. c #AE4B407E3A0D",
"+. c #B35F434F3B9F",
"@. c #B4D157A636DA",
"#. c #C48C50AC3B53",
"$. c #DF765BAD35FE",
"%. c #DC755DD83A99",
"&. c #E76D5FDA3A22",
"*. c #E76161B83D6B",
"=. c #B61049084172",
"-. c #BAFE539F4B61",
";. c #91E663CF4021",
":. c #94076C465E7F",
">. c #894C70D352EC",
",. c #A5C863CC476F",
"<. c #A27A6B7D51AE",
"1. c #BEF860AE5829",
"2. c #A1EA71A45859",
"3. c #BA0D6E11511A",
"4. c #9BF77BAE618E",
"5. c #A44A7A78619E",
"6. c #CA2E572B43EC",
"7. c #CBA65AB44825",
"8. c #C1005B795177",
"9. c #DE4867514AB7",
"0. c #DE99669B4927",
"q. c #C60C676B5AA5",
"w. c #D6AB6F3A5AEE",
"e. c #D28B70555FAD",
"r. c #DD9370BF5294",
"t. c #E4F465184276",
"y. c #E4406AA44A8B",
"u. c #E1B66FD35320",
"i. c #E496758858EA",
"p. c #CC9E756D6885",
"a. c #D2CE72D762D2",
"s. c #DCE07BDF6549",
"d. c #131683C5131E",
"f. c #16FE898A1710",
"g. c #17A38A6C17AD",
"h. c #1EBC83821D71",
"j. c #2082845B1E3E",
"k. c #219687A42180",
"l. c #2A0386FE29C1",
"z. c #25A884DC229B",
"x. c #323283462E19",
"c. c #32A887513285",
"v. c #3B22884C3B57",
"b. c #3A1E857A379B",
"n. c #41FA85633F5E",
"m. c #42E888C542F5",
"M. c #4B1F8A294B40",
"N. c #4AAB87ED48B9",
"B. c #52BF87594E42",
"V. c #5B6A8CB35B22",
"C. c #54728ADB5365",
"Z. c #65B381E955C8",
"A. c #710381B75C3D",
"S. c #63808EB66334",
"D. c #6AEC8F1068D8",
"F. c #77F8892968AC",
"G. c #6BB591CD6BE0",
"H. c #7BDD899E7BF2",
"J. c #76AE821776BF",
"K. c #7422949973F0",
"L. c #795193AC7967",
"P. c #7D4698FD7D66",
"I. c #77F2968C783C",
"U. c #9F32804869B3",
"Y. c #9371876371D4",
"T. c #AF67801568B1",
"R. c #B1E9847875D6",
"E. c #DEB381A36D2E",
"W. c #DB49894478FC",
"Q. c #D9CE88A678D6",
"!. c #DE72909C7F17",
"~. c #E1C7837D6DC2",
"^. c #E239867A7228",
"/. c #E4C38A53762F",
"(. c #E4E68E7C7B7E",
"). c #7FD79B3E82BC",
"_. c #83EE85B58406",
"`. c #81D588F681D8",
"'. c #893C8C42893F",
"]. c #839D9C3B83A6",
"[. c #8C759CED8C64",
"{. c #8FB490208527",
"}. c #8FB49DE391F3",
"|. c #94A9963194F3",
" X c #9BF59E739251",
".X c #9C4A9E0B9CCD",
"XX c #960B9A4C9629",
"oX c #A38E97AC8DEB",
"OX c #B9A9935382D3",
"+X c #835AA3A48373",
"@X c #8CE6A0A58CB8",
"#X c #9707A680970B",
"$X c #9B1FA3C19B8E",
"%X c #9EC4ADDC9EEC",
"&X c #A104A64A9767",
"*X c #B18BA2249505",
"=X c #A38EA4A5A390",
"-X c #A1F1ACB3A223",
";X c #AD40ADF9AD18",
":X c #BC3FAEEBA8B4",
">X c #AC09B400AC1B",
",X c #A504B2CEA3A4",
"<X c #B3E3B4E7B3F0",
"1X c #B57BBC04B59A",
"2X c #BC3FBD2ABC2D",
"3X c #BA99B86AB7B6",
"4X c #B3F3B5A5AD77",
"5X c #D8749EC294E1",
"6X c #C14396D28735",
"7X c #E36B93858329",
"8X c #E3D79C428E1A",
"9X c #E43AA0029026",
"0X c #CA5EA49D9A80",
"qX c #D96AA3AE9AE5",
"wX c #E6BEA9F49E11",
"eX c #CD5CABEEA365",
"rX c #DADEAC71A55B",
"tX c #DF2CB4A1ACE4",
"yX c #DFADB099A54A",
"uX c #C4B7B9B0B5B5",
"iX c #DAE0BB5EB61B",
"pX c #E15FAFF1A776",
"aX c #E435B5F2ACFE",
"sX c #E50FB9C7B202",
"dX c #BF0AC39FBE5E",
"fX c #C1A0C046BFD4",
"gX c #E520C057B903",
"hX c #C01EC03CC044",
"jX c #C27FC39EC28D",
"kX c #CA25CA0CC82C",
"lX c #CCC9CD6DCCC9",
"zX c #C88FC768C563",
"xX c #DDACCDA4CACD",
"cX c #D804CBDAC7E4",
"vX c #CE1BD0C2CECE",
"bX c #D488D17DCFA6",
"nX c #D677D6DDD66E",
"mX c #DE29D770D659",
"MX c #D6EED87AD70D",
"NX c #DCDFDD49DCD8",
"BX c #DFB1D87ED731",
"VX c #E5F6C9E1C558",
"CX c #E549CCD6C86B",
"ZX c #E4CADF25DE5C",
"AX c #E96FDD5ADB87",
"SX c #E731D745D4D3",
"DX c #E527E08EE03F",
"FX c #DF10E0F2E118",
"GX c #E427E446E42F",
"HX c #EAE3E777E708",
"JX c #EBC9EBB9EBD4",
"KX c #E996E8DCE82E",
"LX c #F020F084F044",
"PX c #F068F07CF093",
"IX c #F4DAF4E2F4E5",
"UX c #FE81FE7DFE89",
/* pixels */
"UXUXUXUXUXUXUXUXUXUXUXUXHX3X|..X.X.X.X.X|..X|.=XBXIXUXUXUXUXUXUXUXUXUXUX",
"UXUXUXUXIXJXKXJXKXJXHXFXkX;X=X3XhXhXhXhXhXfX;X=XjXFXKXKXGXGXKXIXUXUXUXUX",
"UXUXUXUXGXlXlXlXlXlXlXjX;X;X3XmXDXGXFXGXGXDXzX;X3XjXbXlXlXlXzXFXUXUXUXUX",
"UXUXUXIXlX<XlXvXlXlXlXjXhXkXnXFXGXGXFXFXGXGXNXbXjXjXkXlXlXlX;XlXIXUXUXUX",
"UXUXUXJXzX3XNXKXFXNXnXnXnXNXFXGXGXFXFXZXFXFXGXFXMXnXnXFXKXNX<XzXJXUXUXUX",
"UXUXUXJXlXjXPXUXJXJXJXJXGXGXGXGXFXZXGXFXZXGXGXGXJXJXJXPXIXIXjXvXJXUXUXUX",
"UXUXUXJXlXjXPXIXJXJXJXJXGXGXFXGXFXGXGXGXFXGXGXGXJXKXJXPXIXJXhXlXJXUXUXUX",
"UXUXUXJXlXhXIXUXJXJXKXJXGXGXNXnXxXxXxXxXbXBXGXGXKXJXJXPXIXJXjXlXJXUXUXUX",
"UXUXUXJXlXjXPXUXPXJXKXKXDXZXcXtXeX5X5X0XeXiXxXZXGXJXJXPXUXPXhXlXJXUXUXUX",
"UXUXUXJXlXhXKXIXPXKXKXDXxXtX5X7Xp.q.1.q.p.Q.5XiXAXGXJXPXIXHXhXlXJXUXUXUX",
"UXUXUXJXlXjXJXIXPXJXZXVXpX8X7Xa.1.+.+.=.7.w.s.7XtXSXHXPXIXJXjXlXJXUXUXUX",
"UXUXUXJXlXjXIXIXPXKXCXpX7X7Xs.e.-.E R +.6.y.y.u.Q.pXAXJXUXPXjXlXJXUXUXUX",
"UXUXUXJXlXjXIXUXPXAXsX8X(././.e.-.E R +.6.0.y.y.y.(.sXHXIXJXjXlXJXUXUXUX",
"UXUXUXJXlXjXPXUXHXVXwX7X(./.s.e.-.E R +.6.0.y.t.t.i.9XAXIXJXjXlXJXUXUXUX",
"UXUXUXJXlXjXIXIXAXaX8X(././.s.e.-.W R +.6.t.t.&.*.t.~.VXPXPXjXlXJXUXUXUX",
"UXUXUXJXlXjXGXJXSXqX7X/.s.~.s.w.-.W R W @.%.%.$.&.&.r.pXAXGX2XkXJXUXUXUX",
"UXUXUXJX<X[.&X-X#XU.2.<.:.,.,.{ Y $ $ T ]  .| | | ..@.R.:X2X.X3XKXUXUXUX",
"UXUXIXKX#XD B.N.G m l l x l x X         + # U U I I ] :.oX.X).=XFXUXUXUX",
"UXUXUXKX+X7 = j.8 : ; ; g h a y w . o X d ! ^ ^ / )  .R.uXzX|.=XMXIXUXUX",
"UXUXUXKX+X* % f.h.> : ; j g h u r . o x d ! ^ / ) _ @.6XcXnX=X;XnXUXUXUX",
"UXUXUXJX+X& d.g.j.> < - j h u y r w . X d Q ~ / _ o.-.0XmXNX=X;XnXIXUXUX",
"UXUXUXKX+X& d.g.j.> < - j g i y e w . . + @ ~ / ` o.3.uXNXNX=X;XnXIXUXUX",
"UXUXUXKX+X& d.g.j.j.< , j g u y e w . X O @ I / _ ,.OXzXFXNX=X;XnXIXUXUX",
"UXUXIXKX+X& d.g.k.l.x., j h h a e w X O @ ~ ( / X.T.:XkXFXnX=X;XnXUXUXUX",
"UXUXIXJX+X& d.g.k.l.c.x.j j k k a t s d f ~ ( [ T.*XdXvXNXMX%X>XMXUXUXUX",
"UXUXUXJX+X& d.g.k.l.c.c.n.B n k a a s f ! } ;.4.oX4XdXvXNXMX%X>XMXIXUXUX",
"UXUXUXKX+X& d.g.k.l.c.v.n.n.N n c c c v ;.>.Y.#X,X4XdXvXFXnX-X4XMXUXUXUX",
"UXUXUXKX+X& d.g.k.l.c.v.n.n.B.Z.Z.Z.K F.K.Y.XX%X>XdXdXvXNXnX=X>XnXUXUXUX",
"UXUXUXKX+X& d.g.k.l.c.v.n.M.C.V.Z.D.K.K.].}.$X-X,X1XjXvXNXnX=X;XnXIXUXUX",
"UXUXIXKX+X& d.g.k.l.c.v.m.M.C.V.S.G.K.P.+X@X#X-X>XdXdXvXNXnX=X;XnXIXUXUX",
"UXUXUXKX+X& d.g.k.l.c.v.m.M.C.V.S.G.K.P.].@X#X%X>X1XjXvXFXnX=X;XnXIXUXUX",
"UXUXUXJX+X& d.g.k.l.c.v.m.M.C.V.S.G.K.K.P.@X#X%X>X1XjXlXFXMX=X<XnXUXUXUX",
"UXUXUXJX+X& d.f.k.l.c.v.m.M.C.V.S.G.K.I.P.[.#X-X>X1XdXvXNXvX.X;XnXIXUXUX",
"UXUXUXKX+X* % d.k.l.c.v.m.M.C.V.D.G.K.).@XXX$X,X>X1X1XdXkX3X'.=XNXIXUXUX",
"UXUXUXJX,XF q 8 7 7 6 6 0 0 S S D J J K K L J.H.H.).`.'.|.|._.;XGXUXUXUX",
"UXUXUXIXdXL.J 0 6 2 1 1 2 2 5 5 5 4 C C Z A H H A A A A P L _.3XJXUXUXUX"
};
