/* XPM */
static char *__[] = {
/* columns rows colors chars-per-pixel */
"36 36 256 2 ",
"   c #59932B7C1DD7",
".  c #43FF337F175F",
"X  c #554D3C7E1C2C",
"o  c #5C6A395C1B74",
"O  c #55C336211B03",
"+  c #62133C631CA7",
"@  c #6B573BD61A28",
"#  c #75823BC717E6",
"$  c #59162FB81FEB",
"%  c #7D472BF029AD",
"&  c #625536FC23E7",
"*  c #79D2362C29A3",
"=  c #36B15A751C78",
"-  c #0F0276ED0F04",
";  c #1E2D65791E32",
":  c #1DBE6A7B1DBC",
">  c #18F06C281699",
",  c #126D7DAF127C",
"<  c #289163551B24",
"1  c #3A1D6E621C0D",
"2  c #296F7AB219FC",
"3  c #24DB79611A60",
"4  c #31FA73D31A61",
"5  c #3A2570F61D7C",
"6  c #25314E0A2531",
"7  c #279356992798",
"8  c #3AD054713AD0",
"9  c #32CA522B32CB",
"0  c #2C746C762C5D",
"q  c #2E8874482DB7",
"w  c #31A07B9523F2",
"e  c #39387DC22D17",
"r  c #3BE56CEF3BE2",
"t  c #371966A73720",
"y  c #3848799833A8",
"u  c #4D864A751CF3",
"i  c #481243CF1C3B",
"p  c #517743341C3F",
"a  c #51B24E171E4E",
"s  c #5DED473019F5",
"d  c #401B56F11F90",
"f  c #4B2C527B1C69",
"g  c #4C985D211CD9",
"h  c #472E59911BC2",
"j  c #516955FF1C4C",
"k  c #597B54841B31",
"l  c #672743A01AC8",
"z  c #76C345AA19D5",
"x  c #467E639B1CD9",
"c  c #497065D71D9C",
"v  c #424C6B201D0A",
"b  c #451552DA2023",
"n  c #537E5AF821A9",
"m  c #59215E632142",
"M  c #66B8464B2791",
"N  c #74A9461722A5",
"B  c #78BB488D235A",
"V  c #7BA844A62385",
"C  c #6A095DEF2C7C",
"Z  c #6AF45A0B365D",
"A  c #699E5AA337C7",
"S  c #76D45E1631B0",
"D  c #4B7B648F232A",
"F  c #41926CA620A4",
"G  c #4B216A8F22C7",
"H  c #51BD64ED2337",
"J  c #58A5640C2B28",
"K  c #46F970FA2D94",
"L  c #584E6D233337",
"P  c #506F76993976",
"I  c #47C0591C47C0",
"U  c #4D535AC44D53",
"Y  c #41A656BF41A6",
"T  c #53295A015328",
"R  c #49606DBE4941",
"E  c #4D46703E4D23",
"W  c #5DE1619F5DE1",
"Q  c #564776A25648",
"!  c #620C6E2B4AF4",
"~  c #60BF7D035B79",
"^  c #62A47AC962A1",
"/  c #6A557C796A5F",
"(  c #75FB7DAF7603",
")  c #69B96C3B69B9",
"_  c #8CD03F171590",
"`  c #88C935912D6D",
"'  c #9DDD34113431",
"]  c #A12A39EF397A",
"[  c #86AA46A01AA6",
"{  c #9ED442DD13F0",
"}  c #9236461519E6",
"|  c #9E1346C41A16",
" . c #950A43C913A8",
".. c #A812455317D9",
"X. c #AB9F49531D02",
"o. c #AB30456E16D0",
"O. c #B46847011A9C",
"+. c #8AED45682978",
"@. c #87814A4D252D",
"#. c #910D46E0253B",
"$. c #9B884D56245E",
"%. c #93144FCD2878",
"&. c #8B4052C528DD",
"*. c #99CA545D2C31",
"=. c #992D505D2602",
"-. c #8E0542E03A32",
";. c #9AC144B233ED",
":. c #8FEF593C3D84",
">. c #A5664C3B22D7",
",. c #ACD14C1C237C",
"<. c #B4A94B0120C5",
"1. c #A025503D2748",
"2. c #A52F556A2F61",
"3. c #B14051A729BB",
"4. c #AC5B40DC39A5",
"5. c #B0B341323D18",
"6. c #AE1953443A5A",
"7. c #BA9E5CDB3AC0",
"8. c #806565003D46",
"9. c #BE09603C3E28",
"0. c #99FC586D45EA",
"q. c #B87849A54259",
"w. c #B3F951A04A5A",
"e. c #921663AD404A",
"r. c #88A4723151EA",
"t. c #AFA76441434C",
"y. c #ABB069CC572B",
"u. c #BEF360AE5828",
"i. c #B92E77725E56",
"p. c #BBED665D46CC",
"a. c #963678E76376",
"s. c #A8707B826820",
"d. c #C8EE59CB4800",
"f. c #C3C25CE0537D",
"g. c #D9B7676F4B12",
"h. c #C3A9669B5C81",
"j. c #CA666D855E71",
"k. c #DB3A6DEE55A2",
"l. c #CD04751068C9",
"z. c #D7A67B726A8D",
"x. c #E0F77DE56825",
"c. c #12EA82BF12DA",
"v. c #174A89EE1706",
"b. c #179E8A7617AE",
"n. c #17928AB11806",
"m. c #215A84B51D74",
"M. c #21A287B42155",
"N. c #29A086B9295A",
"B. c #259684C3224E",
"V. c #321B81FA2C05",
"C. c #338C87563375",
"Z. c #3B4F886C3B81",
"A. c #42F888BC4318",
"S. c #4AEA89C44ACC",
"D. c #49A5817140CB",
"F. c #529287404E11",
"G. c #533C8B74534A",
"H. c #5B128C5C5AC8",
"J. c #5A038545563A",
"K. c #624285495E17",
"L. c #659481D255AD",
"P. c #710681B75C39",
"I. c #634E8E876302",
"U. c #6AE28F1468D5",
"Y. c #6BB591CF6BDF",
"T. c #7B63831A7B7F",
"R. c #7382943E7344",
"E. c #7CAA98FD7CD5",
"W. c #7BB096687A10",
"Q. c #79D785E56528",
"!. c #83138CE6714A",
"~. c #92A788417102",
"^. c #AF93805768E7",
"/. c #DB1D821F6E97",
"(. c #D6BB882B7A35",
"). c #C44690727F18",
"_. c #E28A8B0579C5",
"`. c #845F87038476",
"'. c #871189898714",
"]. c #89E78C2189E6",
"[. c #9F2E8B5B82F8",
"{. c #85BD9D0385C4",
"}. c #8D7893628786",
"|. c #9B4C94F68FD2",
" X c #9482967F9480",
".X c #9BD99CA19BE9",
"XX c #9AC49D11943E",
"oX c #A92F98C68E8A",
"OX c #BC2E964C879A",
"+X c #8358A26182D4",
"@X c #8E5FA22E8EAB",
"#X c #9604A0DB8FCD",
"$X c #9767A7569788",
"%X c #9804A7FB9825",
"&X c #9A63A91C9B71",
"*X c #A029A183A010",
"=X c #A562A9A69D65",
"-X c #B18AA2619510",
";X c #A24FA3B0A27F",
":X c #A1D5ADD1A229",
">X c #AC4FAD20AC1B",
",X c #A9F8A972A7A7",
"<X c #BC98AFF1A6D5",
"1X c #ABF8B33BABEB",
"2X c #A55EB7C1A5BD",
"3X c #B3FEB59FAD92",
"4X c #B384B4D0B338",
"5X c #B5A4BBF9B5EF",
"6X c #BBA9BC3FBB9A",
"7X c #C70797E58844",
"8X c #C4CA952C84F1",
"9X c #D4FD9D2094CD",
"0X c #DCAC9DD591C0",
"qX c #E30C938C81CF",
"wX c #E55A9F19907F",
"eX c #D31EA0F09A0F",
"rX c #C6F7A8089C7F",
"tX c #D615AACFA4B9",
"yX c #DA35AC8DA343",
"uX c #DE14BC52B611",
"iX c #D9DFBB19B6CE",
"pX c #C869B8E5B28C",
"aX c #E563B4FCABAD",
"sX c #BFFDC0E7BF0D",
"dX c #C02FC047C05D",
"fX c #C2CFC499C2F3",
"gX c #C979C65DC438",
"hX c #C566CA65C544",
"jX c #CC4ACCD9CC49",
"kX c #CBDECB64C806",
"lX c #D844C6BBC17C",
"zX c #DD78CD1EC9FD",
"xX c #D28AC990C62F",
"cX c #CD82D0ABCE4F",
"vX c #DEF2D06DCE6A",
"bX c #CFFFD22ED17C",
"nX c #D617D672D616",
"mX c #DDF6D557D3AC",
"MX c #D7B6D93CD7B2",
"NX c #D7DCD93BD8CE",
"BX c #DCF3DD65DCFA",
"VX c #DF47DADCD80E",
"CX c #E933CDBDC9B8",
"ZX c #E0B2D82FD74E",
"AX c #E16BDEB5DE62",
"SX c #E9B8D531D231",
"DX c #DF36E09CDFE9",
"FX c #DE62E165E0D3",
"GX c #E4BFE4ABE49F",
"HX c #EB2BE520E46E",
"JX c #E83DE86EE823",
"KX c #E7FAE9BCE98E",
"LX c #EC11EBD8EBE8",
"PX c #EF6BF108F0A6",
"IX c #F51CF532F527",
"UX c #FEC7FEB7FEC4",
/* pixels */
"UXUXUXUXUXUXUXUXUXUXUXUXJX6X X.X.X*X.X.X X.X X;XBXIXUXUXUXUXUXUXUXUXUXUX",
"UXUXUXUXIXKXJXJXGXGXHXDXjX>X;X6XdXdXdX6X6XdX>X;XgXFXKXKXGXHXHXIXUXUXUXUX",
"UXUXUXUXGXjXjXjXjXjXjXgX>X>X6XBXGXGXGXGXGXGXgX>X4XfXbXjXjXjXfXDXUXUXUXUX",
"UXUXUXIXjX4XjXcXjXjXjXfXdXgXnXDXGXAXBXAXGXGXNXjXdXfXgXjXjXjX>XjXPXUXUXUX",
"UXUXUXLXjX6XBXGXAXBXNXnXnXZXGXAXBXAXDXDXDXGXDXBXNXnXNXBXGXBX4XfXLXUXUXUX",
"UXUXUXLXjXfXPXUXPXLXLXKXGXGXGXBXGXGXGXDXAXGXJXKXKXJXLXIXUXIXfXjXLXUXUXUX",
"UXUXUXLXjXfXIXIXLXLXLXKXGXAXBXGXGXGXGXDXAXAXGXGXKXLXLXPXUXIXfXjXLXUXUXUX",
"UXUXUXPXjXdXPXUXLXLXKXKXGXGXNXvXvXzXzXzXmXAXGXJXJXLXLXPXIXLXfXjXLXUXUXUX",
"UXUXUXLXjXfXPXUXPXKXKXJXAXZXzXiXtX9X9X0XtXiXCXAXJXLXLXPXIXJXdXjXLXUXUXUX",
"UXUXUXLXjXdXKXIXIXKXJXHXZXiX0XqXl.h.u.h.l.(.9XuXAXJXLXIXIXHXfXjXLXUXUXUX",
"UXUXUXLXcXfXLXUXIXIXHXCXaXwX_.z.u.q.] d.d.k.z.qXaXSXPXIXUXPXfXjXLXUXUXUX",
"UXUXUXLXjX5XGXKXJXJXCXeXqXx.z.h.w.' ] ] d.g.g.k.z.yXZXGXLXJX6XgXLXUXUXUX",
"UXUXUXKX6X X4XsX4X>XoXs.y.y.y.0.-.` % ` ;.2.6.6.t.s.=X4XdX6X.X6XLXUXUXUX",
"UXUXUXLX:XQ J.K.I.Q ! A A A Z Z $ $   & * @.+.+.#.:.a.|.;X;X'.;XAXIXUXUX",
"UXUXUXJX{.; > : < < < = = = b i i . . $ + N B ` [ #.0.[.>X,X'.*XnXIXUXUX",
"UXUXUXJX{.; - c.3 2 4 1 F D n n u i p $ N &.%.$.>.,.w.OXxXbX.X,XnXUXUXUX",
"UXUXUXJX+X: c.n.m.2 4 5 F G H m n i X M B &.*.1.,.<.9.7XCXNX;X>XnXIXUXUX",
"UXUXUXLX+X> c.v.m.2 4 5 F G H m a X X + z &.=.$.X.<.7.).lXnX;X>XnXIXUXUX",
"UXUXUXJX+X: c.v.m.2 4 5 F G H j f p X l B @.%.>.X.O.7.).lXMX;X>XnXIXUXUX",
"UXUXUXLX+X: c.n.m.2 4 5 v G H g a p X & N [ $...X.O.7.7XzXMX;X>XnXUXUXUX",
"UXUXUXKX+X: c.n.m.2 4 5 v c g f a p X o @ z } | o.O.p.rXMXNX;X>XnXIXUXUX",
"UXUXUXKX+X: c.n.m.2 4 1 v x h f p i O o + # _ { o.3.i.pXDXNX;X>XnXIXUXUX",
"UXUXUXJX+X: c.b.m.B.4 5 v x g f u p O o @ # _ { ..t.OXsXDXMX;X>XnXIXUXUX",
"UXUXUXJX+X< c.b.m.N.V.5 v c g j a p X + # _  .| 2.^.<XkXDXMX;X>XnXUXUXUX",
"UXUXUXJX{.: c.v.M.N.N.5 5 c j k j s s z z [  .2.s.-XsXcXDXnX&X1XnXIXUXUX",
"UXUXUXLX+X: c.v.M.N.V.V.K K H m k k l z [ &.:.a.oX3XsXcXDXnX*X>XMXIXUXUX",
"UXUXUXKX+X: c.v.M.N.C.Z.A.A.P L J C S S 8.r.~.XX2X5XsXcXDXMX;X>XnXIXUXUX",
"UXUXUXHX+X: c.v.M.N.C.Z.A.S.F.J.L.L.P.R.!.!.$X&X1X5XsXcXDXNX;X>XnXUXUXUX",
"UXUXUXJX+X: c.v.M.N.C.Z.A.S.G.H.I.U.Y.!.{.@X%X:X2X5XfXcXDXMX;X>XnXIXUXUX",
"UXUXUXJX+X: c.v.M.N.C.Z.A.S.G.H.I.U.R.E.{.@X$X:X2XsXsXcXDXnX*X>XnXIXUXUX",
"UXUXUXJX+X: c.v.M.N.Z.A.A.S.G.H.I.Y.R.E.{.@X$X:X1X4XfXcXBXnX;X>XnXUXUXUX",
"UXUXUXJX+X: c.v.M.N.C.A.A.S.G.H.I.Y.R.E.+X@X$X:X1X5XfXbXDXMX;X>XnXIXUXUX",
"UXUXUXKX+X: c.n.M.N.C.Z.A.S.G.H.I.U.R.E.{.@X%X:X1X4XdXjXNXbX.X>XnXIXUXUX",
"UXUXUXLX+X; - c.M.N.C.Z.A.S.G.H.I.U.R.E.{.@X%X&X2X4X5XsXhX6X'.;XNXIXUXUX",
"UXUXUXIX2XQ y q q 0 0 0 0 t R R E Q Q ^ / / T.T.T.T.`.]. X X'.4XGXUXUXUX",
"UXUXUXIXhX{./ R t 7 6 6 6 6 7 9 8 8 I I U U U T T T T W ) ( ].dXLXUXUXUX"
};
