/* XPM */
static char *__[] = {
/* columns rows colors chars-per-pixel */
"36 36 256 2 ",
"   c #483830D1167F",
".  c #45C433AE16EA",
"X  c #550C3D091C1E",
"o  c #5C123BCD1BDC",
"O  c #52F535771AED",
"+  c #61F23CEE1B1D",
"@  c #75503C2F17EF",
"#  c #59533F562E32",
"$  c #62263E5F2286",
"%  c #0F0E715A0F11",
"&  c #1D7365DF1D76",
"*  c #188E6C68188F",
"=  c #11B97C6C11C2",
"-  c #1D2D785D1CF7",
";  c #29537AF91A76",
":  c #31B074F71B18",
">  c #3A4670C31D63",
",  c #310478631F7C",
"<  c #244047142441",
"1  c #2A0F4B872A12",
"2  c #22B55DDC22B6",
"3  c #3C2B582B286F",
"4  c #3B0853463B08",
"5  c #33F955BA33FA",
"6  c #21D8635B21DC",
"7  c #2D8C6C5C2C77",
"8  c #2D0C666F2C24",
"9  c #31BF66572D86",
"0  c #29137FE620AE",
"q  c #28F3713528D8",
"w  c #24B670D7240E",
"e  c #378077C62717",
"r  c #392D72FA2075",
"t  c #31347C0523E8",
"y  c #38967C222D49",
"u  c #346266173445",
"i  c #3E6E6A6C3E60",
"p  c #348B722A348C",
"a  c #4DB94A9A1CE2",
"s  c #478D44691D3D",
"d  c #505D430D1C66",
"f  c #5A7E42D8193D",
"g  c #5BF54E451A53",
"h  c #514B4E261ED6",
"j  c #4AC052131C37",
"k  c #468559151B97",
"l  c #4AC95B9F1B53",
"z  c #53CB5C371AFD",
"x  c #567355841C06",
"c  c #63DA40A41ED6",
"v  c #687E45241877",
"b  c #761945D419AB",
"n  c #491F658C1D84",
"m  c #427C6B361D5A",
"M  c #451E623E1C2B",
"N  c #506E5FF51C87",
"B  c #51A64EF81FE8",
"V  c #450558292761",
"C  c #4CB95F7B1FCC",
"Z  c #40FC5A8E28B5",
"A  c #53C55C522383",
"S  c #58C15F902136",
"D  c #5798493A3693",
"F  c #638B41952091",
"G  c #7898474C204E",
"H  c #77CE4B0B2723",
"J  c #7830489822BF",
"K  c #76134AB228D2",
"L  c #6A095DEF2C7C",
"P  c #66E74C973BBF",
"I  c #79584C353120",
"U  c #7A9D59993824",
"Y  c #41E26EBF22BE",
"T  c #4B066B2F2491",
"R  c #51D065732488",
"E  c #5015686D2789",
"W  c #51FD67E42832",
"Q  c #521867F327FB",
"!  c #5F8865222E8A",
"~  c #48BD71A52D59",
"^  c #584B6D1E3339",
"/  c #490C7F2F3E4C",
"(  c #41A37AD63246",
")  c #506D76813976",
"_  c #4ACA53CA4ACA",
"`  c #48705A1445E8",
"'  c #56CF5AC756E2",
"]  c #6F9F584E482D",
"[  c #46D76F444693",
"{  c #486C66D6486C",
"}  c #46D664C546D6",
"|  c #57C966134F2C",
" . c #584764844A44",
".. c #479973DA4798",
"X. c #4D2B74D84D2A",
"o. c #42E8794942E7",
"O. c #5311690B533E",
"+. c #532F72995321",
"@. c #5CE774115CE4",
"#. c #741A606352AB",
"$. c #643166E66442",
"%. c #77A76AD2607E",
"&. c #6BC379DC6BA9",
"*. c #6C8B7A9A6743",
"=. c #75D07ADE75CE",
"-. c #7DB67D23765C",
";. c #8CDF3EF41590",
":. c #80824E731F1D",
">. c #874B454718DC",
",. c #9EED42EB13F5",
"<. c #921045E819D2",
"1. c #9E2B46CE1A1E",
"2. c #9FEB49A01E46",
"3. c #95604753197C",
"4. c #AB1844B01555",
"5. c #A878459217EC",
"6. c #AB7149981D9F",
"7. c #B47649081E1E",
"8. c #8C5C4E6D233A",
"9. c #9B224E9B241A",
"0. c #8B7C54632D1A",
"q. c #969D53B62BEE",
"w. c #990D53412AB3",
"e. c #8AFF5538300F",
"r. c #9B8A560E316E",
"t. c #A12A4C7A222E",
"y. c #AB384D9024DD",
"u. c #B4644CE6248A",
"i. c #A43652EC2D52",
"p. c #ABA5509B2B86",
"a. c #B17851D829AF",
"s. c #A05159C9398B",
"d. c #A9955783373E",
"f. c #BCEF594234F4",
"g. c #BC395C023932",
"h. c #B1CB58563562",
"j. c #806465013D47",
"k. c #920E63A04041",
"l. c #845F6D195E63",
"z. c #889E723851EE",
"x. c #B005647C4361",
"c. c #BAD464BF456A",
"v. c #B068650747F9",
"b. c #A3EF6D9855B0",
"n. c #B8F276965D2C",
"m. c #9C187BC361B1",
"M. c #AFDA786C6262",
"N. c #A4AE7ACD61F5",
"B. c #128780B61292",
"V. c #1748898B1749",
"C. c #17648A0617ED",
"Z. c #17A28A5A17BB",
"A. c #216C84F21E02",
"S. c #222585D9215C",
"D. c #293B83132459",
"F. c #21CE882F21CE",
"G. c #2A22869D29B3",
"H. c #308A821B2C0F",
"J. c #3217875431F6",
"K. c #39158379361A",
"L. c #3A6B87B13A52",
"P. c #3ABE883F3ADA",
"I. c #41E3856E3F47",
"U. c #414286494123",
"Y. c #42CB888542C9",
"T. c #4A9587BF48A3",
"R. c #4A5B88EE4A7C",
"E. c #526E86E94DE8",
"W. c #530B8B275319",
"Q. c #5AEF8C275AA6",
"!. c #5A4E85BB528E",
"~. c #694780B456C3",
"^. c #61D382DC548A",
"/. c #710681B75C39",
"(. c #633E8E6D62F1",
"). c #6650892C654A",
"_. c #6BB291CF6BDE",
"`. c #7884869475C3",
"'. c #73E7947473BA",
"]. c #7B6B98267B8E",
"[. c #7BEC96827A4C",
"{. c #79D885E46527",
"}. c #8EBC88337FF0",
"|. c #830C8CEB714C",
" X c #92A2883E7105",
".X c #AFF680866913",
"XX c #AF4B8B227EA0",
"oX c #B9368B73796A",
"OX c #C45290397EBD",
"+X c #838586DA8357",
"@X c #8ADA8DD28AA5",
"#X c #831F9ECF832C",
"$X c #8C8A97B48899",
"%X c #93F2955D93F2",
"&X c #968A9B0294F7",
"*X c #9E4FA01F913A",
"=X c #9CD49D949CCB",
"-X c #ABAB8C4F8438",
";X c #AD0892DB8A31",
":X c #AB41986489C7",
">X c #B9DD939282E8",
",X c #B1029A969354",
"<X c #8E93A16D8E98",
"1X c #960CA1058FF5",
"2X c #96BEA4DA9614",
"3X c #970AA7FA989B",
"4X c #9EABA2889EB7",
"5X c #A64AA8089EDB",
"6X c #B6A2A2F196E3",
"7X c #A017A17DA02C",
"8X c #A10DA29FA13D",
"9X c #A295AD2CA2E0",
"0X c #AAEBABEAAAD6",
"qX c #BCAFB006A6E1",
"wX c #B393AB13A714",
"eX c #AC04B45CABDC",
"rX c #AF7BBC6FAF83",
"tX c #B3F0B51BAE30",
"yX c #B43AB438B3A1",
"uX c #B5E0BCAEB5EF",
"iX c #BC6AB9C6B541",
"pX c #BCE5BE1BBCCE",
"aX c #C36495818708",
"sX c #C0AB9AEB9193",
"dX c #C6C4A7E09C5B",
"fX c #C694B096A83B",
"gX c #C7F9B87CB225",
"hX c #C9E8BFACB98C",
"jX c #BE58C3A1BDA6",
"kX c #C0F7C04CC035",
"lX c #C9E6C43FC01C",
"zX c #C03FC03BC050",
"xX c #C064BF88C064",
"cX c #C37FC531C37B",
"vX c #CBBECA5FC6AD",
"bX c #CBE3CC8CCBCF",
"nX c #D7BDC966C6B7",
"mX c #D9BDC973C4A5",
"MX c #D825CE42CCC0",
"NX c #D90DC8FFC4E2",
"BX c #CF18D09FCF22",
"VX c #D590D5D0D576",
"CX c #DA70D3BBD2B4",
"ZX c #D717D925D76D",
"AX c #D848D9E7D90E",
"SX c #DC6EDD0ADCCE",
"DX c #DEF6E0CBDF7A",
"FX c #DFA1E1DDE0F0",
"GX c #E437E444E45B",
"HX c #E77DE88CE792",
"JX c #E87EE82AE87E",
"KX c #E708E8EBE8A0",
"LX c #EB23EAF0EB3A",
"PX c #F1EDEFF1F1EE",
"IX c #F625F633F621",
"UX c #FF0DFF00FF0F",
/* pixels */
"UXUXUXUXUXUXUXUXUXUXUXUXJXiX%X=X=X=X=X=X=X=X%X7XSXIXUXUXUXUXUXUXUXUXUXUX",
"UXUXUXUXIXJXHXHXJXGXJXDXBX0X8XyXzXxXxXxXxXxX0X7XxXSXJXGXGXJXJXPXUXUXUXUX",
"UXUXUXUXGXbXbXbXbXbXbXcXyX0XiXVXGXGXGXGXGXFXxX0XzXxXMXbXbXbXcXDXUXUXUXUX",
"UXUXUXIXbXyXcXbXbXbXbXcXxXbXVXSXGXGXDXGXGXGXDXMXxXxXBXBXBXvXyXbXLXUXUXUX",
"UXUXUXLXbXyXSXGXDXDXSXVXCXSXGXGXDXSXSXSXGXGXGXFXSXAXSXDXGXAXyXcXLXUXUXUX",
"UXUXUXLXbXcXIXUXIXPXPXJXGXGXGXGXGXSXGXGXSXGXGXJXJXLXLXPXIXLXxXBXLXUXUXUX",
"UXUXUXJXbXcXPXUXPXLXLXJXHXGXGXGXGXJXJXJXGXJXJXJXLXLXLXPXUXPXcXBXLXUXUXUX",
"UXUXUXLXbXxXJXPXJXGXGXGXDXSXSXCXnXxXxXmXmXCXCXFXDXDXGXGXLXJXxXbXJXUXUXUX",
"UXUXUXLXpX4XjXjXjXjXjXrXuXuXyX5X;XXX-X;X,XwXyXhXxXxXcXcXMXcX0XpXHXUXUXUX",
"UXUXUXJX=X{ ....X.X.X.X.O.|  .` D # # D P ] #.#.-.+X@X@X&X%X=.7XSXIXUXUX",
"UXUXUXJX#X2 * - w 7 7 9 3 3 V V s .   O $ K I ] l.}.=X9XyX0X+X7XZXUXUXUX",
"UXUXUXJX#X& = V.A.G.G.e Y T W A B d X $ H e.r.s.b.;XiXvXSXVX7X0XZXIXUXUX",
"UXUXUXHX#X6 B.Z.A.D.0 r Y T Q A B d X $ H e.i.d.h.M.,XnXFXAX7X0XVXIXUXUX",
"UXUXUXJX#X6 B.Z.A.D.t r Y T Q A B d X F H e.r.i.p.v.oXhXDXAX7X0XZXIXUXUX",
"UXUXUXJX#X& = Z.A.; , > Y T Q A B d X F H e.q.i.p.h.n.fXSXAX7X0XZXIXUXUX",
"UXUXUXJX#X& = Z.A.; : r Y T R A B d X $ J 0.q.9.y.a.c.,XCXAX7X0XZXIXUXUX",
"UXUXUXKX#X& B.V.A.; : > Y T R A B d X + G 8.q.9.y.u.f.aXNXAX8X0XVXIXUXUX",
"UXUXUXKX|.& B.V.A.; : > m T R A B d X F G 8.9.9.y.7.f.OXmXAX7X0XZXIXUXUX",
"UXUXUXKX<X* B.V.; ; : > m T R A B d X F G 8.9.9.6.7.f.aXmXAX8X0XZXIXUXUX",
"UXUXUXLX#X& B.V.V.; : > m n l z B d X c G 8.<.6.5.7.f.aXMXAX8X0XZXIXUXUX",
"UXUXUXKX].* B.V.A.; : > m M l j a d X + b G >.1.4.u.c.dXCXAX5X0XVXIXUXUX",
"UXUXUXJX<X& B.V.A.; : > m M k j a d X X o @ ;.,.4.a.n.gXSXZX7X0XZXIXUXUX",
"UXUXUXJX].* B.V.S.D.t > m n l j s X X o + @ ;.,.4.x.>XcXDXVX7X0XZXIXUXUX",
"UXUXUXJX<X& = V.S.G.t r m n z x d f X + @ ;.,.1.d.M.qXvXDXVX=X0XZXIXUXUX",
"UXUXUXJX#X& = V.F.G.J.H.Y n N S x g g v >.>.<.q.N.6XjXBXDXZX4X9XVXIXUXUX",
"UXUXUXJX#X& B.V.F.G.J.J.I.~ Q N x g v b b 0.j..X:XtXjXBXDXZX7X0XZXIXUXUX",
"UXUXUXJX<X& B.V.F.G.J.P.I.I.^ ^ ! L L U j.z. X1XeXjXjXbXFXAX7X0XZXIXUXUX",
"UXUXUXHX].& B.V.F.G.J.P.I.T.E.!.^.~./.{.|.}.<X9XeXuXjXbXFXAX7X0XZXIXUXUX",
"UXUXUXLX].* B.V.F.G.J.P.I.R.W.Q.(.(.'.|.#X<X3X9XeXrXjXbXDXAX7X0XVXIXUXUX",
"UXUXUXHX<X* B.V.F.G.J.P.Y.T.W.Q.(._.'.].#X<X2X7XeXjXcXBXSXAX7X0XZXIXUXUX",
"UXUXUXHX<X& B.V.F.G.J.P.I.R.W.Q.(._.'.].'.<X3X9XeXuXcXBXSXVX7X0XZXIXUXUX",
"UXUXUXKX].& B.V.F.G.J.P.I.R.W.Q.(._.'.].#X<X3X9XeXuXcXBXFXZX7X0XZXIXUXUX",
"UXUXUXJX#X& = B.S.G.J.P.U.R.W.Q.(._.'.#X<X<X3X7XeXuXjXbXSXVX&X0XVXIXUXUX",
"UXUXUXJX#X2 % = - 0 H.K.U.R.W.Q.(._.'.#X<X<X2X7X0XeXuXpXvXpX+X7XVXIXUXUX",
"UXUXUXIXrX).o.p p 7 8 8 u u i [ X.+.@.@.&.&.&.&.=.`.+X@X&X2X@XyXHXUXUXUX",
"UXUXUXUXZX3X`.@.} 5 1 1 < < 1 5 4 4 4 4 _ _ _ _ _ _ ' $.&.`.&XbXIXUXUXUX"
};
