/* XPM */
static char *__[] = {
/* columns rows colors chars-per-pixel */
"36 36 256 2 ",
"   c #550C3D011C2B",
".  c #5D433C2A1BE7",
"X  c #62443CC21B28",
"o  c #75493C2817EB",
"O  c #18855CC41886",
"+  c #0F4D6ABD0F4F",
"@  c #1CFF62BA1D01",
"#  c #1B8E6F391B8E",
"$  c #11407E721148",
"%  c #1F5076941F50",
"&  c #18577B281854",
"*  c #0AF675680AFA",
"=  c #29587B0A1A7F",
"-  c #31A7750F1B55",
";  c #3A34705B1CFB",
":  c #259046082591",
">  c #27A6478227AB",
",  c #2D5749DB2D58",
"<  c #25C15BD925C1",
"1  c #33CB4AA233CB",
"2  c #3C374DB03C37",
"3  c #3A1555823A15",
"4  c #2E06632B2E07",
"5  c #2FA167FD2FA4",
"6  c #277075AC2770",
"7  c #24447E47242B",
"8  c #290A7FE120A6",
"9  c #2C3D79B42C32",
"0  c #3933731A2183",
"q  c #30D77B0C2377",
"w  c #38AC78A728B0",
"e  c #37067AF22E1C",
"r  c #341D649033BE",
"t  c #39046A7E3864",
"y  c #39117FC43135",
"u  c #3A3073C33A30",
"i  c #36087BEE3630",
"p  c #4D7B4A611CEE",
"a  c #5114433F1C88",
"s  c #5AFE41881C0E",
"d  c #50EE4D0A1D54",
"f  c #5F884D701AE3",
"g  c #4BC7531B1CD2",
"h  c #4A665BE91C3A",
"j  c #5A6452EF1BA6",
"k  c #51E35AAA1D17",
"l  c #585059F11AAA",
"z  c #63B2407B1EC4",
"x  c #6ACF43A319B6",
"c  c #76B345291A73",
"v  c #49BB65D41D51",
"b  c #42546B241D4F",
"n  c #460062F71C63",
"m  c #521F601E1B23",
"M  c #52404DD8202D",
"N  c #55D4541A23FD",
"B  c #541C5B75239E",
"V  c #58E45F3820B5",
"C  c #54CC5F7127C6",
"Z  c #58325F942EE1",
"A  c #5C7256A32CCB",
"S  c #646C4277214C",
"D  c #779F47A521C2",
"F  c #782849EA250E",
"G  c #78754D632A62",
"H  c #77DF4C372967",
"J  c #677C5A422CD9",
"K  c #6DCD55C53315",
"L  c #793B5DF43778",
"P  c #420A6EB522FD",
"I  c #4AFF6B4024B1",
"U  c #519964C52410",
"Y  c #51E467D2282E",
"T  c #514D69872A7F",
"R  c #5F80652D2E96",
"E  c #497671802D5E",
"W  c #415377762E5A",
"Q  c #56596B9832D3",
"!  c #48D67CF63C61",
"~  c #40E07B0333B6",
"^  c #4FD874133773",
"/  c #50A374CE37EA",
"(  c #43A6501143A6",
")  c #4A9A518B4A9B",
"_  c #54E7599254EE",
"`  c #4C9D6BFD4C8E",
"'  c #4882664B4840",
"]  c #431975DB4324",
"[  c #48A0789B48A0",
"{  c #4C2377754C5C",
"}  c #577E6CCC5787",
"|  c #57B77A90586B",
" . c #599176D959BC",
".. c #5A3B7A9D487B",
"X. c #6918732B4C3A",
"o. c #628B7DD2590B",
"O. c #75A77681562D",
"+. c #5FC37B58607E",
"@. c #618D6745618E",
"#. c #64E574F564EB",
"$. c #62B6798962B7",
"%. c #6B1975D76B4E",
"&. c #6BCB78E46BED",
"*. c #6E1D7CA662F7",
"=. c #7FF57EF8635B",
"-. c #6FD277BD7016",
";. c #6FEE7E91707B",
":. c #73AE771173AE",
">. c #73397C347357",
",. c #78EA7E9777A1",
"<. c #8CE53EEF1594",
"1. c #80814E731F1C",
"2. c #86F644DF188B",
"3. c #9F4E42B813E5",
"4. c #922C45F219E1",
"5. c #9EAA46981A0A",
"6. c #95734761198D",
"7. c #AB31447F1601",
"8. c #A02049761E4C",
"9. c #ABC948241BA0",
"0. c #B44B492B1E5A",
"q. c #B4C847B41C3E",
"w. c #8BE24E032320",
"e. c #987D4EBA2350",
"r. c #8B6352AD2A62",
"t. c #991C53182B97",
"y. c #8C0555F1310A",
"u. c #89B559763713",
"i. c #9BAB565731A2",
"p. c #A1154D2E23AB",
"a. c #AABD4D15244C",
"s. c #B3934BB3231C",
"d. c #A2EC514E2BA1",
"f. c #AADB51F62CB0",
"g. c #B1AA51A729B4",
"h. c #A69557D237C8",
"j. c #BCF0594434F4",
"k. c #BC8A5C70395B",
"l. c #B24455AE3356",
"z. c #806565003D46",
"x. c #932662FE41C5",
"c. c #88A2723151E7",
"v. c #9C1971C65904",
"b. c #886E69914C09",
"n. c #B118638F44B3",
"m. c #BB6F64D54530",
"M. c #A4FC6DF15678",
"N. c #B97974975B79",
"B. c #973A7B216263",
"V. c #AFA077ED6208",
"C. c #A5C87A9F6207",
"Z. c #B2077FF06875",
"A. c #161C871E1590",
"S. c #16CA893716F5",
"D. c #216785191E08",
"F. c #215987062062",
"G. c #2929840025A6",
"H. c #21CB88A921AB",
"J. c #2A2686A829C0",
"K. c #30CF82CE2D8D",
"L. c #326986AE3263",
"P. c #3A24875C3A04",
"I. c #382E8270365D",
"U. c #415281353A7D",
"Y. c #41A2853E4182",
"T. c #4292886D42B6",
"R. c #4ABC85724A23",
"E. c #4ADF89A94AFE",
"W. c #4AC1861046CA",
"Q. c #515C84614A77",
"!. c #53178AF152C8",
"~. c #5AC98BDF5A6B",
"^. c #58638314525A",
"/. c #658081B8559C",
"(. c #710781B85C3B",
"). c #62FC8E1562B5",
"_. c #6BE08B426ADC",
"`. c #773B83EE679C",
"'. c #6B58915A6B85",
"]. c #7E9682637DEB",
"[. c #7B8B8A257BD5",
"{. c #760B885D729C",
"}. c #732193C872E2",
"|. c #7C2B986B7C56",
" X c #7B6B961879CA",
".X c #87088CE873D4",
"XX c #92B5884B7126",
"oX c #A5BB8EFB7F0E",
"OX c #B9B288C7773F",
"+X c #C464904A7ED3",
"@X c #7FF08D518033",
"#X c #862E8940862C",
"$X c #8BAE8E038B9B",
"%X c #822586E48225",
"&X c #82E19D7682E8",
"*X c #8C4792D08C4A",
"=X c #8C219E938C31",
"-X c #87D6952E806C",
";X c #990D96018509",
":X c #93AC958893B1",
">X c #94679B0F946F",
",X c #9D449E6E9D4A",
"<X c #ABD998A88A5B",
"1X c #BA08939F8316",
"2X c #8E1BA1EB8E77",
"3X c #96E8A5E095F6",
"4X c #9C9EA23D9CE1",
"5X c #978CA891994E",
"6X c #9DBAA49E9747",
"7X c #A14FAA529E1E",
"8X c #B6D3A2D896DA",
"9X c #A2A8A459A2A0",
"0X c #A4A8ACA6A4BF",
"qX c #A9D7AB50A9CA",
"wX c #AA31AB3CA1F3",
"eX c #B282ACFBA3BB",
"rX c #ACDBB3EEAC8B",
"tX c #B354B64BAE89",
"yX c #BD21B048A758",
"uX c #B4F3B594B4F1",
"iX c #B680BC3EB69E",
"pX c #BB84BD2DBB5F",
"aX c #BE4DBAD7B47B",
"sX c #C50A97258783",
"dX c #C59D9F8B92A0",
"fX c #C6BFA7E79C59",
"gX c #C7E4B0D4A7E0",
"hX c #C781B81BB1AE",
"jX c #CA0EBF84B996",
"kX c #B759C09EB759",
"lX c #BE3DC1E7BE19",
"zX c #C072C380BE4B",
"xX c #C066C01FC069",
"cX c #C03CC205C05E",
"vX c #C2CBC59DC2F3",
"bX c #CC01CD32CBD9",
"nX c #CB4BC738C379",
"mX c #DA45CAA0C5A6",
"MX c #DA20CDC9C9C6",
"NX c #CEF8D0F3CF36",
"BX c #DB1BD1A0CE47",
"VX c #D52CD589D524",
"CX c #D6DAD948D790",
"ZX c #D7A5DA7FD90D",
"AX c #DCB5DD61DCF4",
"SX c #DB6AD70DD54B",
"DX c #DF5AE12FDFE5",
"FX c #E061E06BE05B",
"GX c #DF5BE1FAE1AA",
"HX c #E474E45BE470",
"JX c #E787E88AE7BF",
"KX c #E87EE7EAE880",
"LX c #EA77EA25EA7F",
"PX c #F73DF74CF737",
"IX c #F870F87EF870",
"UX c #FF3EFF2EFF3E",
/* pixels */
"UXUXUXUXUXUXUXUXUXUXUXIXKXiX:X,X,X,X,X,X,X,X:X,XAXIXUXUXUXUXUXUXUXUXUXUX",
"UXUXUXUXPXLXLXJXJXHXJXHXbXqX9XuXxXxXkXpXxXxXqX9XxXAXKXHXHXHXKXPXUXUXUXUX",
"UXUXUXIXHXbXNXNXbXbXbXbXuXqXpXAXHXHXHXHXHXGXbXqXuXxXNXbXbXbXbXAXIXUXUXUX",
"UXUXUXPXbXiXbXNXbXbXbXvXvXbXSXHXHXFXGXGXGXGXZXNXnXxXbXbXNXnXuXbXLXUXUXUX",
"UXUXUXLXuX$X9X9X,X9X,X9X,X9XqXqXqXqX0XqXqXqXqXqX9X9X9X9XqX9X$XuXLXIXUXUX",
"UXUXIXLX9X}  .$.+.#.#.#.#.#.#.#.%.%.-.-.-.-.{.].@X#X#X#X$X$X:.9XHXIXUXUX",
"UXUXIXLX&X< % 7 6 9 e u ] [ { | |  .&.;.{.[.@X$X>X,X9XqXpXuX#X9XVXIXUXUX",
"UXUXUXLX@XO * $ A.7 9 i P.] [ R.| o.`.`.{.-X=X5X0XrXuXxXVXNX:X9XVXPXUXUX",
"UXUXUXLX&X@ A.A.F.J.L.P.T.W.Q.Q...X.O.O.=..X;X,XrXuXvXNXDXZX4XqXVXPXUXUX",
"UXUXIXLX&X@ $ A.F.J.L.P.U.! ^ Q Z A A K L b.B.;X0XiXzXNXDXVX,X9XVXIXUXUX",
"UXUXUXLX&X@ $ S.H.J.J.I.W E Y C M M s S G u.x.v.oXeXzXNXGXCX,XwXVXPXUXUX",
"UXUXUXLX&X@ $ S.H.G.K.w P I Y C M     S G u.i.h.M.<XaXbXFXZX,XqXVXPXUXUX",
"UXUXUXKX&X@ $ S.H.G.q 0 P I Y C M a   S H y.i.h.h.V.8XnXGXZX,XqXVXPXUXUX",
"UXUXUXLX&X@ $ S.H.= q 0 P I U C M a   S F r.i.f.l.n.OXjXAXCX,XqXVXIXUXUX",
"UXUXUXLX&X@ $ S.F.= - 0 P I Y C p a   S F r.t.d.f.l.N.gXSXVX,XqXVXPXUXUX",
"UXUXIXLX&X@ $ S.D.= - 0 P I U N M     S D r.t.d.f.s.m.dXBXZX9XqXVXPXUXUX",
"UXUXIXLX&X@ $ S.= = - ; b I U N M a   S F r.e.d.a.s.j.sXmXCX4XqXVXPXUXUX",
"UXUXUXJX|.@ $ S.S.= - ; P I U B M a   S F w.e.p.a.q.j.+XmXCX5XwXVXPXUXUX",
"UXUXIXLX&X@ $ S.D.= - ; b I U k p a   . c w.e.8.a.q.j.sXmXCX4X0XVXPXUXUX",
"UXUXUXLX&X@ $ S.D.= - ; b v U k p a   . D 2.6.8.7.q.k.sXMXCX,X0XVXPXUXUX",
"UXUXUXKX&X@ $ S.D.= - ; b v h h p a   . x 2.4.8.q.s.m.fXVXCX,XqXVXPXUXUX",
"UXUXIXJX&X@ $ S.D.= - ; b n h p p a     . o <.7.7.g.V.hXAXCX,XqXVXIXUXUX",
"UXUXUXKX&X@ $ S.F.8 - ; b v k g p a   . X o <.<.7.k.1XxXHXZX,XqXVXPXUXUX",
"UXUXUXLX&X@ $ S.F.G.q 0 b v m l d a   X o <.4.5.f.Z.yXbXAXZX,XqXVXPXUXUX",
"UXUXUXKX&X@ $ S.H.J.J.e P v m l j f j c c 4.6.p.C.8XlXNXDXVX5XqXVXPXUXUX",
"UXUXUXLX&X@ $ A.H.J.L.P.U.E Y m l f f c 1.r.u.XX<XtXcXNXDXCX4XqXVXIXUXUX",
"UXUXUXLX&X@ $ S.D.J.L.P.U.U./ Q R V J L z.c..X6XrXiXcXNXGXCX4XqXVXPXUXUX",
"UXUXIXLX&X@ $ A.H.J.L.P.T.E.!.^./.O.(.`..X.X3X7XrXkXcXNXAXCX4X0XVXPXUXUX",
"UXUXUXLX&X@ $ S.H.J.L.P.T.E.!.~.~.'.}. X|.2X5X0XrXiXvXNXGXCX4XwXVXPXUXUX",
"UXUXIXLX&X@ $ S.H.J.L.P.T.E.!.~.).'.}. X2X2X5X7XrXiXvXbXAXVX,XqXVXPXUXUX",
"UXUXUXLX|.@ $ S.H.J.L.P.U.E.!.~.).'.}. X@X2X5X7XrXkXvXbXGXCX9XqXVXPXUXUX",
"UXUXIXLX&X@ A.S.H.J.L.P.T.E.!.~.).'.}.|.2X2X5X7XrXkXvXNXGXZX,XqXVXPXUXUX",
"UXUXUXLX&X@ $ S.F.J.L.P.T.E.!.~.).'.}.|.&X3X5X0XrXiXlXbXAXVX>XqXZXPXIXIX",
"UXUXUXLX=X< + + % 7 9 I.Y.E.!.~.).'.}.|.&X=X3X5X0XrXtXiXpXtXB.,XZXPXUXUX",
"UXUXUXPXpX_.[ u u 5 4 4 r r t ' ' ` }  .#.#.&.-.>.,.[.$X:X:X$XuXJXUXUXUX",
"UXUXUXUXAXrX[.#.' 3 , > : > > > 1 1 2 2 ( ( ( ) ) ) _ @.:.$X9XVXIXUXUXUX"
};
