/* XPM */
static char *__[] = {
/* columns rows colors chars-per-pixel */
"36 36 256 2 ",
"   c #54EB3CEE1C32",
".  c #5C043C931BF3",
"X  c #63343CBE1B13",
"o  c #75473C2817EB",
"O  c #1C5E5E661C5E",
"+  c #1C2F53611C34",
"@  c #0E0866290E0B",
"#  c #1024674C1021",
"$  c #1CA760AA1CA9",
"%  c #14F56C251379",
"&  c #13F8740013FA",
"*  c #10C07DE110C3",
"=  c #1BC37A141BC4",
"-  c #1FE56B0B1D89",
";  c #3A746F7B1BD0",
":  c #293B7AFF1A61",
">  c #31C374EE1B2A",
",  c #3A2C70AA1D6A",
"<  c #24CE42D824D9",
"1  c #2945458B2947",
"2  c #2F5448772F55",
"3  c #33D14BCB33D0",
"4  c #3CAE4D113CAD",
"5  c #3DBC5F4B3DBB",
"6  c #3C455F9436E5",
"7  c #28A25ACB28A0",
"8  c #24456D5723FB",
"9  c #2EB863F82ECC",
"0  c #2E7F6D342E86",
"q  c #28E77FE92085",
"w  c #29527E642979",
"e  c #391474022275",
"r  c #31AE7B9C23B9",
"t  c #38A278B928B2",
"y  c #37567C152AC6",
"u  c #347D64E8343A",
"i  c #34116B833417",
"p  c #3D46656E3D46",
"a  c #3962686837AF",
"s  c #3A0C7E913194",
"d  c #3E81724A3E85",
"f  c #4D204A1A1C9C",
"g  c #50A743051CC0",
"h  c #59C5444C1CA7",
"j  c #52F44DC81BFB",
"k  c #47B457C71BD9",
"l  c #4B5152471C6E",
"z  c #4B955E2D1CC7",
"x  c #4FFE54A31C7A",
"c  c #5A1057941BB4",
"v  c #651640991D5C",
"b  c #69C6479F1BC8",
"n  c #74D643361B36",
"m  c #7A5E46DD1820",
"M  c #46EE62FB1C9A",
"N  c #4A0D65251E1A",
"B  c #427A6AFF1D2D",
"V  c #51C15FF21B5E",
"C  c #51C74F081FFC",
"Z  c #53F05C522391",
"A  c #590F5F4F20C8",
"S  c #57F95F442EA4",
"D  c #575957D827CD",
"F  c #6440422F2106",
"G  c #786F475E1FDC",
"H  c #78244A4725A7",
"J  c #78674DB92B16",
"K  c #66BA5A5E2CB2",
"L  c #6D8F556732D7",
"P  c #78875DF7373F",
"I  c #42236E7A2293",
"U  c #4B5D6AD1253C",
"Y  c #4B456F2F2E8D",
"T  c #51BB65F824F8",
"R  c #535365A52A21",
"E  c #51B8682F283B",
"W  c #5F9565302EA0",
"Q  c #434F75182D3C",
"!  c #563D6B7E32C8",
"~  c #48A07CA93C4A",
"^  c #4F7773DD377F",
"/  c #50AC74E237F6",
"(  c #44444D474444",
")  c #400458094004",
"_  c #4CDD51AB4CE1",
"`  c #57015AB85708",
"'  c #414364824135",
"]  c #4C226B914C15",
"[  c #4B2066EC4B20",
"{  c #4B4076C64B31",
"}  c #56376CBB5641",
"|  c #5D42724F5D4D",
" . c #56CE784056DB",
".. c #599779A547C4",
"X. c #685772254B78",
"o. c #74D175715555",
"O. c #639C744D63A3",
"+. c #63DA7D7C63FD",
"@. c #6BAF74796BAE",
"#. c #6C36787E6C37",
"$. c #7F027DE46267",
"%. c #72F4763E72F3",
"&. c #73CD79CC73CD",
"*. c #7A6D7F4A7A75",
"=. c #78AB7E067763",
"-. c #674A6A5A674C",
";. c #8CD63EF915A1",
":. c #806C4E771F1E",
">. c #870344FA189A",
",. c #95FA443314B5",
"<. c #9F4342BF13F1",
"1. c #9EE1467819CF",
"2. c #936647FD1D31",
"3. c #AB4F446D15EE",
"4. c #A5F448CD1CF6",
"5. c #B447492C1E5C",
"6. c #B4C247B41C3D",
"7. c #8C3E4E672357",
"8. c #9A6B4E8123D5",
"9. c #8B7D53112B23",
"0. c #9CE94FE3279D",
"q. c #969F52C32A76",
"w. c #9CEE54DB2E41",
"e. c #96A050BA26E4",
"r. c #8AE357B03402",
"t. c #9B95561731E4",
"y. c #A1304C66224C",
"u. c #AA654D032419",
"i. c #B3A54BB7232A",
"p. c #A39451842C41",
"a. c #ABB150902BA4",
"s. c #B1B451AE29BE",
"d. c #A74755D72FCF",
"f. c #A69557D337CB",
"g. c #BD00592434CA",
"h. c #BC9B5C66394D",
"j. c #B24855AB3357",
"k. c #806864FE3D45",
"l. c #9405627A3EB4",
"z. c #942E6262434A",
"x. c #88A5722F51E7",
"c. c #9C2271BF5904",
"v. c #881969354BB5",
"b. c #B122639E44CC",
"n. c #BB7664D94534",
"m. c #A4FC6DF25679",
"M. c #B96374845B5D",
"N. c #9D757D6763D4",
"B. c #91F97A5C62D9",
"V. c #AF9B77EB6206",
"C. c #B1E57F5167B2",
"Z. c #158085E5155C",
"A. c #15F888CC15F6",
"S. c #1B6E843F1AAC",
"D. c #20C185371DC0",
"F. c #20F3873B205F",
"G. c #294C833D24C2",
"H. c #2110888D210F",
"J. c #29DA8729297E",
"K. c #29E9883629C9",
"L. c #318183122D44",
"P. c #31F8871831AF",
"I. c #3A168643397E",
"U. c #3A68881A3A80",
"Y. c #37FE82E8341A",
"T. c #4139810A3A5D",
"R. c #42C886D9421A",
"E. c #42BC88E442DC",
"W. c #4CEF85F04995",
"Q. c #4A6D89494AA8",
"!. c #49F385C2473D",
"~. c #515B82E84A09",
"^. c #521289CF523E",
"/. c #5AE58B9B5A45",
"(. c #5A4D85D752AA",
"). c #64DF820D559D",
"_. c #695A85CC5D92",
"`. c #63448E9B632A",
"'. c #6C5A89486BE0",
"]. c #754E89BC68A4",
"[. c #6BC991F76C4F",
"{. c #7AF783F37AFD",
"}. c #72218B26722B",
"|. c #737294AD73C7",
" X c #7859976C7997",
".X c #7C7498E77CC7",
"XX c #84BF89D87741",
"oX c #92B28858712E",
"OX c #82E193707AC0",
"+X c #A5E38EF47F32",
"@X c #B9BE88CD7745",
"#X c #C4BF8FB87E10",
"$X c #80B1833E80B1",
"%X c #824E8BE08299",
"&X c #8AD88D368AD8",
"*X c #834B9CFF835F",
"=X c #8AE690B48AD0",
"-X c #8D049D2F8CAF",
";X c #896293D5836B",
":X c #98A195D984F2",
">X c #932D958D932E",
",X c #944D9C57945D",
"<X c #9E64A00D9178",
"1X c #9D309F449D6F",
"2X c #AFE79495869D",
"3X c #B95093EA833F",
"4X c #A2759FEB9184",
"5X c #B1B79FAF91A4",
"6X c #8E0BA1EE8E70",
"7X c #9626A4F79574",
"8X c #9DC6A42A9DD9",
"9X c #97A4A8BC996D",
"0X c #9879A84F9913",
"qX c #A0AEAA5A9DE2",
"wX c #BB1CA3129841",
"eX c #9F61AB1DA05B",
"rX c #A257A416A262",
"tX c #A63CAA53A639",
"yX c #AA65AB84AA7E",
"uX c #A941AB3FA110",
"iX c #B890AD81A439",
"pX c #ABC5B35DAB8E",
"aX c #B38FB5A9ADD1",
"sX c #B490B678B490",
"dX c #B64DBC43B650",
"fX c #B78EBE8FB850",
"gX c #BBC7BDC1BBA9",
"hX c #BE5ABABCB463",
"jX c #C568970C8754",
"kX c #C5F19FE092F5",
"lX c #C6CAA7FA9C5F",
"zX c #C835B123A830",
"xX c #C675B752B092",
"cX c #C881B7F2B0A5",
"vX c #CA5EBFC1B9CD",
"bX c #BC50C363BC39",
"nX c #C3EDC311BDC3",
"mX c #C91BC422BFAD",
"MX c #C20DC709C235",
"NX c #CCA1CE57CBAE",
"BX c #CBF1C9DBC5D6",
"VX c #DA56CA4DC4EA",
"CX c #DB0FCF12CA97",
"ZX c #CE24D14BCEA8",
"AX c #DB5AD262CF0E",
"SX c #D424D4DFD405",
"DX c #D5AAD8ECD5AA",
"FX c #D7C6DA00D92E",
"GX c #DB7DDC4EDBA7",
"HX c #DBEED754D4D2",
"JX c #DF07E140E00B",
"KX c #DF01E24BE140",
"LX c #E1F2E331E24A",
"PX c #EB38EADFEB55",
"IX c #F70FF73DF70D",
"UX c #FF3FFF31FF40",
/* pixels */
"UXUXUXUXUXUXUXUXUXUXUXUXGXsX1XrXeXeXeXrXrXrX>XrXGXIXUXUXUXUXUXUXUXUXUXUX",
"UXUXUXUXPXLXGXGXFXFXGXSXsX1X>XtXyXyXyXyXtXtX>X>XsXNXHXGXSXDXGXPXUXUXUXUX",
"UXUXUXIXNX8X,X-X-X,X7X>X{.%.*.>XrXeX1X1X8XeX&X%.$X>XrXrXrX8XrXNXIXUXUXUX",
"UXUXUXPX7X5 9 9 u u p ' Y ) [ } | | O.@.@.%.%.@.%.%.*.$X&X&X%.1XFXUXUXUX",
"UXUXUXPX*X+ @ % - 8 8 0 i d { { }  .+.+.'.{..X%X=X>X1XtXsXyX$X8XDXIXUXUX",
"UXUXIXPX*XO * S.G.K.P.U.E.Q.^./.`.[.|..X*X6X9XtXpXdXMXZXJXGX1XtXSXIXUXUX",
"UXUXUXPX*X$ * A.H.K.P.U.E.Q.^./.`.[.|..X-X6X0XtXpXdXMXNXJXHX1XtXSXIXUXUX",
"UXUXUXPX*X$ * A.H.K.P.U.E.Q.^././.'.'.].OX-X7XtXpXdXMXNXJXFX1XtXSXIXUXUX",
"UXUXUXPX*X$ * A.F.J.P.I.R.W.W.{ ..X.X.o.B.XX:X8XpXdXMXNXJXFX8XrXSXIXUXUX",
"UXUXUXPX*X$ * A.F.J.P.I.I.~ ^ ! S D L L P v.B.:XqXdXMXZXJXFX1XyXSXIXUXUX",
"UXUXUXPX*X$ * A.F.J.P.s Q Y R R C C C F L r.z.c.+XiXbXZXJXFX1XyXSXIXUXUX",
"UXUXIXPX*XO * A.F.G.L.t I R R Z C     F H r.t.f.m.2XhXNXKXFX8XrXSXIXUXUX",
"UXUXIXPX*XO * A.F.G.r t I U E Z C g   F H r.t.f.f.V.5XBXKXFX1XtXSXIXUXUX",
"UXUXUXPX*XO * A.D.G.> , I U E Z C     F H 9.w.a.j.b.@XvXKXFX1XyXSXIXUXUX",
"UXUXUXPX*X$ * A.D.: > , I U E Z l     F H 9.e.p.a.j.M.zXGXFX1XtXSXIXUXUX",
"UXUXUXPX*X$ * A.D.: > , I U E Z C     F H 9.q.0.a.i.n.kXCXFX1XyXSXIXUXUX",
"UXUXUXPX*X$ * A.D.: > , B U T Z C g   F G 9.e.8.a.i.g.jXVXFX1XtXSXIXUXUX",
"UXUXIXPX*X$ * A.D.: > , I U T Z C g   . G 7.e.8.u.6.g.#XVXHX1XtXSXIXUXUX",
"UXUXUXPX*X$ * A.D.: > , B N T Z C g   F G 7.8.y.u.6.g.jXVXFX1XyXSXIXUXUX",
"UXUXUXPX*X$ * A.D.: > , B N Z x C     F G >.8.1.3.6.h.jXCXHX1XtXSXIXUXUX",
"UXUXUXPX6X# * A.D.: > ; B M x x f g   X o m ,.1.6.i.n.lXHXFX1XyXSXIXUXUX",
"UXUXUXPX.X$ * A.D.: > ; B M k l f g     . o ;.3.3.s.V.xXGXFX1XtXSXIXUXUX",
"UXUXUXPXOX$ Z.A.D.G.> , B M z k f g     X o ;.;.3.b.3XmXKXFX1XtXSXIXUXUX",
"UXUXIXPX*XO * A.D.K.r , B N z x f g   X o >.,.4.a.V.iXNXKXFX1XtXSXIXUXUX",
"UXUXIXPXOXO & S.H.K.L.y e B c c c h v m m >.,.p.N.5XcXNXJXHX1XtXSXIXUXUX",
"UXUXUXPX*X$ & Z.D.J.P.Y.s Q R T c c b m :.9.l.N.4XsXmXZXJXSX1XtXSXIXUXUX",
"UXUXUXPX*X$ * A.H.K.P.I.R.~ / ! K K K P k.x.oX7XyXfXMXZXJXFX1XtXSXIXUXUX",
"UXUXUXPX*X$ * A.D.K.P.U.R.!.~.(.).).).].oXOX7XeXpXfXMXZXJXFX4XtXSXIXUXUX",
"UXUXUXPX*X$ * A.H.K.P.U.E.!.^./.`.`.[..X*X6X9XeXyXgXMXZXJXFX1XtXSXIXUXUX",
"UXUXIXPX*X$ * A.H.K.P.U.E.!.^./.`.[.|..X*X6X9XtXpXgXMXZXJXFX1XtXSXIXUXUX",
"UXUXUXPX*X$ * A.H.K.P.U.E.Q.^./.`.[.|..X*X-X9XeXpXdXMXZXJXFX1XyXSXIXUXUX",
"UXUXIXPX*XO Z.A.S.K.P.U.E.Q.^./.`.[.|..X*X6X9XeXpXdXMXZXLXGX1XtXSXIXUXUX",
"UXUXUXPX*X$ * Z.S.J.I.U.E.Q.^./.`.[.|..X6X6X9XeXpXsXbXZXGXZX>XrXSXIXUXUX",
"UXUXUXPX-X7 # & = w w s { ^.!./._.[.|..X.X6X7X0XtXpXaXfXgXyX$X1XGXIXUXUX",
"UXUXUXIXbX}.{ d i u 9 9 p a u p [ ] } | | +.@.#.&.*.XX=X>X>X>XgXPXUXUXUX",
"UXUXUXUXKXdX;X#.} ) 2 1 < < < 1 2 3 4 4 4 ( ( ( ( _ ` -.=.&XyXFXIXUXUXUX"
};
